<?xml version="1.0" standalone="no"?>
<!DOCTYPE svg PUBLIC "-//W3C//DTD SVG 20010904//EN"
 "http://www.w3.org/TR/2001/REC-SVG-20010904/DTD/svg10.dtd">
<svg version="1.0" xmlns="http://www.w3.org/2000/svg"
 width="1920.000000pt" height="1920.000000pt" viewBox="0 0 1920.000000 1920.000000"
 preserveAspectRatio="xMidYMid meet">
<metadata>
Created by potrace 1.16, written by Peter Selinger 2001-2019
</metadata>
<g transform="translate(0.000000,1920.000000) scale(0.100000,-0.100000)"
fill="#831843" stroke="none">
<path d="M13298 18002 c-10 -2 -18 -7 -18 -12 0 -5 -8 -7 -17 -4 -15 5 -15 4
-3 -5 8 -5 12 -12 10 -13 -3 -2 -17 -12 -32 -21 -36 -23 -35 -37 2 -37 33 0
38 -11 15 -30 -12 -10 -15 -10 -15 1 0 8 -6 5 -15 -7 -14 -18 -14 -18 -15 9 0
18 -5 27 -16 27 -10 0 -14 7 -12 22 4 30 -27 37 -35 8 -3 -11 -1 -18 3 -15 4
3 6 -4 3 -15 -3 -11 -11 -20 -19 -20 -15 0 -34 -30 -34 -54 0 -9 5 -16 11 -16
6 0 9 7 6 15 -4 8 -2 17 2 20 13 8 21 -34 8 -43 -7 -4 -12 -11 -13 -17 -1 -33
-18 -66 -30 -61 -8 3 -14 -1 -14 -9 0 -31 -20 -14 -21 18 0 17 -2 42 -5 55 -2
13 1 22 9 22 6 0 4 5 -5 11 -12 7 -18 22 -18 48 0 50 -19 76 -52 68 -24 -6
-25 -9 -18 -49 5 -23 16 -48 26 -55 16 -12 17 -15 4 -23 -13 -8 -12 -10 4 -10
15 0 16 -3 7 -14 -10 -12 -8 -16 10 -21 17 -6 19 -9 8 -16 -8 -5 -9 -9 -4 -9
14 0 14 -43 1 -52 -6 -4 0 -8 13 -8 19 0 23 -4 19 -24 -3 -16 0 -27 9 -30 9
-4 13 0 11 11 -2 9 3 18 11 21 10 3 12 0 8 -12 -5 -12 4 -22 38 -38 25 -12 45
-28 45 -36 0 -7 5 -10 10 -7 6 4 3 15 -7 30 -10 12 -21 21 -24 19 -9 -5 -39
42 -39 61 0 18 26 20 33 3 2 -8 10 -1 17 15 7 15 19 27 27 27 7 0 13 7 13 15
0 8 -9 15 -20 15 -11 0 -20 5 -20 10 0 6 4 10 10 10 5 0 13 12 16 26 4 14 9
22 13 17 11 -14 41 -14 41 0 0 19 35 28 49 14 8 -8 11 -7 11 5 0 8 7 21 15 28
20 16 19 59 -1 67 -13 5 -13 7 -2 14 11 8 11 10 -1 18 -11 7 -11 10 0 17 7 4
14 3 17 -4 4 -13 22 -17 22 -4 0 12 -34 28 -52 24z"/>
<path d="M10917 17866 c-6 -16 -16 -18 -65 -13 -32 2 -66 0 -76 -5 -26 -15
-48 -74 -41 -111 5 -27 11 -32 36 -33 16 -1 39 -11 50 -22 28 -31 45 -19 41
27 -4 39 -4 39 -43 36 l-39 -4 0 38 c0 38 19 59 41 45 5 -3 9 0 9 5 0 6 7 11
15 11 9 0 12 -6 8 -17 -5 -12 -2 -15 10 -10 9 3 17 2 17 -3 0 -6 -4 -10 -10
-10 -5 0 -10 -7 -10 -15 0 -23 19 -18 31 9 9 18 18 23 42 21 17 -1 33 -7 35
-14 5 -16 22 -14 22 3 0 15 10 20 67 31 33 7 56 -11 32 -25 -9 -6 -6 -12 15
-21 19 -9 26 -18 22 -31 -4 -17 1 -19 42 -16 43 3 47 5 50 31 3 25 1 28 -17
22 -12 -4 -21 -2 -21 4 0 6 4 11 9 11 5 0 9 11 9 24 0 23 -5 25 -62 31 -34 4
-94 5 -134 3 -40 -1 -73 1 -75 6 -2 6 -7 2 -10 -8z"/>
<path d="M12109 17841 c12 -8 12 -12 2 -25 -19 -22 3 -77 27 -70 14 5 13 2 -2
-10 -18 -15 -19 -21 -7 -101 7 -47 18 -88 24 -92 5 -3 7 -1 3 5 -3 6 -1 14 5
18 8 5 8 9 -2 14 -6 5 -13 25 -15 47 -1 21 -3 38 -4 38 -1 0 -4 12 -6 28 -3
16 0 27 7 27 6 0 8 -7 5 -15 -3 -9 1 -18 8 -21 8 -3 13 -13 11 -22 -1 -9 2
-23 8 -30 8 -10 7 -16 -4 -23 -11 -7 -11 -9 4 -9 12 0 17 -8 17 -30 0 -32 16
-41 22 -12 4 19 -13 111 -24 127 -4 6 -3 17 3 25 7 13 9 12 9 -2 0 -10 9 -18
23 -20 14 -2 23 -11 25 -27 2 -14 0 -21 -6 -17 -6 4 -14 1 -18 -5 -4 -8 -3 -9
5 -5 6 4 13 0 17 -11 3 -10 10 -26 15 -36 6 -10 7 -27 4 -38 -4 -11 -2 -19 5
-19 6 0 9 -4 6 -9 -7 -11 -46 -2 -46 10 0 5 -6 6 -13 3 -10 -4 -16 -49 -7 -49
1 0 4 -11 6 -25 5 -27 23 -42 38 -33 5 4 1 10 -10 14 -13 5 -15 8 -4 9 8 1 23
3 33 5 10 2 17 -3 18 -13 1 -10 4 -7 9 8 6 19 8 21 9 6 1 -24 10 -16 16 15 3
13 -2 33 -10 46 -8 12 -12 29 -9 37 3 8 0 16 -8 19 -7 2 -5 3 4 2 10 -2 21 1
24 7 3 5 11 2 18 -8 10 -13 15 -14 21 -4 4 7 2 16 -5 20 -9 6 -7 13 7 27 17
17 18 23 7 38 -7 10 -11 22 -8 26 3 5 1 9 -4 9 -6 0 -10 -16 -10 -36 0 -19 -3
-38 -6 -41 -3 -4 -6 1 -6 9 0 9 -7 18 -15 22 -16 6 -17 56 -2 56 5 0 4 7 -3
15 -20 24 -31 7 -30 -44 3 -74 1 -79 -16 -56 -9 12 -12 30 -8 47 4 20 1 30
-10 34 -8 3 -12 13 -9 22 4 13 3 14 -5 4 -15 -22 -52 6 -52 40 0 40 -9 56 -29
51 -12 -3 -20 2 -24 16 -3 12 -13 21 -24 21 -14 0 -15 -2 -4 -9z"/>
<path d="M11595 17783 c-28 -7 -43 -23 -22 -23 19 0 20 -5 7 -35 -5 -11 -9
-14 -9 -7 -1 6 -8 12 -16 12 -11 0 -14 -7 -11 -24 2 -14 -2 -33 -10 -43 -14
-17 -15 -16 -11 10 2 15 0 27 -4 27 -5 0 -9 9 -9 21 0 22 -22 49 -39 49 -6 0
-19 -4 -29 -9 -9 -5 -25 -12 -35 -15 -10 -3 -16 -10 -12 -15 3 -5 1 -13 -5
-16 -8 -5 -7 -11 1 -21 9 -11 8 -14 -5 -14 -18 0 -22 -25 -6 -35 6 -3 10 -1
10 6 0 7 2 10 5 7 3 -3 2 -19 -1 -37 -5 -23 -9 -29 -15 -19 -6 9 -9 9 -9 1 0
-7 9 -17 20 -23 17 -9 20 -8 20 11 0 12 3 19 6 16 14 -13 44 35 38 60 -4 16 0
31 12 45 19 21 19 21 -3 9 -13 -6 -23 -16 -23 -22 0 -6 -4 -7 -10 -4 -18 11
-12 43 8 40 9 -1 22 2 29 7 13 10 15 3 28 -75 4 -24 11 -37 18 -34 7 2 20 0
29 -5 14 -6 16 -5 12 7 -4 8 -1 15 5 15 6 0 11 12 12 28 l1 27 7 -25 c6 -22 8
-23 14 -7 4 11 5 23 2 28 -4 5 1 6 9 3 11 -4 19 3 26 21 13 34 13 35 -6 35
-10 0 -14 6 -10 15 3 8 4 14 3 14 -1 -1 -11 -3 -22 -6z"/>
<path d="M11240 17696 c0 -44 4 -58 21 -69 20 -14 20 -16 2 -26 -16 -9 -16
-10 -1 -11 11 0 15 -5 12 -14 -3 -7 1 -16 8 -19 9 -3 13 -19 11 -46 -1 -23 3
-41 8 -41 6 0 9 -12 7 -27 -1 -17 2 -27 8 -26 7 1 10 -10 8 -26 -2 -18 3 -34
13 -43 12 -9 14 -9 9 -1 -5 9 -2 11 8 7 9 -3 16 -13 16 -21 0 -8 4 -12 9 -8 5
3 12 -3 15 -12 4 -13 1 48 -3 75 -1 2 -5 1 -10 -2 -8 -5 -31 35 -31 54 0 6 8
10 18 10 10 0 13 3 7 8 -6 4 -18 23 -28 42 -9 19 -17 28 -18 20 0 -8 -5 1 -10
20 -4 19 -6 72 -5 117 2 46 0 81 -4 78 -5 -3 -11 -1 -15 5 -3 5 -17 10 -31 10
-22 0 -24 -3 -24 -54z"/>
<path d="M10768 17619 c6 -7 12 -32 12 -56 0 -24 5 -43 11 -43 6 0 8 -17 6
-42 -3 -27 0 -47 9 -56 19 -18 18 -42 -1 -42 -12 0 -13 -5 -7 -17 5 -10 7 -24
5 -31 -3 -7 -2 -20 2 -30 4 -9 8 -45 11 -80 2 -34 11 -101 19 -148 8 -48 15
-91 15 -95 0 -5 7 -9 15 -9 17 0 21 -26 4 -32 -8 -3 -8 -24 0 -78 6 -41 13
-109 16 -150 3 -41 10 -106 16 -145 5 -38 12 -97 15 -130 3 -33 9 -69 14 -80
13 -32 18 -75 9 -81 -5 -3 -9 -14 -9 -26 0 -17 4 -19 26 -14 19 5 25 3 21 -6
-2 -7 -12 -12 -21 -12 -15 2 -17 -10 -15 -110 0 -61 5 -129 9 -151 16 -75 29
-419 30 -734 l0 -234 -123 -121 c-103 -100 -126 -129 -136 -166 -21 -74 -30
-90 -48 -90 -25 0 -109 -58 -168 -117 -64 -63 -135 -145 -135 -155 0 -4 -4 -8
-9 -8 -6 0 -16 -12 -23 -27 -9 -18 -22 -28 -37 -29 -100 -5 -243 -64 -279
-115 -28 -39 -62 -111 -62 -130 0 -29 24 -27 43 4 l18 30 15 -22 c22 -30 29
-27 54 24 24 49 60 71 131 80 37 5 39 3 40 -23 2 -95 21 -144 62 -157 9 -4 17
-10 17 -14 0 -5 18 -11 41 -14 22 -3 48 -12 58 -21 10 -9 28 -16 40 -16 18 0
21 4 16 20 -5 16 -2 20 15 20 17 0 19 4 14 25 -8 34 7 31 28 -5 18 -31 11 -44
-16 -34 -11 4 -16 0 -16 -13 0 -21 29 -53 48 -53 6 0 16 -9 22 -20 7 -14 7
-20 0 -20 -17 0 -11 -29 9 -40 28 -14 62 -12 80 5 22 19 101 32 101 15 0 -13
56 -5 78 12 19 16 14 31 -8 25 -17 -4 -19 -1 -15 40 3 24 9 53 15 63 7 13 7
21 -2 26 -6 4 -14 2 -16 -5 -3 -8 -15 -9 -39 -5 -35 7 -36 6 -31 -20 4 -21 2
-25 -11 -21 -38 11 -110 15 -116 5 -3 -5 -14 -10 -23 -10 -14 0 -13 2 3 13 12
10 16 22 13 41 -3 14 -1 29 3 32 16 9 9 24 -10 24 -26 0 -32 12 -25 49 5 21
12 31 25 31 11 0 19 5 19 10 0 13 -37 13 -42 0 -6 -18 -68 1 -80 24 -6 11 -26
36 -44 53 -35 34 -36 49 -6 84 13 15 17 15 29 4 7 -8 13 -18 13 -23 0 -5 11
-13 25 -16 14 -4 25 -12 25 -19 0 -7 10 -14 22 -14 18 -2 19 0 8 7 -12 7 -12
12 -2 22 10 10 14 10 21 -1 5 -8 16 -11 25 -8 12 5 16 0 16 -16 0 -17 -6 -22
-29 -23 -29 -1 -69 -29 -57 -41 3 -3 20 -7 37 -8 21 -2 27 0 18 6 -7 4 -10 11
-6 15 4 4 21 -3 38 -15 16 -12 46 -25 64 -28 22 -3 37 -13 40 -24 6 -18 45
-28 45 -11 -1 16 -29 44 -39 38 -6 -4 -16 2 -23 14 -7 11 -21 20 -32 20 -11 0
-16 3 -13 6 3 4 31 6 61 5 42 -1 55 3 58 15 3 13 5 13 23 -1 14 -12 16 -18 7
-22 -7 -2 -20 -12 -28 -21 -15 -15 -15 -17 5 -26 11 -5 21 -15 21 -23 0 -7 5
-13 10 -13 12 0 1 -53 -12 -58 -4 -2 -8 -10 -8 -17 0 -9 10 -12 30 -10 24 3
30 0 30 -14 0 -25 30 -35 48 -18 10 11 12 27 7 61 -6 38 -13 50 -33 59 l-25
12 24 6 c13 3 33 0 44 -8 11 -7 27 -13 36 -13 9 0 20 -7 23 -16 9 -24 7 -31
-4 -14 -8 12 -10 9 -10 -11 0 -15 10 -39 22 -54 15 -20 18 -30 10 -33 -12 -4
-17 -32 -6 -32 3 0 12 7 21 15 14 14 17 14 33 0 10 -9 16 -24 13 -36 -7 -25
12 -24 37 1 11 11 32 20 46 20 25 0 26 2 20 35 -6 31 -4 35 14 35 11 0 20 -7
20 -15 0 -8 4 -15 9 -15 5 0 4 -11 -2 -25 -7 -14 -18 -25 -26 -25 -8 0 -11 -6
-7 -15 3 -8 1 -15 -5 -15 -5 0 -7 -11 -5 -25 5 -25 -7 -34 -19 -15 -3 5 -20
13 -38 19 -18 5 -40 12 -49 16 -23 9 -24 -17 -2 -35 8 -8 20 -23 26 -34 9 -17
8 -19 -3 -8 -7 6 -19 12 -26 12 -21 0 12 -57 37 -65 11 -3 20 -11 20 -16 0
-18 62 -47 116 -54 45 -5 63 -3 98 15 43 20 81 62 74 80 -3 10 -25 -1 -73 -35
-35 -24 -136 -28 -159 -5 -14 13 -6 15 69 11 l84 -3 18 36 c9 20 20 36 25 36
4 0 22 16 39 35 33 36 54 38 44 4 -8 -23 -1 -24 34 -3 24 14 28 23 29 61 0 37
-4 46 -19 50 -46 12 -5 73 49 73 37 0 45 10 33 44 -8 18 -16 24 -35 22 -14 -1
-31 -8 -39 -14 -14 -12 -48 -7 -46 7 2 20 28 73 28 59 1 -22 16 -31 41 -23 27
9 25 23 -4 31 -36 9 -24 42 14 36 23 -3 31 1 44 24 11 20 15 24 16 12 0 -10 7
-18 15 -18 8 0 15 -4 15 -10 0 -5 7 -10 15 -10 8 0 15 -6 15 -14 0 -7 -7 -19
-15 -26 -17 -14 -20 -30 -6 -30 17 0 42 32 48 61 3 16 9 32 14 35 5 3 6 -2 3
-10 -9 -22 9 -20 31 4 10 11 20 18 23 16 2 -3 -10 -20 -28 -38 -29 -29 -31
-33 -14 -39 17 -7 17 -8 -3 -8 -16 -1 -23 -7 -23 -21 0 -18 3 -19 21 -9 19 10
20 8 14 -10 -5 -17 -2 -21 14 -21 11 0 27 7 36 16 17 17 51 11 39 -7 -4 -8 -9
-7 -15 2 -8 13 -13 5 -10 -13 0 -5 -12 -8 -29 -8 -29 0 -29 -1 -13 -20 10 -11
23 -20 29 -20 6 0 14 -9 17 -21 4 -16 3 -18 -8 -9 -16 13 -67 10 -72 -5 -3
-11 44 -43 82 -57 11 -4 -6 -5 -37 -3 -32 3 -58 3 -58 0 0 -2 12 -11 28 -19
15 -8 21 -15 13 -16 -11 0 -10 -5 4 -20 22 -24 70 -28 61 -5 -3 8 -2 15 3 15
16 0 33 -30 28 -49 -10 -38 55 -72 170 -90 98 -15 146 7 108 49 -13 14 -31 20
-62 20 -40 0 -42 1 -31 19 6 10 17 17 24 14 6 -2 21 7 32 21 17 22 21 24 32
11 28 -33 59 -1 60 61 0 22 3 44 7 48 16 15 32 80 22 87 -6 3 -1 9 10 12 17 4
21 13 21 50 0 51 -18 72 -54 63 -24 -6 -27 -27 -11 -68 5 -13 2 -18 -9 -18 -9
0 -16 -8 -17 -17 0 -14 -3 -13 -11 5 -13 27 -35 29 -43 3 -3 -11 -12 -22 -20
-25 -8 -3 -15 -13 -15 -22 0 -16 -2 -16 -20 1 -26 24 -25 34 3 44 31 12 61 74
52 108 -5 20 -11 24 -30 20 -21 -4 -25 0 -31 30 -4 19 -15 40 -25 46 -11 7
-19 17 -19 23 0 6 -9 19 -21 30 -12 10 -30 36 -40 56 -15 29 -23 36 -41 33
-17 -4 -31 5 -54 32 -30 35 -32 36 -62 24 -26 -11 -35 -11 -47 -1 -8 7 -25 10
-38 7 -19 -5 -24 -1 -34 31 -8 24 -8 39 -1 43 9 6 92 -6 108 -16 4 -2 13 9 20
26 18 44 0 58 -86 66 -38 3 -76 9 -85 14 -9 5 -22 29 -28 55 -15 58 -44 102
-101 149 -23 19 -23 19 -16 1 4 -12 2 -23 -6 -28 -21 -12 -28 -9 -28 12 0 11
-11 27 -25 36 -14 9 -25 22 -25 29 0 37 -136 89 -232 88 l-48 -1 -2 92 c-1 50
-2 123 -4 161 -1 39 -4 157 -7 263 -5 162 -8 197 -22 212 -9 10 -14 24 -10 29
3 6 0 11 -9 11 -8 0 -16 -5 -18 -11 -2 -6 -12 -7 -28 -1 -24 9 -24 9 -4 20 12
6 31 8 43 5 21 -5 23 -3 16 25 -6 30 -6 31 27 28 18 -2 26 -2 17 1 -11 3 -15
12 -11 29 2 13 -1 31 -8 39 -7 8 -10 22 -6 30 3 9 2 13 -4 10 -6 -3 -10 1 -10
10 0 28 38 -2 45 -36 5 -22 10 -28 18 -20 6 6 16 11 22 11 5 0 3 -5 -5 -11
-12 -9 -12 -10 -1 -7 24 7 23 24 -4 56 -22 27 -24 34 -14 53 9 17 13 19 20 8
10 -17 22 -6 17 15 -3 14 -6 14 -31 1 -20 -10 -27 -11 -25 -2 4 23 -13 56 -33
62 -10 4 -19 13 -19 21 0 12 -4 12 -20 4 -24 -13 -50 -2 -29 11 10 6 10 9 2 9
-20 0 -10 66 19 127 14 28 30 20 22 -11 -4 -16 0 -25 11 -30 13 -5 15 -13 10
-38 -4 -18 -8 -37 -9 -42 0 -5 12 -11 29 -13 16 -2 35 -9 42 -15 10 -8 13 -6
13 6 0 10 -4 14 -10 11 -13 -8 -13 15 0 35 6 10 10 11 10 3 0 -7 8 -13 18 -13
13 0 14 2 3 9 -8 5 -10 14 -6 21 6 9 4 11 -5 5 -8 -5 -11 -3 -9 4 6 18 22 15
34 -5 20 -37 29 -40 51 -17 13 13 18 26 13 34 -4 7 -5 17 -3 21 3 4 -2 8 -11
8 -12 0 -15 -6 -10 -20 3 -11 2 -20 -3 -20 -14 0 -23 28 -11 35 5 4 8 14 7 23
-2 14 8 18 52 22 43 4 56 9 58 24 2 11 0 16 -6 12 -6 -3 -13 -2 -16 3 -10 15
-66 10 -66 -6 0 -7 -4 -13 -10 -13 -5 0 -10 5 -10 11 0 6 -6 9 -12 6 -7 -2
-12 -9 -11 -15 1 -5 -4 -13 -12 -16 -8 -3 -15 -1 -15 5 0 6 -4 8 -9 4 -5 -3
-12 -1 -15 4 -4 5 3 12 14 16 11 3 20 11 20 17 0 5 7 8 15 4 8 -3 15 -1 15 5
0 6 5 7 12 3 6 -4 17 1 25 11 7 11 13 14 13 7 0 -8 7 -9 26 -2 14 6 29 8 34 5
5 -3 11 -1 15 5 3 5 17 10 30 10 13 0 27 5 31 11 5 9 -14 10 -70 6 -42 -4 -81
-9 -87 -12 -5 -4 -42 -9 -82 -12 -130 -9 -132 -9 -129 6 2 8 -3 11 -12 8 -14
-5 -46 21 -46 38 0 4 -6 13 -14 19 -10 7 -13 21 -9 39 4 21 8 25 18 17 11 -9
12 -7 8 9 -4 16 0 21 13 22 11 0 14 3 7 6 -21 8 -15 26 7 20 17 -4 20 0 20 32
0 51 -18 101 -47 128 -14 13 -23 34 -23 51 0 29 1 29 45 25 57 -7 81 1 63 21
-8 9 -17 11 -25 5 -7 -7 -13 -5 -16 3 -4 10 -9 9 -20 -5 -14 -17 -17 -15 -47
23 -18 23 -30 44 -27 47 4 3 22 -2 41 -11 19 -9 47 -16 63 -16 34 0 60 14 44
24 -20 13 -12 28 12 22 21 -5 23 -3 19 24 -2 16 -8 28 -12 25 -14 -9 -22 15
-11 29 6 7 8 21 5 31 -6 15 -4 16 14 6 11 -6 22 -16 24 -22 3 -8 11 -6 26 7
30 25 28 31 -10 28 -43 -3 -82 21 -75 47 3 10 0 19 -5 19 -11 0 -6 71 7 103 5
12 2 17 -9 17 -20 0 -21 14 -1 30 10 9 15 9 15 1 0 -6 5 -11 10 -11 6 0 9 3 9
8 -3 19 2 25 11 12 7 -11 12 -12 18 -4 11 19 71 21 82 4 8 -12 10 -10 10 8 0
19 5 23 25 20 13 -2 25 2 27 7 4 14 -68 14 -207 0 -66 -7 -121 -8 -123 -4 -2
5 -10 9 -18 9 -16 0 -19 -46 -3 -55 6 -4 8 -13 6 -19 -4 -9 9 -11 49 -8 58 5
63 2 38 -22 -8 -9 -11 -16 -6 -16 5 0 10 -11 10 -25 0 -15 -6 -25 -14 -25 -10
0 -8 -6 6 -20 12 -12 18 -25 15 -30 -4 -6 -2 -10 3 -10 5 0 8 21 6 48 -3 35
-2 42 5 27 13 -27 13 -92 1 -100 -6 -4 -17 -2 -24 4 -7 6 -15 8 -18 5 -10 -9
-19 84 -12 122 5 28 4 35 -5 29 -19 -11 -29 -47 -21 -76 4 -15 4 -32 0 -39
-11 -18 -45 -7 -44 13 1 10 -9 29 -22 42 -27 27 -30 52 -10 81 15 21 10 78 -5
68 -18 -11 -28 6 -19 31 6 15 6 27 0 30 -6 4 -10 19 -10 36 0 25 4 29 26 29
34 0 29 30 -10 48 -22 11 -27 19 -23 38 3 17 0 24 -11 24 -11 0 -13 8 -9 34 6
36 -1 47 -38 60 -16 6 -18 5 -7 -5z m-359 -3391 c12 -7 21 -18 21 -25 0 -6 6
-13 13 -16 8 -2 12 -28 11 -83 0 -78 -16 -130 -35 -119 -14 9 -11 37 8 57 23
26 24 57 1 69 -10 5 -18 16 -18 23 0 8 -6 16 -14 19 -19 7 -51 -41 -47 -70 1
-11 -2 -24 -8 -27 -11 -7 22 -46 39 -46 6 0 10 -9 10 -20 0 -11 -5 -20 -11
-20 -17 0 -41 29 -36 44 4 10 0 12 -15 8 -14 -3 -19 -1 -15 6 4 5 2 12 -5 14
-9 3 -8 21 5 75 21 87 21 103 2 103 -8 0 -15 4 -15 8 0 14 88 14 109 0z"/>
<path d="M12790 17480 c0 -16 5 -30 10 -30 6 0 10 -4 10 -10 0 -5 -7 -10 -16
-10 -13 0 -14 -3 -4 -15 7 -8 10 -26 8 -40 -3 -14 -1 -28 4 -31 4 -3 7 -2 6 3
-1 4 1 24 5 43 8 34 8 34 23 15 9 -11 20 -28 26 -38 8 -16 7 -18 -12 -12 -16
5 -26 1 -38 -17 -9 -12 -17 -27 -17 -33 -1 -5 -5 -18 -10 -29 -6 -14 -2 -23
15 -36 14 -11 21 -23 17 -33 -3 -9 1 -21 9 -27 12 -11 14 -6 14 28 0 23 -4 44
-10 47 -5 3 -10 11 -10 17 0 6 3 8 7 5 3 -4 12 -2 20 4 10 9 13 8 13 0 0 -7 7
-20 16 -29 15 -15 16 -14 9 6 -3 13 -2 28 3 35 16 20 -3 116 -24 124 -29 11
-14 33 21 33 30 0 35 3 34 23 0 12 -3 17 -5 11 -6 -15 -56 -9 -94 11 l-30 16
0 -31z"/>
<path d="M12643 17453 c-7 -2 -13 -14 -13 -26 0 -42 30 -132 47 -146 13 -9 14
-15 6 -18 -7 -3 -13 -12 -13 -20 0 -12 3 -13 13 -4 21 17 29 0 10 -21 -15 -17
-15 -18 7 -18 16 0 20 -4 16 -15 -3 -8 -1 -15 4 -15 5 0 7 -7 3 -16 -3 -9 0
-20 8 -25 12 -8 11 -12 -4 -23 -18 -14 -17 -15 4 -18 17 -2 23 -10 24 -28 0
-14 4 -31 9 -38 5 -9 1 -15 -13 -19 -18 -5 -19 -8 -9 -21 11 -13 10 -15 -5 -9
-10 4 -21 7 -23 7 -2 0 -4 6 -4 13 0 7 -9 13 -20 13 -14 0 -19 -5 -15 -16 3
-9 0 -8 -10 4 -12 16 -17 17 -32 5 -10 -7 -19 -14 -21 -15 -10 -6 22 -45 36
-43 36 3 62 -1 62 -12 0 -5 -4 -7 -10 -4 -5 3 -10 1 -10 -4 0 -13 2 -13 35 -1
14 5 24 13 22 18 -3 4 3 23 12 43 10 20 16 44 15 55 -3 18 -2 18 11 1 7 -11
11 -25 8 -32 -3 -9 2 -13 16 -12 12 1 21 7 21 14 0 7 18 16 40 19 22 4 40 11
40 17 0 6 -3 7 -7 4 -3 -4 -11 3 -17 16 -13 25 -38 29 -47 7 -4 -11 -10 -7
-22 17 -16 30 -16 32 1 37 14 4 13 5 -3 4 -37 -1 -42 2 -53 27 -15 32 -15 45
-2 45 6 0 10 -9 10 -20 0 -11 5 -20 10 -20 15 0 12 15 -10 43 -11 14 -16 27
-10 29 7 2 5 29 -6 78 -22 106 -22 105 -39 90 -12 -10 -15 -9 -15 8 0 11 -7
28 -16 36 -16 17 -21 18 -41 9z"/>
<path d="M11890 17385 c0 -14 5 -25 12 -25 6 0 8 -3 4 -7 -4 -5 -13 -8 -19 -8
-7 0 -12 -15 -12 -35 0 -25 -5 -36 -17 -38 -13 -3 -18 3 -18 20 -1 26 -42 61
-68 56 -14 -3 -16 -13 -14 -53 4 -76 22 -135 38 -128 8 3 14 0 14 -6 0 -6 -7
-11 -16 -11 -11 0 -14 -8 -12 -32 2 -18 9 -34 16 -34 6 -1 16 -2 22 -3 5 0 8
-11 6 -23 -2 -13 1 -32 7 -42 7 -15 6 -22 -7 -31 -15 -11 -15 -13 4 -18 11 -3
20 -13 20 -24 0 -10 5 -25 10 -33 8 -12 13 -13 30 -2 11 7 20 8 20 3 0 -5 11
-4 25 2 14 7 23 18 20 24 -2 7 4 17 13 22 14 9 12 10 -11 11 -19 0 -26 -4 -21
-12 5 -8 2 -9 -10 -5 -10 4 -20 7 -22 7 -3 0 -2 5 1 10 3 6 -3 10 -15 10 -26
0 -37 26 -22 51 6 10 8 20 3 23 -4 3 -8 19 -9 36 0 16 -4 35 -9 42 -4 7 -9 32
-10 56 -3 37 -1 43 14 40 13 -3 17 -12 16 -31 -1 -15 3 -27 8 -27 6 0 7 -5 4
-11 -4 -6 -14 -8 -22 -4 -13 4 -14 3 -3 -10 7 -8 19 -15 26 -15 8 0 14 -7 14
-15 0 -8 4 -15 9 -15 5 0 11 7 15 15 3 8 1 15 -3 15 -5 0 -5 16 -1 34 4 19 5
37 2 40 -3 4 0 6 7 6 8 0 11 -8 8 -19 -3 -13 1 -21 12 -24 14 -4 14 -5 0 -6
-13 -1 -14 -10 -7 -63 9 -66 34 -112 33 -62 0 15 5 29 11 31 6 2 9 -7 7 -24
-3 -21 1 -31 19 -42 23 -14 23 -14 5 7 -10 11 -14 23 -9 26 5 3 7 19 4 37 -3
18 -1 29 4 26 18 -11 39 19 40 56 0 20 -3 37 -8 37 -4 0 -8 -11 -8 -25 0 -22
-4 -25 -36 -25 -33 0 -36 2 -29 23 10 33 8 59 -7 69 -10 6 -10 10 2 17 8 5 17
8 22 5 4 -2 12 5 18 16 6 11 7 20 3 20 -4 0 -1 5 7 10 13 8 13 10 -2 10 -11 0
-18 -10 -20 -27 -3 -24 -5 -25 -18 -12 -8 9 -22 13 -30 11 -12 -4 -13 -3 -2
10 10 13 10 17 -3 21 -8 4 -12 13 -9 22 4 9 9 13 12 11 3 -3 11 -1 19 5 10 9
13 8 13 -2 0 -15 52 -20 66 -6 4 4 0 7 -9 7 -11 0 -14 5 -10 17 4 11 3 14 -5
9 -7 -4 -12 -2 -12 4 0 8 -6 8 -20 0 -17 -9 -20 -8 -20 12 0 18 -2 20 -10 8
-8 -12 -13 -13 -30 -2 -30 18 -40 15 -40 -13z"/>
<path d="M13270 17034 c0 -11 28 -33 34 -27 15 15 17 -32 3 -57 -9 -15 -13
-30 -10 -34 12 -12 10 -46 -4 -58 -19 -15 -33 5 -33 50 0 28 -3 32 -27 31 -25
0 -26 -1 -8 -9 13 -6 15 -9 5 -9 -13 -1 -13 -2 0 -11 13 -9 13 -11 0 -20 -10
-6 -11 -10 -2 -10 6 0 12 -6 12 -14 0 -8 -6 -17 -12 -19 -8 -4 -7 -6 3 -6 21
-1 34 -71 16 -83 -8 -5 -6 -8 6 -8 17 0 18 -7 15 -59 -1 -33 1 -57 5 -54 5 3
7 -16 5 -42 -3 -45 -1 -48 21 -50 14 -1 27 -7 29 -13 5 -15 32 -16 32 -1 0 5
-4 7 -10 4 -5 -3 -10 -2 -10 3 0 15 28 22 34 9 2 -7 5 0 5 16 1 21 -4 27 -20
27 -25 0 -84 61 -68 71 8 5 8 8 0 13 -6 4 -11 22 -11 39 l1 32 14 -25 c10 -18
14 -20 15 -8 0 9 -9 23 -20 31 -14 10 -19 22 -16 38 3 13 5 27 5 32 1 4 10 7
20 7 14 0 18 -5 14 -19 -3 -10 0 -22 6 -25 6 -4 11 -18 11 -32 0 -14 6 -24 14
-24 22 0 28 17 9 24 -15 6 -15 9 -3 16 8 5 14 23 13 44 -1 29 2 34 19 33 17
-1 19 -8 16 -47 -2 -28 1 -49 9 -55 7 -5 13 -27 15 -47 2 -29 5 -35 15 -26 7
5 10 15 6 21 -4 6 -1 7 7 2 8 -5 11 -3 8 6 -3 8 -11 13 -17 12 -6 -2 -11 2
-11 7 0 6 6 10 13 10 8 0 7 4 -3 10 -8 5 -10 10 -4 10 7 0 14 11 16 24 3 17 1
23 -8 19 -18 -7 -11 61 10 93 15 22 15 27 1 47 -8 12 -19 21 -22 19 -4 -2 -9
1 -11 7 -2 6 6 11 17 11 12 0 21 -4 21 -9 0 -16 40 -20 54 -5 16 15 10 53 -10
61 -7 2 -22 0 -33 -7 -18 -9 -21 -8 -21 7 0 15 -2 16 -11 3 -8 -12 -12 -12
-16 -2 -4 10 -8 10 -19 1 -8 -6 -14 -7 -14 -2 0 5 -10 9 -22 10 -11 1 -24 7
-28 14 -6 8 -9 8 -14 0 -5 -8 -13 -8 -26 -1 -21 11 -30 13 -30 4z"/>
<path d="M12312 16928 c-18 -22 2 -136 29 -164 19 -20 20 -24 6 -24 -9 0 -17
-6 -17 -14 0 -10 7 -12 23 -8 21 5 22 5 4 -15 -17 -20 -17 -21 1 -25 10 -3 19
-11 19 -19 0 -8 3 -29 7 -46 6 -28 5 -33 -11 -34 -13 -1 -11 -3 6 -8 18 -5 25
-15 28 -36 4 -36 40 -70 58 -55 6 5 15 6 20 2 4 -4 6 2 3 14 -4 15 0 20 15 20
28 -1 31 16 7 41 -17 19 -18 24 -5 37 9 8 12 22 8 32 -5 13 -3 16 10 11 17 -6
23 4 10 17 -14 14 -12 77 3 83 7 3 14 12 14 20 0 9 -6 13 -15 9 -8 -3 -16 0
-16 7 -8 84 -6 107 10 108 11 0 9 3 -6 9 -13 5 -23 14 -23 20 0 5 -4 10 -10
10 -5 0 -6 -9 -2 -22 4 -13 7 -57 5 -98 -1 -41 -2 -99 -3 -129 0 -30 -3 -51
-7 -48 -3 4 -12 -1 -19 -11 -17 -23 -24 -13 -40 60 -17 81 -17 81 2 74 14 -6
15 -4 4 10 -12 13 -11 17 0 24 8 5 17 7 21 4 14 -8 30 26 27 58 -3 38 -24 40
-21 2 1 -13 -3 -24 -8 -24 -6 0 -8 -4 -4 -9 3 -5 0 -13 -6 -17 -17 -10 -29 16
-29 63 0 43 -13 63 -26 41 -6 -9 -10 -5 -14 12 -7 28 -40 39 -58 18z"/>
<path d="M12686 16893 c-3 -4 -6 -19 -6 -35 0 -22 -5 -28 -21 -28 -18 0 -19
-3 -9 -15 19 -23 3 -75 -23 -76 -17 -1 -18 -2 -4 -6 10 -3 17 -14 17 -29 0
-21 4 -23 33 -20 25 3 34 1 34 -10 0 -8 -4 -14 -9 -14 -4 0 -8 -9 -8 -21 0
-11 4 -17 10 -14 6 4 19 1 28 -6 14 -11 15 -11 5 0 -6 8 -8 24 -4 40 8 30 6
127 -4 188 -7 39 -25 60 -39 46z"/>
<path d="M11448 16820 c-15 -4 -29 -6 -32 -3 -7 8 -5 -34 6 -109 5 -38 13 -68
18 -68 4 0 6 -8 3 -18 -2 -10 3 -56 11 -101 20 -103 20 -111 1 -111 -8 0 -15
-4 -15 -10 0 -5 7 -10 15 -10 8 0 15 -6 15 -12 0 -9 3 -10 8 -2 10 15 54 25
66 14 7 -5 20 -1 35 11 l23 19 -20 34 c-18 30 -18 35 -5 40 24 10 33 7 33 -9
0 -18 12 -19 28 -3 15 15 15 28 1 28 -5 0 -8 -4 -4 -9 3 -5 2 -12 -3 -15 -4
-3 -9 13 -10 35 -2 22 2 39 8 39 5 0 10 -5 10 -10 0 -6 6 -6 13 2 12 10 12 15
0 27 -8 7 -12 20 -9 27 3 8 -1 14 -10 14 -13 0 -14 6 -8 28 4 15 8 42 8 60 1
39 21 42 34 5 9 -25 11 -25 11 -6 1 12 6 34 13 50 6 15 11 31 10 36 -3 10 26
9 33 -2 3 -6 15 -8 26 -6 12 2 34 -2 50 -10 29 -16 44 -9 29 15 -14 23 -62 38
-94 29 -16 -5 -32 -7 -34 -4 -8 8 -29 -20 -25 -32 7 -19 -34 -16 -45 3 -8 14
-10 14 -21 0 -18 -22 -27 -20 -35 7 l-7 22 -9 -21 c-11 -27 -27 -38 -35 -24
-4 6 -11 8 -16 4 -6 -4 -4 -13 6 -24 10 -11 14 -26 11 -38 -4 -12 1 -25 16
-38 12 -10 18 -13 14 -6 -4 6 -2 12 3 12 6 0 11 -9 11 -20 0 -23 -10 -26 -29
-7 -10 10 -11 9 -6 -4 6 -16 -11 -37 -21 -26 -3 2 -11 35 -17 73 l-13 69 -32
-3 c-29 -3 -32 -1 -29 20 2 13 9 23 15 23 6 0 17 6 24 13 13 13 14 13 -24 2z"/>
<path d="M12817 16410 c6 -8 11 -46 12 -85 1 -105 12 -215 22 -221 5 -3 9 -13
9 -22 0 -9 6 -29 14 -43 11 -22 11 -29 -1 -45 -13 -18 -15 -18 -43 -2 -28 16
-30 16 -70 -13 -23 -17 -43 -29 -45 -27 -1 2 -8 13 -14 26 -16 31 -32 18 -27
-23 2 -18 2 -36 -1 -39 -10 -10 -32 15 -26 30 4 10 -3 14 -26 14 -25 0 -31 -4
-31 -21 0 -18 -4 -21 -29 -16 -21 4 -31 2 -35 -9 -8 -20 -26 -8 -26 17 0 20
-23 25 -68 13 -17 -5 -21 -11 -16 -26 5 -17 3 -18 -15 -9 -12 7 -21 16 -21 21
0 13 -33 13 -45 1 -6 -5 -37 -11 -70 -13 -33 -2 -67 -7 -75 -11 -12 -6 -15 0
-16 24 -1 18 -8 36 -18 41 -13 7 -14 13 -5 29 15 29 4 62 -26 76 -23 10 -26 9
-31 -14 -4 -15 -2 -28 6 -33 6 -4 11 -10 11 -14 -3 -20 0 -26 12 -21 6 4 5 1
-4 -7 -9 -7 -19 -23 -23 -36 -4 -12 -10 -22 -14 -23 -55 -6 -116 -2 -124 9 -6
6 -23 12 -39 12 -16 0 -29 5 -29 10 0 11 -43 14 -53 3 -4 -3 -42 -6 -85 -6
-65 0 -81 -3 -90 -17 -9 -15 -7 -19 11 -25 20 -6 18 -8 -13 -16 -19 -5 -59
-10 -87 -11 -44 -3 -53 -6 -53 -22 0 -12 -5 -16 -16 -12 -9 3 -25 -1 -37 -10
-21 -15 -20 -16 23 -9 25 4 60 7 78 7 28 -1 31 2 21 14 -15 18 -13 20 33 27
35 5 38 4 36 -18 -2 -20 -7 -23 -24 -19 -19 5 -22 2 -17 -15 7 -26 38 -28 52
-3 8 14 13 15 30 4 18 -10 21 -10 21 2 0 25 18 27 39 5 13 -15 26 -19 38 -14
10 3 72 9 138 11 66 3 149 9 185 14 36 5 131 12 213 16 81 4 150 10 152 14 3
5 13 6 24 3 11 -3 21 2 24 11 7 17 37 22 37 6 0 -14 27 -12 34 3 3 9 9 7 19
-5 9 -11 28 -18 51 -18 29 0 39 5 46 23 5 12 9 16 9 8 1 -19 31 6 31 25 0 8 9
14 20 14 19 0 20 -1 4 -25 -8 -13 -13 -28 -10 -34 4 -5 54 -7 124 -4 69 3 152
1 202 -6 47 -7 114 -16 150 -21 76 -10 116 -23 230 -73 31 -13 77 -40 104 -61
93 -71 196 -31 196 76 0 47 -31 118 -52 118 -23 0 -31 -16 -20 -37 7 -12 5
-24 -5 -39 -8 -13 -12 -28 -8 -34 9 -14 -17 -71 -30 -67 -5 2 -10 16 -10 31 1
17 -4 25 -12 22 -6 -3 -15 3 -18 13 -3 11 -15 21 -25 24 -11 3 -20 13 -20 22
0 9 -4 13 -10 10 -5 -3 -16 -3 -22 2 -7 4 -20 8 -28 8 -8 0 -16 6 -16 13 -1 6
-2 17 -3 22 -1 7 -7 7 -20 0 -23 -12 -81 -14 -81 -2 0 4 5 13 12 20 9 9 8 12
-4 12 -9 0 -19 9 -23 19 -4 13 -12 18 -22 14 -11 -4 -14 -2 -9 5 10 17 -55 20
-101 6 -17 -5 -23 -2 -23 10 0 13 -12 16 -65 16 -51 0 -63 -3 -59 -14 3 -8 1
-17 -5 -20 -6 -4 -13 5 -17 19 -5 20 -12 25 -38 25 -40 0 -98 21 -120 42 -16
16 -15 18 9 24 13 3 22 11 19 16 -17 27 -21 78 -8 89 15 13 48 4 40 -10 -4 -5
0 -11 6 -14 10 -3 10 -7 -1 -20 -11 -14 -11 -17 0 -17 10 0 11 -2 2 -8 -13 -8
-25 -60 -17 -74 3 -5 12 -4 19 2 10 8 16 7 24 -7 10 -17 10 -16 11 3 0 12 -7
25 -16 28 -14 5 -12 11 11 41 l26 35 -21 36 -22 35 23 -3 c13 -2 35 -10 49
-17 21 -11 23 -11 13 0 -15 15 -17 39 -4 39 5 0 12 -8 14 -17 4 -14 5 -14 6 3
0 12 8 27 16 34 13 11 13 15 3 21 -10 7 -9 9 5 9 20 0 22 13 3 29 -10 9 -17 6
-30 -13 -9 -14 -16 -30 -16 -35 0 -5 -15 -9 -34 -9 -26 0 -33 4 -29 15 3 8 12
12 19 9 7 -3 16 -1 19 4 4 6 0 10 -7 10 -8 0 -22 10 -33 22 l-18 22 -13 -34
c-7 -19 -13 -30 -13 -25 -1 11 -21 -15 -21 -29 0 -4 7 -6 15 -2 11 4 15 -2 15
-24 0 -21 -4 -28 -14 -24 -8 3 -17 12 -20 20 -4 10 -14 12 -37 7 -27 -5 -31
-3 -26 10 3 9 -1 18 -10 21 -14 6 -14 8 3 21 19 15 19 15 0 8 -13 -4 -17 -3
-12 5 3 6 2 13 -4 17 -6 4 -8 10 -5 15 3 5 1 11 -5 15 -5 3 -10 14 -10 24 0
10 -10 26 -22 37 -13 10 -18 12 -11 4z"/>
<path d="M12074 16383 c-28 -5 -37 -55 -15 -78 13 -13 14 -19 2 -37 -11 -18
-11 -20 3 -15 10 4 13 1 9 -9 -3 -8 -2 -14 3 -13 5 1 17 -1 27 -6 15 -6 16
-10 5 -16 -7 -5 -8 -9 -3 -9 6 0 9 -21 8 -50 -3 -40 0 -50 13 -50 8 0 12 -4 9
-10 -3 -5 -2 -10 3 -10 5 0 12 9 15 19 4 15 0 19 -14 16 -24 -5 -24 -3 0 24
l20 23 15 -36 c8 -20 20 -36 27 -36 7 0 8 7 4 18 -4 9 -7 29 -6 45 1 15 -3 27
-9 27 -7 0 -6 6 2 14 7 8 17 11 22 8 5 -3 7 2 3 11 -4 10 0 20 11 26 22 12 12
22 -16 14 -12 -3 -22 -13 -22 -22 0 -28 -12 -33 -27 -11 -12 17 -11 24 3 51
11 23 18 28 24 19 11 -19 32 -2 25 21 -4 13 -2 19 9 19 8 0 18 5 22 12 4 6 3
8 -4 4 -5 -3 -13 0 -15 6 -4 10 -6 10 -6 0 -1 -7 -5 -10 -11 -7 -5 3 -10 -1
-10 -9 0 -9 -9 -16 -20 -16 -29 0 -25 16 10 37 17 9 30 21 30 26 0 5 -7 4 -15
-3 -8 -6 -19 -9 -25 -5 -5 3 -13 0 -16 -9 -5 -12 -10 -12 -37 3 -18 10 -42 16
-53 14z"/>
<path d="M11997 16330 c-9 -11 -13 -20 -8 -20 8 0 24 -63 26 -102 0 -9 4 -20
8 -24 12 -12 8 -24 -9 -24 -8 0 -12 5 -9 10 3 6 2 10 -3 10 -5 0 -8 14 -7 30
1 19 -3 30 -12 30 -7 0 -13 11 -13 24 0 14 -4 28 -10 31 -6 4 -10 -7 -10 -25
0 -43 20 -120 32 -120 5 0 6 -5 3 -10 -5 -9 22 -156 32 -169 1 -2 15 2 31 8
23 10 27 17 27 44 -2 37 -24 77 -43 77 -7 0 -10 5 -7 10 4 6 10 8 15 5 12 -8
22 27 10 39 -5 5 -10 42 -10 81 0 72 -7 115 -19 115 -4 0 -14 -9 -24 -20z"/>
<path d="M9303 14426 c-24 -14 -56 -23 -75 -23 -21 1 -32 -2 -31 -10 5 -24
-37 -33 -179 -38 -79 -3 -190 -7 -248 -9 -136 -5 -270 -26 -270 -42 0 -8 -13
-12 -32 -12 -48 1 -260 -12 -285 -17 -12 -3 -23 1 -25 7 -4 10 -14 9 -45 -1
-37 -12 -68 -14 -162 -10 -23 1 -39 -4 -48 -17 -11 -15 -30 -19 -121 -21 -59
-2 -135 -3 -169 -3 -42 1 -70 -4 -87 -16 -24 -15 -28 -15 -62 1 -47 22 -156
28 -180 10 -13 -9 -23 -10 -31 -3 -7 6 -116 7 -300 4 -158 -3 -306 -5 -328 -5
-22 0 -66 1 -97 0 -90 -1 -125 0 -240 3 -86 3 -108 1 -108 -10 0 -16 -21 -19
-36 -5 -5 6 -66 6 -149 2 -77 -5 -125 -9 -107 -9 20 -1 32 -7 32 -16 0 -9 -8
-12 -26 -8 -14 3 -29 -1 -33 -7 -8 -12 -41 -5 -41 9 0 4 -17 4 -37 0 -96 -20
-114 -20 -108 -1 7 23 -19 45 -42 36 -10 -3 -70 -9 -133 -11 -63 -3 -130 -10
-148 -15 -19 -6 -48 -8 -65 -5 -19 4 -38 1 -53 -8 -20 -14 -24 -13 -50 9 -15
13 -30 23 -33 23 -3 -1 -36 2 -72 6 -101 12 -135 -9 -93 -56 14 -15 15 -20 4
-33 -9 -10 -16 -12 -20 -5 -4 6 -44 -5 -111 -32 -57 -22 -117 -40 -132 -39
-16 1 -57 -12 -92 -29 -34 -16 -76 -30 -92 -30 -16 0 -33 -4 -38 -9 -15 -14
-157 -71 -177 -71 -26 0 -88 -32 -121 -62 -16 -16 -35 -28 -42 -28 -7 0 -15
-6 -18 -14 -3 -7 -23 -16 -44 -19 -46 -8 -113 -57 -241 -177 -75 -71 -98 -87
-109 -79 -16 14 -53 -14 -53 -41 0 -24 -45 -70 -70 -70 -11 0 -20 5 -20 10 0
6 -5 10 -11 10 -6 0 -9 -7 -5 -15 3 -8 1 -15 -4 -15 -13 0 -110 -95 -110 -108
0 -7 -9 -17 -20 -24 -11 -7 -20 -18 -20 -25 0 -6 -9 -14 -19 -18 -24 -7 -71
-68 -71 -92 0 -10 -14 -38 -30 -62 -17 -24 -30 -50 -30 -58 0 -8 -15 -30 -34
-49 -18 -19 -48 -65 -67 -102 -18 -36 -42 -74 -53 -84 -17 -14 -19 -20 -10
-35 9 -14 9 -23 -1 -36 -7 -10 -16 -51 -20 -92 -4 -43 -12 -79 -21 -85 -19
-16 -25 -58 -29 -191 -2 -63 -6 -150 -9 -194 -8 -126 -9 -303 -3 -380 3 -38 9
-101 12 -140 5 -65 32 -175 57 -235 9 -22 18 -54 59 -213 5 -21 21 -61 34 -87
14 -27 25 -55 25 -63 0 -21 79 -178 108 -217 15 -19 32 -44 37 -55 6 -12 25
-23 45 -26 19 -4 27 -7 16 -8 -14 -1 -17 -6 -12 -27 7 -28 56 -94 69 -94 12 0
97 -82 97 -94 0 -6 45 -58 100 -115 83 -86 104 -102 122 -98 18 5 28 -1 46
-28 12 -19 40 -46 62 -60 22 -14 69 -52 106 -85 36 -33 72 -60 80 -60 8 0 14
-9 14 -20 0 -16 7 -20 30 -20 23 0 30 -4 30 -20 0 -11 6 -20 14 -20 19 0 163
-66 171 -79 3 -6 15 -11 26 -11 11 0 22 -6 25 -14 3 -8 19 -19 36 -25 17 -6
66 -31 109 -56 43 -25 85 -45 94 -45 8 0 15 -4 15 -9 0 -5 9 -7 20 -4 13 3 22
-1 26 -12 5 -12 9 -13 14 -5 6 9 10 7 14 -7 11 -36 240 -128 340 -138 27 -3
52 -9 55 -13 3 -5 26 -14 51 -21 25 -7 61 -17 80 -22 19 -6 49 -11 67 -13 17
-1 38 -7 45 -14 8 -7 29 -15 46 -18 18 -4 32 -12 32 -18 0 -6 5 -4 10 4 5 8
10 10 10 3 0 -6 23 -14 50 -18 28 -4 50 -11 50 -16 0 -5 9 -9 19 -9 12 0 21
-9 25 -26 6 -22 10 -25 36 -19 18 4 30 2 30 -3 0 -6 30 -8 80 -5 70 5 80 4 80
-11 0 -19 36 -22 43 -3 3 9 8 8 18 -5 8 -9 34 -19 59 -21 25 -3 58 -8 75 -11
17 -3 33 0 37 7 6 9 11 7 19 -5 12 -22 38 -23 45 -3 5 12 18 13 67 8 34 -3 72
-12 87 -20 31 -16 62 -17 78 -1 8 8 15 8 24 0 8 -6 49 -14 93 -17 44 -3 104
-8 134 -10 30 -3 59 0 66 5 7 6 24 6 46 -1 31 -9 107 -5 151 7 14 4 16 1 11
-12 -6 -15 3 -16 92 -12 73 3 100 8 109 20 16 22 92 27 150 10 35 -10 86 -13
171 -10 107 3 123 5 144 25 13 12 20 26 17 32 -4 7 -1 8 8 5 9 -3 16 -11 16
-16 0 -7 26 -8 74 -4 50 4 77 3 81 -4 7 -11 61 -5 80 10 25 19 89 21 126 5 25
-12 47 -15 66 -10 29 8 188 8 305 1 45 -2 85 -12 123 -31 31 -14 73 -29 93
-32 21 -4 71 -32 125 -71 76 -54 93 -63 108 -54 14 9 17 9 13 -1 -4 -12 32
-48 91 -92 18 -13 18 -14 3 -15 -13 0 -18 -8 -18 -27 0 -14 -11 -46 -25 -69
-14 -24 -24 -49 -23 -56 2 -9 -6 -12 -26 -10 -28 4 -28 3 -21 -35 4 -21 10
-42 15 -48 19 -23 9 -122 -11 -109 -5 3 -22 -4 -38 -15 -16 -12 -37 -20 -48
-19 -18 2 -117 -9 -160 -18 -42 -8 -24 -24 30 -26 40 -1 44 -2 17 -5 -19 -3
-42 -11 -50 -18 -16 -14 -101 -6 -137 13 -19 10 -218 -3 -263 -17 -14 -4 -64
-6 -112 -3 -75 4 -88 2 -88 -11 0 -9 8 -18 18 -20 14 -4 14 -5 -3 -5 -11 -1
-31 5 -45 13 -35 20 -114 19 -135 -1 -13 -13 -21 -14 -38 -6 -12 6 -47 15 -77
20 -63 11 -292 5 -331 -8 -17 -5 -31 -4 -37 2 -7 7 -22 6 -46 -3 -27 -10 -41
-10 -60 -1 -45 20 -245 36 -281 22 -15 -6 -40 -3 -71 6 -54 16 -190 12 -208
-6 -5 -5 -20 -10 -32 -10 -12 0 -24 -5 -26 -12 -4 -10 -14 -9 -45 1 -32 11
-48 11 -74 2 -26 -9 -35 -8 -49 4 -9 8 -27 15 -39 15 -19 0 -23 -4 -19 -25 3
-14 4 -25 3 -25 -2 0 -32 13 -67 30 -71 34 -168 41 -204 16 -14 -11 -22 -12
-33 -3 -9 7 -59 13 -130 14 -64 1 -132 5 -151 8 -22 4 -49 2 -70 -7 -27 -10
-58 -12 -130 -6 -104 9 -237 2 -246 -13 -8 -14 -61 -11 -125 7 -58 16 -136 12
-294 -15 -30 -5 -60 -5 -77 1 -18 6 -38 7 -56 0 -15 -5 -62 -8 -105 -6 -62 3
-79 1 -84 -11 -4 -12 -9 -13 -19 -4 -13 11 -187 3 -209 -9 -5 -3 -28 -6 -50
-7 -25 0 -67 -13 -106 -32 -74 -37 -161 -52 -184 -33 -17 14 -86 8 -174 -17
-31 -8 -78 -19 -105 -24 -26 -4 -64 -13 -83 -20 -19 -6 -49 -8 -68 -5 -39 8
-231 -37 -256 -60 -8 -8 -27 -14 -41 -14 -14 0 -42 -7 -62 -15 -19 -8 -58 -20
-86 -26 -28 -6 -63 -21 -78 -34 -23 -20 -29 -21 -41 -8 -11 13 -16 12 -35 -5
-11 -11 -43 -23 -71 -27 -27 -4 -57 -12 -65 -19 -8 -7 -42 -20 -75 -30 -33
-10 -91 -35 -130 -55 -117 -62 -128 -68 -187 -95 -32 -14 -58 -30 -58 -35 0
-5 -9 -7 -19 -4 -29 7 -82 -13 -137 -52 -26 -19 -51 -32 -56 -29 -9 6 -90 -28
-183 -77 -36 -18 -50 -31 -49 -46 0 -17 -7 -22 -40 -26 -23 -3 -48 -14 -56
-24 -8 -10 -26 -24 -40 -31 -14 -7 -42 -22 -63 -33 -21 -11 -43 -31 -49 -44
-6 -14 -17 -25 -25 -25 -8 0 -35 -19 -61 -43 -26 -23 -63 -50 -82 -59 -48 -22
-148 -103 -210 -171 -29 -32 -58 -57 -66 -57 -8 0 -14 -5 -14 -12 0 -6 -18
-33 -40 -59 -22 -26 -40 -52 -40 -57 0 -5 -9 -17 -20 -27 -11 -10 -20 -23 -20
-28 0 -6 -22 -34 -50 -63 -27 -29 -50 -58 -50 -64 0 -7 -8 -9 -19 -5 -14 4
-21 -2 -31 -26 -10 -24 -10 -33 -1 -38 8 -5 3 -11 -14 -19 -14 -6 -25 -17 -25
-23 0 -6 -18 -27 -40 -48 -22 -21 -40 -46 -40 -58 0 -28 -68 -128 -97 -144
-18 -9 -20 -15 -12 -26 6 -7 8 -13 3 -13 -5 0 -15 -12 -22 -28 -11 -23 -10
-29 3 -39 10 -6 12 -14 6 -17 -5 -4 -15 -23 -22 -44 -7 -20 -27 -70 -46 -110
-18 -39 -33 -81 -33 -92 0 -12 -9 -46 -19 -78 -26 -78 -71 -258 -71 -285 0
-12 -9 -30 -20 -40 -23 -19 -27 -47 -6 -47 9 0 12 -8 8 -25 -2 -14 -10 -25
-18 -25 -17 0 -22 -36 -29 -179 -3 -69 -10 -118 -16 -122 -8 -4 -10 -27 -7
-62 3 -40 1 -58 -8 -61 -9 -3 -13 -29 -13 -82 0 -76 12 -120 29 -109 4 3 3 -8
-2 -23 -8 -20 -8 -45 -1 -78 6 -32 6 -60 0 -79 -7 -19 -6 -34 2 -47 6 -10 11
-36 11 -57 0 -22 4 -42 9 -45 4 -3 11 -34 15 -68 3 -35 15 -88 26 -118 10 -30
20 -73 20 -95 0 -22 9 -59 20 -83 10 -23 22 -76 26 -118 5 -57 11 -78 26 -88
11 -8 26 -39 34 -72 13 -52 30 -98 92 -248 9 -21 27 -45 42 -54 51 -32 81 -92
45 -92 -8 0 -15 7 -15 15 0 9 -10 26 -23 39 -36 36 -124 172 -142 221 -14 36
-21 43 -42 40 -42 -4 -46 -18 -22 -76 12 -30 32 -67 43 -84 12 -16 27 -41 33
-55 12 -30 43 -69 96 -121 20 -21 37 -42 37 -47 0 -20 299 -338 423 -450 20
-18 44 -43 52 -55 8 -13 35 -38 58 -55 41 -29 45 -30 60 -14 16 15 19 13 53
-26 20 -24 60 -58 90 -77 51 -33 80 -66 67 -79 -3 -3 1 -6 10 -6 9 0 16 -6 14
-12 -1 -7 6 -12 16 -12 10 1 42 -27 78 -70 36 -41 86 -86 121 -107 32 -20 69
-46 82 -58 12 -11 28 -21 34 -21 7 0 29 -15 49 -32 36 -31 60 -45 143 -81 19
-9 46 -27 59 -41 13 -14 36 -28 50 -31 28 -6 81 -49 81 -65 0 -5 10 -12 21
-15 12 -4 47 -22 78 -40 31 -18 67 -36 81 -40 14 -4 36 -18 49 -31 13 -13 30
-24 38 -24 8 0 33 -11 56 -24 80 -47 202 -93 264 -100 35 -4 75 -13 90 -21 16
-8 36 -15 46 -15 9 0 17 -4 17 -10 0 -5 8 -10 18 -10 9 0 42 -9 72 -21 119
-45 132 -49 142 -43 5 3 15 0 21 -8 18 -22 162 -78 201 -78 19 0 46 -4 60 -10
14 -5 67 -12 118 -16 61 -4 107 -13 133 -26 22 -11 51 -26 65 -32 14 -7 35
-19 48 -27 18 -11 26 -11 42 -1 26 16 40 15 40 -2 0 -18 22 -26 73 -26 23 -1
60 -8 82 -16 22 -9 70 -20 107 -25 37 -5 82 -18 100 -28 18 -10 74 -26 123
-36 50 -9 99 -21 110 -25 22 -10 182 -30 260 -34 28 -1 59 -7 70 -13 20 -10
153 -30 210 -32 62 -2 222 -20 270 -31 28 -6 68 -10 90 -8 22 1 64 -4 93 -11
29 -7 65 -11 79 -8 15 3 86 1 157 -4 72 -5 176 -12 231 -15 55 -3 127 -10 160
-15 33 -6 249 -13 480 -15 231 -3 438 -6 460 -7 22 0 65 0 95 2 30 2 98 -1
150 -7 52 -6 111 -8 130 -6 42 6 34 6 230 -2 120 -4 168 -3 211 9 43 11 67 12
106 4 27 -6 58 -7 68 -3 17 6 17 7 -1 28 l-19 21 42 -22 c48 -24 168 -29 232
-10 24 7 58 8 106 1 39 -5 76 -7 83 -5 18 8 15 33 -5 34 -10 0 -5 5 12 10 16
4 32 5 35 0 9 -14 113 -22 148 -12 26 8 41 6 67 -6 28 -13 39 -14 60 -5 18 8
32 9 45 2 27 -15 50 -12 50 5 0 14 3 13 25 -1 25 -16 26 -16 175 1 44 5 61 5
145 2 39 -2 40 -1 37 28 -3 23 -1 27 10 18 7 -6 46 -11 87 -12 40 0 79 -5 86
-11 9 -7 55 -9 137 -5 67 4 155 8 195 9 40 2 78 7 85 13 8 6 47 7 103 2 49 -4
106 -5 125 -2 19 2 73 4 119 4 45 -1 87 2 93 5 16 10 98 14 358 17 386 5 380
5 387 23 3 9 0 20 -7 24 -7 4 23 11 70 15 64 6 84 4 91 -6 6 -11 18 -9 61 9
64 26 105 28 138 5 14 -10 44 -17 77 -17 34 -1 57 -6 62 -14 9 -15 14 -15 146
-7 50 3 116 5 147 5 32 0 66 4 76 9 12 6 60 7 132 1 144 -10 220 2 273 43 l38
29 45 -17 c29 -11 57 -15 79 -11 28 6 36 3 45 -14 8 -15 21 -20 51 -20 31 0
40 3 36 14 -6 14 38 26 93 26 20 0 22 -2 10 -10 -8 -5 -30 -10 -48 -10 -23 0
-32 -4 -29 -12 6 -20 145 -18 157 2 9 13 11 13 20 0 8 -13 14 -12 47 5 36 19
39 20 56 3 20 -21 87 -25 87 -5 0 8 14 12 39 12 28 0 38 -4 37 -15 -1 -12 14
-14 89 -12 50 1 120 2 157 3 65 1 67 1 57 21 -9 16 -8 19 3 12 31 -20 75 -29
108 -23 21 5 40 3 48 -3 7 -7 86 -12 200 -13 104 -1 213 -8 245 -15 43 -9 65
-9 83 -1 18 8 42 6 106 -10 74 -19 93 -20 167 -10 62 8 88 8 98 -1 8 -6 66
-12 140 -15 69 -2 132 -8 139 -14 7 -6 33 -7 61 -4 26 3 80 1 118 -5 39 -6
122 -15 185 -19 220 -17 375 -32 415 -41 22 -5 85 -11 140 -15 55 -3 179 -15
275 -25 96 -11 216 -22 265 -24 50 -3 113 -8 140 -11 115 -12 277 -27 370 -35
146 -11 437 -38 620 -57 241 -25 296 -27 306 -11 5 7 21 12 39 10 30 -3 42 11
18 22 -7 3 6 2 28 -1 24 -3 51 0 65 7 20 11 25 10 46 -14 18 -22 35 -28 85
-34 96 -10 184 -8 200 5 18 15 174 19 208 5 62 -24 303 -37 358 -18 31 11 38
18 40 44 4 37 -2 39 -123 46 -119 7 -579 28 -665 30 -114 3 -261 16 -295 26
-16 5 -84 11 -150 14 -66 3 -164 12 -217 20 -53 9 -188 20 -300 26 -112 6
-252 15 -312 21 -61 6 -148 13 -195 15 -48 1 -111 8 -141 13 -95 19 -272 41
-355 46 -44 2 -105 10 -135 16 -30 6 -82 9 -115 6 -32 -3 -66 -2 -75 3 -8 4
-100 10 -203 14 -104 3 -193 8 -198 12 -6 3 -105 8 -222 10 -117 3 -227 10
-245 15 -24 8 -41 8 -63 -1 -22 -10 -32 -10 -43 -1 -8 7 -80 16 -173 21 -87 6
-170 13 -184 16 -15 3 -35 1 -45 -4 -13 -7 -43 -6 -94 3 -89 15 -217 18 -225
4 -4 -5 -23 -9 -44 -9 -31 0 -38 4 -37 17 1 16 -10 18 -84 21 -53 2 -93 -2
-107 -9 -18 -10 -34 -10 -74 -1 -39 9 -55 9 -72 0 -28 -15 -73 -11 -112 10
-27 15 -140 16 -1160 16 -621 0 -1344 -3 -1605 -7 -531 -9 -526 -9 -810 -25
-233 -14 -385 -19 -720 -26 -129 -2 -323 -12 -430 -21 -107 -9 -209 -14 -226
-12 -16 3 -50 1 -75 -3 -120 -23 -1200 -31 -1354 -10 -61 8 -221 15 -550 25
-236 8 -846 54 -878 67 -15 6 -51 8 -80 5 -29 -3 -59 -1 -67 3 -28 16 -300 51
-318 41 -10 -6 -28 -5 -52 4 -32 12 -162 31 -280 41 -68 5 -200 24 -240 34
-19 5 -73 12 -120 15 -46 4 -91 11 -100 15 -26 13 -151 39 -220 45 -36 4 -78
10 -95 15 -31 9 -231 56 -365 85 -41 9 -100 25 -130 35 -30 10 -89 28 -130 39
-41 12 -88 26 -105 32 -16 6 -46 16 -65 21 -44 13 -184 65 -228 84 -18 8 -38
12 -43 9 -5 -4 -22 3 -38 14 -16 12 -43 21 -59 21 -17 0 -33 4 -36 9 -3 4 -33
14 -66 21 -45 10 -60 17 -60 30 0 19 -39 40 -75 40 -14 0 -25 5 -25 10 0 11
-135 80 -156 80 -6 0 -35 17 -65 38 -30 21 -68 44 -86 51 -17 7 -46 24 -64 37
-18 13 -39 24 -47 24 -7 0 -39 20 -70 44 -32 25 -86 58 -122 74 -36 16 -78 41
-95 56 -16 14 -88 69 -160 121 -155 113 -211 157 -318 250 -126 109 -325 318
-397 415 -140 190 -162 221 -186 272 -14 29 -41 78 -59 108 -19 30 -34 61 -35
69 0 7 -12 36 -26 65 -15 28 -35 68 -45 88 -11 20 -19 48 -19 61 0 13 -11 46
-25 73 -14 27 -25 62 -25 78 0 16 -7 37 -16 47 -10 11 -19 49 -24 96 -11 97
-25 179 -38 218 -11 30 -33 323 -35 445 -2 121 13 395 23 435 13 50 39 183 50
251 4 28 15 65 24 82 9 17 16 40 16 50 0 11 7 33 15 48 8 16 15 37 15 47 0 26
67 203 101 266 21 40 26 57 17 62 -9 6 -5 15 14 32 14 14 37 44 50 67 35 65
44 78 60 97 9 10 28 46 43 81 15 34 31 62 35 62 3 0 22 21 41 48 39 54 77 97
137 155 23 22 42 46 42 53 0 7 16 22 35 34 19 12 35 25 35 30 0 13 131 141
190 185 29 22 70 56 90 75 21 19 99 78 175 130 75 52 141 103 146 113 5 9 15
17 22 17 16 0 157 71 179 90 22 20 77 47 109 54 14 3 42 17 63 31 20 14 42 25
48 25 5 0 36 13 67 29 31 16 90 44 131 61 139 58 150 63 150 72 0 4 9 8 20 8
32 0 271 70 311 91 20 10 45 19 55 19 11 0 48 10 84 21 36 11 92 25 125 30 33
5 83 13 110 19 28 5 75 13 105 18 81 14 238 51 290 68 50 16 90 24 165 29 28
2 82 8 120 14 39 6 97 15 130 20 107 17 239 33 269 32 16 0 38 5 49 11 10 5
72 12 136 14 194 6 301 13 313 20 6 4 84 7 172 6 126 -2 172 2 210 14 37 13
54 14 67 6 12 -8 146 -12 421 -12 222 -1 410 0 418 1 8 0 71 -4 140 -11 118
-11 154 -13 183 -9 6 0 82 -4 167 -11 116 -8 753 -23 955 -22 288 2 534 17
685 40 30 5 96 15 145 21 50 7 113 21 140 31 28 10 67 23 87 30 21 6 41 16 44
22 3 5 25 18 48 28 103 45 236 223 236 317 0 42 17 93 30 93 4 0 8 20 8 45 1
38 -2 45 -18 45 -15 0 -20 10 -25 48 -14 110 -17 123 -28 119 -7 -2 -22 10
-35 27 l-22 30 21 8 c36 14 20 43 -24 44 -21 1 -46 8 -55 17 -15 15 -15 18 0
29 9 7 19 23 22 34 6 18 1 24 -25 33 -42 14 -41 14 -34 -9 3 -11 3 -25 0 -30
-10 -16 -35 8 -28 27 8 19 -17 35 -34 21 -9 -7 -20 -4 -40 9 -15 11 -43 25
-60 32 -25 10 -34 21 -39 47 -5 27 -11 34 -29 34 -12 0 -33 8 -46 19 -26 20
-129 29 -129 11 0 -6 -4 -10 -10 -10 -6 0 -6 9 0 26 6 14 10 28 10 30 0 11
-46 -9 -60 -27 -31 -39 -114 -25 -124 21 -4 23 -11 30 -30 30 -13 0 -29 -7
-36 -15 -7 -8 -19 -15 -26 -15 -20 0 -17 -18 4 -23 14 -4 14 -5 -3 -6 -12 -1
-24 8 -30 22 -14 30 -55 36 -62 8 -5 -21 -21 -25 -73 -21 -31 2 -52 20 -25 20
18 0 17 2 -5 23 -22 19 -34 22 -88 19 -49 -3 -66 -8 -75 -23 -17 -27 -25 -24
-29 13 -3 33 -38 56 -38 25 0 -27 -41 -44 -85 -36 -60 12 -85 10 -85 -4 0 -8
-15 -14 -42 -16 -52 -3 -61 -8 -55 -32 4 -16 0 -19 -27 -19 -28 0 -32 3 -34
31 -2 23 2 32 17 36 11 3 21 17 25 36 l7 32 19 -22 c24 -30 42 -29 56 2 11 22
9 26 -19 40 -16 8 -36 15 -43 15 -16 0 -64 -43 -64 -58 0 -6 -5 -14 -11 -17
-14 -9 -70 15 -67 29 3 12 -32 56 -45 56 -5 0 -15 -7 -23 -15 -9 -8 -33 -15
-55 -15 -43 0 -48 -8 -21 -33 23 -21 36 -21 53 -1 12 15 15 14 32 -7 16 -21
17 -24 3 -34 -9 -7 -13 -20 -9 -33 3 -12 1 -22 -5 -22 -6 0 -8 -9 -5 -20 3
-11 1 -20 -5 -20 -21 0 -42 12 -42 25 0 7 -6 18 -14 25 -8 6 -12 18 -9 26 3
10 -4 16 -26 20 -17 4 -31 10 -31 14 0 9 -51 32 -57 26 -3 -2 -20 2 -38 10
-19 8 -51 14 -72 14 -37 0 -37 1 -14 13 33 16 39 37 11 37 -12 0 -35 8 -51 17
-28 16 -29 16 -53 -10 -25 -27 -25 -27 -3 -22 16 4 25 0 33 -18 9 -20 8 -26
-9 -37 -11 -7 -39 -12 -61 -12 -55 2 -79 -7 -72 -24 3 -8 2 -14 -3 -14 -15 0
-21 13 -11 25 6 8 5 18 -5 31 -12 16 -17 17 -34 6 -19 -11 -21 -10 -21 12 0
13 6 27 13 29 9 4 9 6 -1 6 -7 1 -11 5 -8 10 3 5 -6 12 -21 16 -22 5 -31 2
-42 -14 -19 -29 -45 -26 -73 7 -21 26 -29 28 -88 28 -36 -1 -71 -5 -77 -9 -10
-6 -11 0 -6 24 6 31 5 31 -25 25 -24 -6 -33 -3 -46 15 -13 20 -19 21 -41 11
-31 -14 -34 -56 -5 -72 29 -16 25 -34 -11 -47 -37 -14 -60 -6 -35 13 15 11 14
14 -15 28 -18 9 -39 16 -46 16 -8 0 -13 6 -10 13 2 6 14 11 25 9 25 -4 29 10
7 28 -11 9 -12 16 -4 26 13 16 -17 34 -56 34 -21 0 -26 -4 -21 -16 3 -9 -3
-29 -15 -46 -17 -23 -26 -28 -43 -23 -11 4 -32 8 -46 9 -19 2 -24 8 -22 23 2
16 -7 25 -42 39 -29 12 -47 27 -51 41 -4 16 -15 24 -39 29 -39 7 -56 0 -56
-23 0 -10 -6 -14 -20 -10 -22 6 -26 -3 -9 -20 7 -7 6 -12 -5 -16 -11 -4 -17 0
-18 11 0 9 -2 23 -2 30 -1 8 -9 18 -20 24 -14 8 -24 4 -50 -21 -31 -30 -66
-41 -66 -21 0 18 -37 10 -52 -11 l-14 -21 -1 21 c-1 12 2 21 6 21 11 0 10 33
-2 48 -14 18 -71 16 -63 -3 4 -12 2 -13 -14 -3 -27 17 -34 5 -16 -31 20 -38
20 -40 -4 -34 -24 6 -26 -9 -5 -30 10 -10 11 -17 4 -19 -6 -2 -13 -19 -15 -37
-3 -26 0 -34 16 -38 23 -6 23 -5 9 -36 -13 -28 -79 -55 -79 -32 0 7 4 15 9 17
4 2 12 14 16 27 5 18 4 22 -6 16 -9 -6 -10 -3 -5 11 28 68 25 103 -10 104 -13
0 -28 -51 -27 -97 0 -32 -18 -45 -32 -23 -5 8 -11 7 -21 -1 -18 -15 -18 -38 0
-45 28 -11 5 -34 -33 -34 -23 0 -31 3 -23 9 12 7 12 12 0 30 -9 16 -10 24 -2
29 7 4 9 23 5 49 -5 36 -12 46 -40 61 -34 18 -52 42 -33 42 6 0 24 -12 41 -26
28 -23 32 -24 46 -10 14 14 14 18 -1 41 -9 14 -12 25 -6 25 7 0 10 16 9 37 -2
37 -3 38 -51 45 -27 4 -54 12 -59 17 -6 6 -7 11 -3 11 5 0 3 7 -4 15 -15 18
-47 20 -52 4 -3 -9 -10 -9 -26 0 -26 14 -40 8 -51 -22 -8 -20 -9 -20 -22 8 -8
17 -18 28 -23 27 -5 -2 -12 2 -17 9 -5 8 -29 13 -63 13 -47 0 -56 3 -56 18 0
13 -8 18 -25 18 -14 0 -25 -4 -25 -10 0 -5 -13 -10 -30 -10 -36 0 -39 -12 -5
-30 19 -10 45 -54 45 -76 0 -12 -42 -1 -46 11 -8 19 -21 19 -40 1 -16 -17 -19
-30 -4 -21 14 9 12 -33 -2 -49 -9 -10 -20 -11 -36 -5 -13 5 -28 7 -33 3 -5 -3
-9 5 -9 16 0 17 -4 21 -17 16 -16 -5 -15 -4 1 9 21 16 36 12 36 -11 0 -12 4
-12 20 -4 14 8 20 21 20 45 0 19 5 35 10 35 15 0 12 20 -7 38 -16 16 -15 17 3
21 19 3 34 18 34 35 0 4 -9 6 -20 3 -10 -3 -24 1 -30 8 -6 7 -21 16 -33 19
-20 5 -32 24 -51 79 -8 26 -45 21 -56 -8 -10 -27 -30 -32 -59 -13 -10 6 -26 8
-35 5 -19 -7 -22 -43 -4 -49 8 -3 5 -12 -10 -28 -19 -21 -22 -21 -28 -6 -4 10
-2 27 4 39 9 19 10 39 3 80 -2 10 -51 9 -51 -2 0 -5 -3 -17 -7 -27 -5 -13 -3
-16 10 -11 11 4 17 1 17 -8 0 -20 -21 -30 -31 -14 -7 11 -10 9 -15 -8 -9 -33
-26 -16 -19 18 5 23 3 29 -10 29 -12 0 -16 8 -15 28 3 44 1 52 -14 52 -8 0
-21 -6 -28 -12 -20 -19 -38 -20 -31 -2 3 9 0 20 -8 25 -10 6 -10 9 -1 9 19 0
14 61 -8 98 -23 37 -44 43 -38 9 6 -30 -9 -42 -57 -44 -22 -1 -54 -4 -72 -6
-42 -5 -54 20 -22 46 19 15 21 20 8 28 -7 5 -24 8 -37 6 -16 -3 -22 1 -22 14
0 15 -8 19 -40 19 -26 0 -42 -6 -48 -16 -7 -13 -9 -9 -8 15 0 17 4 31 7 31 15
0 18 45 4 53 -8 4 -15 15 -15 24 0 12 -8 14 -35 11 l-35 -4 20 21 c28 30 25
37 -12 30 -30 -5 -35 -2 -57 32 -15 22 -26 33 -29 25 -3 -10 -9 -9 -24 5 -28
25 -98 26 -98 1 0 -10 -4 -18 -8 -18 -14 0 -6 55 9 55 8 0 19 4 26 8 6 4 13 2
15 -5 3 -9 16 -6 42 10 44 26 53 28 36 6 -11 -12 -11 -18 3 -31 14 -14 18 -14
47 7 27 19 30 25 19 34 -8 6 -20 21 -26 33 -11 19 -9 26 12 51 31 36 31 40 3
44 -21 3 -21 4 -4 21 10 10 15 21 11 25 -4 4 -10 1 -12 -5 -3 -7 -20 -13 -38
-13 -20 0 -35 -6 -39 -15 -7 -20 -19 -19 -33 5 -11 17 -10 19 5 14 14 -5 14
-3 -2 7 -15 9 -20 9 -28 -4 -5 -9 -15 -14 -23 -11 -8 4 -15 1 -15 -5 0 -6 5
-11 10 -11 6 0 10 -7 10 -15 0 -8 7 -15 15 -15 17 0 19 -9 7 -28 -10 -16 -42
-5 -42 14 0 8 -4 14 -9 14 -9 0 -5 65 5 81 3 5 0 9 -5 9 -6 0 -11 11 -11 25 0
18 5 25 19 25 13 0 18 6 16 23 -1 12 -3 34 -4 50 -1 24 -5 27 -33 26 -18 0
-27 -3 -21 -6 17 -6 -2 -43 -23 -43 -17 0 -44 23 -44 38 0 6 -6 12 -12 15 -10
3 -10 8 1 21 8 9 12 17 10 19 -2 1 -13 7 -23 13 -23 12 -33 34 -17 34 6 0 11
-6 11 -14 0 -9 8 -12 25 -8 14 2 22 8 19 13 -3 5 -1 9 5 9 6 0 8 7 5 15 -4 8
-17 15 -30 15 -28 0 -33 30 -8 50 13 12 13 16 -9 34 -31 28 -40 53 -20 60 12
5 13 9 3 21 -6 8 -9 23 -6 33 9 27 -21 37 -50 17 -13 -9 -24 -24 -24 -35 0
-23 -17 -25 -43 -6 -22 17 -22 29 1 22 16 -5 18 -1 17 29 -1 34 17 49 29 23 3
-9 8 -8 16 5 6 9 18 17 25 17 9 0 15 10 15 24 0 29 -17 43 -33 27 -16 -16 -37
-14 -31 4 4 8 1 15 -5 15 -7 0 -15 -9 -19 -21 -7 -17 -10 -18 -18 -7 -19 24
-24 48 -10 48 8 0 19 19 25 45 6 25 16 45 22 45 6 0 9 10 7 23 -2 17 -9 22
-30 22 -28 -1 -32 5 -29 37 2 13 -8 19 -38 24 -30 5 -41 11 -41 25 0 9 -8 20
-17 22 -14 4 -13 5 4 6 31 1 48 35 27 55 -21 21 -36 20 -65 -5 -22 -19 -24
-19 -30 -2 -6 17 -8 17 -15 -3 -7 -16 -14 -19 -34 -13 l-25 7 23 7 c12 4 22
14 22 22 0 10 -6 12 -21 8 -20 -7 -21 -5 -14 31 9 51 8 50 55 58 38 6 54 26
30 41 -16 10 -12 45 5 45 8 0 15 7 15 15 0 8 -7 15 -15 15 -9 0 -15 9 -15 21
0 18 -5 21 -32 17 -32 -5 -32 -5 -10 13 26 21 29 61 5 84 -10 11 -13 19 -6 23
6 4 11 33 12 64 0 32 6 68 12 80 7 12 13 31 14 43 1 11 3 24 4 28 0 5 10 5 21
2 11 -3 29 -3 40 0 17 6 20 12 14 41 -4 23 -2 34 5 34 7 0 10 4 7 9 -6 9 36
31 59 31 20 0 19 29 0 36 -14 6 -13 8 1 19 11 8 14 17 8 26 -5 8 -7 21 -6 31
2 9 -2 20 -9 24 -9 5 -11 1 -7 -13 5 -17 0 -22 -24 -25 -38 -6 -45 7 -13 28
14 9 25 25 25 35 0 33 32 88 47 82 10 -4 14 0 12 13 -2 10 11 44 28 74 25 42
34 50 39 37 3 -9 11 -17 16 -17 6 0 8 7 4 15 -3 9 4 25 15 36 11 11 22 30 25
42 2 12 10 27 17 32 7 6 21 24 32 41 12 21 24 30 35 27 12 -3 21 4 28 26 6 17
24 37 42 46 19 10 30 22 27 30 -4 8 1 11 13 8 12 -3 20 2 24 14 3 10 22 28 41
41 20 12 41 34 47 48 6 13 17 23 23 20 6 -2 22 5 36 15 13 10 27 19 32 19 4 0
49 23 100 52 111 63 193 134 176 154 -14 17 13 28 91 39 62 8 83 20 75 44 -4
12 6 19 38 29 23 7 56 19 72 26 17 8 48 19 70 24 110 28 125 34 135 53 8 14
17 18 32 13 22 -7 108 16 167 45 19 9 40 15 47 13 7 -1 38 11 68 28 31 16 56
25 56 20 0 -15 42 -12 91 6 24 9 64 18 89 20 90 7 145 16 156 25 10 8 38 9
164 7 25 0 88 2 140 5 60 3 97 2 101 -5 8 -12 160 -14 404 -3 99 4 191 7 205
6 14 -1 54 -3 90 -5 36 -2 89 -11 119 -19 35 -11 60 -13 71 -7 10 5 20 7 23 3
11 -11 330 -12 350 -1 14 7 22 7 27 -1 7 -13 69 -12 87 1 6 5 14 5 17 -1 4 -6
47 -7 114 -3 111 7 147 7 271 -1 72 -5 76 -4 102 24 26 28 47 39 34 19 -13
-21 79 -10 133 16 48 23 54 28 39 38 -15 11 -14 14 3 28 11 10 27 14 40 11 12
-3 52 -1 88 5 86 14 238 31 327 37 39 2 135 14 215 25 80 12 177 23 215 25 39
3 106 9 150 14 44 6 125 15 180 21 55 6 118 15 140 20 22 5 76 16 120 26 44 9
89 22 100 28 11 5 43 9 70 8 31 -2 57 2 69 11 16 12 17 16 5 36 -13 21 -19 22
-81 16 -47 -5 -68 -4 -68 4 0 15 -30 14 -62 -3 -23 -12 -27 -12 -32 0 -8 20
-25 17 -73 -10z m-3003 -4976 c52 -6 109 -11 125 -11 17 0 54 -2 83 -5 38 -4
52 -3 52 7 0 8 7 6 20 -6 15 -14 29 -16 60 -11 23 3 70 1 106 -5 35 -6 72 -8
81 -5 9 4 93 9 186 12 94 3 179 10 190 16 14 7 22 7 27 -2 10 -16 77 -5 83 13
5 17 159 16 165 -2 4 -11 -6 -12 -48 -6 -46 6 -52 5 -47 -9 3 -8 2 -18 -3 -21
-5 -3 -64 -8 -132 -11 -68 -3 -127 -9 -133 -14 -5 -4 -57 -5 -115 -2 -176 10
-221 8 -235 -11 -16 -22 -43 -22 -47 0 -2 13 -15 18 -53 19 -28 2 -69 6 -92 9
-36 6 -43 4 -43 -9 0 -19 -22 -17 -152 15 -43 11 -89 17 -102 13 -17 -4 -38 2
-68 21 -24 14 -34 24 -23 21 11 -3 63 -10 115 -16z m2614 -806 c31 -12 -4 -44
-90 -84 -46 -22 -92 -40 -102 -40 -21 0 -170 -42 -230 -64 -34 -13 -66 -15
-153 -11 -84 4 -109 2 -109 -7 0 -10 -24 -12 -93 -11 -50 1 -110 3 -132 3 -72
2 -88 0 -100 -10 -8 -7 -23 -6 -45 1 -22 8 -75 9 -169 5 -75 -4 -147 -7 -161
-7 -14 0 -110 2 -215 5 -104 2 -199 7 -210 11 -42 15 -48 15 -70 1 -22 -14
-85 -11 -228 13 -26 4 -50 4 -53 -1 -3 -4 -22 -8 -42 -8 l-37 0 24 19 c26 20
151 29 151 11 0 -13 66 -13 91 1 17 8 23 7 34 -8 13 -17 16 -17 42 -2 34 19
195 16 292 -6 50 -11 162 -8 174 4 13 13 111 15 102 2 -9 -15 30 -22 59 -12
15 6 26 7 26 1 0 -9 99 -8 116 2 9 6 203 22 254 21 14 0 44 -6 67 -12 28 -7
50 -8 68 -1 14 5 38 7 54 4 16 -4 32 -1 35 5 4 6 25 11 47 11 22 0 50 5 61 11
12 6 51 11 87 11 124 -1 291 48 372 108 56 42 58 43 83 34z m-3879 -174 c-8
-13 -73 -30 -120 -30 -22 0 -55 -4 -74 -10 -21 -6 -40 -6 -51 0 -12 6 -29 6
-48 -1 -17 -6 -52 -11 -79 -12 -35 -2 -47 -6 -45 -16 2 -10 -2 -11 -15 -5 -23
11 -67 9 -183 -5 -52 -6 -138 -13 -190 -15 -52 -2 -129 -11 -170 -20 -92 -20
-130 -20 -80 -1 19 7 51 14 71 14 19 1 58 8 86 16 27 8 92 17 144 20 52 2 117
10 144 16 28 6 115 15 195 20 80 6 159 15 177 20 23 7 39 7 53 -1 12 -6 29 -8
38 -4 14 6 61 14 140 23 7 0 11 -3 7 -9z m-2668 -5973 c24 -12 70 -35 103 -52
33 -16 60 -36 60 -42 0 -7 12 -15 28 -19 15 -3 77 -32 137 -63 61 -32 142 -70
180 -85 39 -15 93 -38 120 -51 28 -12 70 -30 95 -38 25 -8 61 -20 80 -27 64
-23 74 -27 175 -58 55 -17 141 -40 190 -52 50 -12 92 -25 95 -27 15 -16 -295
58 -384 91 -33 13 -77 29 -96 36 -168 58 -208 73 -225 84 -11 7 -31 15 -45 19
-50 11 -115 38 -126 53 -6 8 -40 26 -75 40 -35 14 -68 30 -74 35 -5 5 -17 9
-26 9 -9 0 -23 7 -30 16 -8 9 -32 25 -54 35 -22 10 -53 27 -70 37 -16 9 -56
32 -87 50 -97 56 -74 63 29 9z m1533 -588 c0 -5 8 -9 18 -8 9 1 25 -1 34 -5
10 -5 38 -6 63 -4 29 2 45 -1 45 -8 0 -13 45 -24 101 -24 20 0 44 -6 51 -12 7
-7 40 -14 73 -15 33 -1 87 -12 120 -24 63 -23 152 -32 171 -17 7 5 14 3 18 -7
4 -11 22 -15 79 -15 40 0 77 -4 83 -10 5 -5 48 -12 94 -15 47 -3 99 -10 115
-15 17 -5 83 -14 147 -20 64 -5 129 -15 145 -21 16 -6 49 -8 76 -4 31 4 85 -1
155 -15 59 -11 133 -26 164 -32 31 -6 72 -8 90 -4 18 3 58 1 88 -4 159 -29
459 -47 504 -31 18 8 35 6 61 -5 20 -8 55 -14 78 -14 23 1 78 -2 122 -6 44 -4
132 -6 195 -6 249 3 305 1 314 -8 6 -6 24 -10 42 -10 46 0 64 -9 64 -33 0 -21
0 -21 -16 1 -19 28 -39 28 -58 1 -14 -20 -20 -21 -111 -14 -62 4 -100 3 -108
-3 -8 -7 -34 -8 -72 -2 -33 4 -64 5 -68 1 -4 -5 -45 5 -90 20 -94 33 -117 35
-156 14 -18 -9 -42 -12 -65 -8 -22 3 -42 1 -51 -7 -11 -9 -18 -10 -29 -1 -7 6
-20 9 -29 6 -8 -4 -39 0 -68 8 -44 11 -81 12 -208 2 -145 -10 -154 -10 -159 7
-5 20 -47 25 -58 7 -8 -14 -69 -3 -108 19 -22 13 -30 14 -33 5 -8 -21 -65 -15
-90 9 -22 20 -26 21 -56 9 -18 -8 -41 -13 -52 -13 -11 1 -56 3 -100 6 -50 2
-100 12 -134 25 -38 16 -65 20 -95 16 -22 -3 -81 2 -131 11 -49 9 -119 20
-155 24 -36 4 -90 16 -122 28 -40 14 -87 21 -162 24 -68 2 -106 7 -106 14 0
14 -44 34 -73 34 -19 0 -75 17 -132 40 -21 9 -99 22 -151 25 -17 1 -35 4 -40
7 -5 3 -29 9 -54 12 -25 4 -61 13 -80 21 -19 8 -64 23 -100 34 -60 18 -62 19
-27 20 20 1 37 -4 37 -10z m6450 -278 c0 -18 -18 -21 -162 -32 -106 -8 -146
-14 -155 -25 -10 -14 -12 -13 -15 3 -3 14 -13 18 -53 19 -28 1 -57 4 -66 8 -8
4 -28 2 -43 -4 -15 -5 -40 -10 -56 -10 -16 0 -33 -7 -37 -15 -11 -19 -83 -9
-83 11 0 9 -11 14 -27 14 -22 0 -25 2 -13 10 9 7 49 9 100 5 47 -3 123 1 170
7 107 16 440 23 440 9z m-1135 -34 c50 -1 115 2 145 7 51 7 54 7 35 -8 -11 -8
-32 -16 -47 -16 -15 0 -38 -5 -51 -11 -19 -9 -30 -8 -49 5 -24 16 -58 13 -58
-5 0 -12 -51 -11 -69 0 -9 6 -29 4 -53 -5 -21 -7 -51 -11 -67 -8 -17 4 -47 -2
-79 -16 -28 -12 -57 -20 -64 -17 -8 4 -7 6 5 6 9 1 17 8 17 17 0 15 -9 16 -82
9 -46 -4 -96 -7 -113 -7 -16 1 -48 -3 -70 -9 -32 -8 -46 -7 -70 5 -34 18 -37
17 90 22 216 7 370 20 392 34 10 6 36 8 58 4 22 -3 81 -6 130 -7z m-1651 -46
c3 -5 44 -8 90 -6 64 3 88 0 97 -11 9 -11 7 -14 -13 -14 -31 0 -41 -10 -27
-27 9 -10 6 -13 -14 -13 -14 0 -29 5 -32 11 -5 7 -55 9 -154 6 -160 -6 -186 0
-158 31 14 15 29 18 84 16 38 -1 75 2 83 7 20 11 37 11 44 0z"/>
<path d="M10035 13998 c-4 -10 -15 -18 -25 -18 -53 0 -64 -38 -35 -120 26 -75
79 -135 137 -158 86 -33 97 -35 104 -17 8 21 -10 62 -28 62 -52 0 -128 104
-129 179 0 27 -4 58 -9 69 -7 18 -8 19 -15 3z"/>
<path d="M3729 13702 c-79 -52 -209 -174 -209 -198 0 -6 -15 -22 -34 -35 -18
-13 -53 -49 -77 -80 -24 -31 -63 -80 -87 -109 -24 -29 -46 -66 -49 -82 -3 -15
-10 -28 -15 -28 -5 0 -15 -15 -23 -33 -8 -19 -21 -40 -30 -47 -19 -16 -55 -83
-55 -103 0 -8 -9 -22 -19 -31 -30 -27 -32 -62 -5 -75 21 -9 26 -5 64 52 22 34
40 67 40 73 0 6 7 17 15 24 21 17 71 93 79 118 7 21 89 131 125 168 12 12 21
26 21 32 0 5 23 30 50 55 28 25 50 50 50 56 0 6 7 11 15 11 8 0 19 9 25 20 13
24 106 113 151 143 37 25 47 50 29 72 -16 19 -28 18 -61 -3z"/>
<path d="M7560 13448 c-99 -32 -194 -49 -268 -50 -28 0 -45 -5 -49 -14 -5 -12
-9 -12 -32 3 -46 30 -214 25 -254 -8 -11 -9 2 -51 13 -44 4 3 6 15 4 28 -2 12
-1 15 2 7 20 -47 64 -66 64 -28 0 20 1 20 20 3 16 -14 24 -15 51 -6 40 14 39
14 39 -4 0 -11 12 -15 45 -15 29 0 45 4 45 13 0 8 3 8 9 -2 7 -11 24 -13 83
-7 40 4 91 9 113 10 23 2 52 10 65 19 14 8 58 25 97 37 73 21 101 45 89 76 -8
20 -28 17 -136 -18z"/>
<path d="M7950 13471 c0 -6 -13 -11 -30 -11 -23 0 -30 -4 -30 -20 0 -11 1 -20
3 -21 1 0 22 -3 47 -6 25 -3 53 -9 62 -14 22 -12 139 -11 157 0 19 12 6 61
-17 62 -9 1 -42 2 -72 3 -30 2 -70 6 -87 10 -22 5 -33 4 -33 -3z"/>
<path d="M5624 13072 c-71 -52 -174 -198 -174 -247 0 -13 -4 -25 -8 -27 -17
-7 -54 -80 -92 -182 -34 -91 -40 -118 -39 -179 2 -113 17 -227 34 -253 8 -13
15 -35 15 -50 0 -15 7 -35 16 -45 13 -15 20 -16 40 -7 17 8 23 17 18 27 -34
85 -52 196 -54 334 -1 32 41 170 52 175 5 2 8 12 8 22 0 10 16 46 35 80 19 34
32 66 29 71 -3 5 0 9 6 9 6 0 18 17 27 38 27 66 82 135 153 190 22 18 23 23
12 46 -15 33 -30 33 -78 -2z"/>
<path d="M5744 12635 c-12 -18 -22 -24 -35 -20 -15 5 -19 1 -19 -18 0 -17 -7
-26 -21 -30 -17 -4 -20 -10 -13 -24 4 -10 7 -33 7 -50 -1 -23 3 -33 13 -33 8
0 14 -3 15 -7 0 -5 1 -44 3 -88 1 -44 7 -90 14 -102 7 -12 12 -34 12 -50 0
-15 10 -44 23 -64 12 -21 33 -56 47 -78 17 -28 31 -40 41 -38 11 3 21 -5 28
-19 6 -13 15 -24 21 -24 5 0 10 -7 10 -15 0 -8 9 -19 20 -25 11 -6 20 -15 20
-21 0 -5 15 -25 33 -43 18 -18 31 -38 29 -44 -2 -6 19 -21 48 -34 34 -15 52
-29 56 -45 7 -25 41 -40 57 -24 7 7 26 -3 62 -35 29 -24 57 -44 62 -44 6 0 27
-13 48 -30 22 -18 50 -30 67 -30 20 0 31 -6 37 -22 15 -39 58 -71 96 -72 24
-1 35 -6 35 -16 0 -28 289 -154 402 -175 15 -3 33 -11 40 -18 25 -26 59 -38
87 -32 19 4 35 0 52 -13 44 -33 181 -69 165 -43 -4 6 -3 11 3 11 5 0 14 -7 19
-16 5 -9 22 -17 38 -18 39 -3 184 -35 209 -46 11 -5 34 -11 50 -13 17 -3 75
-16 130 -31 55 -14 120 -26 145 -26 25 0 52 -6 58 -12 10 -10 17 -10 31 -1 10
6 22 8 27 3 10 -10 84 -18 239 -26 61 -3 114 -10 120 -15 5 -5 37 -9 71 -9 35
0 66 -4 69 -10 3 -5 35 -10 71 -10 36 0 75 -5 87 -12 29 -15 89 -19 104 -6 8
7 32 8 66 3 75 -11 165 -7 217 9 69 22 140 27 140 10 0 -19 38 -18 56 1 20 19
54 19 68 0 12 -16 33 -18 180 -15 57 1 100 7 118 16 20 10 72 16 166 19 174 6
159 4 217 23 28 9 71 15 97 13 29 -2 55 3 70 12 23 15 95 33 112 29 5 -2 32 2
61 8 28 6 92 11 141 11 49 1 93 4 98 7 6 3 55 6 110 7 56 0 135 8 176 18 71
15 156 27 350 47 137 14 202 31 208 52 4 17 5 17 17 2 15 -21 78 -14 105 11
11 10 41 18 72 20 60 4 194 23 221 31 9 3 17 12 17 20 0 12 7 14 28 9 15 -3
55 1 87 9 33 8 82 15 109 14 40 -1 52 3 64 20 13 19 15 20 42 4 25 -14 34 -15
72 -3 52 16 170 30 253 30 33 1 89 10 124 20 35 11 59 15 53 9 -7 -7 -12 -16
-12 -22 0 -12 240 0 252 12 5 5 49 7 97 5 58 -3 91 -1 95 6 5 7 13 8 24 2 22
-12 230 -18 260 -7 12 4 46 3 75 -3 45 -10 123 -13 192 -9 23 1 133 -9 188
-18 27 -5 37 -3 37 7 0 10 2 11 8 2 10 -15 201 -37 216 -24 7 6 17 6 26 1 8
-6 41 -10 72 -10 45 0 56 -3 52 -14 -4 -10 9 -16 55 -21 59 -7 101 -1 101 14
0 15 88 -6 115 -27 15 -12 36 -22 47 -22 11 0 27 -4 37 -9 10 -6 40 -13 67
-16 42 -6 52 -3 72 15 16 15 22 17 22 6 0 -17 22 -26 66 -26 22 0 37 -6 41
-16 4 -12 18 -14 65 -11 52 3 64 1 89 -20 16 -14 39 -23 51 -22 13 1 37 -4 53
-11 17 -6 48 -13 70 -14 22 -1 46 -5 52 -9 7 -5 35 -10 62 -11 31 -3 62 -12
81 -26 18 -13 52 -25 76 -28 25 -2 47 -9 50 -13 3 -5 -2 -6 -10 -3 -11 4 -19
-3 -26 -22 -10 -24 -8 -30 17 -50 15 -13 33 -23 39 -24 15 0 106 -61 126 -85
15 -17 19 -18 28 -5 6 9 13 11 18 5 13 -18 54 -37 62 -28 12 12 0 62 -14 57
-6 -2 -33 15 -60 38 -46 40 -47 42 -26 50 14 5 28 4 36 -3 7 -5 39 -11 72 -12
40 -1 64 -7 76 -19 10 -10 24 -18 31 -18 14 0 35 -29 35 -47 0 -4 -12 -9 -26
-10 -18 -1 -28 5 -31 18 -6 22 -4 22 -37 9 -18 -6 -26 -17 -26 -33 0 -34 9
-38 41 -21 l29 15 -6 -38 c-6 -45 12 -78 36 -63 13 8 13 11 -3 22 -17 12 -15
15 17 26 20 8 36 18 36 23 0 5 4 9 9 9 6 0 7 -15 4 -33 -3 -23 0 -37 11 -46
21 -17 20 -41 0 -56 -18 -13 -11 -55 8 -55 6 0 34 -11 62 -23 28 -13 78 -34
111 -47 33 -13 63 -28 66 -33 4 -5 12 -6 18 -3 6 4 14 0 17 -8 3 -9 12 -16 20
-16 8 0 14 -5 14 -10 0 -6 11 -15 25 -20 14 -5 25 -16 25 -25 0 -9 9 -15 21
-15 12 0 37 -13 55 -30 20 -17 40 -27 49 -24 11 5 17 -3 21 -25 7 -33 139
-171 188 -196 25 -13 28 -13 38 10 6 13 15 22 20 19 5 -3 2 -15 -8 -25 -9 -11
-14 -22 -10 -27 4 -4 16 4 27 17 19 23 19 23 19 1 0 -18 4 -20 23 -14 30 9 30
9 22 34 -5 15 -13 20 -26 17 -23 -6 -43 25 -34 53 10 30 25 24 25 -10 0 -34
21 -40 47 -15 19 19 37 15 42 -11 4 -23 19 -34 48 -34 16 0 21 -4 17 -15 -8
-20 20 -20 39 0 8 8 17 11 21 8 3 -4 6 0 6 8 0 8 6 4 16 -9 8 -12 12 -27 9
-33 -4 -6 2 -13 13 -15 31 -9 6 -54 -30 -54 -25 0 -28 4 -28 34 0 42 -15 54
-30 26 -12 -23 -30 -27 -30 -5 0 15 -38 41 -47 32 -2 -3 0 -14 5 -24 12 -21 0
-49 -16 -39 -5 3 -13 -6 -17 -21 -4 -16 -2 -29 3 -31 6 -2 23 -14 39 -28 15
-13 36 -24 46 -24 23 0 22 -16 -2 -37 -26 -21 -17 -35 14 -23 26 10 40 -5 75
-72 14 -29 30 -37 30 -16 0 7 12 -4 26 -25 25 -37 26 -38 47 -22 12 9 34 21
50 28 29 12 36 27 13 27 -9 0 -12 7 -9 20 6 22 23 26 40 9 7 -7 5 -22 -9 -51
-11 -22 -17 -49 -15 -59 4 -16 0 -19 -21 -17 -15 2 -30 7 -33 12 -4 5 -12 5
-19 1 -9 -6 -9 -9 1 -16 11 -7 10 -9 -3 -9 -9 0 -18 5 -20 11 -3 9 -10 9 -27
0 -31 -17 -48 -9 -26 13 22 22 9 36 -28 29 -25 -5 -28 -9 -25 -42 3 -35 4 -36
53 -41 60 -6 70 -28 31 -65 -31 -28 -34 -55 -7 -55 19 0 37 -39 32 -70 -1 -8
9 0 23 19 28 37 26 51 -6 51 -19 0 -19 2 -6 21 9 14 26 22 48 24 19 1 45 5 58
9 35 11 39 -18 6 -49 -15 -14 -31 -25 -37 -25 -5 0 -6 -11 -3 -25 4 -14 2 -25
-3 -25 -14 0 -18 -31 -11 -97 5 -59 -1 -81 -14 -48 -9 24 -36 18 -36 -7 0 -13
-3 -32 -6 -44 -4 -15 1 -23 21 -32 25 -11 25 -11 14 11 -6 12 -8 19 -4 15 5
-4 13 -4 20 2 14 11 55 2 56 -14 3 -61 22 -102 40 -90 5 3 9 1 9 -5 0 -15 -23
-26 -28 -13 -5 15 -29 16 -37 2 -10 -15 31 -65 54 -67 11 -1 23 3 26 8 10 15
25 0 25 -26 0 -28 -15 -41 -24 -20 -3 8 -14 15 -24 15 -10 0 -23 5 -30 12 -9
9 -12 9 -12 -1 0 -7 -4 -10 -9 -7 -5 3 -7 15 -4 26 4 14 0 20 -10 20 -8 0 -17
6 -20 13 -3 8 -10 6 -21 -8 -19 -25 -21 -55 -2 -55 8 0 18 -5 21 -11 8 -12
-22 -49 -41 -49 -8 0 -11 -18 -10 -60 2 -57 0 -60 -22 -60 -19 0 -23 -4 -19
-19 3 -13 -3 -22 -18 -29 -28 -13 -23 -52 6 -52 27 0 34 -19 13 -36 -12 -9
-31 -12 -50 -9 -28 5 -33 2 -42 -24 -9 -26 -8 -30 8 -33 17 -3 15 -11 -25 -77
-24 -41 -55 -79 -67 -85 -13 -6 -25 -22 -26 -35 -2 -13 -11 -35 -20 -50 -10
-15 -26 -42 -37 -61 -28 -47 -209 -224 -274 -268 -52 -35 -55 -35 -81 -20 -31
17 -50 8 -50 -23 0 -10 -4 -21 -10 -24 -16 -10 -12 -25 8 -26 14 0 14 -2 -3
-8 -11 -5 -27 -3 -37 3 -24 15 -47 -6 -29 -27 9 -12 6 -16 -16 -21 -39 -10
-150 -63 -158 -76 -3 -5 -21 -10 -39 -10 -18 0 -44 -8 -57 -18 -40 -30 -78
-27 -111 10 -27 31 -29 31 -43 12 -18 -24 -18 -29 1 -48 9 -10 11 -16 4 -16
-6 0 -10 -6 -7 -12 2 -7 10 -12 16 -10 6 1 11 -5 11 -13 0 -8 -6 -12 -14 -9
-17 6 -42 52 -33 61 9 8 -12 33 -28 33 -8 0 -17 -14 -20 -32 -6 -25 -3 -35 11
-45 11 -8 18 -23 16 -33 -3 -16 3 -20 28 -20 17 0 40 5 51 10 15 8 19 7 19 -4
0 -19 17 -29 33 -19 6 4 23 6 36 4 21 -2 23 0 17 26 -4 15 -15 36 -23 46 -15
16 -14 17 5 17 11 0 23 -4 26 -8 7 -12 86 -14 86 -2 0 14 48 32 83 32 16 0 27
5 27 12 0 8 12 18 28 24 59 22 91 30 97 24 4 -4 13 1 20 11 14 20 154 127 166
127 17 0 17 -31 -1 -40 -24 -13 -25 -24 -4 -45 16 -15 14 -16 -18 -10 -28 5
-40 2 -66 -20 -18 -15 -32 -33 -32 -41 0 -16 -16 -19 -25 -4 -12 20 -35 -10
-29 -36 5 -18 2 -24 -11 -24 -12 0 -15 -5 -10 -20 4 -11 2 -20 -4 -20 -6 0
-11 9 -11 20 0 11 -7 20 -15 20 -8 0 -15 -4 -15 -9 0 -11 -57 -26 -80 -22 -8
2 -19 10 -26 19 -6 9 -18 13 -28 9 -17 -7 -22 -42 -6 -52 15 -9 0 -36 -26 -46
-13 -4 -24 -15 -24 -24 0 -13 -3 -13 -21 -3 -18 11 -23 10 -40 -11 -11 -14
-45 -37 -75 -52 l-54 -28 0 23 c0 30 -19 45 -64 53 -36 6 -52 -11 -22 -23 7
-3 12 -16 10 -30 -1 -14 4 -28 14 -33 13 -7 9 -12 -23 -26 -22 -10 -52 -17
-66 -16 -15 1 -44 -6 -65 -15 -22 -10 -46 -18 -54 -19 -67 -5 -158 -19 -173
-27 -10 -5 -16 -16 -13 -23 3 -9 0 -12 -10 -8 -21 8 -166 -17 -184 -32 -19
-16 -59 -23 -184 -36 -55 -5 -105 -14 -110 -18 -6 -5 -37 -14 -69 -20 -31 -6
-66 -15 -77 -21 -11 -6 -20 -7 -20 -3 0 4 -5 2 -12 -5 -7 -7 -22 -12 -35 -12
-13 0 -23 -4 -23 -9 0 -5 -25 -11 -55 -13 -30 -1 -55 1 -55 5 0 5 -10 7 -22 5
-15 -2 -22 -9 -22 -21 1 -13 -2 -15 -10 -8 -7 6 -25 9 -41 7 -17 -1 -35 2 -42
6 -7 6 -21 4 -35 -4 -13 -7 -50 -18 -83 -25 -176 -35 -218 -42 -225 -38 -3 2
-35 -2 -71 -10 -103 -23 -259 -43 -265 -33 -9 14 -44 9 -44 -7 0 -8 -5 -15
-10 -15 -6 0 -13 7 -16 15 -7 16 -69 21 -78 6 -9 -14 -115 -24 -130 -12 -8 7
-24 7 -46 1 -23 -6 -36 -6 -40 0 -13 21 -130 6 -130 -16 0 -11 -4 -12 -19 -3
-13 9 -26 9 -50 1 -24 -8 -37 -8 -50 0 -11 7 -26 8 -37 3 -11 -4 -25 -7 -33
-6 -7 1 -20 -1 -30 -5 -9 -4 -38 -9 -66 -10 -27 -1 -93 -5 -145 -8 -57 -3
-112 -1 -138 6 -36 9 -45 8 -62 -7 -10 -9 -24 -14 -30 -10 -6 4 -58 9 -117 11
-87 4 -109 2 -123 -11 -10 -9 -26 -16 -36 -15 -11 0 -48 2 -84 3 -36 2 -76 9
-89 16 -20 11 -36 11 -94 1 -47 -10 -71 -10 -75 -3 -8 13 -99 16 -107 3 -3 -4
-62 -6 -133 -4 -70 2 -163 4 -207 3 -104 -3 -548 0 -601 4 -23 1 -48 8 -56 14
-8 7 -50 14 -94 16 -45 2 -85 6 -90 9 -20 13 -252 30 -270 20 -27 -14 -283 -2
-388 18 -61 12 -211 0 -268 -22 -22 -8 -33 -7 -53 6 -14 9 -29 15 -33 12 -5
-3 -21 2 -36 10 -37 19 -52 18 -60 -3 -6 -14 -9 -15 -15 -4 -6 9 -45 14 -137
17 -70 3 -133 9 -139 13 -16 14 -219 32 -320 29 -49 -1 -95 1 -101 4 -15 10
-125 12 -151 4 -13 -4 -28 -4 -33 -1 -12 7 -178 14 -485 20 -104 2 -251 6
-325 10 -160 7 -430 7 -521 0 -65 -6 -236 -15 -254 -14 -130 8 -199 9 -207 1
-6 -6 -36 -8 -69 -5 -66 6 -193 -11 -254 -34 -22 -9 -61 -15 -87 -14 -49 2
-67 -11 -48 -34 10 -12 6 -12 -19 1 -26 13 -40 14 -84 4 -30 -6 -69 -19 -88
-29 -19 -10 -61 -22 -94 -26 -73 -9 -78 -11 -65 -35 6 -11 6 -21 1 -24 -5 -4
-11 -1 -13 5 -3 9 -9 9 -25 0 -12 -6 -29 -8 -38 -5 -10 4 -29 -2 -45 -15 -18
-13 -44 -21 -68 -21 -24 0 -45 -6 -53 -16 -8 -10 -21 -13 -36 -9 -18 4 -23 1
-23 -15 0 -17 -4 -19 -26 -14 -28 7 -71 -11 -91 -37 -7 -9 -24 -20 -38 -23
-14 -4 -25 -13 -25 -21 0 -14 -10 -18 -67 -30 -39 -8 -49 -21 -32 -41 6 -8 10
-16 8 -17 -27 -21 -113 -67 -125 -67 -37 0 -254 -201 -254 -235 0 -7 -29 -41
-65 -76 -35 -35 -66 -73 -69 -85 -3 -11 -21 -40 -41 -65 -19 -24 -35 -54 -35
-65 0 -12 -7 -27 -15 -34 -8 -7 -18 -30 -21 -51 -4 -22 -11 -39 -16 -39 -10 0
-58 -103 -58 -125 0 -8 -16 -45 -35 -82 -52 -100 -79 -249 -45 -247 13 1 14
-9 10 -58 -3 -34 -12 -63 -20 -68 -11 -7 -11 -16 4 -53 18 -48 14 -92 -10
-105 -8 -5 -17 -26 -21 -48 -3 -21 -12 -46 -19 -54 -10 -12 -12 -39 -9 -100 3
-47 5 -105 5 -129 1 -24 5 -52 11 -62 5 -10 12 -59 14 -109 6 -107 34 -177 79
-199 27 -13 28 -16 22 -61 -5 -40 -3 -51 11 -59 17 -11 17 -12 0 -25 -12 -9
-17 -24 -15 -42 4 -36 28 -44 28 -9 0 14 4 24 10 20 5 -3 7 -12 3 -20 -3 -9 2
-31 12 -51 9 -20 14 -38 11 -41 -3 -4 -11 8 -17 25 -13 39 -29 42 -29 6 0 -36
29 -94 47 -94 9 0 12 -6 9 -18 -6 -19 26 -41 62 -43 12 0 11 -3 -5 -9 -23 -9
-29 -33 -17 -64 10 -26 34 -19 34 11 0 14 3 23 7 20 8 -9 8 -81 -1 -95 -8 -13
58 -128 79 -136 8 -3 23 -21 32 -41 16 -33 33 -46 33 -25 0 23 19 8 22 -17 2
-17 12 -32 26 -38 12 -5 22 -17 22 -26 0 -22 67 -92 119 -124 25 -15 70 -54
101 -86 30 -33 64 -59 75 -59 11 0 42 -23 69 -50 36 -37 62 -54 105 -67 31 -9
63 -24 71 -34 22 -24 104 -69 127 -69 11 0 32 -11 47 -25 15 -14 35 -25 45
-25 22 0 110 -37 131 -55 8 -7 53 -26 100 -43 47 -16 108 -38 135 -48 28 -9
64 -23 80 -29 66 -26 120 -43 325 -100 122 -33 184 -47 403 -85 59 -11 111
-21 115 -24 4 -2 39 -7 77 -11 39 -3 84 -9 100 -14 29 -9 141 -21 235 -26 25
-2 88 -8 140 -14 203 -25 209 -25 216 -7 3 9 17 16 30 16 26 0 32 14 12 24 -7
3 -1 4 14 1 15 -3 38 0 52 6 22 10 28 9 44 -11 17 -21 28 -23 104 -24 71 -1
89 2 107 18 19 18 39 20 195 21 152 1 178 3 210 20 30 16 36 25 36 52 0 40 17
38 -245 17 -104 -8 -251 -15 -325 -16 -165 0 -473 18 -519 32 -18 5 -79 12
-135 15 -55 3 -139 10 -186 16 -47 6 -112 13 -145 16 -33 3 -65 9 -72 15 -7 5
-26 7 -42 3 -21 -4 -38 -1 -53 9 -12 9 -32 16 -43 16 -12 0 -25 4 -30 9 -13
11 -228 63 -246 60 -8 -2 -25 4 -39 13 -14 9 -47 19 -75 22 -27 4 -72 16 -100
26 -27 10 -77 24 -110 31 -79 16 -143 36 -168 54 -12 8 -38 15 -59 15 -20 0
-39 4 -42 8 -3 5 -45 21 -93 37 -48 15 -96 37 -107 48 -12 12 -27 17 -42 14
-16 -3 -25 1 -29 12 -3 9 -41 31 -86 50 -44 19 -95 47 -112 63 -18 15 -41 28
-53 28 -11 0 -42 20 -67 45 -26 25 -54 45 -61 45 -8 0 -16 7 -20 15 -3 8 -18
15 -33 15 -36 1 -65 23 -57 44 8 20 -43 71 -90 91 -20 9 -42 28 -51 45 -9 17
-24 30 -34 30 -18 0 -33 27 -45 82 -3 14 -17 40 -31 56 -46 54 -151 255 -179
342 -16 47 -32 93 -37 102 -18 35 -68 246 -75 313 -4 39 -11 81 -16 94 -5 14
-8 110 -8 215 1 105 1 207 1 226 -1 33 10 108 29 195 5 22 16 74 25 115 10 41
30 108 46 149 16 40 29 78 29 83 0 5 11 33 24 61 13 29 27 63 31 77 4 14 17
36 30 50 12 14 39 56 59 94 21 38 52 88 70 110 19 23 39 52 46 65 17 32 209
241 222 241 5 0 35 22 67 50 32 28 61 50 64 50 4 0 40 19 80 43 39 24 108 61
152 84 44 23 94 48 110 57 17 9 59 29 95 45 36 15 81 36 102 45 20 9 45 16 56
16 10 0 41 8 68 19 56 21 166 50 239 62 28 5 73 14 100 19 93 19 110 22 190
24 44 2 133 9 198 15 91 10 177 10 365 2 136 -7 263 -14 282 -16 19 -3 41 -1
48 3 7 5 40 5 75 1 34 -4 172 -10 306 -14 135 -3 253 -11 262 -16 24 -13 63
-11 77 3 8 8 15 8 25 -1 20 -16 194 -22 1102 -36 241 -4 348 -8 590 -21 39 -2
146 -6 239 -9 110 -3 172 -8 176 -15 4 -7 23 -11 41 -9 19 1 41 -1 49 -4 8 -3
58 -8 110 -12 52 -3 115 -8 140 -10 137 -12 188 -16 220 -16 19 -1 67 -1 105
-2 236 -4 778 0 1065 7 184 5 356 8 383 7 26 -1 56 3 67 9 14 8 26 8 41 0 15
-9 24 -8 35 1 12 10 25 10 64 0 27 -7 53 -10 59 -7 5 3 100 11 212 16 326 17
371 20 424 30 28 6 102 12 165 15 63 3 130 10 148 16 18 6 40 8 48 5 8 -3 74
3 147 14 73 10 152 20 177 22 25 2 44 8 43 13 -1 6 39 11 100 11 56 1 116 7
132 14 17 6 53 13 80 16 28 2 70 6 95 10 25 3 60 5 79 4 18 0 38 4 45 9 6 5
22 9 36 9 14 0 52 8 85 17 63 17 71 18 150 29 28 4 59 11 70 16 11 5 70 20
131 35 62 15 124 33 139 41 15 8 36 14 46 14 28 0 109 21 149 38 19 9 48 15
63 14 15 -1 42 4 60 12 18 8 41 16 52 19 11 3 52 18 90 32 39 15 86 31 105 37
19 5 42 16 51 24 8 8 25 14 37 14 12 0 31 4 44 9 13 6 55 19 95 31 39 12 73
25 75 29 3 8 94 49 173 77 145 53 263 124 360 217 33 31 69 60 80 63 23 7 67
46 145 127 4 5 16 17 27 27 10 10 36 40 58 66 22 25 50 57 63 69 12 12 22 27
22 32 0 5 9 18 20 28 11 10 20 23 20 30 0 6 14 24 31 41 17 16 40 47 51 69 11
22 26 47 33 55 6 8 22 42 34 75 27 71 56 139 78 178 10 19 14 48 11 86 -2 41
2 63 12 76 16 19 16 21 25 189 8 135 -10 341 -35 410 -10 28 -23 77 -29 109
-6 31 -15 66 -21 76 -5 11 -10 33 -10 50 0 16 -6 36 -13 43 -7 7 -19 33 -26
58 -24 78 -119 262 -168 326 -103 132 -165 204 -198 230 -19 14 -35 31 -35 37
0 13 -129 137 -143 137 -6 0 -26 19 -46 42 -19 22 -53 53 -76 67 -22 15 -67
46 -100 69 -69 49 -222 142 -235 142 -4 0 -10 6 -13 14 -3 7 -43 32 -89 55
-45 23 -91 46 -100 51 -10 6 -26 14 -35 20 -59 33 -123 60 -141 60 -11 0 -24
5 -27 10 -3 6 -17 10 -31 10 -13 0 -24 4 -24 10 0 5 -20 15 -45 21 -25 6 -45
15 -45 20 0 5 -6 9 -12 9 -7 0 -26 7 -42 15 -16 8 -47 18 -70 22 -22 3 -45 12
-51 20 -9 12 -68 28 -200 53 -27 6 -68 14 -90 20 -22 5 -83 19 -135 31 -52 11
-113 28 -134 37 -21 9 -63 16 -92 16 -30 -1 -54 2 -54 6 0 14 -74 38 -140 45
-36 4 -87 13 -114 21 -27 8 -69 14 -93 14 -25 0 -52 4 -62 9 -18 10 -128 22
-190 21 -18 0 -49 4 -69 9 -23 7 -41 7 -53 0 -15 -7 -17 -6 -13 6 5 13 -6 15
-70 15 -64 0 -79 -3 -93 -20 -10 -11 -24 -20 -33 -20 -9 0 -4 9 15 24 41 33
30 36 -130 36 -11 0 -69 1 -130 3 -60 2 -138 0 -172 -6 -53 -8 -64 -7 -78 7
-19 18 -35 13 -35 -11 0 -15 -2 -15 -17 0 -15 13 -39 15 -136 12 -65 -3 -123
-7 -129 -11 -6 -4 -52 -8 -102 -10 -50 -2 -118 -8 -151 -14 -33 -5 -136 -17
-230 -25 -93 -8 -201 -20 -240 -26 -38 -7 -103 -13 -143 -14 -40 -1 -77 -6
-83 -12 -6 -6 -30 -8 -54 -5 -24 2 -52 1 -62 -3 -26 -11 -40 -14 -110 -23 -35
-4 -68 -13 -75 -20 -7 -7 -38 -12 -73 -12 -40 0 -69 -6 -85 -17 -14 -9 -19
-10 -12 -3 24 27 12 33 -49 26 -66 -6 -93 -21 -85 -43 3 -7 1 -13 -4 -13 -6 0
-10 7 -10 15 0 10 -9 15 -27 14 -16 0 -51 3 -78 6 -43 6 -53 4 -69 -14 -16
-18 -21 -18 -40 -6 -16 11 -29 12 -61 3 -22 -6 -67 -13 -100 -15 -33 -3 -66
-10 -73 -15 -7 -6 -56 -15 -109 -19 -53 -5 -101 -13 -107 -19 -5 -5 -23 -10
-39 -10 -15 0 -37 -5 -48 -11 -12 -6 -55 -12 -97 -13 -42 -1 -90 -7 -107 -14
-16 -6 -57 -15 -90 -20 -33 -6 -91 -20 -130 -31 -59 -18 -78 -20 -119 -11 -42
9 -51 8 -58 -5 -7 -11 -26 -15 -71 -15 -35 0 -68 -5 -73 -10 -8 -8 -20 -7 -39
0 -16 6 -40 8 -54 5 -47 -10 -155 -18 -228 -16 -61 1 -73 -2 -73 -15 0 -15 -2
-15 -23 -1 -19 12 -27 13 -47 2 -28 -14 -180 -25 -180 -13 0 5 -18 8 -40 8
-23 0 -40 -5 -40 -11 0 -7 -9 -9 -21 -6 -12 3 -32 2 -45 -3 -14 -6 -24 -6 -24
-1 0 13 -239 4 -255 -9 -8 -7 -14 -7 -17 -1 -5 15 -174 34 -234 27 -72 -8 -87
-15 -81 -37 7 -25 -6 -24 -70 6 -54 26 -73 26 -73 0 0 -16 -45 -13 -140 7 -84
18 -117 20 -125 8 -5 -8 -11 -6 -19 6 -11 14 -33 17 -137 19 -68 1 -131 4
-139 8 -14 5 -56 9 -254 23 -48 4 -77 12 -97 26 -15 11 -34 18 -43 15 -21 -8
-139 17 -144 31 -2 7 -8 12 -14 12 -5 0 -24 6 -41 14 -27 12 -81 26 -122 31
-65 9 -115 20 -140 30 -17 7 -51 15 -77 19 -25 4 -53 15 -63 26 -10 11 -31 20
-46 20 -17 0 -39 11 -57 30 -17 17 -40 30 -51 30 -11 0 -22 4 -25 9 -3 5 -36
21 -73 36 -38 15 -70 30 -73 34 -10 14 -60 30 -75 25 -9 -4 -15 0 -15 9 0 9
-13 18 -31 22 -17 4 -33 13 -36 21 -3 8 -13 15 -22 15 -32 2 -156 74 -166 97
-5 12 -16 22 -24 22 -8 0 -22 7 -31 15 -12 11 -24 13 -40 7 -18 -7 -28 -3 -46
15 -20 20 -33 24 -72 21 -28 -2 -46 -7 -45 -14 4 -21 -36 -24 -42 -4 -3 10
-19 23 -35 28 -36 13 -152 110 -196 166 -56 69 -138 185 -140 198 -1 7 -12 38
-24 68 -18 44 -22 74 -22 155 0 124 3 138 25 147 23 10 22 45 -2 58 -27 14
-28 13 -47 -15z m8189 -1099 c68 -4 97 -2 97 6 0 6 8 4 18 -6 11 -9 33 -16 53
-15 33 2 179 -12 331 -31 43 -5 88 -6 100 -1 12 4 36 4 53 0 16 -5 62 -10 101
-12 54 -3 78 -9 99 -25 15 -12 37 -23 49 -24 11 -1 30 -2 41 -3 37 -3 125 -27
131 -36 3 -6 33 -9 66 -8 53 2 63 0 78 -21 16 -21 20 -22 35 -10 13 11 22 11
52 1 19 -7 57 -14 84 -15 29 -2 56 -9 67 -19 24 -22 56 -23 48 -2 -4 10 1 15
15 15 12 0 23 -8 26 -18 5 -22 131 -67 162 -59 29 7 79 -13 84 -34 3 -11 22
-21 53 -27 27 -6 77 -21 111 -34 59 -23 60 -24 45 -43 -19 -23 -82 -23 -82 0
0 9 -21 14 -70 17 -52 3 -73 8 -83 22 -7 10 -20 17 -28 15 -15 -3 -128 28
-144 40 -11 8 -95 27 -157 36 -84 11 -108 18 -119 31 -6 8 -22 14 -35 14 -12
0 -26 5 -29 10 -4 6 -15 8 -26 5 -11 -4 -35 2 -56 14 -43 22 -90 33 -145 32
-20 0 -41 6 -48 14 -7 8 -25 15 -40 15 -15 0 -33 7 -40 15 -7 8 -27 14 -48 13
-46 -2 -211 21 -233 33 -14 7 -61 11 -109 9 -16 -1 -78 12 -148 30 -51 12
-112 4 -112 -16 0 -22 -20 -16 -29 9 -8 19 -15 23 -39 19 -16 -2 -33 1 -36 7
-11 17 -66 14 -66 -4 0 -17 -10 -16 -109 11 -29 9 -66 12 -81 9 -17 -4 -31 -2
-35 5 -4 6 -17 15 -29 20 -14 6 -5 7 29 5 28 -3 94 -7 148 -9z m2317 -530 c8
-3 42 -24 75 -45 80 -53 143 -87 180 -95 42 -10 95 -45 95 -62 0 -8 8 -17 18
-21 9 -3 27 -18 39 -32 18 -21 24 -23 32 -12 7 11 11 10 20 -8 7 -11 19 -21
29 -21 23 -1 59 -32 64 -55 2 -11 13 -24 25 -30 11 -6 28 -17 36 -24 9 -7 21
-10 27 -6 5 3 10 -1 10 -11 0 -18 102 -119 163 -161 20 -14 37 -31 37 -37 0
-7 27 -42 60 -79 33 -38 60 -74 60 -82 0 -8 14 -24 30 -37 21 -15 30 -30 30
-50 0 -20 8 -31 30 -43 17 -9 30 -22 30 -31 0 -8 10 -36 22 -62 12 -26 21 -55
20 -64 0 -10 7 -23 17 -30 26 -18 61 -88 61 -121 0 -15 7 -44 15 -64 8 -19 14
-47 14 -62 -1 -20 -2 -22 -6 -6 -3 11 -12 28 -21 38 -9 11 -15 30 -14 44 2 13
-2 31 -8 39 -8 8 -10 27 -6 45 5 27 3 32 -24 42 -17 6 -30 18 -30 26 0 8 -8
23 -17 33 -10 11 -16 32 -15 48 2 24 -4 32 -29 46 -22 11 -28 18 -19 24 8 5
-3 23 -39 61 -29 30 -51 63 -51 75 0 12 -7 27 -15 34 -8 6 -17 22 -21 33 -11
37 -65 97 -85 97 -25 0 -74 51 -59 60 12 8 -13 40 -31 40 -5 0 -9 6 -9 13 0
15 -44 57 -59 57 -13 0 -32 14 -59 43 -9 9 -22 17 -30 17 -7 0 -15 6 -18 14
-3 8 -16 17 -30 20 -14 4 -31 21 -44 45 -12 25 -30 43 -50 49 -16 6 -30 16
-30 21 0 6 -6 11 -14 11 -7 0 -16 9 -19 19 -3 14 -15 21 -38 23 -26 2 -35 8
-37 25 -2 16 -12 25 -30 28 -47 10 -191 89 -196 108 -3 14 -13 17 -43 15 -31
-2 -37 0 -35 13 2 12 -17 27 -60 49 -85 44 -96 56 -23 26 33 -13 67 -27 75
-30z m1146 -2411 c-14 -24 -26 -53 -26 -64 0 -13 -5 -19 -14 -15 -10 4 -21 -9
-35 -40 -11 -25 -25 -46 -31 -46 -6 0 -10 -8 -8 -17 2 -10 -5 -22 -17 -28 -11
-6 -29 -25 -40 -42 -11 -17 -32 -39 -47 -49 -15 -11 -33 -31 -39 -47 -7 -15
-26 -34 -43 -41 -17 -8 -60 -41 -96 -75 -36 -33 -69 -61 -73 -61 -10 0 25 49
36 50 4 0 43 36 86 80 44 44 83 80 87 80 10 0 49 55 59 81 3 9 17 22 31 29 13
7 24 18 24 24 0 6 18 33 40 60 22 26 40 56 40 66 0 10 9 20 20 23 11 3 20 13
20 22 0 9 6 29 14 43 8 15 18 36 22 47 7 18 8 17 12 -8 2 -17 -6 -44 -22 -72z
m-510 -296 c3 -5 0 -9 -5 -9 -6 0 -11 -5 -11 -11 0 -7 10 -9 25 -7 13 3 22 1
19 -3 -2 -5 4 -17 16 -29 11 -11 20 -22 20 -25 0 -8 -44 16 -52 28 -4 6 -12 4
-22 -6 -20 -19 -20 -27 -2 -27 8 0 16 -7 20 -15 3 -9 -1 -15 -11 -15 -8 0 -30
-9 -48 -20 l-33 -20 -30 30 c-17 16 -35 30 -41 30 -6 0 -25 -15 -42 -32 -19
-21 -32 -28 -35 -21 -3 7 -12 9 -21 6 -8 -3 7 15 34 40 28 26 54 47 58 47 4 0
23 17 40 38 30 34 37 37 74 34 23 -2 44 -8 47 -13z m-9322 -976 c3 -4 32 -7
64 -8 37 -1 72 -9 100 -24 43 -22 44 -22 80 -4 28 14 56 17 117 15 167 -5 192
-5 265 5 61 8 77 7 83 -3 10 -17 31 -18 57 -2 16 11 26 9 57 -7 27 -15 37 -17
41 -7 6 18 53 15 67 -5 11 -15 16 -16 41 -3 35 16 161 21 189 7 10 -5 92 -11
182 -13 89 -2 180 -8 201 -13 21 -6 76 -9 123 -7 61 2 90 -1 107 -12 12 -8 31
-12 42 -9 11 3 42 -1 69 -8 28 -7 52 -11 54 -9 9 9 199 5 259 -6 34 -7 173
-13 308 -15 135 -1 316 -8 403 -15 87 -7 167 -10 177 -7 11 3 21 0 22 -5 2 -6
35 -11 74 -13 39 -1 83 -5 100 -9 81 -16 423 -38 604 -37 205 0 277 -6 215
-19 -40 -8 -442 -1 -480 9 -16 4 -93 8 -169 9 -77 1 -144 6 -150 11 -6 5 -49
12 -96 15 -47 3 -125 10 -175 15 -218 22 -355 30 -567 34 -125 3 -231 7 -235
9 -4 3 -26 3 -48 1 -60 -5 -183 -5 -192 0 -5 3 -28 2 -52 -3 -30 -5 -63 -3
-103 7 -39 10 -63 12 -69 6 -6 -6 -33 -8 -61 -6 -28 2 -64 -1 -79 -6 -16 -5
-31 -6 -33 -2 -5 7 -315 17 -431 13 -33 -1 -109 5 -170 13 -60 8 -128 15 -150
14 -22 -1 -101 3 -175 8 -74 6 -164 8 -200 6 -73 -6 -69 -6 -205 4 -100 7
-201 7 -348 0 -43 -2 -80 0 -83 4 -3 5 -16 9 -29 9 -38 0 -55 11 -54 34 0 21
0 21 11 -1 14 -29 38 -30 45 -2 6 20 10 21 78 15 58 -5 75 -4 85 9 14 16 23
19 34 8z m-2037 -615 c-17 -15 -39 -30 -49 -33 -9 -3 -44 -41 -77 -85 -34 -44
-70 -85 -80 -92 -10 -7 -39 -44 -66 -83 -62 -90 -75 -105 -75 -83 0 24 27 80
55 113 14 17 25 34 25 38 0 14 43 67 55 67 6 0 22 13 35 29 14 15 31 26 37 24
7 -3 16 3 20 13 3 11 17 32 30 48 13 16 22 34 20 40 -6 16 28 32 68 32 l34 0
-32 -28z"/>
<path d="M4380 10571 c-20 -6 -25 -13 -24 -39 1 -21 -3 -32 -12 -32 -37 0 8
-60 57 -75 14 -5 18 -12 13 -31 -5 -18 -2 -24 10 -24 8 0 23 -11 32 -25 9 -14
22 -25 29 -25 15 0 39 116 27 134 -8 13 -9 18 -11 56 -1 26 -5 30 -31 30 -23
0 -30 -4 -30 -20 0 -11 -7 -20 -15 -20 -17 0 -20 -16 -5 -25 15 -9 12 -25 -5
-25 -8 0 -15 4 -15 9 0 5 -3 16 -6 24 -3 8 4 24 16 35 22 20 24 53 5 58 -5 1
-21 -1 -35 -5z"/>
<path d="M10218 10515 c-1 -2 -23 -5 -48 -8 -53 -5 -135 -56 -143 -88 -3 -12
0 -28 7 -35 11 -11 22 -8 61 17 26 17 54 28 63 24 8 -3 21 0 28 6 8 6 21 8 31
5 9 -4 20 -1 24 6 6 10 11 9 21 -3 18 -22 74 -32 98 -16 12 7 20 22 19 37 0
14 -3 19 -6 12 -4 -10 -8 -9 -19 5 -13 17 -13 17 -14 -2 -1 -18 -2 -18 -11 -3
-5 10 -16 15 -25 11 -9 -3 -19 -2 -23 3 -7 11 -57 34 -63 29z"/>
<path d="M10981 10328 c-6 -17 -11 -33 -11 -35 0 -10 78 -35 119 -39 25 -3 57
-9 71 -13 14 -5 52 -16 85 -26 71 -20 165 -64 181 -84 9 -11 13 -10 28 4 9 10
16 24 14 33 -4 21 -107 92 -134 92 -11 0 -29 7 -40 15 -10 8 -27 15 -36 15
-10 0 -38 7 -63 16 -26 8 -63 17 -83 20 -55 7 -83 14 -114 31 -3 1 -11 -11
-17 -29z"/>
<path d="M13273 10029 c-34 -35 -6 -59 70 -59 24 0 40 -5 43 -15 4 -8 12 -15
20 -15 7 0 20 -9 28 -21 8 -12 19 -19 24 -15 5 3 10 -5 10 -18 0 -26 35 -69
64 -79 10 -3 24 0 32 8 17 17 9 58 -10 51 -8 -3 -11 0 -7 10 3 9 -2 14 -16 14
-22 0 -28 14 -11 25 8 5 7 11 -1 21 -6 7 -15 12 -19 9 -5 -3 -12 0 -16 6 -4 8
-3 9 4 5 24 -15 11 13 -15 33 -16 12 -33 25 -39 30 -19 16 -148 24 -161 10z"/>
<path d="M13803 9225 c3 -27 11 -63 18 -80 15 -34 16 -48 19 -165 2 -89 -4
-129 -23 -168 -9 -19 -8 -25 3 -32 28 -18 47 -10 59 23 7 17 18 43 25 57 20
41 13 232 -13 314 -11 37 -21 77 -21 87 0 16 -6 19 -36 17 l-36 -2 5 -51z"/>
<path d="M3955 7616 c-22 -8 -53 -19 -70 -26 -30 -12 -97 -22 -144 -20 -14 0
-28 -5 -32 -12 -6 -9 -13 -8 -27 5 -29 26 -126 24 -145 -4 -11 -15 -16 -17
-20 -7 -3 7 -6 1 -6 -14 -1 -15 4 -30 9 -33 6 -3 10 -1 10 6 0 10 3 10 12 1
17 -17 28 -15 28 5 0 15 2 15 18 0 13 -12 22 -13 36 -5 13 7 20 7 26 -2 4 -6
20 -11 36 -9 16 1 37 -2 47 -6 9 -4 39 -4 65 1 26 4 52 7 58 6 10 -2 62 20
144 61 16 8 25 21 25 37 0 30 -16 33 -70 16z"/>
<path d="M5560 7588 c-30 -17 -66 -30 -79 -29 -13 0 -29 -3 -35 -8 -19 -15
-80 -19 -91 -6 -6 7 -28 10 -59 7 -38 -3 -50 -9 -54 -24 -4 -15 -7 -17 -14 -6
-6 9 -8 5 -6 -12 2 -14 6 -23 9 -20 3 3 13 -1 22 -9 15 -12 17 -11 17 4 0 15
3 15 15 5 12 -10 19 -10 27 -2 16 16 28 15 28 -3 0 -14 33 -21 80 -17 75 7
102 14 134 36 21 14 46 28 56 31 22 7 34 37 25 65 -8 25 -8 25 -75 -12z"/>
<path d="M4455 7472 c-51 -3 -126 -22 -144 -36 -8 -6 -24 -12 -35 -13 -21 -2
-138 -31 -206 -52 -19 -6 -62 -12 -95 -14 -59 -3 -60 -4 -63 -36 l-3 -32 84 4
c46 3 100 9 118 15 19 6 72 21 119 32 47 12 103 28 125 36 22 7 61 17 87 20
56 8 73 24 61 56 -7 19 -14 23 -48 20z"/>
<path d="M2510 7419 c-52 -18 -95 -38 -130 -59 -36 -21 -184 -90 -194 -90 -6
0 -23 -11 -38 -25 -15 -14 -34 -25 -43 -25 -8 0 -15 -4 -15 -10 0 -5 -11 -10
-24 -10 -13 0 -40 -11 -60 -25 -20 -14 -45 -25 -55 -25 -25 0 -34 -26 -18 -50
13 -22 24 -20 92 9 22 10 60 24 84 32 24 7 45 18 48 25 2 7 19 18 36 25 53 20
122 54 125 61 2 3 23 12 48 19 24 7 44 17 44 21 0 4 8 8 19 8 10 0 24 6 30 13
6 8 44 24 86 38 77 24 87 33 78 68 -7 27 -38 27 -113 0z"/>
<path d="M9931 6709 c-14 -5 -30 -8 -37 -5 -7 3 -14 2 -16 -2 -2 -4 -21 -16
-43 -27 -25 -13 -41 -29 -43 -43 -2 -12 -10 -22 -17 -22 -8 0 -17 -15 -21 -36
-4 -19 -12 -38 -18 -40 -14 -5 -112 -15 -150 -14 -16 0 -43 -4 -60 -9 -17 -6
-56 -13 -86 -16 -30 -3 -74 -13 -98 -20 -23 -8 -64 -16 -90 -16 -26 -1 -58 -6
-71 -11 -13 -5 -40 -11 -60 -14 -56 -8 -142 -34 -185 -56 -28 -14 -71 -22
-155 -28 -64 -5 -147 -16 -186 -25 -111 -25 -316 -130 -446 -228 -147 -111
-176 -158 -126 -205 12 -11 40 -29 62 -38 22 -9 35 -19 28 -21 -8 -3 -3 -13
13 -27 l26 -22 -60 -12 c-47 -10 -61 -17 -65 -34 -8 -28 -3 -35 31 -43 15 -3
37 -14 50 -23 l23 -18 -48 -34 c-72 -52 -186 -192 -212 -260 -26 -68 -50 -270
-32 -270 5 0 11 -17 14 -37 10 -78 59 -204 95 -246 19 -22 10 -32 -16 -18 -34
18 -69 13 -101 -15 -24 -20 -31 -34 -31 -63 0 -107 103 -284 244 -419 74 -71
104 -91 207 -142 67 -33 129 -60 139 -60 9 0 54 -12 101 -26 72 -23 108 -27
254 -31 190 -6 250 4 360 56 134 64 185 81 211 69 18 -8 23 -17 18 -30 -8 -26
14 -76 37 -83 10 -3 32 1 48 9 39 20 53 20 77 -2 10 -9 40 -31 66 -47 27 -17
48 -35 48 -40 0 -6 21 -31 46 -55 60 -59 157 -206 190 -289 56 -139 65 -230
39 -386 -19 -106 -34 -157 -85 -285 -61 -152 -85 -251 -85 -360 0 -88 3 -101
32 -161 37 -75 100 -150 152 -183 47 -30 131 -49 178 -42 21 4 61 8 88 11 28
2 101 20 163 40 109 35 120 36 290 40 137 4 189 1 236 -11 69 -18 213 -83 252
-113 14 -11 46 -23 70 -27 25 -3 61 -17 80 -30 19 -13 41 -24 50 -24 12 0 12
-4 2 -23 -7 -12 -16 -24 -20 -27 -9 -7 86 -90 103 -90 6 0 26 -9 43 -19 17
-11 50 -24 74 -30 23 -7 42 -16 42 -21 0 -6 7 -10 15 -10 8 0 15 4 15 10 0 6
10 6 27 -1 36 -13 124 -18 146 -7 12 6 23 5 33 -2 11 -10 19 -9 39 4 13 9 44
16 69 16 25 0 47 4 50 9 3 4 19 11 36 15 17 3 38 13 46 21 17 17 44 20 44 5 0
-13 11 -13 30 0 13 9 13 11 0 20 -13 8 -13 10 2 10 9 0 18 -5 20 -10 2 -6 11
-1 20 10 17 19 17 20 -1 20 -10 0 -35 -7 -54 -15 -53 -22 -62 -19 -64 19 -3
33 -2 34 44 41 30 4 56 16 77 36 17 16 36 29 42 29 6 0 19 9 30 21 23 26 90
59 120 59 12 0 27 6 33 14 6 7 23 13 37 13 25 0 25 0 -8 -27 -18 -15 -52 -36
-75 -46 -27 -12 -43 -26 -43 -36 0 -10 -10 -20 -25 -24 -14 -3 -30 -15 -36
-25 -5 -11 -16 -19 -24 -19 -20 0 -19 -16 1 -24 18 -7 37 2 29 14 -3 4 1 8 8
7 31 -1 47 4 44 14 -1 7 10 15 26 20 15 4 27 3 27 -2 0 -5 5 -9 10 -9 6 0 10
9 10 20 0 15 7 20 25 20 14 0 25 4 25 10 0 5 20 15 45 21 25 6 48 16 51 21 3
5 38 7 77 4 40 -2 54 -1 32 3 -66 10 -14 22 67 14 44 -4 72 -11 75 -20 3 -7
14 -13 25 -13 10 0 16 5 13 10 -3 6 -1 10 4 10 6 0 11 -6 11 -14 0 -16 37 -28
46 -15 3 5 -2 9 -10 9 -9 0 -16 4 -16 9 0 8 57 -7 123 -31 20 -8 25 -13 15
-19 -9 -6 -6 -11 12 -17 29 -11 41 -5 20 8 -22 14 -10 12 43 -6 32 -11 44 -20
40 -30 -3 -9 1 -14 12 -14 9 0 13 5 10 10 -8 13 -2 13 42 -4 21 -8 54 -17 74
-20 21 -4 42 -13 49 -21 7 -8 22 -15 34 -16 23 0 118 -38 99 -38 -7 -1 -13 -5
-13 -11 0 -6 28 -10 63 -10 35 0 68 -5 75 -12 13 -13 401 -19 472 -7 79 14
153 31 208 47 51 15 54 17 48 44 -4 23 -2 28 14 28 10 0 31 5 45 12 22 10 28
9 36 -3 6 -9 9 -10 9 -2 0 7 7 10 15 7 10 -4 14 -1 11 7 -7 18 141 87 288 135
107 35 111 36 229 30 66 -3 125 -10 132 -16 7 -5 50 -15 96 -20 103 -13 214
-35 294 -61 64 -20 240 -59 290 -64 103 -11 152 -17 165 -22 15 -6 32 -7 240
-16 100 -5 163 1 240 22 19 5 64 17 100 26 36 10 85 27 110 40 25 12 77 37
115 56 39 18 103 54 144 81 41 26 80 48 87 48 6 0 34 15 60 33 27 18 56 37 64
41 8 4 26 13 40 21 26 15 80 20 80 8 0 -5 20 -8 45 -8 32 0 48 -5 58 -19 14
-19 15 -19 42 -2 24 16 33 17 66 7 50 -15 52 -34 3 -25 -69 13 -27 -13 58 -36
65 -18 99 -21 158 -17 111 8 143 21 185 72 42 52 37 56 -24 15 -24 -16 -60
-35 -80 -41 -49 -14 -176 -23 -198 -14 -10 5 -24 7 -32 6 -7 -1 -11 3 -9 10 3
8 27 12 79 10 44 -1 90 5 114 13 25 9 44 11 49 5 16 -15 26 -10 19 8 -5 13 -2
15 11 10 9 -4 15 -3 12 1 -2 4 -2 13 2 19 11 16 92 55 92 43 0 -5 -5 -10 -12
-10 -9 0 -9 -3 -1 -11 18 -18 35 -1 23 22 -8 14 -7 25 3 39 11 16 12 32 6 66
-5 26 -6 50 -3 55 8 14 -30 91 -62 124 -49 50 -144 135 -152 135 -4 0 -18 9
-32 20 l-25 20 32 -11 c17 -6 37 -17 44 -25 6 -8 18 -14 26 -14 7 0 26 -8 41
-18 15 -11 44 -30 64 -43 21 -13 38 -27 38 -31 0 -4 14 -27 30 -51 23 -35 30
-56 30 -94 0 -27 -6 -55 -12 -62 -11 -10 -8 -16 11 -32 38 -31 58 -5 66 85 7
69 6 75 -25 129 -18 32 -36 57 -41 57 -5 0 -9 6 -9 13 0 16 -41 57 -57 57 -6
0 -13 4 -15 8 -5 12 -149 88 -183 96 -17 4 -37 13 -45 20 -32 26 -156 71 -226
82 -38 6 -42 4 -46 -19 -7 -35 1 -44 47 -55 35 -9 133 -42 144 -49 27 -18
-168 6 -225 27 -14 6 -44 10 -68 10 -23 0 -68 5 -99 10 -64 12 -135 18 -322
25 -71 3 -137 8 -145 12 -18 7 -69 13 -125 14 -22 0 -42 5 -45 9 -3 5 -57 14
-120 21 -63 6 -118 15 -122 18 -4 3 0 15 8 25 13 18 14 18 14 2 0 -9 5 -14 10
-11 6 3 10 16 10 29 0 34 -50 48 -134 38 -48 -6 -71 -14 -78 -26 -5 -10 -14
-13 -21 -9 -11 7 -50 10 -144 12 -18 0 -58 9 -90 20 -94 31 -129 36 -137 16
-10 -28 12 -54 58 -67 40 -12 28 -13 -125 -13 -169 1 -214 7 -139 19 55 9 71
45 21 49 -11 1 -21 4 -21 7 0 3 -37 5 -82 3 -64 -2 -86 -7 -95 -20 -18 -24
-16 -43 5 -43 14 -1 15 -2 2 -9 -24 -13 -139 -1 -134 14 4 9 -32 13 -148 18
-84 3 -187 13 -228 22 -41 9 -111 20 -155 26 -271 32 -360 42 -445 48 -77 5
-94 9 -92 21 2 8 3 51 3 95 0 44 6 116 14 160 13 76 30 251 28 288 0 15 10 17
77 17 86 0 110 14 110 65 0 22 -16 42 -71 94 -193 179 -224 211 -210 220 9 6
10 11 2 15 -6 4 -11 19 -12 34 0 15 -2 45 -3 67 -2 22 -4 52 -5 68 -1 20 -6
27 -21 27 -10 0 -30 5 -44 11 -20 10 -30 9 -51 -5 -14 -9 -24 -20 -21 -24 3
-5 1 -14 -4 -21 -6 -10 -28 6 -86 64 -99 97 -170 151 -210 159 -48 11 -126
-30 -245 -126 -57 -46 -124 -99 -149 -116 -115 -83 -407 -328 -420 -353 -27
-50 1 -95 64 -106 20 -3 36 -11 36 -18 0 -15 22 -25 54 -25 22 0 23 -4 30
-122 4 -68 12 -149 18 -181 6 -32 9 -59 7 -61 -4 -4 -78 14 -109 27 -8 3 -67
15 -130 27 -143 27 -184 38 -237 61 -23 10 -49 16 -57 13 -15 -6 -40 4 -190
77 -43 22 -82 36 -88 33 -5 -3 -19 1 -31 9 -12 8 -40 19 -62 26 -83 26 -193
69 -205 81 -12 13 -267 115 -327 132 -21 6 -30 13 -27 23 4 9 -6 17 -31 24
-20 5 -60 28 -89 50 -29 23 -60 41 -69 41 -8 0 -17 3 -19 8 -4 10 -67 42 -84
42 -8 0 -14 4 -14 9 0 9 -85 61 -154 94 -21 10 -49 29 -62 42 -21 21 -142 107
-183 130 -10 6 -44 33 -77 60 -32 28 -92 77 -133 110 -41 33 -88 74 -105 91
-17 16 -47 41 -66 54 -19 13 -61 48 -93 77 -32 29 -62 53 -67 53 -4 0 -19 17
-32 38 -12 20 -35 49 -49 65 l-27 27 23 58 c56 140 40 340 -41 497 -97 187
-125 228 -225 326 l-98 96 97 -4 c53 -2 108 -6 122 -9 14 -2 45 -7 70 -10 112
-12 196 -27 208 -36 7 -6 15 -8 18 -5 3 3 20 1 37 -4 18 -6 67 -12 109 -15 91
-5 111 -12 157 -53 18 -17 40 -31 47 -31 8 0 14 -5 14 -11 0 -6 20 -9 54 -6
41 3 56 1 60 -10 4 -11 10 -11 26 -3 14 8 26 8 41 -1 30 -16 97 -3 141 27 20
14 44 27 52 28 25 4 76 64 76 91 0 13 5 25 11 27 6 2 13 20 16 41 4 29 -2 47
-24 82 -15 25 -38 48 -50 51 -12 3 -20 11 -17 18 6 17 -83 58 -108 50 -11 -3
-24 -1 -27 5 -15 23 -123 8 -201 -28 -45 -21 -105 -82 -107 -109 -1 -11 -11
-30 -22 -41 -20 -20 -50 -22 -131 -7 -19 3 -51 8 -70 10 -19 3 -66 11 -105 19
-156 34 -202 38 -445 44 l-204 5 -101 53 c-126 67 -275 131 -343 146 -87 20
-65 31 96 49 45 5 86 11 91 14 4 3 32 8 61 11 30 4 57 8 61 11 9 5 51 10 156
19 68 6 72 5 78 -17 8 -26 44 -68 57 -68 5 0 16 -7 25 -16 9 -8 22 -13 29 -10
8 3 14 1 14 -4 0 -6 9 -6 25 0 19 7 25 6 25 -5 0 -14 8 -16 104 -17 38 0 54 4
66 20 9 10 27 23 41 27 41 13 69 36 69 57 0 10 4 17 10 13 5 -3 17 9 27 27 19
36 19 39 21 86 1 18 6 31 11 28 16 -10 21 25 10 66 -6 26 -17 42 -30 45 -10 3
-16 9 -13 14 9 15 -30 47 -72 58 -40 11 -96 9 -140 -4 -12 -4 -25 -2 -28 4 -8
13 -13 13 -45 0z m-1051 -785 c-31 -14 -41 -34 -15 -34 8 0 15 5 15 11 0 9 4
9 13 0 11 -8 18 -7 31 7 9 10 14 21 11 24 -3 2 13 5 35 6 22 1 40 0 40 -3 0
-8 -83 -59 -104 -65 -25 -7 -41 -65 -27 -96 11 -26 68 -45 103 -37 39 10 59
34 56 70 -2 28 -5 32 -23 28 -20 -6 -20 -6 0 10 11 9 30 18 43 22 12 3 22 8
22 13 0 9 80 33 87 26 9 -8 -40 -45 -59 -46 -14 0 -18 -8 -18 -34 0 -46 -16
-85 -48 -118 -22 -24 -34 -28 -80 -28 -95 0 -151 40 -159 114 -8 66 4 110 38
147 29 31 30 31 50 14 19 -18 19 -19 -11 -31z m-590 -468 c36 -75 72 -274 71
-395 -1 -131 -13 -177 -57 -218 -39 -36 -129 -73 -178 -73 -28 0 -41 8 -74 48
-99 117 -157 325 -127 451 12 48 74 166 104 199 17 18 31 37 31 43 0 5 4 9 8
9 4 0 28 20 52 44 l45 44 51 -53 c28 -29 61 -74 74 -99z m1896 -703 c146 -144
160 -157 234 -214 25 -18 48 -39 53 -46 4 -6 38 -34 75 -62 37 -27 98 -73 137
-102 103 -77 185 -132 228 -152 20 -10 37 -22 37 -27 0 -5 10 -12 23 -16 12
-3 35 -16 52 -28 31 -22 220 -127 315 -174 30 -15 57 -29 60 -32 27 -27 414
-210 443 -210 7 0 18 -5 25 -12 6 -6 44 -22 84 -35 100 -32 146 -55 152 -75 5
-22 26 -24 26 -3 0 22 37 2 45 -25 7 -22 41 -27 48 -7 3 7 21 -5 48 -33 24
-25 40 -37 36 -28 -3 10 -2 20 3 23 5 3 12 -4 15 -16 5 -14 13 -19 26 -16 14
4 19 0 19 -14 0 -21 8 -23 29 -10 7 5 11 13 7 19 -3 5 1 12 9 16 11 4 15 -2
15 -24 0 -17 5 -30 11 -30 5 0 27 -11 47 -25 40 -27 52 -31 52 -14 0 5 -6 7
-12 4 -7 -4 -4 1 6 9 23 18 36 20 36 6 0 -5 -4 -10 -10 -10 -5 0 -10 -9 -10
-21 0 -15 5 -19 16 -15 8 3 13 2 9 -3 -3 -5 -2 -17 2 -26 5 -16 8 -15 23 5
l18 23 7 -32 c8 -38 31 -50 49 -26 12 17 13 17 19 1 5 -12 14 -16 29 -12 13 3
17 3 10 0 -17 -8 -5 -24 18 -24 14 0 18 -5 13 -16 -5 -14 -2 -16 23 -10 16 4
31 12 32 17 2 5 11 9 20 9 15 0 15 -2 2 -10 -10 -6 -11 -10 -2 -10 6 0 12 -8
12 -17 0 -10 16 -28 36 -41 33 -21 37 -22 53 -8 24 22 34 20 28 -4 -5 -20 -2
-21 61 -20 4 0 7 9 7 20 0 10 3 22 7 25 7 7 29 -28 27 -42 -4 -23 2 -57 9 -47
12 18 52 24 52 8 0 -8 5 -14 10 -14 6 0 10 4 10 8 0 5 23 9 51 9 27 0 47 -2
44 -6 -4 -3 -11 -6 -17 -6 -6 0 -17 -9 -24 -20 -12 -19 -11 -21 10 -23 13 -1
29 5 36 13 15 18 30 10 30 -16 0 -10 5 -19 10 -19 6 0 10 5 10 10 0 7 7 7 22
-1 18 -10 20 -9 15 5 -9 23 7 28 43 12 22 -9 28 -15 19 -19 -12 -5 -12 -7 1
-16 8 -6 20 -11 25 -11 16 1 49 29 42 36 -4 4 -14 1 -23 -7 -15 -12 -17 -12
-12 1 2 8 12 16 21 18 21 4 45 -18 39 -36 -5 -15 24 -16 34 -1 5 8 10 6 16 -5
5 -9 20 -16 33 -16 14 0 25 -5 25 -11 0 -5 4 -8 9 -5 5 4 11 1 13 -6 7 -21 30
4 25 28 -3 20 -1 22 14 13 11 -5 19 -12 19 -15 0 -3 -5 -2 -12 2 -8 5 -9 2 -5
-10 4 -10 7 -22 7 -27 0 -16 22 -10 41 13 l19 21 29 -31 c27 -32 51 -42 51
-22 0 6 9 10 20 10 11 0 23 7 26 15 8 19 30 19 38 0 8 -22 39 -7 33 16 -3 12
0 19 9 19 10 0 14 12 14 39 0 32 3 39 18 38 15 -1 18 -8 17 -35 -3 -50 5 -74
23 -67 8 3 19 1 22 -6 6 -8 13 -8 28 0 24 13 146 17 180 6 12 -4 22 -15 22
-26 0 -13 7 -19 24 -19 14 0 31 -8 38 -18 13 -18 58 -25 58 -10 0 4 7 5 15 2
8 -4 15 -1 15 5 0 6 -4 11 -10 11 -5 0 -12 11 -16 25 -3 14 -13 25 -23 25 -9
0 -23 5 -31 11 -11 8 -3 9 31 6 27 -2 53 1 62 8 23 17 21 25 -5 26 l-23 2 23
4 c13 3 26 11 29 18 5 14 21 13 93 -1 22 -5 20 -7 -19 -25 -24 -11 -41 -23
-37 -27 7 -7 11 -8 37 -11 6 0 9 -7 6 -15 -7 -17 34 -18 45 -2 10 15 50 -24
43 -42 -3 -8 3 -16 16 -19 13 -4 18 -11 14 -20 -4 -12 1 -14 29 -9 20 4 37 2
41 -4 9 -15 22 -12 29 6 5 13 2 15 -14 11 -13 -3 -20 0 -20 9 0 8 -10 14 -25
14 -19 0 -25 5 -25 21 0 14 -5 19 -14 16 -11 -4 -13 -1 -9 10 5 12 1 14 -15 9
-18 -6 -21 -4 -15 10 5 14 2 16 -15 12 -12 -3 -29 0 -39 8 -17 13 -17 13 0 14
9 0 17 7 17 15 0 8 7 15 15 15 8 0 15 -3 15 -7 0 -5 34 -8 75 -8 75 -1 101 -9
75 -25 -11 -7 -11 -11 -1 -24 17 -20 41 -21 41 -1 0 8 -6 15 -12 15 -9 0 -8 4
2 10 21 13 90 13 90 -1 0 -7 12 -9 34 -5 23 4 35 3 38 -6 3 -7 23 -12 47 -13
32 -1 47 -7 60 -23 16 -21 34 -22 81 -5 8 4 24 5 35 5 18 -2 17 -1 -2 8 -13 5
-23 11 -23 14 0 2 46 4 103 4 56 0 94 -2 85 -5 -10 -2 -18 -9 -18 -14 0 -13
38 -11 42 2 5 14 116 21 124 8 3 -5 19 -9 35 -9 26 0 29 -3 24 -21 -6 -17 -4
-20 6 -13 8 4 23 8 34 9 13 0 19 6 18 18 -1 17 1 17 21 -2 27 -25 62 -27 74
-4 9 14 25 15 143 9 173 -9 250 -14 379 -25 58 -5 112 -10 120 -10 8 -1 33 -3
55 -5 22 -2 69 -7 105 -10 36 -4 81 -9 100 -11 70 -10 227 -26 305 -31 108 -7
375 -42 454 -60 135 -30 301 -143 337 -229 28 -67 10 -146 -41 -179 -35 -23
-109 -16 -235 20 -46 13 -93 24 -105 24 -11 0 -33 7 -49 15 -15 8 -60 19 -99
23 -81 10 -130 -1 -196 -42 -22 -14 -44 -26 -48 -26 -5 0 -50 -25 -100 -54
-51 -30 -102 -57 -113 -61 -11 -3 -20 -11 -20 -16 0 -17 -192 -101 -345 -149
-31 -10 -110 -18 -230 -24 -117 -7 -502 58 -590 98 -117 54 -393 132 -555 157
-146 22 -374 -2 -505 -55 -33 -13 -87 -28 -120 -34 -33 -6 -83 -17 -112 -25
-166 -49 -463 -76 -599 -56 -49 7 -94 12 -101 11 -15 -3 -198 55 -233 74 -94
50 -452 147 -625 170 -137 18 -164 17 -238 -7 -31 -11 -67 -19 -80 -19 -12 0
-31 -7 -41 -15 -11 -8 -33 -15 -48 -15 -16 0 -36 -4 -46 -9 -54 -28 -378 -180
-407 -191 -11 -4 -33 -13 -49 -19 -15 -6 -54 -14 -86 -18 -75 -7 -116 12 -230
108 -298 253 -553 330 -840 254 -138 -36 -251 -81 -273 -107 -46 -55 -146
-100 -252 -115 -92 -12 -202 75 -242 192 -14 43 -15 130 0 190 2 11 8 37 11
59 4 21 11 46 16 55 13 22 80 207 80 219 0 5 7 23 15 38 8 16 15 40 15 54 0
14 7 48 16 75 21 67 22 260 1 335 -30 110 -50 165 -68 185 -10 11 -26 40 -37
65 -11 25 -27 51 -36 59 -9 8 -24 29 -33 48 -16 35 -189 201 -242 234 l-29 18
84 85 c47 47 87 86 89 86 3 0 5 -9 5 -20 0 -16 7 -20 30 -20 17 0 50 -9 72
-20 23 -11 52 -20 65 -20 13 0 26 -7 30 -15 4 -12 11 -8 29 18 27 41 44 94 25
82 -8 -4 -14 1 -18 14 -4 17 -13 21 -42 21 -51 -1 -111 11 -111 21 0 5 -9 9
-20 9 -21 0 -25 -7 84 170 25 41 76 135 113 208 37 72 67 132 68 132 0 0 64
-62 141 -137z m3409 -264 c28 -22 70 -60 93 -84 43 -42 43 -44 22 -55 -31 -16
-84 -3 -74 18 13 31 9 64 -8 76 -26 16 -52 -4 -56 -43 -2 -22 -8 -31 -21 -31
-28 0 -31 10 -10 43 36 60 14 106 -40 85 -33 -12 -41 -25 -41 -65 0 -40 -15
-42 -53 -7 l-28 26 33 25 c41 31 86 52 113 53 11 0 43 -18 70 -41z m-271 -114
c3 -8 12 -15 21 -15 20 0 19 -7 -5 -37 -11 -14 -20 -41 -20 -59 0 -32 -2 -34
-34 -34 -41 0 -86 33 -85 63 0 14 18 36 47 59 52 41 67 45 76 23z m177 -36
c10 -12 30 -21 44 -21 l26 0 -22 -24 c-16 -17 -20 -32 -17 -63 3 -34 0 -41
-20 -50 -33 -16 -84 -13 -110 5 l-23 15 26 31 c26 31 40 69 32 90 -2 7 5 18
17 25 27 16 26 16 47 -8z m275 -24 c15 -14 22 -25 16 -25 -12 0 -26 -34 -26
-65 0 -41 -80 -71 -142 -53 -31 8 -35 13 -29 31 16 48 17 97 4 97 -11 0 -11 3
1 10 8 5 38 10 65 10 28 0 57 5 65 10 19 12 15 14 46 -15z m-611 -96 c21 -32
59 -49 112 -49 41 0 55 -4 66 -21 15 -20 35 -10 22 11 -8 12 0 13 23 1 9 -5
27 -13 39 -17 17 -7 20 -13 13 -24 -7 -10 -12 -12 -17 -4 -10 14 -53 28 -53
17 0 -5 16 -16 35 -25 28 -12 44 -14 75 -6 22 6 40 15 40 20 0 5 5 6 10 3 6
-3 10 1 10 10 0 14 3 13 28 -2 15 -10 29 -20 32 -24 3 -3 31 -7 62 -8 45 -2
61 2 77 18 31 31 56 42 68 30 6 -6 39 -12 74 -14 58 -4 66 -7 117 -52 30 -26
59 -49 64 -51 4 -2 8 -8 8 -14 0 -6 8 -17 18 -24 34 -25 -38 -57 -94 -42 -47
12 -59 31 -39 62 25 38 13 76 -24 76 -40 0 -54 -21 -46 -68 6 -36 4 -40 -23
-51 -41 -17 -108 -11 -103 9 3 8 5 31 5 50 1 32 -2 35 -31 38 -25 3 -35 -2
-49 -23 -14 -21 -15 -30 -5 -52 10 -21 9 -28 -1 -34 -24 -15 -84 -20 -112 -9
-26 10 -27 12 -13 28 43 48 38 112 -9 112 -43 0 -64 -26 -64 -80 0 -34 -4 -50
-16 -54 -26 -10 -94 -7 -117 5 l-21 12 23 9 c18 6 22 14 19 33 -3 13 0 26 6
28 16 6 -34 57 -55 57 -29 0 -58 -39 -65 -86 -6 -41 -8 -44 -38 -44 -17 0 -37
4 -45 9 -12 8 -12 11 1 24 20 21 31 92 18 117 -13 25 -52 35 -78 21 -23 -13
-66 -96 -57 -111 8 -13 -50 -13 -76 1 -27 14 -42 55 -29 79 6 10 52 51 103 90
77 59 93 68 97 53 3 -10 10 -25 15 -34z m-285 -181 c1 -17 56 -71 78 -76 9 -2
43 -6 75 -7 33 -2 67 -10 80 -19 21 -16 21 -16 -23 -11 -25 2 -82 5 -128 6
-67 1 -86 -2 -102 -16 -11 -10 -20 -14 -20 -8 0 5 -18 17 -41 26 -25 10 -39
21 -37 29 5 14 98 88 111 88 4 0 7 -6 7 -12z m1139 -118 c20 0 53 8 73 19 l37
18 37 -33 37 -34 -59 0 c-33 0 -74 -4 -92 -9 -17 -5 -32 -7 -32 -3 0 12 -104
15 -445 14 -33 0 -76 0 -95 1 l-35 0 38 10 c20 6 37 14 37 19 0 4 12 3 26 -2
40 -16 107 -12 146 9 22 11 42 15 50 10 23 -15 102 -10 138 9 34 17 36 17 69
-5 20 -14 49 -23 70 -23z m-824 -75 c83 -3 184 -10 225 -15 41 -5 186 -9 322
-7 237 2 248 1 263 -18 9 -12 13 -31 10 -50 -3 -16 -7 -68 -10 -115 -3 -47
-10 -101 -15 -120 -6 -19 -10 -88 -10 -154 0 -109 -1 -118 -17 -111 -10 4 -55
13 -101 20 -45 7 -85 15 -89 18 -3 4 0 92 7 197 15 221 15 220 -64 220 -29 0
-78 5 -110 11 -32 6 -60 9 -62 6 -2 -2 -7 -64 -10 -138 -5 -107 -10 -140 -26
-166 -12 -20 -17 -41 -13 -53 6 -18 3 -19 -27 -13 -18 4 -44 7 -58 8 -14 0
-28 4 -31 8 -3 4 -19 10 -35 12 -102 13 -175 28 -219 45 -27 10 -64 24 -82 30
-17 7 -34 19 -38 28 -11 29 -45 273 -45 324 l0 50 43 -6 c23 -3 110 -8 192
-11z m495 -184 c41 -5 45 -8 44 -33 0 -16 -1 -92 -2 -171 l-2 -144 -57 10
c-32 6 -59 11 -60 11 -1 1 -19 191 -26 294 l-4 54 31 -7 c17 -4 51 -10 76 -14z"/>
<path d="M10142 4569 c-49 -24 -70 -54 -46 -63 8 -3 14 -14 12 -23 -2 -13 8
-21 40 -31 23 -8 42 -18 42 -23 0 -5 11 -9 25 -9 14 0 25 -5 25 -11 0 -5 4 -8
9 -5 5 4 11 1 13 -5 2 -7 17 0 36 16 22 19 32 35 32 56 0 26 -3 29 -30 29 -20
0 -39 9 -54 25 -13 14 -29 25 -35 25 -6 0 -15 9 -19 20 -7 20 -8 20 -50 -1z"/>
<path d="M10510 4270 c-37 -40 -43 -67 -18 -74 13 -3 18 -10 15 -19 -5 -14 36
-28 131 -44 17 -3 32 -9 32 -13 0 -21 40 -16 63 9 22 23 26 38 18 84 0 5 -11
7 -24 5 -21 -2 -86 19 -97 32 -3 3 -25 16 -49 28 l-44 21 -27 -29z"/>
<path d="M10200 4249 c-33 -13 -60 -39 -60 -56 0 -8 4 -12 8 -9 4 2 13 -4 20
-14 8 -13 8 -21 1 -25 -10 -7 32 -45 50 -45 6 0 23 -13 38 -28 16 -16 40 -32
56 -36 15 -3 27 -11 27 -17 0 -6 5 -7 10 -4 6 3 10 1 10 -4 0 -19 23 -12 50
14 20 19 25 33 22 55 -2 17 -9 31 -16 32 -6 0 -15 2 -21 3 -5 2 -15 3 -20 4
-19 2 -125 109 -125 125 0 18 -14 19 -50 5z"/>
<path d="M9803 4079 c-25 -16 -33 -28 -33 -50 0 -24 4 -29 25 -29 13 0 39 -13
57 -28 18 -16 41 -31 51 -35 9 -4 17 -11 17 -16 0 -16 32 -1 67 32 29 27 31
32 16 42 -9 7 -13 17 -10 22 7 12 -14 23 -43 23 -9 0 -23 7 -30 15 -7 8 -19
15 -27 15 -8 0 -21 7 -29 15 -20 19 -22 19 -61 -6z"/>
<path d="M10893 4017 c-12 -17 -25 -40 -28 -49 -9 -22 12 -58 33 -58 9 0 23
-9 30 -20 7 -11 19 -20 27 -20 8 0 23 -9 32 -20 24 -27 45 -25 74 8 30 32 33
68 6 66 -10 -1 -40 20 -68 48 -27 27 -54 46 -59 43 -6 -4 -10 -3 -9 2 7 41
-10 42 -38 0z"/>
<path d="M10577 3929 c-41 -32 -52 -58 -31 -73 9 -7 14 -18 10 -24 -5 -8 7
-14 33 -18 22 -4 46 -13 52 -20 6 -8 17 -14 24 -14 8 0 26 -7 42 -17 28 -16
31 -15 61 7 22 16 30 30 27 44 -2 12 -4 27 -4 34 -1 7 -9 12 -18 10 -20 -3
-83 21 -83 31 0 12 -57 41 -64 33 -4 -4 -6 -1 -4 7 5 23 -17 23 -45 0z"/>
<path d="M11307 3878 c-30 -63 -37 -88 -26 -88 6 0 9 -7 6 -15 -5 -10 4 -16
31 -21 20 -3 47 -12 59 -20 12 -8 31 -14 43 -14 11 0 20 -4 20 -10 0 -5 11
-10 24 -10 19 0 27 9 40 40 24 60 22 73 -12 65 -23 -5 -35 0 -62 25 -28 26
-54 36 -83 31 -5 -1 -6 2 -4 6 3 5 -1 16 -8 26 -11 16 -14 15 -28 -15z"/>
<path d="M10146 3831 c-45 -30 -42 -77 4 -86 13 -3 38 -11 56 -20 18 -8 45
-16 61 -17 15 -1 33 -6 40 -10 14 -11 28 13 38 64 9 50 -7 64 -70 63 -28 -1
-59 4 -70 12 -25 17 -24 17 -59 -6z"/>
<path d="M11644 3629 c-19 -20 -25 -32 -17 -37 6 -4 12 -16 14 -27 3 -16 13
-20 45 -22 22 -1 60 -9 84 -17 25 -9 53 -16 62 -16 9 0 21 -7 25 -15 8 -13 13
-11 36 13 23 24 54 110 32 90 -11 -10 -47 11 -40 23 4 5 -2 9 -12 9 -61 2
-148 12 -153 18 -13 18 -49 9 -76 -19z"/>
<path d="M10920 3610 c-11 -16 -20 -40 -20 -54 0 -22 5 -26 28 -26 15 0 47
-10 72 -21 25 -12 57 -27 72 -34 24 -12 27 -11 37 13 26 62 30 92 15 92 -8 0
-12 5 -9 10 3 6 0 10 -7 11 -36 2 -68 8 -116 21 l-53 15 -19 -27z"/>
<path d="M13142 3770 c-13 -5 -22 -15 -20 -22 1 -7 -6 -28 -16 -46 -14 -27
-16 -46 -10 -103 9 -96 15 -99 177 -96 l127 2 0 111 c0 153 -4 158 -137 161
-54 2 -108 -2 -121 -7z m188 -47 c4 -4 11 -46 15 -93 l6 -86 -90 10 c-67 6
-91 13 -91 23 0 7 7 16 15 19 22 9 20 101 -2 127 -18 20 -17 20 61 14 43 -3
82 -9 86 -14z"/>
<path d="M545 6302 c-15 -11 -35 -67 -57 -162 -11 -47 -28 -103 -37 -125 -29
-68 -63 -169 -66 -197 -1 -16 -3 -32 -4 -38 0 -5 -7 -10 -14 -10 -18 0 -32
-30 -57 -122 -23 -86 -19 -128 12 -128 39 0 69 60 31 60 -14 1 -13 5 8 20 24
18 26 24 19 59 -6 35 -5 40 13 43 26 4 54 77 35 90 -10 6 -9 8 3 8 25 0 36 19
62 110 14 46 30 86 36 88 6 2 11 19 11 37 0 18 11 70 24 116 23 79 30 117 27
147 -1 13 -30 16 -46 4z"/>
<path d="M10869 2244 c-9 -11 -10 -20 -2 -32 18 -29 97 -81 125 -81 15 -1 29
-5 32 -10 11 -17 88 -25 97 -10 9 16 2 32 -12 24 -5 -4 -9 -1 -9 4 0 6 -7 11
-15 11 -8 0 -12 6 -9 14 3 9 -9 17 -40 26 -25 7 -51 19 -57 26 -13 16 -67 44
-84 44 -7 0 -18 -7 -26 -16z"/>
<path d="M15113 1949 c-21 -21 6 -58 51 -69 23 -6 68 -19 101 -29 66 -20 231
-30 221 -12 -4 7 10 8 44 4 42 -5 50 -3 50 11 0 19 1 19 34 6 19 -7 29 -6 41
6 13 13 15 13 15 1 0 -26 27 -26 41 -1 10 19 10 30 2 42 -16 26 -147 24 -181
-2 -15 -12 -26 -15 -30 -9 -4 6 -32 11 -62 11 -103 1 -114 3 -209 27 -110 29
-104 28 -118 14z"/>
<path d="M16863 1933 c-16 -3 -23 -12 -23 -26 0 -40 12 -44 113 -45 54 -1 102
-4 107 -7 6 -3 43 -8 82 -11 40 -3 105 -9 143 -14 86 -11 147 -14 295 -11 173
3 175 3 175 37 l0 29 -140 1 c-157 1 -395 18 -540 39 -54 8 -189 13 -212 8z"/>
<path d="M14845 1905 c-16 -8 -40 -14 -52 -15 -44 0 -73 -21 -73 -53 l0 -30
63 7 c34 4 69 14 78 22 8 8 21 14 27 14 25 0 62 24 62 41 0 15 -6 18 -30 15
-16 -2 -30 1 -30 5 0 12 -9 10 -45 -6z"/>
</g>
</svg>
