<?xml version="1.0" standalone="no"?>
<!DOCTYPE svg PUBLIC "-//W3C//DTD SVG 20010904//EN"
 "http://www.w3.org/TR/2001/REC-SVG-20010904/DTD/svg10.dtd">
<svg version="1.0" xmlns="http://www.w3.org/2000/svg"
 width="1920.000000pt" height="1920.000000pt" viewBox="0 0 1920.000000 1920.000000"
 preserveAspectRatio="xMidYMid meet">
<metadata>
Created by potrace 1.16, written by Peter Selinger 2001-2019
</metadata>
<g transform="translate(0.000000,1920.000000) scale(0.100000,-0.100000)"
fill="#831843" stroke="none">
<path d="M3470 19005 c-47 -8 -105 -21 -129 -29 -24 -9 -56 -16 -70 -16 -60 0
-251 -116 -364 -220 -98 -91 -150 -190 -99 -190 18 0 82 55 82 70 0 10 154
138 206 172 89 57 168 90 252 104 47 9 95 20 106 26 12 6 80 13 151 16 72 2
135 8 140 13 12 9 85 -5 94 -19 6 -8 73 -34 96 -37 25 -3 94 -40 133 -72 43
-35 117 -134 123 -166 4 -16 6 -16 27 -2 27 19 30 71 7 116 -13 24 -20 28 -40
23 -22 -5 -25 -3 -25 22 -1 16 -8 38 -18 49 -20 24 -136 70 -151 60 -6 -3 -12
-1 -12 4 -1 6 -2 15 -3 21 -2 20 -25 30 -110 46 -84 17 -89 17 -98 0 -9 -16
-11 -17 -29 0 -17 15 -19 15 -25 0 -3 -9 -10 -13 -16 -10 -5 3 -7 12 -4 20 7
18 -104 18 -224 -1z"/>
<path d="M9463 18400 c-13 -5 -23 -15 -23 -21 0 -7 -12 -10 -32 -7 -31 5 -65
-6 -79 -25 -3 -5 -10 -9 -15 -9 -10 -1 -17 -2 -60 -16 -29 -9 -31 -8 -26 13 3
21 1 23 -19 18 -13 -3 -38 -16 -56 -29 -17 -13 -39 -24 -48 -24 -9 0 -24 -4
-34 -9 -10 -6 -40 -11 -67 -12 -51 -2 -158 -33 -234 -68 -25 -11 -53 -21 -64
-21 -10 0 -39 -15 -65 -34 -38 -28 -66 -42 -101 -51 -3 -1 -14 -5 -25 -9 -11
-4 -32 -12 -47 -18 -15 -6 -35 -8 -44 -4 -8 3 -43 -7 -77 -22 -34 -16 -74 -32
-89 -36 -16 -3 -28 -11 -28 -17 0 -6 -4 -7 -10 -4 -9 5 -87 -33 -117 -57 -7
-5 -13 -5 -17 1 -8 12 -41 2 -138 -38 -13 -6 -46 -20 -75 -31 -28 -12 -59 -30
-69 -41 -9 -10 -24 -19 -33 -19 -21 -1 -53 -25 -44 -34 4 -4 0 -4 -10 0 -9 3
-17 13 -17 21 0 9 -8 13 -22 11 -19 -2 -23 -9 -23 -38 0 -29 -4 -35 -22 -35
-12 0 -32 -10 -46 -22 l-25 -21 -21 24 c-22 25 -45 31 -56 14 -3 -5 -1 -10 5
-10 6 0 8 -4 5 -10 -5 -9 -97 -5 -135 5 -25 7 -85 -28 -88 -52 -2 -14 -18 -29
-47 -43 -45 -22 -65 -20 -65 6 0 19 -54 19 -70 -1 -7 -8 -9 -15 -4 -15 4 0 -1
-7 -12 -15 -22 -17 -61 -20 -66 -5 -5 15 -60 17 -65 3 -2 -6 4 -13 13 -15 15
-3 13 -7 -8 -27 -14 -14 -38 -26 -54 -28 -15 -2 -36 -9 -47 -15 -14 -7 -18 -7
-12 1 9 15 -12 41 -33 41 -23 0 -122 -69 -122 -86 0 -7 -6 -14 -12 -14 -59 -1
-161 -10 -178 -15 -11 -3 -20 -15 -20 -25 0 -22 -16 -36 -22 -18 -5 15 -51 3
-74 -19 -9 -10 -26 -23 -38 -29 -12 -6 -40 -21 -63 -33 -23 -12 -47 -29 -54
-37 -6 -8 -20 -14 -30 -14 -15 0 -19 6 -17 31 3 37 -18 55 -53 45 -33 -9 -78
-48 -61 -53 6 -3 12 -11 12 -20 0 -10 6 -13 23 -8 15 5 12 0 -11 -14 -18 -12
-54 -26 -80 -32 -26 -6 -87 -24 -137 -40 -82 -28 -105 -34 -142 -38 -6 0 -18
-7 -25 -14 -7 -7 -35 -19 -63 -25 -27 -7 -66 -19 -85 -26 -19 -8 -59 -21 -88
-30 -30 -9 -66 -25 -82 -36 -21 -15 -30 -17 -34 -8 -3 9 -8 8 -16 -4 -6 -10
-22 -18 -36 -18 -13 0 -27 -7 -30 -15 -5 -11 -11 -12 -25 -4 -14 7 -19 6 -19
-2 0 -6 -7 -8 -16 -5 -8 3 -35 -5 -60 -19 -25 -14 -54 -25 -65 -25 -20 0 -81
-36 -87 -52 -2 -4 -10 -8 -17 -8 -8 0 -16 -9 -20 -19 -3 -11 -17 -26 -30 -35
-14 -9 -25 -23 -25 -30 0 -8 -13 -25 -29 -39 -21 -17 -30 -35 -33 -63 -3 -38
-2 -39 32 -44 19 -3 58 1 85 8 28 7 60 13 73 14 12 1 22 7 22 12 0 6 5 5 12
-2 19 -19 28 -14 39 18 12 33 26 39 35 15 8 -21 57 -19 82 4 14 11 31 16 47
13 16 -3 25 0 25 8 0 7 -8 10 -19 7 -24 -6 -36 19 -18 38 7 7 29 16 48 20 19
4 45 13 59 21 14 7 115 43 225 80 110 36 207 68 215 71 8 3 28 7 44 9 17 3 32
8 35 13 4 5 22 12 41 16 19 4 38 13 43 19 4 7 9 3 13 -11 13 -47 82 -34 70 13
-5 19 -1 24 24 29 17 4 45 14 63 23 17 9 44 15 58 14 15 -1 33 6 43 17 14 16
23 18 49 10 43 -12 44 -12 51 15 4 18 24 31 83 56 42 17 84 33 93 35 9 2 50
14 91 28 41 13 103 32 139 42 36 10 72 24 80 30 8 7 20 10 27 8 6 -2 14 1 18
6 3 6 15 11 26 11 11 0 33 7 49 15 32 16 35 13 30 -29 -1 -16 3 -17 27 -12 28
8 43 22 43 41 0 25 53 54 110 61 19 3 53 11 75 18 22 8 73 24 113 37 39 12 72
26 72 31 0 4 6 5 14 2 7 -3 42 8 77 24 35 16 81 32 102 36 20 4 37 11 37 16 0
6 3 9 8 8 13 -3 67 14 90 28 12 8 22 12 22 8 0 -3 12 2 28 12 21 14 24 14 14
2 -19 -24 0 -30 44 -16 27 9 40 20 44 38 4 19 13 26 35 28 17 2 34 10 38 18
11 19 44 10 78 -23 39 -36 75 -24 83 29 4 25 11 38 19 35 6 -2 11 -13 9 -25
-2 -16 1 -19 17 -15 13 3 21 -1 26 -16 7 -23 34 -27 68 -10 26 14 57 45 57 56
0 5 25 21 56 36 46 23 54 31 49 47 -5 16 -2 20 14 20 11 0 36 7 54 16 33 16
36 16 66 -7 22 -16 29 -28 25 -41 -7 -22 22 -24 73 -6 36 13 41 23 17 36 -14
8 -14 10 0 21 9 8 16 20 16 28 0 11 -4 11 -21 2 -12 -6 -25 -7 -30 -2 -5 5 15
21 49 38 l57 30 -34 3 -34 3 27 14 c19 10 39 12 63 7 45 -9 52 -25 19 -40 -19
-8 -24 -18 -24 -41 1 -24 6 -30 31 -35 23 -5 33 -1 49 20 15 18 27 24 42 20
12 -3 28 -1 36 4 13 8 13 13 -2 40 l-17 30 23 -15 c18 -12 41 -14 99 -10 66 5
80 10 107 35 37 35 73 38 93 10 11 -16 21 -19 46 -14 21 4 30 11 27 20 -3 8 0
11 10 7 7 -3 14 0 14 6 0 6 -4 11 -10 11 -5 0 -10 7 -10 16 0 13 -7 15 -30 11
-17 -4 -32 -2 -36 5 -4 7 -3 8 4 4 7 -4 12 -2 12 3 0 6 -4 11 -9 11 -5 0 -13
10 -17 22 -4 13 -14 28 -22 34 -13 9 -9 12 21 18 21 4 45 3 54 -2 14 -9 14
-11 -5 -21 -29 -16 -15 -53 24 -63 16 -3 39 -9 51 -13 16 -5 23 -2 28 15 4 14
2 25 -5 30 -9 6 -7 11 8 19 29 15 40 14 17 -3 -18 -13 -18 -14 3 -25 12 -7 41
-11 65 -10 46 2 85 -7 103 -25 9 -9 7 -17 -6 -34 -10 -12 -23 -22 -29 -22 -15
0 -14 -15 3 -29 11 -9 20 -9 35 -2 11 6 38 11 61 11 34 0 41 3 36 16 -3 9 -6
18 -6 20 0 2 -9 4 -20 4 -11 0 -20 3 -20 8 0 9 172 8 188 -2 6 -3 14 -2 17 4
4 6 15 8 25 5 11 -3 20 0 24 10 4 11 13 14 31 9 14 -3 31 -1 39 5 15 12 46 5
46 -11 0 -5 8 -7 18 -4 17 6 62 -22 62 -37 0 -6 -54 -37 -63 -37 -3 0 -8 11
-11 25 -4 14 -11 25 -17 25 -16 0 -69 -30 -69 -39 0 -10 34 -21 66 -21 11 0
30 -9 42 -20 22 -21 52 -27 52 -10 0 6 9 10 20 10 11 0 20 6 20 14 0 19 54 30
79 16 12 -6 21 -17 21 -26 0 -8 10 -28 21 -44 19 -25 27 -28 75 -27 51 1 53 2
52 29 -1 35 -38 49 -63 24 -27 -26 -38 -19 -32 19 5 31 3 36 -19 41 -13 3 -24
10 -24 14 0 4 -15 11 -33 14 -19 3 -42 13 -53 22 -18 15 -18 15 9 11 15 -2 27
-1 27 3 0 4 11 5 25 2 19 -3 25 0 25 13 0 17 1 17 18 2 10 -10 35 -17 55 -17
35 0 48 -12 27 -25 -22 -14 -7 -24 60 -40 38 -9 75 -24 82 -32 11 -14 10 -15
-12 -8 -14 4 -29 11 -35 16 -5 5 -14 9 -20 9 -5 0 -3 -6 6 -13 9 -7 16 -16 15
-22 -1 -5 33 -17 74 -25 76 -14 120 -42 120 -76 0 -25 28 -15 43 16 15 29 15
29 -19 40 -19 7 -34 16 -34 21 0 6 -4 7 -10 4 -12 -8 -90 15 -90 27 0 4 3 8 8
8 21 0 284 -71 330 -89 29 -11 79 -23 112 -25 66 -5 126 -22 152 -44 9 -8 32
-15 50 -17 18 -2 94 -17 168 -34 74 -16 157 -32 184 -36 34 -5 45 -9 35 -15
-11 -7 -10 -10 6 -16 11 -5 20 -3 23 4 6 19 32 14 32 -5 0 -15 2 -15 9 -4 8
12 18 12 68 1 32 -7 74 -14 93 -17 94 -11 101 -13 95 -33 -9 -30 26 -120 47
-120 10 0 18 7 18 16 0 10 7 14 22 12 29 -4 34 -25 9 -33 -12 -3 -21 -10 -21
-14 0 -6 53 -41 63 -41 6 0 20 42 18 58 -1 6 6 12 15 12 10 0 14 5 10 15 -6
16 3 19 27 9 9 -3 13 -13 10 -25 -4 -14 0 -19 13 -20 11 0 14 -3 7 -6 -19 -7
-16 -23 9 -44 16 -14 24 -16 35 -8 18 16 17 48 -3 56 -13 5 -13 7 -2 14 18 12
53 11 82 -2 29 -14 40 -55 17 -64 -11 -5 -2 -12 31 -22 42 -14 51 -14 85 0 33
13 41 13 58 1 11 -8 14 -14 6 -14 -9 0 -12 -9 -9 -25 3 -14 1 -25 -4 -25 -5 0
-6 -4 -3 -10 3 -5 17 -10 31 -10 13 0 24 -5 24 -10 0 -13 69 -2 88 13 8 6 32
10 53 8 34 -2 40 1 49 24 10 25 45 33 45 10 0 -6 10 -24 23 -42 28 -40 28 -42
-5 -40 -31 2 -41 -25 -11 -31 25 -5 87 25 95 45 4 10 11 21 17 25 15 10 -12
38 -38 38 -20 1 -20 1 -2 15 10 7 15 18 11 24 -4 7 5 11 24 11 16 0 31 -5 33
-11 2 -7 46 -15 103 -19 55 -5 137 -18 183 -29 46 -12 98 -21 115 -21 18 0 52
-7 77 -16 25 -9 65 -17 90 -19 25 -1 74 -10 110 -19 36 -8 85 -16 110 -16 26
0 52 -6 58 -12 10 -10 15 -10 21 1 5 8 11 9 15 3 5 -9 77 -24 176 -36 19 -3
58 -10 85 -17 45 -10 61 -12 108 -9 24 1 72 -5 82 -12 20 -12 69 -19 315 -43
80 -8 165 -17 190 -20 112 -13 211 -25 285 -35 44 -6 96 -13 115 -16 19 -3 58
-7 85 -9 28 -2 50 -5 50 -6 0 0 16 -3 35 -4 19 -2 76 -9 125 -15 50 -6 126
-14 170 -17 44 -3 93 -12 108 -20 17 -8 40 -12 57 -8 15 3 31 2 34 -4 4 -5 19
-9 34 -9 15 1 51 -7 80 -16 28 -10 56 -15 61 -12 5 4 12 2 16 -4 4 -6 11 -8
16 -5 5 4 9 3 9 -2 0 -4 17 -9 38 -10 37 -3 83 -7 202 -18 36 -3 76 -10 90
-16 23 -8 192 -37 270 -45 48 -5 114 -19 127 -27 6 -4 31 -9 54 -12 24 -3 62
-8 84 -12 22 -4 45 -6 52 -5 16 3 206 -35 263 -53 25 -7 81 -16 125 -19 45 -2
115 -16 159 -31 44 -14 103 -29 130 -34 96 -18 371 -80 421 -96 28 -9 66 -18
85 -21 61 -10 64 -20 8 -32 -119 -28 -570 -167 -673 -209 -60 -24 -218 -76
-350 -114 -163 -47 -329 -105 -515 -180 -151 -60 -385 -148 -520 -195 -678
-237 -900 -317 -1061 -382 -97 -38 -245 -93 -330 -120 -230 -75 -409 -143
-549 -210 -119 -57 -244 -103 -320 -117 -84 -17 -206 -62 -355 -132 -212 -100
-360 -156 -534 -204 -79 -22 -169 -53 -201 -69 -32 -16 -124 -50 -206 -75 -82
-25 -219 -77 -304 -115 -85 -37 -202 -85 -260 -105 -132 -47 -238 -96 -393
-181 -187 -103 -206 -111 -301 -129 -49 -9 -159 -36 -245 -61 -215 -62 -203
-60 -516 -90 -198 -18 -312 -25 -391 -21 -108 5 -113 6 -195 50 -46 25 -111
53 -144 62 -33 9 -127 38 -210 65 -82 27 -186 58 -230 69 -44 11 -114 32 -155
46 -126 44 -227 64 -415 85 -308 34 -801 144 -1011 225 -70 27 -259 80 -500
140 -214 53 -424 110 -469 126 -44 15 -168 54 -275 84 -107 31 -258 80 -335
109 -77 29 -165 59 -195 66 -30 7 -98 30 -150 52 -79 32 -309 108 -460 150
-95 27 -491 171 -695 253 -126 51 -275 107 -330 125 -55 18 -163 59 -240 91
-77 32 -300 107 -495 168 -195 60 -413 130 -485 155 -134 47 -277 73 -520 96
-131 12 -365 13 -365 2 0 -5 17 -18 38 -29 59 -33 350 -147 427 -168 39 -10
144 -49 235 -88 91 -38 255 -102 365 -142 270 -98 256 -93 1040 -430 585 -253
918 -385 932 -371 2 1 -56 31 -129 66 -77 37 -126 66 -115 68 19 4 202 -69
256 -102 91 -57 484 -227 592 -257 24 -6 38 -14 32 -16 -24 -9 -13 -25 12 -19
18 5 25 2 25 -9 0 -8 5 -15 10 -15 6 0 10 5 10 10 0 6 16 3 38 -6 20 -9 66
-27 102 -40 37 -13 66 -30 68 -38 4 -19 -114 -139 -128 -131 -6 3 -10 13 -10
22 0 10 -6 14 -20 10 -21 -5 -25 7 -14 37 6 15 8 15 18 1 17 -22 56 -8 58 21
0 13 1 30 2 37 1 6 -7 11 -17 10 -11 0 -27 7 -38 18 -10 10 -25 19 -31 18 -10
0 -10 -2 -1 -6 8 -3 9 -10 3 -21 -13 -23 -40 -110 -40 -127 0 -8 -6 -15 -14
-15 -16 0 -13 14 22 106 13 35 16 57 10 68 -10 17 -38 22 -38 6 0 -5 6 -10 12
-10 7 0 3 -10 -9 -21 -30 -30 -57 -19 -50 20 7 33 -7 50 -45 55 -34 5 -65 16
-114 41 -24 12 -44 18 -44 14 0 -5 -4 -9 -9 -9 -4 0 -6 12 -3 26 4 23 2 25
-16 20 -12 -4 -30 -3 -39 3 -14 8 -15 11 -3 11 12 0 11 3 -3 11 -9 6 -26 7
-37 4 -14 -4 -62 15 -150 59 -72 37 -130 64 -130 60 0 -3 11 -20 23 -37 44
-59 47 -82 51 -362 2 -148 5 -286 6 -305 1 -19 1 -37 1 -40 -4 -11 -13 -338
-12 -380 1 -25 4 -110 6 -190 2 -80 7 -172 12 -205 5 -33 9 -113 8 -177 0 -65
4 -118 8 -118 11 0 -3 -144 -14 -148 -5 -2 -6 -9 -2 -15 4 -7 8 -43 9 -82 2
-102 13 -375 21 -490 3 -55 5 -210 5 -345 -1 -329 16 -476 63 -550 24 -37 89
-100 104 -100 4 0 15 -9 22 -20 8 -11 38 -33 67 -49 l54 -28 -34 -25 c-19 -15
-53 -28 -83 -32 -27 -3 -95 -23 -149 -43 -81 -31 -108 -46 -146 -85 -28 -29
-56 -48 -69 -48 -12 0 -33 -12 -47 -27 -169 -190 -205 -236 -245 -313 -18 -36
-36 -67 -39 -70 -3 -3 -14 -27 -25 -55 -10 -27 -22 -52 -26 -56 -5 -3 -19 -41
-30 -85 -38 -138 -25 -424 25 -540 37 -86 111 -222 146 -269 35 -47 183 -191
252 -245 38 -30 194 -110 214 -110 8 0 14 -4 14 -10 0 -5 18 -13 39 -16 27 -4
41 -12 44 -25 3 -11 14 -19 25 -19 12 0 24 -4 27 -10 3 -5 21 -10 38 -10 18 0
41 -6 52 -13 11 -7 43 -14 70 -15 28 -2 64 -9 80 -16 43 -19 251 -28 295 -12
24 9 45 10 69 4 19 -6 48 -7 65 -4 76 14 108 17 226 21 114 4 167 8 180 15 8
4 54 -2 64 -8 5 -3 25 -6 45 -8 54 -5 152 -32 191 -52 19 -10 55 -37 79 -60
24 -23 48 -42 53 -42 6 0 8 -7 4 -15 -3 -8 -2 -15 3 -15 13 0 20 -39 8 -43 -6
-2 -10 -23 -9 -50 2 -29 -1 -47 -8 -47 -6 0 -8 -4 -5 -10 3 -5 1 -10 -5 -10
-7 0 -10 -5 -8 -12 5 -13 1 -18 -71 -98 -41 -46 -52 -67 -64 -120 -28 -124
-37 -183 -28 -194 5 -6 18 -38 29 -71 l21 -60 -22 -24 c-12 -12 -35 -38 -52
-55 -16 -18 -36 -55 -44 -82 -8 -27 -18 -52 -23 -55 -5 -3 -11 -53 -15 -110
-5 -98 -4 -106 18 -138 13 -19 33 -39 43 -45 34 -19 56 -40 56 -53 0 -12 20
-17 58 -16 6 1 12 -3 12 -7 0 -4 17 -11 37 -15 50 -9 56 -14 42 -31 -17 -21
-10 -24 71 -27 l73 -4 44 -48 c25 -29 48 -66 53 -90 6 -22 17 -51 25 -66 10
-18 13 -53 11 -128 -3 -83 0 -112 16 -154 11 -29 18 -53 16 -54 -1 -1 5 -11
14 -22 9 -11 12 -21 7 -23 -12 -4 57 -98 72 -98 6 0 6 -7 -1 -20 -7 -12 -7
-20 -1 -20 5 0 12 -8 15 -17 14 -43 132 -148 188 -168 24 -8 44 -19 46 -25 2
-5 9 -10 16 -10 7 0 21 -9 31 -20 16 -18 16 -20 2 -20 -10 0 -17 -4 -17 -8 0
-5 -11 -14 -24 -21 -13 -7 -29 -24 -34 -37 -10 -20 -16 -22 -47 -17 -24 4 -35
2 -35 -6 0 -7 -4 -9 -10 -6 -5 3 -24 -2 -42 -12 -18 -10 -40 -18 -48 -19 -35
-3 -56 -16 -78 -48 -13 -19 -21 -40 -17 -45 3 -7 0 -8 -9 -5 -9 4 -16 1 -16
-6 0 -7 -11 -23 -25 -36 -16 -15 -25 -34 -25 -53 0 -16 -4 -31 -10 -33 -12 -4
-24 -94 -14 -110 4 -6 8 -42 10 -80 1 -37 5 -76 8 -86 4 -13 -2 -21 -23 -29
-38 -14 -55 -71 -45 -149 6 -53 6 -54 -19 -54 -32 0 -125 -90 -133 -129 -3
-14 -12 -39 -19 -56 -15 -32 -49 -291 -40 -305 3 -5 1 -11 -4 -15 -5 -3 -8
-15 -6 -27 7 -32 27 -92 34 -98 3 -3 15 -21 25 -40 27 -50 43 -66 82 -85 19
-9 34 -20 34 -25 0 -4 18 -11 40 -15 37 -6 66 -25 39 -25 -8 0 -7 -5 2 -16 12
-15 11 -16 -8 -10 -32 10 -49 -3 -26 -20 11 -8 13 -13 6 -14 -7 0 -129 66
-270 148 -142 81 -278 156 -303 167 -25 11 -82 41 -128 67 -46 27 -86 48 -88
48 -3 0 -54 22 -114 50 -121 55 -218 76 -309 66 -127 -15 -273 -39 -391 -66
-69 -16 -170 -38 -225 -50 -143 -32 -304 -82 -436 -136 -63 -26 -143 -57 -179
-69 -98 -34 -226 -96 -310 -150 -41 -27 -109 -64 -150 -83 -41 -20 -126 -65
-188 -100 -62 -35 -150 -80 -195 -99 -146 -61 -181 -121 -157 -274 7 -46 20
-89 31 -103 27 -34 24 -41 -23 -55 -78 -24 -141 -24 -274 -1 -74 13 -148 20
-174 17 -99 -12 -221 -76 -329 -173 -62 -56 -67 -89 -22 -151 71 -98 186 -149
376 -169 62 -6 68 -5 57 8 -11 14 -6 16 37 15 47 -1 51 -3 56 -29 6 -25 8 -26
28 -14 22 14 180 42 205 37 8 -1 19 2 25 7 7 5 27 13 46 17 23 5 30 10 20 15
-7 5 -21 5 -30 0 -13 -8 -18 -4 -22 18 -3 15 -3 31 0 36 9 13 90 0 108 -18 9
-9 20 -14 25 -11 4 3 13 -2 20 -9 9 -12 7 -17 -10 -26 -12 -7 -31 -10 -41 -7
-22 6 -23 3 -9 -23 12 -23 79 -63 139 -85 38 -13 42 -13 31 0 -7 8 -10 21 -7
29 3 7 0 19 -6 25 -6 6 -7 11 -1 11 5 0 2 4 -6 10 -12 8 -12 10 4 16 21 8 42
-16 23 -28 -8 -5 -6 -8 6 -8 10 0 17 -8 17 -20 0 -26 49 -70 78 -70 22 0 22
-1 7 -16 -9 -9 -15 -28 -13 -43 3 -23 8 -26 49 -29 25 -2 58 2 75 9 16 6 38
13 49 14 84 12 114 22 152 49 36 25 83 83 83 102 0 2 -12 9 -26 14 -22 9 -29
7 -45 -11 -11 -12 -19 -25 -19 -28 0 -3 -11 -11 -25 -18 -14 -6 -25 -10 -25
-9 0 1 10 22 21 46 12 24 24 61 27 82 4 33 7 37 26 32 17 -4 41 13 107 73 47
43 121 103 165 132 43 30 96 70 117 88 20 18 81 55 135 82 53 27 115 58 137
70 61 32 236 107 270 115 23 6 15 -2 -34 -36 -80 -53 -112 -86 -156 -154 -19
-30 -38 -54 -43 -54 -4 0 -32 -20 -62 -46 -29 -25 -71 -54 -94 -66 -23 -11
-72 -44 -111 -73 -38 -29 -80 -56 -92 -59 -33 -10 -180 -173 -204 -226 -56
-123 -93 -189 -129 -235 -22 -27 -65 -88 -96 -135 -84 -126 -100 -149 -160
-220 -29 -36 -54 -71 -54 -79 0 -16 47 -78 119 -154 59 -64 59 -60 -10 -97
-81 -43 -152 -53 -394 -54 -262 -2 -324 -12 -461 -76 -119 -55 -224 -158 -224
-220 0 -39 35 -78 81 -90 21 -6 39 -15 39 -19 0 -5 6 -8 12 -8 13 1 59 -12
268 -78 58 -18 127 -36 153 -40 27 -4 45 -11 40 -15 -4 -4 -44 -2 -88 5 -130
21 -155 27 -155 36 0 5 -6 9 -14 9 -14 0 -26 -21 -26 -45 0 -16 97 -68 114
-62 6 2 22 0 36 -5 30 -12 163 -19 203 -11 22 4 27 11 27 33 0 25 4 28 57 39
96 19 167 73 188 141 13 43 36 61 67 54 43 -9 77 -44 68 -69 -10 -26 8 -42 43
-41 19 1 26 -3 24 -14 -1 -9 7 -16 21 -18 12 -2 22 -8 22 -14 0 -6 11 -8 28
-4 15 3 45 8 67 11 74 9 96 17 140 51 25 19 52 34 61 34 21 0 74 28 74 40 0 5
-10 16 -21 24 -20 14 -21 18 -9 65 7 28 14 51 17 51 3 0 17 -9 33 -20 15 -11
56 -33 90 -49 l63 -30 89 82 c54 49 99 100 113 127 26 52 59 159 52 166 -9 9
-61 -23 -101 -62 -22 -21 -69 -61 -106 -90 l-67 -51 -74 60 c-107 88 -390 377
-387 395 3 15 120 102 137 102 4 0 20 14 37 31 16 17 63 58 104 92 110 88 173
151 259 256 106 131 139 178 168 241 14 30 56 118 94 196 38 78 69 146 69 151
0 17 130 123 151 123 11 0 39 10 62 23 40 21 51 22 272 21 279 -2 387 -9 485
-34 41 -11 120 -30 175 -43 261 -62 416 -100 480 -118 39 -10 113 -21 165 -25
140 -9 144 -9 162 -20 13 -7 8 -10 -23 -10 -23 -1 -48 -9 -57 -18 -15 -15 -15
-16 0 -16 9 0 24 -3 33 -6 9 -4 15 -3 14 2 -3 19 1 34 10 34 10 0 3 -39 -11
-57 -5 -7 -7 -17 -3 -23 3 -5 1 -10 -4 -10 -6 0 -11 -5 -11 -11 0 -6 8 -8 18
-5 9 3 24 1 32 -4 12 -7 12 -12 2 -22 -10 -10 -15 -10 -23 2 -8 12 -10 9 -6
-12 2 -15 -1 -30 -7 -33 -6 -3 4 -3 22 0 21 3 32 0 33 -8 0 -6 6 -1 12 13 6
14 16 28 22 32 6 5 5 8 -3 8 -7 0 -10 4 -7 10 3 5 -6 12 -20 16 -30 7 -33 30
-5 39 11 3 19 9 19 13 -5 30 3 50 19 48 35 -2 9 88 -46 159 -19 24 -19 29 -7
82 8 36 21 63 36 73 12 10 19 22 15 28 -3 6 -1 12 4 14 6 2 12 26 14 53 3 28
5 52 5 55 1 2 6 -1 13 -8 18 -18 28 -15 29 11 0 21 1 21 9 2 8 -18 9 -18 9 -2
1 10 8 20 16 23 12 5 11 9 -4 26 -10 10 -21 31 -24 46 -3 15 -12 35 -19 45
-13 18 -16 18 -61 -4 -26 -13 -47 -27 -47 -31 0 -4 -9 -8 -19 -8 -29 0 -51
-11 -51 -25 0 -14 -62 -85 -74 -85 -4 0 0 10 8 22 10 14 12 26 6 33 -11 14 22
59 34 47 5 -4 5 9 2 30 -4 28 -2 37 11 43 14 5 15 8 4 14 -10 6 -7 14 12 35
28 30 20 32 177 -39 116 -54 248 -85 360 -85 65 0 72 2 60 14 -8 8 -132 74
-275 147 -143 72 -264 135 -269 140 -5 5 -4 14 2 22 7 8 9 17 5 20 -3 4 1 7
10 7 12 0 17 9 17 28 0 33 32 54 65 42 28 -10 45 -2 85 39 19 20 42 36 50 36
8 0 20 11 27 25 7 14 13 21 13 16 0 -5 11 1 25 14 14 13 25 29 25 36 0 19 50
10 78 -15 13 -11 31 -21 41 -21 58 0 140 -182 207 -459 20 -80 40 -153 46
-164 21 -40 84 -100 128 -122 25 -13 52 -30 59 -39 14 -16 17 -128 5 -148 -8
-13 14 -28 42 -28 26 0 37 48 28 126 l-6 51 46 5 c71 8 140 48 291 169 77 62
262 203 410 314 276 206 328 252 366 327 12 24 32 57 45 73 34 45 64 115 64
152 0 81 -81 86 -223 13 -58 -30 -97 -45 -97 -37 0 6 -5 29 -11 50 -7 26 -15
37 -29 37 -31 0 -42 -33 -25 -74 8 -19 15 -43 14 -53 0 -17 -92 -93 -237 -198
-82 -59 -141 -121 -148 -154 -19 -96 -24 -104 -158 -234 -150 -148 -238 -217
-272 -217 -42 0 -93 28 -114 62 -25 41 -32 65 -76 278 -41 197 -51 225 -126
337 -30 44 -47 76 -37 70 13 -8 24 -8 41 1 13 6 46 13 73 14 48 3 50 4 53 35
3 27 1 31 -17 26 -12 -3 -21 -1 -21 5 0 14 -132 -24 -146 -43 -10 -14 -27 3
-116 122 -120 160 -136 192 -119 231 12 26 13 26 27 7 20 -27 163 -49 165 -25
2 18 -2 44 -6 48 -3 4 -78 12 -126 15 l-27 2 41 45 c89 96 176 155 251 167 68
11 89 -30 156 -296 79 -314 139 -461 231 -564 61 -68 93 -87 151 -87 55 0 73
13 149 106 l61 75 43 -5 c40 -6 44 -5 53 23 9 26 8 29 -18 37 l-28 9 180 225
c176 221 215 278 204 306 -19 51 -118 -39 -318 -287 -209 -259 -307 -369 -330
-369 -18 0 -14 7 24 43 63 60 88 96 156 229 33 65 76 139 95 165 19 27 53 82
77 123 82 143 302 394 444 508 39 31 90 76 115 100 24 24 63 52 85 62 23 10
75 43 116 74 41 30 93 62 115 70 22 8 65 24 95 35 30 12 56 21 57 21 2 0 3
-10 3 -23 0 -12 12 -44 26 -71 26 -49 26 -52 16 -150 -6 -62 -19 -120 -32
-151 -12 -27 -33 -88 -47 -135 -14 -46 -35 -103 -48 -125 -34 -59 -76 -251
-85 -395 -9 -126 -38 -265 -65 -306 -8 -12 -32 -74 -54 -136 -34 -100 -124
-288 -137 -288 -3 0 -10 14 -15 30 -6 16 -15 30 -20 30 -5 0 -9 6 -9 14 0 17
-24 28 -45 20 -21 -9 -19 -40 6 -74 31 -41 33 -102 6 -140 -12 -16 -44 -63
-71 -102 -66 -97 -310 -338 -315 -312 -2 10 -10 24 -19 30 -11 8 -16 28 -17
65 0 55 -8 67 -46 68 -12 1 -18 -11 -23 -38 -6 -42 20 -117 53 -150 16 -16 12
-21 -76 -96 -51 -44 -112 -92 -136 -108 -75 -50 -227 -216 -227 -248 0 -22 72
9 246 104 l88 48 21 -27 22 -27 54 26 c30 14 67 29 82 32 15 4 25 10 22 14 -2
4 5 14 16 21 32 23 23 40 -20 40 -22 0 -43 -4 -46 -10 -3 -5 -15 -10 -26 -10
-11 0 -34 -7 -52 -16 -50 -25 -21 -3 94 74 58 39 152 107 207 151 l101 81 -26
-48 c-14 -26 -37 -61 -50 -79 -45 -59 -10 -127 37 -71 11 13 37 48 57 78 20
30 65 82 98 115 34 33 64 68 68 78 5 12 13 16 25 13 27 -9 119 67 138 112 13
32 13 37 0 51 -9 8 -19 11 -23 7 -4 -4 1 -14 11 -22 24 -17 13 -19 -13 -2 -24
14 -60 3 -43 -14 18 -18 14 -27 -8 -21 -15 4 -23 -2 -33 -25 -9 -23 -16 -28
-28 -22 -18 11 -59 -14 -59 -35 0 -8 -5 -17 -12 -21 -7 -4 -8 -3 -4 4 14 22
-18 12 -48 -15 -28 -26 -29 -26 -11 -3 11 14 46 53 78 88 31 34 65 75 74 90
29 45 279 366 302 386 11 11 21 23 21 27 0 5 39 72 87 151 115 190 156 294
199 498 18 91 34 177 34 193 0 15 3 27 8 27 10 0 9 -256 -2 -304 -7 -33 -6
-41 9 -53 11 -7 26 -13 35 -13 24 0 42 84 40 192 -6 441 1 624 27 664 16 25 8
51 -18 59 -26 8 -36 0 -44 -35 -4 -16 -10 -32 -15 -35 -9 -5 -6 50 5 105 4 19
7 37 8 40 0 3 -5 19 -12 35 -20 47 -38 126 -40 169 0 22 -5 42 -10 45 -5 4
-15 29 -21 56 -12 52 -16 63 -46 130 -9 22 -17 46 -17 53 0 6 -4 12 -9 12 -7
0 -5 69 6 217 2 22 7 46 10 52 4 6 5 15 2 20 -4 5 -1 11 4 13 6 2 13 32 16 68
4 36 10 67 15 68 5 2 9 10 9 17 0 7 7 15 15 19 8 3 15 18 15 33 0 36 19 103
28 103 4 0 8 8 9 18 3 53 11 111 16 119 12 19 29 109 31 160 2 48 0 53 -26 64
-15 6 -39 8 -53 5 -20 -5 -25 -13 -25 -36 0 -17 -4 -30 -9 -30 -5 0 -12 -15
-16 -32 -4 -18 -15 -47 -24 -63 -10 -17 -21 -51 -24 -77 -3 -25 -18 -67 -32
-93 -14 -27 -25 -62 -25 -79 0 -19 -7 -36 -18 -43 -11 -6 -24 -35 -32 -69 -7
-33 -17 -66 -21 -75 -5 -9 -11 -32 -13 -50 -3 -19 -12 -59 -20 -89 -16 -62
-27 -180 -17 -180 4 0 6 -27 5 -60 -1 -33 2 -60 8 -60 5 0 6 -5 3 -10 -4 -6
-1 -17 5 -25 7 -8 10 -19 8 -25 -2 -6 -66 -35 -143 -64 -77 -29 -164 -65 -193
-80 l-53 -27 7 28 c4 15 11 30 15 33 4 3 9 17 11 30 2 14 9 35 16 47 11 19 9
26 -8 43 -29 29 -70 25 -105 -11 -16 -17 -30 -34 -31 -37 -1 -18 -40 -72 -51
-72 -7 0 -13 -5 -13 -10 0 -6 -28 -38 -61 -70 -34 -33 -59 -60 -55 -60 3 0 -2
-9 -12 -21 -16 -19 -65 -50 -77 -49 -3 0 -15 -9 -27 -20 -12 -11 -27 -20 -34
-20 -7 0 -20 -10 -28 -22 -9 -12 -16 -19 -16 -15 0 4 -18 -11 -40 -33 -22 -22
-40 -44 -40 -49 0 -6 -19 -27 -41 -48 -101 -93 -189 -182 -189 -191 0 -12 -86
-92 -99 -92 -5 0 -12 -20 -15 -45 -5 -33 -16 -53 -42 -77 -19 -18 -34 -42 -34
-55 0 -13 -5 -23 -10 -23 -6 0 -34 -22 -62 -50 -28 -27 -55 -50 -60 -50 -5 0
-6 -4 -3 -10 3 -5 0 -10 -8 -10 -19 0 -49 -46 -51 -79 -3 -44 -25 -96 -47
-109 -11 -7 -22 -12 -24 -10 -1 2 -24 93 -50 203 -68 285 -101 364 -168 405
-59 36 -200 15 -303 -45 -60 -35 -167 -137 -219 -208 -36 -50 -41 -53 -79 -52
-36 1 -43 5 -68 45 -40 63 -35 74 16 40 24 -17 52 -30 63 -30 23 0 53 35 69
79 17 49 8 72 -25 66 -20 -3 -36 5 -74 42 -53 50 -67 77 -67 129 0 20 -5 44
-10 55 -17 31 8 139 37 162 13 10 23 24 23 31 0 19 31 44 60 48 14 1 31 9 38
16 29 27 82 8 82 -30 0 -10 5 -18 10 -18 6 0 10 -15 10 -34 0 -43 35 -74 82
-72 28 1 36 7 53 44 11 23 22 42 25 42 14 -1 60 -125 65 -175 8 -77 50 -134
79 -105 16 16 24 179 10 199 -6 9 -21 45 -34 81 -12 36 -26 70 -30 75 -4 6
-10 28 -13 50 -4 22 -9 54 -13 70 -3 17 -2 25 3 19 4 -7 35 -17 68 -24 33 -7
66 -17 74 -23 17 -14 178 -19 186 -7 9 15 25 12 25 -4 0 -18 25 -27 37 -15 7
7 19 6 36 -2 20 -9 43 -9 96 -1 39 7 84 12 100 12 17 0 31 5 31 10 0 6 14 10
31 10 42 0 119 20 119 32 0 5 5 6 10 3 26 -16 209 70 266 125 21 21 45 45 52
54 6 8 19 13 26 10 8 -3 19 3 26 15 6 12 15 21 20 21 10 0 121 71 150 97 8 7
40 34 70 59 94 81 250 247 262 280 8 22 16 30 26 26 11 -4 14 -1 10 9 -4 9 2
21 14 28 11 7 17 19 14 27 -3 8 1 14 11 14 13 0 38 23 71 65 32 41 66 114 68
146 1 20 4 41 7 46 11 18 -1 131 -18 156 -15 23 -19 25 -43 14 -40 -18 -122
-103 -122 -126 0 -12 -5 -21 -10 -21 -6 0 -9 -3 -8 -7 3 -15 -14 -63 -23 -63
-5 0 -9 -7 -9 -15 0 -9 -6 -12 -15 -9 -10 4 -15 0 -15 -11 0 -48 -202 -279
-381 -435 -28 -25 -63 -55 -77 -67 -14 -13 -28 -23 -31 -23 -3 0 -20 -13 -37
-30 -18 -16 -34 -27 -36 -24 -3 2 -13 -5 -23 -16 -10 -11 -24 -20 -32 -20 -7
0 -13 -4 -13 -8 0 -4 -25 -24 -55 -43 -30 -18 -55 -37 -55 -41 0 -3 -15 -10
-32 -13 -18 -4 -42 -14 -53 -21 -11 -8 -29 -14 -42 -14 -12 0 -24 -4 -27 -9
-3 -5 -20 -11 -38 -14 -18 -2 -60 -11 -93 -20 -127 -32 -160 -36 -225 -27
-150 21 -170 25 -193 35 -9 4 -23 5 -31 2 -8 -3 -16 -1 -18 4 -2 6 -19 12 -38
15 -19 3 -40 7 -46 9 -14 4 -11 94 3 104 9 7 37 61 38 76 1 6 5 21 9 35 4 14
16 57 28 95 35 119 159 499 170 521 5 12 10 43 10 70 0 27 6 58 11 69 6 11 10
23 9 28 -1 4 3 7 9 7 6 0 9 9 6 20 -3 11 -1 20 5 20 5 0 6 5 3 10 -4 6 -1 17
5 25 6 8 9 19 5 25 -3 5 1 10 10 10 13 0 15 9 11 53 -2 28 1 57 6 64 5 7 7 17
3 23 -9 15 -45 -17 -45 -41 0 -10 -4 -21 -10 -24 -5 -3 -10 -22 -10 -42 0 -27
-10 -48 -37 -81 -30 -37 -34 -47 -25 -63 16 -25 5 -51 -18 -44 -21 7 -50 -19
-50 -44 0 -10 -7 -24 -15 -31 -8 -7 -12 -17 -9 -22 8 -13 -16 -88 -33 -106
-13 -13 -17 -33 -14 -59 1 -7 -3 -13 -9 -13 -5 0 -10 -14 -10 -32 0 -42 -31
-139 -47 -145 -6 -3 -9 -11 -6 -20 3 -8 2 -18 -4 -22 -14 -9 -41 -72 -57 -132
-7 -30 -18 -65 -24 -79 -6 -14 -20 -59 -33 -100 -12 -41 -23 -77 -25 -79 -7
-9 -85 35 -90 51 -3 10 -12 18 -21 18 -14 0 -103 82 -103 96 0 5 -17 28 -60
81 -6 7 -10 21 -10 32 0 10 -7 21 -15 25 -8 3 -14 9 -13 13 1 4 -5 28 -12 53
-16 52 -20 74 -26 150 -3 30 -7 73 -8 95 -2 22 -8 61 -14 87 -5 26 -7 50 -4
53 3 3 0 5 -7 5 -7 0 -21 19 -31 43 -40 89 -127 146 -295 192 -115 31 -148 46
-169 77 -38 55 -1 161 84 242 38 36 60 48 100 56 46 9 80 28 80 45 0 18 -83
145 -91 139 -18 -11 -57 24 -69 62 -23 69 -1 129 87 240 18 23 33 44 33 48 0
4 10 20 21 35 37 50 56 171 37 236 -7 22 -13 45 -14 50 -1 6 -3 13 -4 18 -1 4
-3 10 -4 15 -8 34 -24 61 -52 92 -19 19 -34 38 -34 42 0 10 -106 89 -116 87
-5 -1 -34 9 -64 23 -31 14 -89 31 -130 37 -83 13 -373 17 -392 5 -6 -4 -39 -9
-72 -11 -34 -2 -86 -6 -116 -10 -76 -9 -367 -4 -397 8 -13 5 -39 9 -56 9 -38
0 -276 78 -295 97 -7 7 -19 14 -25 15 -7 0 -16 2 -22 3 -5 0 -37 19 -70 41
-33 21 -72 44 -88 51 -15 7 -27 17 -27 23 0 5 -4 10 -9 10 -19 0 -181 178
-181 199 0 6 -9 11 -20 11 -13 0 -22 9 -26 25 -3 14 -10 25 -14 25 -4 0 -10
13 -13 29 -4 16 -18 53 -32 82 -14 29 -25 61 -25 70 0 10 -4 19 -9 21 -6 2
-12 15 -15 30 -2 15 -8 32 -11 38 -14 22 -6 228 10 265 8 21 15 46 15 57 0 30
31 116 46 129 8 6 14 20 14 31 0 10 4 24 10 31 14 17 80 118 80 123 0 2 8 13
18 23 9 10 28 31 40 45 l24 26 25 -20 c32 -25 35 -25 65 3 32 30 95 67 114 67
8 0 22 8 32 18 9 9 33 17 52 18 19 0 72 11 118 23 137 37 216 25 402 -62 63
-29 131 -59 150 -67 19 -7 46 -23 60 -36 44 -39 214 -88 362 -104 51 -5 113
-16 137 -25 24 -8 53 -15 65 -15 12 0 47 -9 78 -20 32 -11 117 -31 190 -45 73
-14 158 -33 188 -42 30 -9 87 -17 125 -19 39 -2 99 -9 135 -17 39 -8 77 -10
94 -6 20 6 39 3 60 -8 17 -9 64 -18 104 -21 39 -3 72 -8 72 -13 0 -19 47 -30
190 -43 111 -10 155 -18 169 -30 13 -12 37 -16 89 -16 39 0 73 -3 75 -8 7 -10
-28 -52 -42 -52 -13 0 -30 -39 -34 -79 -2 -14 -9 -37 -17 -51 -7 -14 -15 -37
-17 -52 -2 -16 -5 -42 -6 -59 -2 -17 -8 -34 -13 -37 -17 -12 -16 -72 2 -123
16 -44 16 -51 4 -59 -12 -8 -13 -13 -2 -30 6 -11 12 -38 12 -60 0 -24 5 -40
12 -40 6 0 8 -3 5 -6 -4 -4 0 -19 8 -33 16 -31 70 -144 71 -151 4 -22 30 -64
68 -110 25 -30 46 -58 46 -62 0 -4 10 -10 23 -14 12 -4 31 -16 42 -28 30 -31
90 -75 119 -86 31 -11 33 -34 6 -57 -15 -13 -17 -20 -8 -31 10 -11 8 -17 -7
-28 -17 -13 -17 -14 -1 -14 9 0 14 -5 11 -10 -4 -6 -10 -8 -14 -5 -11 6 -31
-41 -31 -73 0 -16 6 -34 13 -41 10 -11 9 -13 -6 -8 -15 6 -17 3 -12 -14 5 -15
2 -22 -14 -26 -14 -3 -21 -13 -21 -29 0 -12 -5 -26 -10 -29 -6 -4 -8 -16 -4
-27 4 -13 2 -18 -4 -14 -5 3 -12 -5 -14 -19 -3 -14 -2 -25 2 -25 4 0 10 -19
13 -41 3 -23 11 -46 19 -50 9 -6 6 -9 -11 -9 -17 0 -22 -4 -17 -16 4 -9 1 -23
-6 -31 -10 -13 -13 -12 -19 4 -6 14 -8 12 -9 -12 -1 -16 -2 -39 -1 -50 5 -63
-61 -197 -88 -180 -12 7 -41 -46 -41 -75 0 -11 -7 -32 -16 -46 -15 -23 -15
-26 0 -43 21 -24 20 -31 -5 -31 -14 0 -19 -5 -16 -14 3 -8 -1 -20 -9 -26 -16
-14 -18 -42 -4 -56 6 -6 8 -18 4 -28 -5 -13 -10 -14 -20 -5 -11 9 -13 5 -11
-18 2 -30 37 -76 37 -48 0 17 16 20 25 5 7 -12 35 5 35 22 0 5 8 18 19 29 11
12 16 29 14 43 -3 15 2 31 14 43 35 35 52 143 22 143 -5 0 -6 7 -3 15 4 10 13
13 25 10 20 -7 22 -1 19 47 -1 14 4 29 10 33 5 3 8 11 4 16 -3 5 5 24 19 42
28 37 42 84 26 89 -6 2 -2 20 10 48 11 25 21 55 21 68 0 12 9 31 20 42 21 21
60 125 60 162 1 13 9 41 20 63 10 22 16 43 14 47 -3 5 1 17 9 29 8 11 13 29
10 40 -3 11 1 21 9 24 9 4 13 15 11 28 -2 12 0 34 6 48 9 25 11 26 63 18 29
-5 80 -15 113 -23 70 -16 348 -14 405 3 19 6 47 11 63 11 15 0 49 11 75 24 65
32 168 81 222 105 25 11 73 40 107 65 62 46 183 177 183 199 0 6 11 25 25 41
14 16 25 33 25 39 0 5 9 22 20 38 48 66 92 267 71 322 -7 17 -7 27 0 29 14 5
-15 142 -41 196 -22 44 -24 56 -12 48 4 -3 136 -10 293 -16 211 -8 297 -8 334
0 29 7 187 13 380 15 275 4 367 9 555 31 225 26 270 35 270 53 0 6 15 7 35 4
19 -3 42 -2 52 2 10 4 28 7 41 6 12 -1 22 2 22 8 0 7 10 9 23 6 15 -4 28 -1
36 9 8 9 29 16 47 16 19 0 42 4 52 10 9 5 96 26 192 45 96 20 258 58 360 86
101 28 227 59 280 70 93 18 133 28 275 67 79 21 153 38 207 48 20 3 44 15 54
25 9 10 25 19 34 19 36 0 285 61 288 70 2 6 25 10 52 10 32 0 62 8 93 25 25
14 83 38 129 54 45 16 125 46 176 66 l92 38 0 40 c0 34 8 48 66 111 37 39 85
96 107 128 32 45 44 55 63 52 18 -3 22 0 21 16 -1 11 -5 20 -9 20 -5 0 2 16
14 35 15 23 31 35 46 35 25 0 26 4 12 29 -6 13 -1 39 18 92 25 69 27 83 23
204 -1 72 -4 173 -5 225 0 52 -5 98 -11 102 -6 4 -2 8 8 8 15 0 15 2 -3 20
-18 18 -26 58 -21 100 1 8 4 56 6 105 3 50 10 105 16 124 7 21 9 62 5 108 -6
61 -4 76 9 90 11 10 13 18 6 22 -7 5 -4 38 11 106 18 88 19 106 9 161 -7 34
-12 99 -10 145 1 46 -1 114 -6 151 -7 60 -6 66 11 71 18 5 17 5 -2 12 -24 8
-41 62 -24 79 5 5 10 22 10 36 0 14 5 31 12 38 9 9 9 12 0 12 -19 0 -14 37 6
45 16 6 16 7 -1 20 -16 11 -17 25 -12 121 11 228 16 770 7 811 -8 34 -7 40 4
36 19 -7 18 11 -1 27 -12 10 -13 16 -4 26 9 11 8 14 -2 14 -11 0 -11 2 1 10
12 8 13 13 3 29 -10 15 -9 22 2 31 11 9 13 44 11 169 l-3 158 23 -26 c27 -32
43 -21 24 17 -8 15 -16 32 -19 37 -3 6 3 3 14 -5 10 -8 37 -15 60 -15 40 -1
42 0 42 30 0 16 -7 35 -16 41 -12 10 -13 17 -4 37 7 14 9 28 6 31 -11 11 -41
6 -45 -6 -3 -9 -6 -9 -12 0 -4 7 11 20 43 36 52 25 60 23 74 -16 10 -29 37
-22 37 10 0 21 2 24 10 12 13 -20 13 -57 -1 -66 -6 -3 -15 -1 -19 6 -10 16
-40 6 -40 -13 0 -7 7 -22 15 -33 15 -19 15 -19 30 1 13 16 18 17 33 7 29 -21
41 -24 58 -18 16 6 16 8 0 24 -9 10 -16 23 -16 29 0 6 -7 13 -15 17 -8 3 -15
10 -15 15 0 6 7 8 15 5 22 -9 18 5 -7 26 -17 14 -20 22 -12 30 8 8 17 2 32
-24 12 -20 27 -36 34 -36 7 0 25 -14 39 -32 25 -30 59 -35 59 -8 0 6 -4 9 -9
5 -5 -3 -12 -1 -16 5 -6 10 12 14 46 11 9 -1 19 5 22 14 4 8 14 15 23 15 14 0
15 10 9 80 -7 74 -6 80 11 80 11 0 30 -16 43 -35 13 -19 30 -35 37 -35 17 0
18 12 2 28 -13 13 -5 27 11 17 6 -3 11 -20 11 -37 0 -17 3 -28 7 -25 3 4 12 2
20 -5 19 -16 27 -4 13 22 -6 12 -9 28 -6 37 6 13 9 13 32 -2 14 -9 28 -15 30
-12 9 9 -19 67 -32 67 -8 0 -14 7 -14 15 0 18 26 20 33 3 3 -8 6 -6 6 5 1 16
2 16 19 0 14 -13 16 -23 10 -36 -5 -10 -7 -23 -4 -30 2 -7 5 -4 5 5 1 10 12
20 26 24 19 5 25 13 25 34 0 20 6 29 22 33 29 8 36 0 14 -16 -17 -12 -17 -14
1 -45 24 -43 59 -44 68 -1 4 17 4 33 1 36 -3 3 2 12 12 19 14 11 15 17 5 43
-6 17 -10 31 -9 31 2 0 20 -16 41 -36 29 -27 35 -38 25 -44 -16 -10 -5 -43 13
-37 7 2 12 23 12 55 -1 47 1 50 15 37 26 -24 33 -18 27 25 -4 31 -2 40 10 40
8 0 81 25 161 55 81 31 226 79 322 106 96 28 225 68 285 89 275 97 640 217
684 225 18 4 65 22 105 41 67 31 135 53 334 105 46 12 81 24 78 26 -3 3 -20 0
-38 -5 -54 -17 -91 -18 -96 -3 -3 10 1 12 18 8 13 -3 36 1 51 9 15 7 39 14 54
14 15 0 25 6 25 14 0 19 28 27 82 25 48 -2 310 80 437 138 89 40 106 39 21 -2
-101 -48 -119 -93 -33 -82 43 5 194 70 236 101 81 60 116 99 138 154 12 31 28
66 36 77 19 29 16 60 -10 92 -13 15 -38 51 -56 80 -28 42 -45 57 -100 83 -103
50 -281 106 -289 92 -6 -8 -17 -8 -46 2 -21 7 -41 17 -45 22 -8 11 -67 35
-101 40 -62 9 -132 23 -215 43 -103 24 -225 28 -225 9 0 -20 13 -33 47 -50 53
-26 93 -32 93 -14 0 23 21 31 32 12 15 -27 56 -38 142 -41 68 -1 80 -4 86 -20
5 -14 30 -24 101 -40 83 -19 95 -20 105 -7 10 13 13 12 24 -8 l13 -23 13 24
13 24 6 -31 c6 -27 13 -32 57 -44 56 -14 199 -82 216 -103 9 -10 -5 -11 -76
-5 -48 5 -106 15 -130 23 -23 8 -54 15 -67 15 -13 0 -27 5 -30 10 -3 6 -16 10
-28 10 -21 0 -264 73 -302 91 -11 5 -36 12 -55 15 -74 11 -87 14 -155 35 -82
24 -209 59 -245 66 -14 3 -29 9 -35 13 -11 9 -90 24 -205 40 -41 5 -104 17
-140 25 -75 18 -175 34 -240 40 -25 2 -58 8 -75 13 -44 15 -106 29 -225 52
-201 38 -225 41 -242 35 -9 -4 -38 1 -64 10 -26 9 -59 13 -73 10 -31 -8 -275
-7 -319 1 -31 6 -32 7 -16 25 13 15 25 18 58 13 48 -8 40 11 -9 21 -108 20
-333 57 -400 65 -44 5 -143 17 -220 25 -77 9 -156 18 -175 21 -19 2 -46 6 -60
9 -55 14 -269 42 -330 43 -64 2 -65 2 -35 -13 26 -13 26 -15 6 -11 -14 3 -29
-1 -35 -8 -9 -11 -28 -11 -109 0 -55 7 -101 15 -105 18 -3 3 0 6 6 6 7 0 12 7
12 16 0 13 7 15 36 9 21 -4 34 -3 30 3 -3 5 -25 12 -48 15 -24 3 -83 13 -133
21 -49 9 -115 18 -145 21 -30 3 -118 14 -195 25 -212 30 -201 28 -367 60 -29
5 -78 12 -108 15 -79 7 -133 15 -150 22 -8 4 -31 7 -51 7 -19 1 -43 9 -53 19
-16 15 -46 22 -86 19 -8 -1 -32 5 -53 13 -20 8 -66 15 -101 15 -43 0 -67 5
-75 14 -7 9 -40 17 -79 21 -37 3 -94 12 -127 21 -33 8 -92 14 -132 13 -55 -1
-76 2 -88 15 -10 10 -33 16 -58 16 -23 0 -78 9 -122 21 -173 44 -202 50 -244
54 -29 3 -59 14 -87 35 -36 26 -49 29 -81 24 -30 -4 -43 -1 -62 15 -37 33 -60
35 -92 12 -16 -12 -29 -17 -29 -11 0 5 -9 10 -20 10 -11 0 -20 5 -20 10 0 6
-18 10 -40 10 -22 0 -40 4 -40 9 0 4 -12 9 -27 9 -77 4 -135 15 -140 28 -3 8
-18 14 -34 14 -16 0 -29 4 -29 8 0 4 -16 8 -35 9 -20 1 -51 8 -70 17 -24 12
-40 14 -52 7 -22 -11 -93 11 -105 33 -9 16 -51 31 -118 42 -25 3 -67 17 -95
31 -29 13 -51 19 -53 13 -5 -13 -32 -13 -32 0 0 5 -12 12 -27 16 -46 10 -83
26 -83 36 0 5 -4 6 -10 3 -5 -3 -10 -2 -10 2 0 12 -82 33 -130 33 -41 0 -90
17 -90 32 0 4 -13 8 -30 8 -16 0 -44 9 -62 20 -18 11 -46 20 -61 20 -16 0 -35
7 -43 15 -9 8 -31 15 -50 15 -19 0 -34 5 -34 10 0 6 -18 10 -40 10 -29 0 -40
4 -40 15 0 8 -9 15 -19 15 -10 0 -21 7 -25 15 -4 11 -13 14 -31 9 -19 -5 -24
-3 -20 7 3 9 -7 19 -27 27 -18 7 -46 19 -61 27 -16 8 -39 15 -51 15 -12 0 -27
5 -33 11 -15 15 -387 22 -420 9z m5401 -1185 c140 -26 190 -38 211 -48 16 -8
78 -16 215 -28 27 -2 95 -22 107 -32 7 -5 31 -7 55 -5 24 1 45 -1 47 -7 6 -15
-24 -29 -45 -21 -11 5 -48 10 -84 12 -93 5 -139 11 -180 23 -34 11 -69 16
-245 41 -75 10 -153 23 -218 37 -27 5 -27 6 -10 24 22 22 45 23 147 4z m-1764
-2951 c0 -11 -6 -14 -20 -9 -12 4 -31 0 -45 -9 -13 -9 -33 -16 -45 -16 -11 0
-20 -7 -20 -15 0 -10 -11 -16 -30 -17 -16 -1 -42 -2 -57 -3 -16 -1 -46 -10
-68 -20 -153 -66 -256 -103 -250 -88 3 9 0 20 -7 25 -16 10 7 28 37 28 11 0
38 9 60 20 74 36 179 69 252 80 39 5 88 16 110 24 53 19 83 19 83 0z m247
-230 c4 -10 9 -12 18 -4 15 13 45 3 45 -16 0 -8 -6 -11 -17 -7 -11 4 -14 3 -9
-5 5 -8 0 -12 -14 -12 -13 0 -20 -5 -17 -12 2 -7 15 -12 27 -10 13 1 27 -3 31
-10 6 -10 13 -7 29 10 26 28 48 28 52 0 3 -19 10 -22 53 -23 28 0 70 -10 94
-21 l44 -19 -26 -31 c-37 -44 -60 -51 -247 -74 -91 -11 -191 -27 -223 -34 -31
-7 -60 -10 -63 -5 -9 16 -37 10 -30 -6 3 -9 0 -15 -9 -15 -8 0 -15 5 -15 10 0
6 -7 10 -15 10 -22 0 -75 -41 -75 -57 0 -7 -6 -13 -12 -13 -7 0 -62 -25 -123
-56 -60 -31 -159 -81 -219 -111 l-109 -55 6 -52 c3 -28 9 -67 12 -86 7 -34 6
-34 -23 15 -17 28 -37 57 -46 64 -26 22 -92 8 -222 -47 -84 -36 -146 -55 -200
-63 -99 -14 -155 -35 -240 -92 -38 -25 -82 -49 -99 -53 -75 -17 -100 -39 -142
-122 -1 -2 -11 6 -22 17 -25 25 -39 26 -66 7 -24 -17 -141 -41 -297 -61 -115
-14 -143 -23 -283 -83 -75 -32 -413 -133 -505 -151 -30 -5 -86 -13 -125 -17
-121 -12 -221 -30 -242 -45 -11 -8 -48 -47 -82 -86 -34 -40 -65 -73 -69 -73
-4 0 -22 -13 -40 -29 -17 -17 -32 -25 -32 -19 0 20 33 123 44 137 6 8 16 32
22 55 7 23 20 66 29 96 29 96 33 118 23 128 -5 5 -3 14 7 22 8 7 15 21 15 31
0 25 37 35 59 15 27 -24 75 -19 144 16 60 30 66 31 202 32 139 1 140 1 220 38
92 42 162 68 188 68 9 0 17 7 17 15 0 9 6 12 17 8 12 -5 15 -2 10 10 -4 10 -1
17 6 18 27 3 52 -4 59 -14 26 -42 25 -42 59 -9 18 18 41 32 50 32 10 0 20 4
23 9 3 5 15 7 26 4 13 -3 26 1 33 11 7 10 33 19 67 22 30 3 78 17 106 31 41
20 56 23 72 14 29 -15 52 -14 52 3 0 21 19 30 35 16 12 -10 23 -9 52 6 49 23
138 31 158 14 13 -10 15 -9 15 11 1 21 2 22 11 7 14 -24 39 -23 39 2 0 11 4
20 10 20 5 0 7 -7 4 -15 -4 -8 -1 -15 5 -15 6 0 13 12 17 28 3 15 7 31 8 36 1
5 12 -8 24 -28 12 -21 28 -36 35 -34 6 3 30 37 51 76 30 55 42 69 52 61 9 -7
19 -6 34 3 18 11 23 10 38 -8 38 -45 111 -53 132 -14 15 28 12 40 -9 40 -23 0
-30 16 -21 50 l6 25 15 -22 c15 -24 62 -32 74 -13 5 8 11 7 21 -1 7 -6 12 -15
9 -19 -10 -17 8 -40 31 -40 17 0 27 8 34 24 5 13 13 27 18 30 14 9 42 -4 42
-19 0 -13 21 -25 46 -25 17 0 19 27 2 33 -22 7 17 73 53 91 37 19 39 19 59 6
12 -7 12 -12 -4 -29 -22 -25 -13 -61 16 -61 32 0 95 56 102 90 6 30 26 34 26
5 0 -9 18 -16 55 -20 71 -9 87 -3 83 32 -3 24 -8 28 -38 31 -45 5 -63 20 -56
48 6 24 -8 40 -39 46 -15 2 -20 -3 -21 -21 -1 -13 -9 -28 -18 -33 -9 -5 -14
-13 -11 -19 4 -5 0 -9 -7 -9 -7 0 -23 -3 -34 -6 -21 -5 -21 -4 -11 40 6 25 14
46 19 46 24 0 76 53 82 84 4 18 16 42 29 54 l22 21 -2 -47 c-3 -88 43 -127 68
-57 11 28 18 35 40 35 31 0 44 -24 40 -77 -2 -38 7 -41 41 -13 19 14 28 16 36
8 14 -14 25 -5 27 25 1 19 8 22 46 25 24 2 48 7 54 13 5 5 19 9 31 9 13 0 25
3 27 8 9 13 -5 101 -16 99 -5 -1 -12 4 -14 12 -4 10 1 11 18 6 31 -10 40 -25
34 -52 -3 -13 -1 -23 4 -23 5 0 16 -3 25 -6 12 -5 16 0 16 19 0 21 4 24 22 19
18 -4 20 -2 15 18 -5 21 -3 22 33 17 38 -5 38 -5 44 35 6 34 9 38 21 28 8 -7
15 -21 15 -31 0 -16 5 -18 28 -13 37 9 38 11 19 32 -10 10 -17 25 -17 33 0 19
39 22 47 3z m-7281 -285 c33 -6 91 -28 132 -51 57 -31 100 -46 195 -64 78 -16
129 -31 142 -43 34 -31 89 -61 113 -61 31 0 52 52 52 130 0 56 2 60 23 60 13
0 51 9 85 21 43 14 71 19 90 13 15 -4 35 -8 44 -9 10 -1 25 -8 34 -16 28 -23
205 -71 291 -78 44 -4 88 -13 97 -20 13 -11 16 -11 16 0 0 9 3 10 8 3 4 -6 22
-14 40 -17 26 -5 32 -3 32 11 0 13 2 14 9 4 4 -8 11 -13 15 -13 23 4 127 -35
134 -50 2 -4 11 -5 22 -2 10 3 33 -2 51 -11 18 -9 40 -16 51 -16 10 0 26 -4
36 -9 52 -28 94 -44 157 -57 57 -12 72 -12 80 -2 5 7 24 12 42 10 23 -2 33 2
37 15 3 10 3 -1 1 -24 -4 -34 -2 -43 10 -43 8 0 15 7 15 16 0 8 7 22 15 30 13
14 18 12 45 -18 16 -18 30 -36 30 -41 0 -5 9 -7 19 -4 12 3 27 -3 37 -14 25
-28 80 -35 104 -14 19 17 20 17 20 -4 0 -21 12 -22 67 -6 7 2 10 -2 6 -11 -5
-15 13 -44 28 -44 5 0 9 10 9 23 0 31 4 34 38 29 24 -3 28 -8 24 -28 -5 -28
17 -41 46 -25 17 9 19 8 15 -9 -6 -23 16 -27 35 -8 9 9 15 9 25 -1 10 -11 10
-13 0 -7 -7 4 -13 3 -13 -2 0 -5 14 -9 31 -9 17 0 34 -4 37 -10 10 -15 48 -33
56 -26 12 13 5 32 -14 38 -11 4 -18 10 -15 15 8 12 37 0 53 -22 7 -10 24 -18
37 -18 17 0 26 -8 34 -30 9 -27 14 -30 38 -24 15 3 38 12 50 20 18 11 23 11
35 -3 11 -15 10 -16 -9 -11 -12 3 -27 0 -33 -6 -12 -16 -3 -26 24 -26 11 0 32
-12 48 -27 44 -42 48 -24 10 48 -5 11 46 20 73 13 22 -5 25 -12 25 -50 0 -36
4 -46 21 -52 20 -8 20 -8 -4 -19 -20 -9 -27 -22 -32 -57 -4 -25 -5 -62 -3 -81
4 -32 2 -34 -17 -29 -34 11 -45 25 -45 59 0 57 -13 59 -169 28 -125 -24 -145
-26 -174 -14 -17 7 -47 16 -64 18 -28 4 -34 1 -44 -21 -13 -28 -49 -36 -49
-11 0 25 -22 63 -39 68 -114 33 -393 107 -404 107 -16 0 -27 -29 -27 -72 0
-19 17 -44 58 -87 l57 -60 -3 -72 c-5 -102 3 -137 34 -145 18 -5 32 0 48 15
l23 21 64 -29 c125 -56 217 -63 314 -21 31 13 51 17 55 11 3 -6 44 -14 91 -17
95 -7 132 4 163 51 l18 27 49 -55 c44 -50 60 -60 155 -96 123 -48 141 -50 154
-16 32 85 19 182 -24 171 -13 -3 -29 3 -42 15 l-22 20 24 26 c13 14 32 50 41
80 l17 54 12 -60 c7 -32 17 -69 24 -80 15 -30 46 -26 66 8 l18 30 24 -26 c22
-24 28 -25 80 -20 l57 6 -2 -52 c-1 -29 -2 -61 -2 -73 -1 -11 -10 -30 -21 -42
-11 -12 -20 -32 -20 -45 0 -13 -8 -35 -18 -48 -11 -13 -22 -48 -25 -78 -4 -30
-10 -58 -14 -62 -5 -4 -65 -19 -134 -34 l-127 -26 -143 21 c-144 21 -144 21
-182 60 -45 47 -63 53 -113 42 -36 -8 -84 -5 -190 13 -47 8 -48 7 -59 -76 -4
-28 -2 -55 4 -68 11 -20 9 -21 -29 -21 -45 0 -55 21 -19 41 20 10 21 17 16 96
-6 101 -18 120 -50 79 l-23 -28 -32 27 c-23 19 -57 32 -125 46 -115 23 -231
60 -281 90 -32 19 -37 26 -32 48 27 120 28 197 3 188 -17 -5 -28 -74 -25 -148
l3 -66 -25 7 c-15 4 -23 13 -21 21 28 101 21 192 -16 197 -30 4 -52 -32 -61
-104 l-8 -59 -28 48 c-15 26 -31 47 -35 47 -4 0 -13 -11 -19 -25 -16 -36 -29
-31 -60 20 -25 42 -30 46 -62 43 -30 -3 -37 1 -49 27 l-14 29 -16 -24 c-26
-41 -50 -60 -72 -60 -18 0 -20 4 -15 26 5 19 0 35 -20 61 -40 52 -63 59 -113
33 -41 -20 -43 -21 -56 -3 -13 17 -15 17 -56 -7 -76 -42 -130 -33 -259 46 -39
24 -82 39 -140 50 -57 11 -98 25 -125 44 -54 37 -115 67 -275 135 -178 76
-214 88 -420 141 l-175 44 -64 64 -64 64 12 49 c11 47 17 53 74 87 69 40 120
46 233 25z m2412 -169 c2 0 0 -4 -3 -10 -3 -5 -2 -10 4 -10 5 0 11 4 13 8 2 5
17 1 33 -10 28 -17 28 -18 6 -16 -13 2 -26 -2 -28 -9 -6 -16 36 -28 50 -14 17
17 37 13 102 -19 33 -16 65 -30 72 -30 13 0 74 -32 133 -68 19 -12 48 -22 64
-22 16 0 47 -9 70 -19 23 -11 57 -26 77 -35 20 -9 42 -22 49 -31 7 -9 29 -15
51 -15 28 0 39 -4 39 -15 0 -17 -45 -21 -55 -5 -3 6 -22 10 -41 10 -19 0 -52
9 -74 20 -22 11 -47 20 -56 20 -9 0 -28 8 -42 19 -15 10 -50 26 -79 34 -28 9
-62 22 -75 30 -12 8 -61 27 -108 43 -47 15 -92 32 -100 39 -30 23 -127 68
-205 96 -44 15 -70 28 -57 28 12 1 22 7 22 15 0 12 13 10 67 -10 38 -13 69
-24 71 -24z m2653 -71 c23 0 23 -1 -6 -14 -74 -35 -319 -126 -372 -139 -32 -8
-71 -19 -86 -25 -16 -6 -40 -11 -55 -11 -15 0 -51 -9 -81 -21 -32 -12 -65 -18
-79 -14 -13 3 -29 2 -35 -3 -7 -5 -39 -13 -72 -17 -33 -4 -64 -10 -70 -15 -5
-4 -37 -11 -70 -14 -33 -4 -75 -10 -92 -13 -19 -3 -33 -1 -33 5 0 10 10 13
112 32 31 5 73 19 92 31 20 11 46 22 58 24 13 1 63 14 112 29 48 14 99 26 113
26 13 0 36 6 51 14 29 15 106 34 177 43 22 3 47 11 55 18 8 7 49 27 89 44 l75
31 21 -20 c28 -26 37 -25 35 3 -3 37 -1 41 18 24 10 -10 29 -17 43 -18z
m-5151 -269 c38 -23 100 -50 138 -60 38 -9 104 -34 145 -54 42 -20 125 -47
184 -61 116 -26 172 -44 223 -70 18 -10 64 -26 103 -36 79 -22 124 -45 184
-93 l42 -34 -97 -35 c-106 -38 -315 -99 -329 -96 -4 1 -21 -3 -36 -9 -51 -21
-53 -19 -38 71 4 26 5 47 1 47 -3 0 -16 -19 -27 -42 l-22 -43 0 62 c-1 34 -5
64 -9 67 -5 3 -14 -17 -21 -44 -7 -26 -19 -56 -26 -67 -13 -16 -14 -9 -15 62
0 83 -11 118 -30 99 -18 -18 -40 -146 -40 -241 0 -79 2 -93 16 -93 12 0 15 -6
10 -22 -3 -13 -6 -31 -6 -40 0 -11 -8 -18 -21 -18 -14 0 -25 -11 -35 -36 -13
-30 -13 -48 -4 -112 13 -80 25 -123 40 -132 5 -3 15 -33 23 -67 13 -57 13 -64
-3 -78 -25 -22 -38 -19 -60 17 -30 50 -41 113 -45 273 -2 83 -5 166 -5 185 -1
19 -1 64 1 100 5 125 -30 148 -68 45 l-22 -60 0 73 c-1 65 -3 72 -21 72 -25 0
-31 -14 -65 -168 -34 -158 -32 -163 71 -222 78 -46 79 -46 88 -96 9 -56 -5
-149 -29 -180 -11 -16 -26 -19 -87 -19 -62 1 -88 7 -180 44 -104 42 -109 43
-133 27 -30 -20 -31 -15 -5 59 11 32 20 75 20 95 0 21 3 58 6 84 l7 48 81 -7
c48 -3 87 -2 96 4 10 7 16 33 18 84 5 87 13 80 -118 97 -116 16 -120 20 -120
142 0 83 -4 108 -25 158 -29 69 -30 80 -10 80 21 0 19 13 -5 35 -20 19 -25 49
-14 103 5 23 10 28 25 25 13 -4 19 0 19 11 0 9 -7 16 -15 16 -8 0 -15 7 -15
15 0 8 5 15 11 15 6 0 8 7 5 16 -3 8 -1 25 5 36 10 19 18 20 90 15 71 -5 87
-10 149 -47z m7960 -178 c36 -35 60 -91 60 -138 0 -26 -51 -153 -86 -211 -23
-40 -28 -43 -67 -43 -63 0 -87 -21 -87 -75 0 -47 -17 -65 -60 -65 -13 0 -24
-8 -27 -19 -3 -11 -19 -26 -37 -35 -17 -8 -50 -33 -74 -55 -43 -41 -102 -62
-125 -43 -6 5 -27 13 -44 17 l-33 7 0 -51 c0 -64 -21 -74 -79 -35 -47 30 -68
27 -73 -12 -3 -25 -10 -18 -67 69 -35 54 -68 100 -73 103 -4 3 -5 -21 -2 -53
l6 -58 -31 33 c-42 45 -65 39 -71 -18 -6 -50 -15 -70 -32 -70 -6 0 -42 14 -79
31 -82 38 -99 34 -99 -22 0 -37 -2 -40 -16 -28 -15 13 -16 11 -10 -21 12 -68
19 -170 10 -170 -5 0 -22 9 -39 20 -16 11 -45 20 -62 20 -33 0 -36 -4 -45 -64
-2 -16 -12 -20 -55 -21 -28 -1 -77 -11 -110 -23 -36 -14 -99 -25 -168 -30
-108 -8 -110 -8 -128 15 -31 39 -61 30 -112 -37 -25 -33 -56 -62 -69 -66 -14
-3 -40 4 -67 18 -62 32 -156 36 -233 9 -76 -27 -108 -26 -143 3 -41 34 -68 46
-102 46 -25 0 -36 -8 -56 -40 -14 -22 -30 -40 -37 -40 -6 0 -30 18 -54 40 -24
22 -52 40 -62 40 -11 0 -37 -12 -58 -27 -75 -51 -191 -39 -285 29 -35 25 -46
29 -61 19 -28 -17 -49 -13 -97 18 l-43 29 73 12 c86 15 165 41 224 73 34 20
54 23 116 21 41 -1 82 -5 93 -10 13 -5 27 2 52 30 37 40 63 46 82 16 14 -23
42 -27 42 -6 0 11 17 15 73 15 39 0 87 5 105 10 17 5 32 6 32 2 0 -4 7 -16 15
-27 15 -18 16 -17 10 13 -5 25 -3 32 13 37 27 9 33 51 23 171 -13 159 -2 156
84 -19 36 -74 65 -143 65 -153 0 -11 7 -28 16 -39 15 -18 15 -18 9 9 -3 15 -1
27 5 27 5 0 10 -4 10 -10 0 -5 5 -10 11 -10 5 0 8 3 6 8 -3 4 12 15 34 24 39
16 39 16 39 -6 0 -12 12 -45 26 -74 24 -48 28 -52 61 -52 l36 0 -6 49 c-5 40
-21 90 -45 133 -1 3 6 9 16 13 11 3 31 16 43 29 13 13 40 27 59 31 19 4 46 13
60 20 26 14 98 88 136 140 l22 30 26 -24 c15 -15 26 -35 26 -51 0 -59 41 -181
86 -260 27 -46 50 -78 51 -73 2 6 -16 67 -41 137 -24 69 -43 126 -42 126 1 0
17 -20 34 -43 18 -26 34 -64 39 -93 8 -46 11 -50 46 -58 50 -13 86 1 110 41
17 30 17 34 1 65 -30 59 -63 96 -99 109 -32 12 -35 16 -35 54 0 56 10 68 51
60 29 -5 38 -2 57 19 26 31 38 32 118 7 33 -11 94 -22 135 -26 41 -3 84 -8 96
-11 17 -3 24 3 33 31 13 39 38 60 86 70 l32 6 7 -53 c7 -56 45 -118 71 -118
22 0 17 86 -10 151 -20 49 -21 59 -9 75 15 20 17 19 44 -28 11 -21 39 -24 39
-5 0 6 -4 29 -9 50 -8 34 -7 37 13 37 14 0 26 -11 36 -33 16 -34 50 -50 50
-23 0 19 4 20 31 4 17 -11 22 -10 30 5 8 14 14 16 24 7 28 -23 34 0 14 57 -30
89 -28 95 30 87 l49 -6 65 66 c59 59 71 68 93 65 4 0 10 5 14 11 12 19 162 98
189 99 14 1 37 -13 61 -37z m615 -349 c-2 -82 -6 -108 -18 -119 -4 -4 -7 -20
-7 -35 0 -15 -5 -29 -12 -31 -11 -4 -13 -11 -22 -73 -3 -16 -9 -41 -14 -54
l-9 -25 -7 28 c-4 15 -4 31 0 37 3 5 1 15 -4 22 -13 16 17 176 38 202 5 6 5
17 0 25 -19 30 -11 57 18 66 l27 7 -30 7 c-23 6 -25 8 -8 9 12 0 25 6 28 11
15 24 23 -5 20 -77z m-7070 -20 c51 -26 75 -43 75 -55 0 -20 13 -23 39 -8 32
16 216 -32 321 -85 69 -34 127 -54 223 -76 139 -31 266 -73 294 -96 16 -13 15
-14 -17 -9 -19 3 -163 12 -320 21 -157 8 -341 22 -410 30 -69 8 -159 15 -201
15 l-76 0 -7 46 c-3 26 -6 60 -6 75 0 43 -19 35 -26 -12 -7 -40 -64 -116 -78
-102 -3 3 -6 32 -6 64 0 77 -17 84 -26 12 -7 -66 -13 -80 -24 -63 -6 10 -15
10 -41 1 -27 -9 -39 -8 -73 9 -50 25 -102 67 -94 75 3 4 15 2 26 -4 54 -29
101 -3 156 87 33 55 37 58 69 54 36 -4 84 15 106 42 8 9 15 16 17 16 2 0 37
-17 79 -37z m-563 -643 c7 -11 19 -20 26 -20 7 0 30 9 52 20 43 22 91 26 121
10 10 -6 45 -14 77 -18 l57 -7 6 -53 c4 -29 9 -56 12 -58 3 -3 12 14 21 38 31
81 111 87 155 12 14 -24 30 -36 52 -41 17 -3 33 -11 35 -18 3 -7 -5 -54 -18
-106 l-23 -94 -35 1 c-85 2 -170 16 -170 28 0 6 -16 36 -35 65 -19 30 -37 74
-41 98 -3 24 -12 43 -19 43 -13 0 -55 -87 -55 -114 0 -10 -9 -16 -24 -16 -14
0 -38 -11 -55 -25 l-30 -26 -15 30 c-13 25 -31 34 -118 63 l-103 35 -3 41 c-3
38 1 46 42 87 50 50 69 55 88 25z m823 -136 c31 -3 92 -26 160 -60 99 -48 120
-55 207 -64 155 -16 183 -14 201 14 12 18 15 38 10 75 -6 56 1 62 52 39 30
-13 32 -28 6 -35 -43 -11 -53 -118 -14 -149 43 -34 75 -43 189 -51 105 -8 124
-13 159 -36 49 -33 59 -33 97 -2 46 39 77 33 153 -32 22 -19 64 -41 93 -49 64
-19 67 -16 79 66 l7 55 7 -52 c12 -94 16 -100 94 -159 41 -31 77 -64 80 -74 7
-21 -24 -150 -35 -150 -5 0 -12 14 -15 31 -4 18 -26 50 -48 72 -38 37 -41 39
-53 21 -28 -41 -34 -45 -54 -34 -26 14 -56 12 -69 -4 -7 -8 -23 -17 -38 -21
-31 -7 -65 21 -94 78 -23 44 -32 46 -48 11 -10 -23 -15 -25 -52 -19 -23 4 -60
15 -83 25 -67 30 -161 41 -235 29 -73 -13 -75 -11 -86 59 -13 87 -24 93 -50
25 -15 -40 -20 -44 -26 -28 -4 11 -8 33 -8 48 -1 34 -22 32 -32 -4 -5 -18 -7
-13 -8 21 -2 67 -14 80 -45 48 -32 -35 -68 -44 -117 -28 -30 10 -48 11 -76 2
-34 -11 -40 -9 -95 28 -32 21 -81 46 -109 55 -48 16 -53 16 -61 1 -5 -9 -17
-16 -28 -16 -16 0 -19 11 -25 76 -8 81 -14 84 -35 14 l-13 -45 -13 40 c-9 31
-13 36 -19 23 -15 -37 -25 -4 -25 82 0 116 4 125 38 100 15 -11 50 -22 77 -26z
m-1860 -19 c21 -49 27 -55 54 -55 17 0 42 5 57 12 23 11 28 10 44 -10 10 -12
20 -27 22 -34 3 -7 13 -5 32 7 28 18 28 18 51 -11 21 -27 25 -28 61 -19 22 6
76 8 122 5 l83 -5 23 -65 c12 -36 33 -84 45 -107 17 -34 18 -43 7 -43 -8 0
-135 29 -283 65 -147 36 -284 65 -303 65 -52 -1 -66 -17 -74 -85 -10 -83 -17
-106 -28 -99 -10 6 -1 103 11 116 3 4 4 32 3 62 -4 51 -6 56 -27 56 -44 0 -55
10 -55 51 0 29 3 37 14 33 8 -3 13 -15 11 -26 -3 -12 3 -27 13 -34 23 -18 32
-17 32 1 0 8 9 15 19 15 19 0 35 23 24 34 -4 3 -21 6 -40 6 -18 0 -33 3 -33 8
0 19 62 112 75 112 9 0 26 -24 40 -55z m4186 9 c32 -12 90 -18 214 -22 151 -4
175 -7 215 -27 32 -16 74 -25 145 -31 95 -7 97 -8 50 -15 -27 -4 -72 -8 -99
-8 -47 -1 -53 -5 -97 -51 -52 -56 -79 -62 -103 -25 -19 29 -42 33 -50 8 -3
-10 -10 -61 -15 -115 -15 -138 -22 -149 -68 -106 -21 20 -22 23 -7 39 14 15
14 29 5 105 -6 48 -14 91 -18 95 -34 31 -93 49 -164 49 -42 0 -95 7 -119 15
-55 19 -81 19 -125 -2 -30 -14 -39 -15 -56 -4 -12 7 -22 11 -24 9 -2 -2 3 -56
11 -121 15 -124 10 -157 -24 -157 -9 0 -28 9 -42 20 -14 11 -39 20 -55 20 -17
0 -46 5 -65 10 -29 8 -37 7 -47 -7 -16 -21 -16 -13 -1 24 6 15 11 31 10 36 -1
4 4 7 12 7 7 0 16 10 19 21 4 14 11 20 21 16 26 -10 39 28 31 92 -5 46 -3 60
9 70 9 8 16 20 16 27 0 8 10 14 25 14 21 0 24 -3 16 -17 -40 -73 -43 -88 -24
-139 23 -61 43 -63 60 -4 11 37 11 54 0 97 l-14 53 51 1 c28 0 96 8 151 19 55
10 103 18 106 19 4 1 26 -6 50 -15z m2459 -228 c28 -60 45 -85 65 -94 32 -15
59 0 51 27 -3 9 -7 36 -11 61 l-7 45 18 -25 c55 -79 91 -95 144 -65 32 18 83
20 78 3 -2 -7 -19 -20 -37 -30 -18 -9 -40 -23 -49 -31 -11 -10 -56 -20 -127
-27 -142 -15 -194 -28 -346 -88 -127 -51 -239 -78 -437 -107 -112 -16 -113
-16 -162 6 -53 24 -104 84 -98 115 6 33 35 40 67 16 17 -12 40 -22 52 -22 21
0 22 3 17 85 -3 47 -2 85 2 85 4 0 16 -32 26 -72 27 -101 44 -101 44 1 0 65 3
81 15 81 16 0 24 -24 34 -103 l6 -52 55 -7 c30 -3 85 -6 123 -7 65 -1 69 0
111 39 38 35 45 38 56 25 7 -8 21 -15 31 -15 16 0 19 8 19 43 l0 42 31 -53
c28 -49 53 -72 65 -59 3 3 0 48 -7 99 -8 65 -9 100 -2 113 11 20 113 66 127
58 5 -3 26 -42 46 -87z m-2554 -103 c12 -28 14 -55 9 -108 -6 -64 4 -147 20
-163 13 -13 25 26 26 88 l1 65 14 -69 c7 -38 17 -73 22 -78 5 -5 71 -8 145 -6
l136 3 -27 -29 c-49 -52 -99 -67 -195 -60 l-84 7 -22 -47 c-13 -25 -24 -46
-26 -46 -2 0 -16 21 -31 48 -51 88 -78 103 -109 60 l-16 -23 -19 25 c-16 22
-20 23 -25 8 -8 -21 -12 -180 -5 -233 5 -37 3 -40 -22 -43 -26 -3 -27 -3 -16
35 14 52 2 223 -18 243 -13 13 -19 12 -57 -8 -23 -12 -45 -22 -48 -22 -3 0
-20 23 -37 50 -38 60 -71 79 -113 63 -27 -11 -28 -10 -18 9 6 11 9 32 6 46
-11 56 16 66 83 32 46 -24 69 -25 95 -6 18 13 23 11 57 -20 33 -30 45 -34 91
-34 28 0 76 3 105 6 l52 7 0 61 c0 50 -5 69 -26 99 -25 37 -25 39 -8 58 26 28
43 23 60 -18z m1220 0 c27 -35 28 -36 37 -15 6 12 14 22 18 22 14 0 40 -46 68
-122 33 -90 56 -101 66 -34 l7 46 29 -40 c16 -22 32 -40 37 -40 4 0 21 9 37
20 17 11 32 20 35 20 4 0 12 -16 19 -35 11 -31 10 -40 -3 -60 -21 -31 -52 -48
-76 -40 -11 3 -38 21 -60 40 -56 47 -77 52 -109 26 -91 -74 -171 -77 -281 -11
-57 35 -79 42 -140 47 l-73 6 7 -57 c3 -32 13 -72 20 -90 l14 -33 -127 -31
c-77 -19 -130 -27 -135 -21 -6 5 -33 9 -62 9 -47 0 -52 2 -58 25 -4 14 0 41 9
62 13 32 14 48 4 110 -12 75 -20 88 -53 94 -11 2 -21 10 -24 17 -2 7 2 10 12
6 9 -4 30 -1 47 6 38 16 65 3 97 -45 12 -19 28 -35 34 -35 7 0 53 27 103 59
81 54 170 91 215 91 10 0 23 -16 33 -40 20 -53 37 -51 37 4 0 44 10 56 46 56
11 0 13 -9 8 -40 -9 -57 16 -94 59 -86 17 3 32 8 34 10 2 2 -5 28 -17 57 -11
30 -20 57 -20 61 0 6 17 10 66 17 7 0 24 -16 40 -36z m-3436 -81 c0 -56 18
-92 46 -92 8 0 69 -22 136 -49 136 -54 204 -71 280 -71 40 0 65 -8 123 -40 65
-36 76 -39 99 -28 22 9 37 8 84 -7 43 -14 92 -19 197 -20 151 -2 183 -10 230
-55 44 -42 78 -52 157 -44 l68 7 15 -36 c30 -73 36 -71 -162 -64 -205 8 -349
19 -517 41 -96 12 -128 21 -173 46 -51 29 -60 31 -118 25 -52 -6 -71 -3 -110
14 -26 12 -63 21 -81 21 -19 0 -51 6 -71 14 -21 8 -60 17 -88 21 -27 4 -66 17
-85 31 -20 13 -60 28 -89 34 -32 6 -80 26 -117 50 -35 22 -69 40 -77 40 -7 0
-30 -20 -50 -45 -45 -53 -79 -59 -125 -20 -30 25 -72 34 -72 15 0 -5 -9 -10
-19 -10 -15 0 -21 10 -26 39 -5 29 -16 47 -40 65 -41 32 -78 33 -105 4 l-21
-23 -25 33 c-14 17 -34 32 -44 32 -13 0 -23 14 -35 51 -9 28 -15 53 -11 56 20
20 173 28 324 16 l82 -6 0 -31 c0 -17 4 -37 9 -44 8 -13 219 -42 307 -42 47 0
57 15 69 93 5 33 11 44 21 40 10 -3 14 -22 14 -61z m-1843 -119 c13 -19 24
-23 69 -23 29 0 56 -4 59 -10 12 -20 26 -9 44 32 17 41 18 42 24 16 5 -18 20
-33 50 -47 54 -26 72 -26 91 0 l14 21 11 -21 c15 -27 35 -27 54 2 l16 22 0
-22 c1 -31 18 -38 33 -13 19 30 40 24 70 -20 22 -32 34 -40 58 -40 18 0 33 6
36 15 10 26 21 17 29 -22 7 -38 30 -73 47 -73 6 0 8 48 6 114 -1 63 0 112 5
109 4 -2 7 -15 7 -28 0 -12 7 -25 15 -29 11 -4 15 -22 15 -76 0 -74 10 -87 33
-44 l14 27 11 -44 c10 -36 20 -49 57 -71 25 -15 45 -34 45 -41 0 -25 -27 -39
-60 -32 -25 5 -37 2 -54 -15 -23 -21 -24 -21 -62 -3 -22 10 -40 20 -42 23 -15
29 -21 33 -34 23 -7 -6 -25 -9 -40 -6 -23 4 -30 14 -43 58 -19 67 -33 79 -78
67 -24 -7 -45 -6 -73 4 -21 8 -76 14 -122 14 l-82 0 6 25 c5 20 3 24 -10 19
-9 -3 -16 -12 -16 -20 0 -8 -4 -14 -10 -14 -5 0 -10 9 -10 20 0 11 -5 20 -11
20 -6 0 -8 -7 -5 -16 4 -10 2 -14 -6 -11 -7 2 -12 9 -11 15 1 6 -22 8 -63 4
-57 -4 -64 -3 -58 12 4 11 1 16 -10 16 -10 0 -13 6 -10 15 4 10 0 15 -11 15
-12 0 -15 -6 -10 -22 5 -18 4 -20 -4 -8 -15 20 -14 47 2 54 10 5 10 7 0 12 -7
3 -12 18 -12 32 1 21 2 22 6 7 3 -10 12 -29 20 -42z m4461 -521 c23 -12 57
-22 75 -22 24 0 41 -9 62 -30 34 -35 47 -36 199 -15 59 8 113 12 119 8 6 -3
49 -10 97 -13 53 -5 115 -18 161 -35 89 -32 138 -30 324 14 127 30 156 28 190
-9 20 -22 9 -51 -29 -75 -20 -13 -37 -14 -112 -5 -155 17 -169 15 -218 -30
-60 -55 -88 -62 -161 -39 -33 10 -70 19 -83 19 -12 0 -77 20 -143 45 -110 41
-125 44 -160 35 -37 -10 -43 -9 -84 21 -41 30 -54 33 -150 40 -80 6 -118 13
-161 33 -70 32 -79 32 -108 1 l-24 -26 -61 17 c-34 10 -61 20 -61 24 0 4 35
21 78 38 95 39 181 40 250 4z m-1308 -497 c-10 -16 -21 -40 -25 -52 -5 -19 -2
-23 15 -23 11 0 20 -6 19 -12 -3 -25 1 -37 15 -40 12 -3 12 -8 1 -33 l-13 -30
-1 28 c-1 27 -21 40 -21 13 0 -8 -7 -16 -15 -20 -8 -3 -15 -17 -15 -32 0 -17
-6 -28 -20 -31 -23 -6 -37 -42 -20 -53 9 -5 9 -9 1 -14 -6 -4 -11 -12 -11 -17
0 -6 5 -7 11 -3 8 4 8 0 0 -15 -7 -11 -8 -21 -4 -22 4 0 -2 -4 -14 -9 -26 -11
-31 -30 -8 -30 8 0 15 -4 15 -10 0 -5 -4 -10 -10 -10 -5 0 -10 -7 -10 -15 0
-17 -54 -75 -70 -75 -5 0 -11 -10 -13 -22 -5 -21 -5 -21 -4 2 0 14 -7 42 -16
64 -9 21 -17 44 -17 50 0 6 -7 19 -14 29 -8 10 -12 26 -9 36 3 11 -10 30 -37
55 -23 21 -40 40 -37 42 5 6 39 5 139 -2 l77 -6 6 29 c4 15 14 44 24 63 10 19
17 42 16 50 -1 8 -3 20 -3 26 -1 6 -19 11 -39 10 -29 -1 -38 3 -41 17 -3 16 0
18 20 11 12 -4 36 -8 52 -8 28 -1 31 3 55 78 25 75 26 77 33 45 5 -25 1 -42
-12 -64z m-590 64 c25 -7 69 -23 98 -35 29 -14 72 -24 97 -24 24 0 46 -4 49
-9 3 -4 23 -11 44 -15 22 -3 45 -12 52 -20 8 -10 22 -13 42 -9 23 5 30 3 26
-8 -5 -16 -114 -24 -123 -9 -4 6 -19 10 -34 10 -15 0 -41 6 -57 14 -16 8 -46
17 -68 20 -21 4 -43 10 -50 13 -6 4 -13 8 -16 9 -3 0 -27 4 -55 8 -27 4 -67
15 -87 24 -35 16 -36 18 -20 35 10 11 25 16 37 13 11 -2 40 -10 65 -17z m1535
-159 c49 -7 96 -15 105 -20 8 -5 21 -5 30 0 9 5 42 10 74 11 53 2 60 0 72 -22
7 -13 13 -28 14 -32 0 -10 -305 -2 -396 10 -34 5 -69 14 -77 21 -9 7 -21 12
-29 11 -7 -2 -31 0 -53 4 -22 3 -77 11 -122 18 -46 7 -83 16 -83 20 0 4 34 5
76 4 41 -2 84 0 96 4 11 4 61 1 111 -6 51 -7 132 -17 182 -23z m-938 -134 l-5
-34 163 -7 c90 -4 168 -4 174 -1 6 4 25 -1 42 -10 23 -12 49 -15 93 -12 41 3
69 0 90 -10 24 -12 38 -13 71 -4 55 15 113 5 120 -19 4 -11 13 -19 21 -19 8 0
14 -2 14 -5 0 -2 14 -52 31 -110 25 -90 29 -117 24 -173 -3 -37 -12 -83 -20
-102 -28 -67 -38 -95 -39 -103 -1 -4 -6 -11 -12 -15 -7 -4 -19 -25 -28 -46
-22 -53 -114 -161 -153 -181 -18 -9 -33 -20 -33 -24 0 -4 -15 -15 -32 -23
-192 -92 -251 -118 -298 -131 -63 -17 -150 -32 -165 -27 -14 4 -20 3 -95 -4
-36 -3 -90 -1 -120 5 -30 6 -81 13 -112 16 -49 5 -58 3 -58 -11 0 -9 -5 -16
-10 -16 -7 0 -7 6 -1 19 6 10 8 21 4 24 -3 4 0 14 8 23 11 13 11 18 2 21 -17
6 -17 53 0 53 16 0 50 34 42 42 -9 8 31 150 45 158 7 4 9 13 5 20 -5 8 -2 18
7 24 8 6 15 21 14 33 -1 12 3 21 8 20 10 -2 65 166 66 202 0 32 21 101 31 101
4 0 15 26 25 58 9 31 25 83 36 114 11 31 17 61 14 67 -3 5 -1 11 5 13 7 2 7
11 -1 30 -10 22 -9 30 6 52 25 33 28 32 21 -8z m-229 -548 c22 -22 14 -46 -15
-50 -18 -2 -29 -10 -32 -23 -2 -11 -11 -25 -20 -31 -15 -11 -14 -15 6 -42 l22
-30 -25 -23 c-13 -12 -24 -29 -24 -36 0 -8 -7 -16 -15 -19 -8 -4 -15 -15 -15
-25 0 -13 5 -17 17 -12 9 4 1 -8 -17 -25 -34 -33 -34 -40 1 -22 11 6 19 7 19
1 0 -5 -7 -11 -15 -15 -8 -3 -19 -16 -24 -30 -10 -24 -66 -52 -76 -36 -8 13 6
40 20 40 13 0 32 44 69 157 10 29 22 55 27 58 5 4 9 19 9 34 0 24 9 56 35 129
6 15 37 16 53 0z m-1517 -4102 c11 6 49 -14 49 -26 0 -6 -16 -10 -35 -10 -31
0 -39 -6 -65 -46 -39 -62 -46 -127 -25 -229 14 -66 15 -86 5 -116 -16 -47 -8
-68 30 -82 30 -11 41 -27 18 -27 -6 0 -9 -3 -5 -6 8 -8 -18 -34 -33 -34 -37 0
-135 122 -132 165 9 174 43 375 63 375 4 0 10 9 14 19 7 23 38 30 79 19 16 -4
33 -5 37 -2z m254 -256 c15 -30 36 -67 46 -82 19 -26 19 -27 -3 -33 -46 -13
-74 -31 -131 -85 -82 -78 -119 -110 -128 -110 -8 0 9 49 21 60 16 16 32 62 27
79 -3 12 -2 21 3 21 9 0 23 37 23 63 0 9 4 17 8 17 5 0 9 7 9 15 0 8 5 15 11
15 5 0 8 4 4 9 -3 5 1 16 9 24 8 8 18 28 21 43 16 68 15 67 34 42 10 -13 31
-48 46 -78z m-1320 -231 c39 -17 90 -41 115 -54 25 -13 86 -39 135 -59 50 -20
209 -96 354 -169 197 -99 266 -138 272 -155 5 -12 15 -25 23 -28 8 -3 12 -12
9 -20 -3 -8 -8 -12 -13 -9 -4 2 -5 -7 -2 -22 5 -24 3 -25 -27 -21 -36 5 -49
-6 -31 -27 10 -12 9 -15 -3 -15 -9 0 -14 -7 -12 -17 2 -10 4 -22 4 -26 1 -5 5
-6 10 -3 17 11 43 -5 31 -19 -5 -6 -7 -15 -3 -18 3 -4 -3 -7 -15 -7 -12 0 -22
-4 -22 -9 0 -5 -9 -11 -20 -14 -11 -3 -20 -1 -20 4 0 5 -19 6 -42 4 -43 -6
-65 -15 -35 -15 11 0 15 -8 13 -25 -1 -14 -6 -28 -10 -33 -4 -4 -6 -2 -4 3 4
14 -27 57 -35 48 -4 -3 -7 1 -7 9 0 19 -27 32 -35 17 -4 -5 -11 -7 -16 -3 -5
3 -18 0 -27 -8 -15 -12 -16 -11 -3 5 8 9 11 20 7 24 -3 4 -13 -3 -22 -15 -18
-26 -34 -21 -27 8 6 22 -7 26 -25 8 -9 -9 -12 -8 -12 4 0 11 -6 15 -20 11 -11
-3 -17 -9 -14 -14 3 -5 -2 -9 -11 -9 -11 0 -15 5 -12 14 6 15 -19 56 -34 56
-5 0 -9 -7 -9 -15 0 -8 5 -15 11 -15 5 0 7 -5 3 -11 -4 -8 -9 -7 -15 2 -4 7
-11 10 -15 6 -4 -4 -18 5 -31 19 -12 14 -23 21 -23 17 0 -4 -5 -1 -10 7 -8 13
-11 13 -19 1 -10 -16 -31 -6 -31 15 0 20 -16 18 -40 -6 -16 -16 -20 -17 -20
-4 0 8 -4 13 -9 10 -5 -3 -21 18 -35 48 -20 40 -40 63 -79 89 -82 56 -149 71
-292 64 -66 -3 -136 -11 -155 -16 -19 -6 -91 -23 -160 -37 -148 -30 -422 -135
-654 -251 -168 -84 -473 -280 -553 -355 -39 -38 -56 -48 -65 -40 -7 5 -40 18
-73 27 -144 42 -300 147 -380 255 -42 57 -43 78 -10 119 37 44 83 68 143 76
29 4 76 13 105 21 28 8 106 19 172 24 66 5 160 18 208 29 48 12 111 21 140 21
90 1 396 112 504 183 91 60 292 160 373 185 36 11 130 48 210 83 149 65 242
91 295 83 17 -3 62 -19 100 -35z m-50 -600 c4 -6 13 -8 20 -5 18 7 65 -16 65
-31 0 -14 16 -18 23 -5 2 4 2 1 1 -5 -2 -7 3 -13 11 -13 8 0 15 -4 15 -10 0
-14 -27 -13 -32 1 -2 6 -17 11 -33 11 -17 0 -33 5 -37 12 -6 8 -11 7 -18 -4
-7 -11 -10 -12 -10 -2 0 10 -5 8 -17 -4 -16 -15 -18 -16 -21 -2 -3 17 -52 22
-52 6 0 -6 -7 -8 -15 -4 -18 6 -18 5 -5 -30 9 -24 9 -25 -5 -14 -8 7 -15 9
-15 5 0 -4 -6 -2 -14 4 -11 9 -15 9 -18 -1 -5 -13 -56 -16 -158 -8 -50 3 -301
-15 -340 -25 -14 -3 -4 3 23 14 162 66 611 145 632 110z"/>
<path d="M6740 13651 c-5 -11 -10 -45 -10 -75 l0 -56 148 -75 c81 -41 175 -92
208 -113 58 -36 69 -39 210 -56 176 -21 200 -29 221 -70 8 -17 16 -32 17 -33
6 -7 344 -43 362 -39 27 7 47 54 38 92 -7 33 -58 130 -82 157 -15 16 -16 16
-34 -3 l-19 -20 -37 22 -38 21 -71 -21 c-39 -12 -80 -22 -91 -22 -27 0 -57 39
-77 100 -9 28 -21 52 -26 56 -5 3 -31 -8 -58 -25 -26 -17 -61 -31 -77 -31 -57
0 -150 31 -269 90 -126 62 -266 120 -290 120 -8 0 -19 -9 -25 -19z"/>
<path d="M6030 12978 c0 -7 -11 -37 -25 -65 l-24 -53 -76 7 c-70 5 -77 4 -100
-17 -23 -21 -24 -28 -18 -79 3 -31 11 -59 17 -63 5 -4 44 -9 86 -13 41 -3 85
-8 96 -10 30 -6 41 26 54 154 13 129 13 151 0 151 -5 0 -10 -6 -10 -12z"/>
<path d="M2687 18154 c-22 -22 15 -113 75 -185 18 -22 45 -55 60 -73 35 -42
193 -150 207 -142 6 4 11 22 11 41 0 28 -6 37 -37 56 -51 31 -132 102 -166
147 -17 23 -37 37 -50 37 -14 0 -23 8 -25 20 -2 11 -12 29 -22 40 -10 11 -20
29 -22 39 -3 21 -20 31 -31 20z"/>
<path d="M4162 17723 c-25 -10 -66 -106 -66 -158 0 -62 51 -180 86 -195 13 -6
33 -26 45 -45 12 -19 43 -46 68 -60 l45 -27 -32 -23 c-91 -64 -193 -117 -243
-125 -122 -20 -152 -38 -126 -79 7 -11 18 -11 62 -2 141 32 221 63 311 123
l90 61 77 -26 c103 -35 224 -44 317 -22 56 13 74 21 84 41 12 21 11 27 -2 41
-14 14 -21 14 -47 4 -40 -17 -186 -29 -236 -20 -22 4 -57 15 -78 24 l-37 15
17 28 c10 15 30 39 44 53 37 35 61 120 53 187 -16 131 -145 213 -333 211 -47
0 -92 -3 -99 -6z m252 -97 c37 -18 67 -41 87 -68 26 -37 29 -47 23 -87 -8 -56
-93 -181 -122 -181 -22 0 -183 145 -207 185 -35 60 -35 126 1 162 24 24 31 25
93 21 45 -3 87 -14 125 -32z"/>
<path d="M11320 17665 c0 -3 10 -9 21 -14 12 -4 27 -22 33 -42 14 -44 46 -52
46 -12 1 25 2 26 14 11 7 -10 29 -25 50 -33 20 -8 36 -20 36 -25 0 -6 19 -9
43 -9 23 1 52 -3 64 -9 33 -18 47 -15 79 18 16 16 38 30 48 30 35 0 6 14 -67
32 -91 22 -91 22 -67 -2 11 -11 20 -24 20 -30 0 -13 -27 -13 -36 1 -3 6 -17 9
-31 6 l-24 -4 22 23 c12 13 21 26 18 28 -11 10 -169 17 -169 7 0 -6 -15 -2
-32 9 -31 19 -68 27 -68 15z"/>
<path d="M1265 13324 c-27 -7 -63 -17 -80 -20 -65 -13 -116 -47 -207 -136 -52
-51 -107 -114 -122 -141 -26 -46 -38 -118 -23 -134 13 -13 41 12 67 60 14 25
36 57 48 70 12 13 22 26 22 30 0 13 106 107 156 139 33 21 79 38 139 50 143
30 157 31 228 13 37 -9 75 -14 83 -11 17 7 64 -21 64 -38 0 -6 12 -25 28 -41
50 -56 62 -88 62 -167 0 -40 3 -97 7 -126 5 -47 8 -53 27 -50 12 2 25 13 31
26 5 12 13 22 17 22 5 0 8 16 8 35 0 28 -4 35 -20 35 -24 0 -26 13 -5 30 8 7
15 23 15 36 0 31 -29 106 -47 120 -9 8 -12 21 -7 38 5 21 1 33 -17 53 -37 39
-105 76 -129 68 -14 -5 -20 -2 -20 9 0 21 -17 20 -29 -1 -8 -15 -11 -15 -12
-3 -1 8 -1 20 0 26 1 7 -9 14 -21 18 -42 11 -212 5 -263 -10z"/>
<path d="M797 12534 c-24 -24 78 -236 131 -273 65 -46 65 -45 51 -74 -7 -15
-16 -27 -20 -27 -11 0 -19 -29 -9 -35 5 -3 24 11 43 31 l35 37 40 -16 c63 -25
138 -32 145 -14 10 26 -4 57 -25 57 -11 0 -52 14 -92 30 -76 32 -149 95 -180
156 -9 18 -23 31 -32 30 -9 0 -18 7 -20 17 -1 10 -10 27 -18 36 -9 10 -16 25
-16 34 0 17 -21 23 -33 11z"/>
<path d="M1975 12003 c-42 -11 -85 -72 -85 -121 0 -28 85 -107 155 -143 33
-18 61 -33 63 -34 1 -1 -3 -15 -10 -31 -14 -33 -33 -53 -103 -111 -109 -89
-162 -124 -210 -138 -102 -31 -120 -46 -95 -85 8 -13 14 -13 42 -1 18 7 47 16
63 20 95 24 354 214 355 260 1 9 11 29 24 44 20 25 25 27 51 17 38 -14 201 -3
280 20 145 43 275 121 275 165 0 14 -9 29 -20 35 -17 9 -27 6 -58 -18 -20 -16
-68 -46 -107 -67 -83 -44 -229 -70 -331 -60 l-62 6 -6 47 c-8 62 -57 145 -100
171 -37 23 -87 33 -121 24z"/>
<path d="M14000 10331 c0 -4 -15 -23 -34 -42 -19 -19 -50 -70 -71 -114 -20
-44 -41 -87 -46 -95 -5 -8 -17 -31 -27 -50 -9 -19 -25 -44 -34 -54 -10 -11
-18 -27 -18 -36 0 -9 -7 -25 -15 -36 -8 -10 -15 -26 -15 -34 0 -8 -14 -26 -30
-39 -17 -13 -30 -33 -30 -45 0 -12 -5 -27 -12 -34 -7 -7 -8 -12 -3 -12 5 0 -6
-16 -25 -35 -19 -19 -37 -35 -41 -35 -3 0 -26 -19 -50 -41 -24 -23 -55 -49
-69 -58 -38 -23 -117 -90 -172 -143 -27 -27 -52 -48 -57 -48 -4 0 -14 -11 -21
-25 -7 -14 -19 -25 -27 -25 -7 0 -13 -4 -13 -10 0 -5 -5 -10 -12 -10 -6 0 -20
-7 -30 -17 -21 -19 -49 -36 -96 -58 -18 -9 -35 -21 -38 -28 -2 -7 -26 -23 -52
-36 -26 -13 -54 -28 -62 -32 -8 -5 -25 -13 -37 -19 -13 -5 -23 -14 -23 -19 0
-5 -15 -14 -32 -21 -18 -7 -46 -18 -63 -25 -16 -7 -50 -16 -75 -20 -47 -7 -68
-18 -109 -54 -13 -11 -40 -24 -60 -27 -37 -7 -62 -30 -54 -50 2 -6 -10 -14
-29 -18 -19 -4 -34 -2 -36 4 -2 5 -10 10 -18 10 -8 0 -14 5 -14 10 0 18 -21
10 -29 -11 -7 -20 -15 -22 -142 -24 -74 -1 -143 1 -154 5 -11 4 -29 4 -40 0
-12 -4 -23 -3 -27 4 -6 8 -8 7 -8 -1 0 -8 -13 -13 -29 -13 -17 0 -32 -4 -36
-10 -3 -5 -23 -7 -45 -5 -22 2 -42 0 -45 -5 -7 -12 -155 -12 -155 0 0 5 8 11
18 13 9 3 -3 5 -28 6 -39 0 -43 -1 -27 -13 24 -18 21 -26 -8 -26 -18 0 -25 5
-25 20 0 17 -7 20 -40 20 -26 0 -47 7 -59 19 -11 11 -22 17 -24 14 -3 -2 -8 5
-12 16 -8 26 -16 26 -49 0 -42 -33 -33 -45 49 -64 41 -10 75 -21 75 -25 0 -4
-35 -7 -78 -6 l-78 2 10 -59 c6 -42 15 -62 30 -72 27 -17 99 -27 213 -29 58
-1 97 -7 107 -15 13 -11 31 -11 101 0 47 7 85 17 85 22 0 4 5 5 10 2 6 -3 10
-1 10 5 0 6 12 11 28 10 68 -5 94 0 88 15 -4 12 -2 13 13 6 10 -6 21 -8 24 -5
3 3 16 -1 29 -10 24 -17 64 -21 72 -7 3 4 25 7 50 5 33 -2 46 1 50 12 5 12 14
15 39 10 49 -9 95 3 103 26 4 15 12 19 31 15 22 -4 24 -2 20 19 -4 21 -2 22
17 12 12 -6 46 -10 76 -9 58 3 86 19 101 59 8 21 23 26 82 25 9 0 17 5 17 10
0 5 11 6 25 3 18 -5 27 -2 31 9 4 8 12 15 20 15 8 0 22 4 32 9 9 5 25 12 36
15 12 4 16 12 12 22 -4 12 -2 15 9 10 8 -3 15 -1 15 4 0 5 7 7 15 4 8 -4 17 1
21 9 3 9 13 15 23 14 21 -1 91 41 91 54 0 6 5 7 10 4 6 -3 10 -2 10 3 0 5 11
14 25 20 14 6 25 18 25 27 0 9 9 15 25 15 15 0 25 6 25 14 0 7 13 16 30 19 16
4 39 16 50 27 11 11 23 20 26 20 3 0 19 14 36 30 16 17 34 30 40 30 11 0 23
10 72 57 12 12 35 25 50 29 33 8 55 47 38 67 -10 11 -2 21 38 48 28 19 69 58
91 87 23 30 48 52 58 52 11 0 21 9 25 23 5 19 8 20 17 7 9 -13 10 -12 5 3 -4
11 2 29 14 44 11 14 20 33 20 42 0 9 11 28 24 42 13 15 34 50 46 80 33 83 79
177 89 183 5 3 15 30 22 58 6 29 18 62 25 73 8 12 15 30 17 40 2 11 11 37 21
57 18 42 19 48 8 66 -10 14 -72 35 -72 23z"/>
<path d="M16520 9602 c-60 -8 -314 -98 -416 -147 -94 -45 -213 -125 -188 -125
4 0 3 -5 -4 -12 -18 -18 -14 -38 6 -38 23 0 77 26 118 57 17 13 34 23 37 23 3
0 39 15 79 33 230 106 365 138 578 138 183 -1 244 -11 351 -56 43 -18 82 -29
85 -24 7 11 84 -48 84 -64 0 -7 20 -34 45 -61 25 -26 45 -52 45 -57 0 -5 11
-26 24 -47 14 -20 30 -66 36 -102 15 -85 10 -250 -9 -270 -10 -10 -10 -15 -2
-18 26 -9 57 10 79 47 21 38 31 111 15 111 -5 0 -15 5 -23 10 -13 8 -13 11 2
22 30 23 26 95 -10 164 -16 33 -38 66 -47 74 -11 9 -14 22 -10 41 8 37 -14 70
-94 136 -55 45 -70 53 -93 47 -26 -5 -30 -1 -27 22 2 17 -26 21 -37 6 -12 -16
-13 -16 -19 0 -4 9 -4 21 -1 26 8 13 -34 29 -141 52 -76 16 -124 20 -265 18
-95 -2 -184 -4 -198 -6z"/>
<path d="M10870 9035 c0 -6 -15 -16 -32 -23 -27 -10 -35 -10 -43 1 -16 22
-107 -7 -98 -31 6 -15 5 -15 -10 -3 -15 12 -17 11 -18 -5 0 -11 -3 -14 -6 -6
-2 6 -11 12 -18 12 -19 0 -104 -98 -111 -129 -4 -14 -13 -31 -22 -38 -12 -10
-14 -37 -13 -148 1 -75 4 -142 7 -150 7 -17 30 -26 49 -19 12 5 15 30 15 137
0 119 2 134 23 166 12 20 27 45 33 56 6 11 27 31 47 44 20 13 37 30 37 38 0 9
13 12 43 11 23 -1 83 -1 134 0 81 2 92 4 98 21 8 25 -14 61 -37 61 -9 0 -19
-9 -23 -20 -6 -19 -8 -18 -30 8 -14 15 -25 22 -25 17z"/>
<path d="M15509 8862 c-9 -20 -22 -50 -29 -67 -17 -41 -39 -186 -40 -261 0
-60 32 -210 49 -227 5 -5 21 -1 37 9 16 10 30 18 31 19 2 1 -6 23 -16 51 -25
67 -33 195 -17 264 11 47 11 57 -2 66 -11 8 -12 15 -3 32 6 11 11 33 11 49 1
15 7 39 15 53 19 34 19 50 -2 50 -11 0 -24 -15 -34 -38z"/>
<path d="M10684 8665 c-9 -37 1 -164 16 -200 l12 -30 10 28 c10 27 11 27 28
12 11 -10 24 -15 31 -13 18 6 46 -24 41 -43 -4 -17 35 -52 48 -44 4 2 20 -9
36 -26 21 -22 28 -38 26 -64 -2 -19 2 -35 8 -35 16 0 12 -22 -9 -50 -14 -18
-17 -29 -10 -42 12 -21 2 -67 -19 -91 -9 -10 -17 -25 -18 -35 -2 -9 -9 -21
-16 -27 -8 -5 -24 -24 -36 -42 -14 -20 -48 -44 -87 -63 -35 -17 -74 -39 -87
-50 -81 -68 -79 -67 -158 -66 -60 2 -85 7 -127 29 -57 29 -101 29 -120 -3 -9
-14 -7 -25 12 -53 39 -56 93 -109 105 -102 6 4 18 1 26 -6 8 -6 17 -9 21 -6 3
4 13 2 23 -3 28 -15 79 -21 98 -11 9 4 26 5 37 1 21 -7 76 7 86 22 3 5 12 10
20 11 8 2 42 22 76 45 34 23 66 42 71 42 5 0 17 9 27 20 10 11 21 17 26 15 13
-9 58 17 64 37 4 10 11 18 16 18 5 0 9 7 9 15 0 8 5 15 11 15 19 0 69 64 75
97 4 19 12 33 20 33 12 0 16 12 13 36 0 4 4 10 10 13 7 5 7 18 -1 44 -11 36
-10 40 16 64 16 14 25 31 22 40 -3 8 -6 18 -6 22 0 4 -9 17 -20 29 -17 18 -18
22 -5 22 9 0 13 5 10 10 -4 6 -1 18 6 26 14 17 -2 64 -21 64 -7 0 -9 8 -5 19
3 11 -1 25 -10 34 -8 9 -15 20 -15 26 0 6 -18 15 -40 21 -22 6 -38 15 -35 20
8 13 -6 40 -20 40 -9 0 -12 9 -9 24 2 15 -2 28 -9 33 -8 4 -19 18 -26 31 -9
16 -21 22 -46 22 -19 0 -35 4 -35 10 0 17 -41 32 -101 36 -56 5 -59 4 -65 -21z"/>
<path d="M10417 8253 c-15 -21 -51 -63 -82 -93 -30 -30 -55 -61 -55 -70 0 -20
19 -40 38 -40 22 0 167 154 149 158 -13 3 -13 7 -1 30 19 37 18 52 -5 52 -10
0 -30 -17 -44 -37z"/>
<path d="M16598 7662 c-54 -28 -116 -90 -143 -143 -73 -142 -45 -338 66 -464
l30 -33 -28 -20 c-16 -11 -48 -29 -73 -42 -25 -12 -54 -30 -65 -39 -11 -10
-40 -23 -65 -30 -25 -7 -63 -21 -85 -31 -58 -26 -209 -51 -365 -59 -128 -7
-138 -6 -200 17 -121 45 -163 53 -180 37 -24 -24 -2 -45 75 -72 161 -55 241
-62 465 -38 140 15 188 25 224 48 11 8 38 17 59 20 20 3 99 40 174 83 l136 77
-24 19 c-24 19 -24 19 -1 13 16 -5 22 -2 22 10 0 14 2 14 23 0 22 -14 27 -13
85 25 81 52 135 107 200 204 l52 79 0 90 c0 115 -26 169 -108 224 -51 34 -61
36 -146 40 -74 3 -98 0 -128 -15z m225 -83 c112 -70 115 -202 9 -342 -38 -50
-185 -169 -211 -171 -20 -1 -86 95 -111 162 -38 100 -21 210 45 296 33 44 71
65 134 76 75 12 84 11 134 -21z"/>
<path d="M7758 4164 c-63 -34 -76 -124 -29 -195 l29 -43 -19 -28 c-32 -45 -57
-110 -64 -168 -14 -114 41 -270 130 -368 36 -40 46 -45 93 -50 l53 -5 -38 -33
c-21 -19 -46 -37 -55 -40 -10 -3 -18 -10 -18 -15 0 -19 -27 -38 -64 -45 -21
-3 -40 -12 -43 -20 -5 -14 -42 -15 -60 -2 -14 11 -163 16 -163 6 0 -11 -38
-10 -42 1 -5 15 -74 16 -92 2 -13 -11 -20 -11 -28 -3 -18 18 -31 14 -25 -8 7
-26 -10 -26 -18 0 -4 11 -10 18 -15 15 -4 -3 -10 1 -13 8 -3 7 -24 19 -47 27
-34 11 -47 11 -76 1 -28 -10 -42 -10 -65 -1 -16 7 -29 17 -29 22 0 5 -6 8 -12
6 -7 -3 -20 5 -30 16 -14 17 -19 18 -27 7 -7 -10 -10 -10 -13 -1 -2 7 -14 14
-25 15 -12 0 -28 7 -37 14 -13 11 -17 11 -22 -2 -5 -15 -8 -15 -32 1 -45 30
-125 60 -149 56 -13 -3 -23 -1 -23 4 0 4 -18 9 -41 11 -22 1 -48 6 -57 11 -75
39 -119 52 -194 57 -46 2 -87 8 -93 12 -5 5 -32 11 -60 15 -27 4 -57 8 -65 10
-8 2 -37 6 -65 11 -27 4 -54 10 -60 13 -56 34 -208 16 -284 -32 -39 -25 -91
-84 -91 -103 0 -5 -15 -27 -34 -49 -20 -24 -38 -61 -47 -94 -15 -60 -65 -150
-84 -150 -6 0 -19 -17 -28 -38 -9 -21 -48 -72 -87 -113 -38 -40 -70 -80 -70
-87 0 -7 11 -24 24 -37 l24 -24 55 29 c61 34 177 141 177 164 0 9 14 22 30 31
17 9 30 21 30 28 0 6 14 28 30 47 16 19 30 43 30 53 0 29 39 106 60 120 11 6
20 20 20 30 0 23 28 53 63 66 42 16 97 13 163 -8 33 -10 84 -24 114 -30 30 -6
66 -14 80 -16 14 -3 54 -8 90 -11 36 -3 72 -8 80 -11 8 -4 21 -7 29 -7 29 -2
21 -24 -11 -31 -18 -4 -60 -21 -92 -36 -33 -16 -65 -29 -71 -29 -12 0 -87 -78
-120 -125 -11 -16 -26 -34 -32 -41 -7 -7 -13 -17 -13 -23 0 -6 -3 -11 -7 -11
-5 0 -21 -24 -37 -53 -17 -28 -38 -61 -48 -71 -10 -11 -22 -35 -28 -55 -6 -20
-23 -61 -37 -91 -44 -95 -61 -134 -71 -165 -12 -32 -27 -115 -24 -127 1 -5 -2
-8 -7 -8 -6 0 -10 -8 -9 -17 0 -10 -3 -74 -6 -142 -5 -93 -11 -133 -25 -160
-33 -61 -59 -124 -77 -183 -10 -32 -21 -58 -25 -58 -3 0 -16 -24 -28 -52 -12
-29 -26 -62 -31 -73 -10 -25 -24 -67 -41 -125 -7 -25 -16 -49 -20 -55 -4 -5
-17 -44 -28 -85 -58 -205 -105 -329 -129 -343 -10 -7 -10 -12 -2 -22 13 -16
-3 -122 -27 -172 -21 -44 -20 -152 1 -203 20 -47 117 -75 178 -51 28 11 108
85 108 100 0 6 5 11 10 11 6 0 10 7 10 15 0 20 16 19 24 -1 4 -11 14 -15 31
-12 20 4 28 -1 43 -31 10 -20 17 -41 15 -47 -6 -18 102 -105 121 -98 9 3 16 1
16 -5 0 -15 109 -14 140 2 14 7 33 28 42 47 9 19 17 28 18 20 0 -27 57 -137
74 -143 26 -10 19 -26 -19 -41 -38 -16 -40 -19 -25 -46 9 -17 20 -18 103 -14
122 6 117 5 117 22 0 13 3 13 18 -1 14 -13 30 -15 69 -10 51 6 51 5 55 -23 4
-34 16 -35 114 -7 54 15 63 21 73 50 7 18 17 33 22 33 5 0 9 8 9 18 0 9 7 30
16 47 8 16 13 38 10 48 -3 12 3 21 18 27 29 10 59 112 47 156 -7 25 -12 29
-41 27 l-33 -1 6 70 c3 38 10 75 16 82 8 10 8 93 -1 256 -2 37 11 261 17 290
13 69 26 126 29 135 1 6 11 47 21 93 10 45 22 82 27 82 4 0 8 7 8 17 0 9 2 14
5 11 3 -3 1 -24 -4 -47 -8 -36 -6 -43 9 -51 32 -17 48 -11 59 23 15 43 23 198
12 216 -5 8 -6 24 -2 35 5 12 11 77 15 145 4 68 10 129 13 135 4 6 9 20 10 31
11 82 21 125 31 138 15 18 5 47 -15 47 -12 0 -14 7 -8 33 4 17 8 56 9 85 1 35
6 56 16 62 10 7 11 10 3 10 -7 0 -13 5 -13 11 0 5 5 7 12 3 8 -5 8 -3 2 7 -5
8 -9 48 -9 89 0 41 -4 90 -9 108 -8 35 8 46 19 12 3 -11 11 -20 17 -20 6 0 8
3 5 7 -4 3 -2 12 3 18 10 12 -4 70 -21 90 -5 5 -9 12 -9 16 0 14 184 2 229
-15 26 -10 70 -16 105 -15 34 1 97 -1 141 -5 116 -11 257 -14 280 -5 62 22
111 45 117 55 5 7 29 25 55 40 27 15 53 32 60 38 30 27 41 34 87 57 28 13 62
38 77 54 15 17 48 53 73 80 25 28 46 53 46 58 0 4 9 7 21 7 11 0 18 4 15 9 -4
5 6 12 22 16 23 5 28 11 30 40 2 29 -2 38 -28 53 -16 11 -56 24 -88 31 -103
22 -105 23 -134 81 -21 42 -31 84 -43 180 -25 205 -73 312 -169 378 -39 26
-58 32 -100 32 -28 -1 -63 -7 -78 -16z m111 -149 c49 -57 80 -128 107 -247 13
-61 35 -136 49 -167 l25 -56 -26 33 c-27 34 -59 41 -95 22 -27 -15 -55 2 -79
49 -33 66 -35 108 -5 186 30 79 28 111 -10 161 -47 61 -18 77 34 19z m-1262
-993 c6 -4 13 -13 15 -20 2 -9 -16 -13 -70 -15 -54 -1 -77 -6 -85 -18 -7 -9
-21 -19 -32 -22 -11 -4 -38 -30 -61 -59 -59 -78 -60 -79 -24 -66 40 13 54 1
41 -34 -7 -20 -19 -27 -53 -32 -66 -11 -89 -54 -103 -198 -5 -49 -3 -68 5 -68
7 0 14 9 17 19 4 14 13 19 34 19 37 -1 46 8 31 32 -10 17 -5 25 41 64 28 26
57 46 65 46 7 0 18 11 24 25 6 14 17 25 25 25 7 0 13 5 13 10 0 6 4 10 9 10
12 0 20 -49 9 -56 -5 -3 -3 -13 4 -22 11 -13 9 -15 -17 -10 -26 5 -37 -2 -102
-67 -40 -40 -73 -81 -73 -91 -1 -11 -7 -41 -14 -69 -7 -27 -12 -72 -9 -100 2
-27 3 -73 3 -101 -1 -34 4 -55 14 -64 13 -10 17 -9 22 6 3 11 9 28 14 39 17
44 30 104 30 144 0 22 4 41 10 41 14 0 23 -46 16 -78 -19 -77 -22 -101 -15
-96 14 9 10 -8 -6 -26 -18 -20 -32 -90 -18 -90 13 0 58 48 51 55 -2 3 15 26
38 52 31 33 47 44 54 37 12 -12 -2 -58 -25 -84 -7 -8 -16 -26 -19 -40 -6 -23
-4 -22 24 10 16 19 30 29 30 23 0 -7 -4 -15 -10 -18 -14 -8 -13 -65 1 -65 8 0
8 -4 0 -14 -7 -8 -10 -41 -8 -85 2 -39 1 -71 -3 -71 -13 0 -22 -113 -10 -120
8 -5 8 -20 1 -51 -13 -55 -14 -79 -2 -79 5 0 17 35 27 78 10 42 19 82 20 87 2
6 10 44 18 85 15 75 22 104 50 216 25 102 67 389 82 569 5 63 3 88 -10 119
-12 30 -19 37 -28 28 -8 -8 -8 -15 2 -27 7 -9 8 -15 2 -15 -6 0 -14 9 -17 20
-3 11 -15 20 -26 20 -32 0 -17 39 17 44 10 1 23 12 29 24 13 29 27 28 24 0 -2
-21 27 -95 42 -108 9 -8 2 -199 -10 -260 -6 -30 -18 -89 -26 -130 -17 -87 -18
-100 -6 -100 4 0 18 30 30 66 12 36 31 85 42 107 15 33 20 63 20 137 0 52 6
116 13 143 l12 48 13 -52 c15 -57 16 -180 2 -274 -6 -42 -5 -62 3 -67 8 -6 7
-8 -1 -8 -9 0 -11 -12 -7 -42 4 -27 0 -60 -10 -88 -9 -25 -16 -55 -16 -67 0
-13 -6 -43 -12 -69 -12 -45 -12 -46 21 -74 l33 -29 -17 -78 c-9 -43 -18 -88
-21 -100 l-4 -23 -26 23 c-68 59 -109 31 -99 -69 8 -75 7 -123 -6 -204 -10
-65 -15 -98 -23 -155 -2 -16 -5 -57 -7 -90 l-2 -60 -7 50 c-3 28 -3 68 1 90 4
22 13 95 20 163 11 105 11 125 -1 132 -10 6 -11 14 -4 32 6 13 10 47 9 76 0
28 2 52 6 52 4 0 5 26 2 58 -3 31 0 76 5 99 10 43 0 122 -11 93 -9 -24 -26
-91 -33 -135 -3 -22 -10 -48 -15 -57 -5 -9 -9 -29 -9 -43 0 -15 -13 -80 -30
-146 -41 -166 -42 -171 -44 -201 0 -16 -4 -28 -7 -28 -3 0 -11 -11 -17 -25
-13 -29 -62 -242 -69 -300 -2 -21 -7 -43 -10 -48 -11 -18 -21 -77 -12 -77 4 0
12 15 18 33 26 86 63 160 48 97 -14 -59 -19 -217 -8 -255 9 -34 8 -46 -10 -83
-18 -35 -20 -54 -15 -99 4 -30 11 -65 17 -77 21 -40 62 -76 95 -82 30 -6 32
-8 23 -32 -14 -36 -64 -82 -99 -88 -34 -7 -99 26 -141 73 -29 32 -59 106 -59
146 0 60 -42 107 -94 107 -42 0 -70 -19 -106 -71 -38 -56 -65 -67 -108 -45
-42 22 -49 37 -11 23 27 -11 32 -10 42 8 28 48 34 107 24 218 -1 9 -9 17 -18
17 -19 0 -33 -35 -44 -110 -9 -59 -32 -113 -45 -105 -5 3 -10 17 -10 30 0 34
-17 40 -41 13 l-20 -23 6 40 c4 22 11 45 17 52 6 8 6 18 0 29 -7 12 1 36 29
90 44 87 55 137 87 419 4 33 11 66 16 74 5 8 11 26 13 40 2 14 6 45 9 69 4 26
2 48 -6 56 -9 11 -8 21 4 43 8 16 26 96 40 178 25 150 65 269 107 324 11 13
19 31 19 40 0 10 4 21 9 27 18 17 31 138 29 259 -1 66 1 142 5 169 17 105 108
246 202 311 60 42 161 67 192 47z m-733 -1644 c-16 -42 -19 -56 -8 -47 24 19
28 2 6 -28 -10 -15 -23 -39 -27 -53 -10 -34 -25 -51 -39 -43 -6 3 -6 0 2 -8
17 -18 15 -29 -5 -30 -11 0 -13 -3 -5 -6 28 -11 -1 -86 -71 -175 -24 -32 -57
-51 -57 -33 0 9 52 85 59 85 8 0 37 72 51 129 9 35 9 46 -2 52 -10 6 -14 -1
-18 -29 -3 -20 -15 -53 -27 -72 -12 -19 -23 -39 -24 -45 0 -5 -9 -21 -19 -35
-33 -49 -51 -93 -39 -100 7 -5 5 -10 -6 -14 -13 -4 -15 -13 -11 -32 6 -21 -1
-34 -36 -72 -40 -45 -85 -82 -99 -82 -16 0 -17 36 -3 93 9 34 18 73 21 87 3
14 15 33 27 42 17 15 18 19 7 27 -11 7 -9 14 12 33 28 26 87 133 87 158 0 8
10 26 23 40 23 27 42 60 52 98 9 32 28 15 21 -19 -5 -24 -1 -31 23 -44 l29
-15 7 40 c5 29 10 37 22 33 13 -5 14 1 8 34 -4 26 -2 43 4 48 6 3 11 17 11 29
0 19 4 22 24 19 l24 -5 -24 -60z"/>
<path d="M6346 1981 c-32 -35 -55 -73 -76 -127 -16 -43 -30 -85 -30 -92 0 -8
-7 -28 -15 -45 -20 -44 -35 -117 -24 -117 17 0 9 -38 -11 -51 -15 -11 -20 -28
-23 -76 -2 -33 -8 -68 -15 -75 -6 -8 -9 -18 -5 -22 4 -4 1 -12 -7 -17 -11 -8
-12 -12 -2 -16 15 -6 16 -30 1 -35 -21 -7 -11 -339 13 -403 8 -22 21 -40 29
-40 8 0 14 -7 14 -15 0 -26 75 -6 133 36 2 1 1 12 -3 23 -5 17 -9 19 -26 8
-10 -6 -19 -17 -19 -24 0 -7 -7 -13 -15 -13 -8 0 -15 5 -15 12 0 6 -3 8 -6 5
-4 -4 -15 3 -26 15 -12 15 -15 25 -8 32 17 17 11 27 -10 16 -14 -7 -20 -7 -20
0 0 5 5 10 12 10 9 0 9 3 1 11 -8 8 -6 20 8 45 10 19 19 41 19 49 0 8 5 15 10
15 6 0 10 7 10 15 0 8 -3 14 -7 14 -55 -9 -80 27 -60 81 8 22 17 30 29 27 9
-3 19 1 22 9 4 10 -2 14 -19 14 -26 0 -53 34 -35 45 5 3 10 4 10 0 0 -3 9 -1
20 5 11 6 18 16 14 22 -4 5 0 14 7 19 11 8 9 14 -13 33 -26 24 -26 24 -8 41
11 10 17 22 14 26 -3 5 2 12 10 15 18 7 22 34 4 34 -6 0 -3 10 8 21 19 21 19
22 -3 15 -14 -5 -23 -3 -23 3 0 6 7 11 15 11 8 0 15 7 15 15 0 9 12 21 26 28
25 10 25 12 7 17 -17 4 -18 9 -11 39 7 27 13 32 30 28 16 -5 19 -2 15 15 -4
12 -1 31 5 42 7 12 11 35 10 51 -2 20 0 26 6 17 6 -9 12 -2 19 22 9 28 8 39
-5 57 -14 20 -14 22 0 17 12 -5 14 -2 11 13 -3 12 0 19 8 19 14 0 41 48 46 82
5 34 -15 27 -61 -21z"/>
<path d="M6070 1813 c0 -32 -43 -309 -54 -353 -16 -61 -32 -207 -16 -155 6 22
8 6 7 -60 -1 -97 4 -115 33 -115 28 0 34 16 37 110 1 47 5 103 8 125 6 45 50
192 71 243 8 18 14 41 14 51 0 10 7 37 15 60 12 34 12 41 1 41 -16 0 -26 -22
-26 -56 0 -17 -6 -24 -18 -24 -25 0 -59 -69 -40 -81 10 -7 9 -9 -4 -9 -9 0
-22 -8 -28 -17 -9 -14 -9 -11 -4 17 4 19 8 62 10 95 1 33 3 60 4 60 7 0 4 67
-2 71 -4 3 -8 1 -8 -3z"/>
</g>
</svg>
