<?xml version="1.0" standalone="no"?>
<!DOCTYPE svg PUBLIC "-//W3C//DTD SVG 20010904//EN"
 "http://www.w3.org/TR/2001/REC-SVG-20010904/DTD/svg10.dtd">
<svg version="1.0" xmlns="http://www.w3.org/2000/svg"
 width="1920.000000pt" height="1920.000000pt" viewBox="0 0 1920.000000 1920.000000"
 preserveAspectRatio="xMidYMid meet">
<metadata>
Created by potrace 1.16, written by Peter Selinger 2001-2019
</metadata>
<g transform="translate(0.000000,1920.000000) scale(0.100000,-0.100000)"
fill="#831843" stroke="none">
<path d="M17820 19032 c0 -4 -30 -8 -68 -8 -81 -2 -147 -28 -181 -72 -13 -18
-28 -29 -32 -26 -5 3 -9 -2 -9 -10 0 -9 -11 -23 -25 -32 -14 -9 -25 -24 -25
-33 0 -10 -7 -26 -15 -37 -8 -10 -15 -29 -15 -41 0 -12 -5 -25 -10 -28 -10 -6
-7 -183 6 -293 3 -29 1 -58 -4 -65 -5 -7 -15 -29 -22 -51 -7 -21 -20 -47 -29
-58 -9 -10 -14 -21 -11 -23 3 -3 -5 -12 -18 -20 -12 -9 -20 -21 -17 -26 4 -5
-3 -9 -15 -9 -30 0 -121 -95 -149 -155 -35 -74 -39 -152 -11 -210 25 -52 30
-39 -52 -132 -21 -24 -38 -50 -38 -58 0 -9 -7 -18 -15 -21 -8 -4 -15 -12 -15
-20 0 -8 -7 -14 -15 -14 -9 0 -15 -9 -15 -25 0 -15 -8 -29 -22 -36 -42 -22
-71 -56 -64 -74 4 -13 2 -16 -9 -11 -9 3 -15 0 -15 -9 0 -8 -11 -22 -25 -31
-14 -9 -25 -22 -25 -30 0 -7 -14 -24 -30 -36 -32 -24 -110 -120 -110 -137 0
-5 -6 -11 -14 -14 -7 -3 -16 -22 -20 -41 -5 -27 -12 -36 -27 -36 -11 0 -18 -3
-15 -8 6 -10 -15 -37 -36 -45 -10 -3 -18 -14 -18 -23 0 -10 -3 -14 -6 -11 -8
8 -41 -33 -54 -68 -6 -15 -13 -25 -17 -22 -7 8 -60 -63 -65 -89 -2 -10 -9 -18
-16 -17 -6 2 -9 -4 -6 -12 5 -12 9 -12 29 1 13 8 26 26 29 39 4 15 20 30 45
41 35 15 38 19 28 36 -10 16 -9 22 7 33 10 8 23 12 27 9 5 -3 6 1 3 9 -3 9 3
16 15 20 13 3 21 13 21 25 0 12 9 23 20 27 18 6 21 10 20 30 -1 12 60 56 70
50 5 -3 10 1 10 9 0 9 5 16 10 16 6 0 9 3 8 8 -2 4 1 8 6 9 14 2 28 32 21 43
-3 6 -1 10 4 10 21 0 26 3 41 24 8 11 13 31 12 43 -2 14 4 26 17 33 12 6 21
17 21 24 0 20 37 49 55 43 17 -7 51 36 41 51 -3 6 2 9 11 8 9 0 18 6 20 14 4
13 3 13 -6 0 -8 -11 -11 -11 -11 -2 0 7 11 17 25 22 14 5 25 17 24 27 0 16 -1
16 -8 -1 -6 -16 -8 -17 -13 -4 -9 21 59 93 95 102 15 3 27 13 27 20 0 8 11 21
25 30 14 9 25 22 25 29 0 8 11 24 24 36 24 23 26 23 72 7 60 -20 97 -20 140 0
76 36 174 186 174 267 0 31 8 47 47 88 54 58 102 89 188 119 33 12 67 24 75
27 8 3 20 7 26 8 7 2 21 12 33 24 12 12 30 21 40 21 10 0 22 7 25 16 3 8 10
13 15 9 12 -7 30 25 24 43 -3 8 1 10 11 6 11 -4 16 0 16 14 0 12 9 27 20 35
12 8 20 18 18 23 -3 14 13 57 28 72 14 14 17 33 19 132 1 36 -5 66 -17 86 -10
18 -15 39 -12 48 3 9 1 16 -4 16 -10 0 -23 27 -28 60 -2 8 -8 16 -13 18 -6 2
-11 9 -11 16 0 16 -42 56 -58 56 -7 0 -15 7 -19 15 -7 21 -68 51 -118 59 l-40
7 25 -20 c14 -12 33 -21 43 -21 9 0 17 -4 17 -10 0 -5 7 -10 15 -10 8 0 17
-11 21 -24 4 -19 12 -24 32 -23 21 2 28 -3 30 -20 2 -15 8 -20 18 -16 10 4 15
0 14 -8 -4 -28 0 -39 15 -39 9 0 15 -9 15 -23 0 -13 6 -29 12 -35 10 -10 10
-17 0 -32 -10 -16 -9 -18 3 -14 9 4 15 0 15 -10 0 -9 -4 -16 -10 -16 -11 0 -9
-28 3 -47 5 -8 3 -13 -3 -13 -8 0 -10 -9 -6 -24 3 -14 2 -36 -4 -51 -7 -18 -7
-33 1 -47 9 -18 8 -24 -7 -35 -10 -7 -13 -13 -5 -13 8 0 5 -11 -9 -30 -12 -16
-29 -30 -39 -30 -18 0 -49 -27 -50 -45 -1 -5 -4 -10 -8 -10 -21 -1 -34 -20
-30 -41 3 -18 0 -24 -14 -24 -10 0 -21 -5 -25 -11 -3 -6 -17 -8 -30 -5 -14 4
-24 2 -24 -4 0 -6 -7 -6 -19 2 -15 9 -25 9 -46 0 -14 -7 -35 -12 -45 -12 -11
0 -31 -11 -45 -26 -14 -14 -30 -22 -35 -19 -11 7 -25 -3 -94 -68 l-50 -49 -33
16 c-39 19 -40 23 -10 67 29 42 113 228 133 291 17 54 26 63 51 49 10 -5 26
-12 36 -15 12 -4 17 -16 17 -44 0 -31 7 -44 38 -72 49 -46 75 -60 112 -60 20
0 30 5 30 16 0 8 15 21 34 29 36 15 52 32 42 42 -3 4 -31 -1 -61 -11 -79 -24
-135 -2 -135 54 0 22 7 30 40 43 38 14 60 45 60 81 0 22 -51 66 -75 66 -15 0
-33 -13 -52 -38 -20 -27 -34 -36 -51 -34 -20 3 -22 7 -17 40 4 20 11 49 17 64
8 22 7 33 -6 53 -20 31 -25 31 -66 3 -45 -31 -68 -97 -51 -144 11 -29 9 -43
-14 -106 -15 -40 -28 -77 -29 -83 -14 -58 -41 -123 -70 -167 -20 -29 -36 -61
-36 -70 0 -23 -9 -22 -38 0 l-24 18 25 30 c57 68 104 217 74 236 -9 6 -9 8 0
8 7 0 10 6 8 13 -3 6 -7 37 -9 67 -2 30 -7 76 -11 102 -4 26 -4 55 1 65 4 10
8 27 9 38 1 11 2 30 3 43 1 12 9 22 17 22 16 0 38 34 28 43 -10 10 18 37 54
52 18 8 33 20 33 28 0 16 27 30 41 21 5 -3 9 2 9 10 0 10 9 16 26 16 14 0 23
4 20 8 -5 8 10 11 89 15 35 1 50 6 50 16 0 8 -10 16 -22 17 -13 2 -23 1 -23
-4z"/>
<path d="M15274 18742 c-36 -19 -71 -60 -96 -112 -41 -84 -89 -215 -90 -244 0
-17 -4 -38 -9 -46 -10 -21 -14 -237 -5 -280 27 -123 83 -274 131 -350 12 -19
39 -66 59 -105 21 -38 50 -86 65 -105 14 -19 38 -52 51 -73 17 -25 31 -37 45
-35 26 4 30 29 8 54 -10 11 -22 27 -28 36 -5 9 -28 42 -49 74 -85 124 -196
350 -210 426 -2 13 -11 47 -20 76 -27 93 -11 289 34 412 49 132 92 202 139
229 38 21 47 22 81 12 41 -12 143 -112 221 -216 24 -33 46 -62 49 -65 28 -28
89 -190 111 -295 21 -102 14 -252 -16 -360 -8 -27 -24 -86 -36 -130 -12 -44
-24 -113 -27 -153 -4 -70 -7 -75 -36 -93 -17 -10 -35 -19 -41 -19 -12 1 -50
80 -47 98 2 7 -6 32 -17 55 -11 24 -24 57 -27 76 -8 38 -29 50 -50 29 -12 -12
-12 -20 2 -63 9 -28 23 -57 30 -66 8 -8 14 -31 14 -50 0 -19 7 -43 15 -53 21
-28 10 -36 -39 -30 -48 7 -63 -4 -47 -35 8 -14 7 -22 -3 -30 -8 -7 -20 -34
-26 -62 -33 -137 67 -322 186 -345 19 -3 34 -7 35 -8 0 0 4 -35 9 -76 14 -115
21 -154 31 -166 5 -6 7 -33 4 -59 -4 -34 -2 -51 7 -56 11 -7 10 -9 -1 -9 -10
0 -11 -4 -3 -12 6 -7 10 -24 10 -38 1 -25 9 -189 12 -224 0 -10 8 -29 17 -43
13 -20 14 -26 4 -33 -9 -5 -10 -13 -4 -26 6 -11 8 -44 6 -76 -2 -31 0 -59 5
-62 5 -3 7 -26 4 -51 -3 -30 0 -50 9 -62 11 -13 11 -17 2 -20 -19 -7 -16 -22
4 -19 23 4 33 37 17 60 -11 16 -10 24 2 48 14 27 14 31 -3 43 -15 12 -16 17
-5 34 10 18 10 21 -5 22 -11 0 -13 3 -5 6 15 6 16 43 1 43 -5 0 -7 5 -4 11 11
17 11 79 0 83 -6 3 -4 10 5 18 16 14 23 48 9 48 -5 0 -6 6 -3 14 3 8 1 24 -6
35 -7 13 -7 21 -1 21 12 0 3 29 -15 50 -7 9 -13 24 -12 35 1 11 -2 30 -6 41
-4 14 -1 27 9 37 17 18 20 57 4 57 -8 0 -8 4 0 14 8 10 9 16 1 21 -6 3 -8 11
-5 16 10 16 -5 31 -20 19 -10 -8 -12 0 -11 39 1 28 5 53 9 57 11 11 8 99 -4
111 -17 17 0 58 29 71 45 20 98 69 117 109 27 56 23 159 -9 260 -27 82 -65
143 -92 143 -8 0 -14 10 -14 24 0 40 30 186 57 276 20 67 26 115 30 231 5 138
4 151 -22 244 -28 98 -78 204 -141 300 -44 67 -191 219 -231 239 -41 21 -110
20 -149 -2z"/>
<path d="M15608 17933 c-28 -7 -21 -31 17 -55 54 -36 43 -89 -22 -107 -39 -11
-46 -3 -39 44 5 26 1 40 -17 61 -22 25 -25 26 -53 13 -35 -17 -42 -54 -19 -98
15 -30 15 -31 -8 -31 -13 0 -34 11 -47 25 -20 21 -22 31 -17 73 5 45 4 50 -18
60 -20 9 -24 8 -29 -11 -10 -39 -6 -107 8 -135 31 -58 98 -86 140 -58 17 11
38 13 79 9 54 -6 58 -4 92 30 29 29 35 42 35 77 0 34 -6 48 -34 76 -19 19 -38
33 -42 33 -5 -1 -17 -3 -26 -6z"/>
<path d="M16404 16787 c-3 -9 -10 -14 -15 -11 -5 3 -9 -3 -9 -13 0 -10 -14
-32 -30 -50 -17 -18 -30 -37 -30 -42 0 -6 -6 -11 -12 -11 -12 -1 -82 -84 -84
-102 -1 -4 -2 -15 -3 -23 0 -8 -8 -15 -16 -15 -8 0 -15 -7 -15 -15 0 -8 -11
-22 -25 -31 -14 -9 -25 -23 -25 -30 0 -8 -5 -14 -11 -14 -5 0 -7 -4 -4 -10 3
-5 1 -10 -5 -10 -6 0 -15 -12 -20 -26 -6 -14 -14 -22 -20 -19 -5 3 -10 -1 -10
-9 0 -8 -6 -19 -13 -23 -16 -11 -90 -110 -111 -150 -25 -49 -62 -101 -95 -135
-44 -45 -63 -91 -59 -145 l3 -47 75 108 c41 59 75 111 75 116 0 5 10 18 23 30
12 11 22 27 22 34 0 8 6 16 13 19 7 2 23 26 36 53 26 53 60 99 75 101 5 1 14
16 20 34 6 18 20 37 31 43 25 14 45 39 38 48 -5 9 33 61 40 56 2 -2 11 3 20
10 14 12 26 10 81 -12 36 -15 79 -29 96 -32 16 -4 30 -10 30 -15 0 -5 12 -9
26 -9 14 0 23 -4 19 -10 -4 -6 5 -10 19 -10 16 0 26 -6 26 -14 0 -8 8 -15 18
-15 29 1 67 -7 81 -15 8 -5 17 -3 22 5 6 10 1 16 -14 22 -12 5 -32 18 -44 29
-12 11 -29 18 -37 15 -8 -3 -22 3 -31 13 -10 11 -21 17 -25 15 -4 -3 -10 1
-13 8 -3 8 -34 24 -69 37 -34 13 -78 33 -96 43 -31 19 -34 19 -52 2 -11 -10
-20 -13 -20 -7 0 6 8 17 18 24 9 7 23 26 31 41 8 15 20 26 25 24 6 -3 11 8 12
24 1 17 13 41 33 61 34 35 35 37 21 58 -8 12 -10 12 -16 -3z"/>
<path d="M16705 16379 c-19 -8 -19 -8 3 -15 13 -4 22 -14 22 -27 0 -16 3 -18
11 -10 13 13 42 6 33 -8 -3 -5 1 -9 10 -9 8 0 29 -15 47 -34 25 -27 38 -33 62
-30 38 4 60 -12 51 -39 -5 -15 -3 -19 9 -14 9 3 18 -1 21 -9 3 -8 11 -14 18
-14 10 0 10 2 0 9 -11 7 -11 9 1 14 17 6 34 -3 39 -22 5 -25 30 -49 44 -44 8
3 14 -1 14 -9 0 -8 11 -20 25 -26 24 -11 24 -12 9 -49 -27 -63 -6 -135 63
-221 25 -31 46 -45 77 -53 l43 -11 6 -66 c14 -158 103 -302 237 -383 54 -34
134 -50 246 -51 99 0 115 2 181 29 39 17 90 45 112 62 40 32 101 102 101 117
0 4 6 15 14 23 17 20 42 109 50 181 9 75 -7 178 -38 246 -48 105 -184 210
-316 245 -81 21 -206 15 -288 -14 -40 -14 -85 -35 -100 -45 -27 -20 -27 -20
-62 5 -77 54 -156 68 -214 38 -34 -18 -41 -18 -58 -2 -20 18 -118 69 -118 61
0 -3 -7 -1 -15 6 -8 7 -15 9 -15 4 0 -5 -12 4 -26 19 -14 15 -29 25 -35 22 -5
-4 -9 -1 -9 4 0 6 -3 10 -7 10 -19 -3 -34 2 -29 9 7 12 -61 43 -79 36 -8 -4
-15 -1 -15 5 0 6 -6 11 -14 11 -8 0 -16 7 -20 15 -3 8 -15 15 -26 15 -11 0
-20 4 -20 9 0 14 -23 19 -45 10z m1164 -264 c88 -21 182 -68 231 -115 22 -21
55 -70 73 -107 29 -62 32 -77 32 -163 0 -113 -6 -144 -37 -206 -84 -170 -268
-252 -471 -210 -118 24 -141 39 -250 157 -33 35 -68 124 -79 197 -11 77 -11
78 15 104 15 15 27 32 27 38 0 15 14 12 36 -7 10 -10 31 -24 47 -32 15 -8 27
-18 27 -23 0 -4 6 -8 13 -8 11 0 67 -50 114 -102 20 -22 21 -29 12 -63 -6 -21
-8 -58 -4 -82 5 -35 13 -48 38 -64 56 -34 107 -21 125 30 12 34 -1 95 -24 118
-24 25 -35 51 -24 58 6 4 30 -14 54 -39 34 -36 49 -46 75 -46 57 0 76 41 46
100 -14 27 -14 29 8 32 17 2 23 11 25 36 2 17 -1 32 -7 32 -5 0 -17 8 -27 17
-11 12 -36 18 -72 20 -30 1 -59 6 -65 12 -5 5 -15 7 -22 5 -7 -3 -32 4 -55 16
-47 24 -83 23 -88 -2 -2 -11 10 -22 37 -34 23 -10 41 -22 41 -27 0 -4 5 -5 10
-2 18 11 50 -6 50 -25 0 -13 -14 -27 -38 -39 l-39 -20 -34 37 c-48 52 -97 90
-144 112 -22 10 -48 28 -58 40 -18 21 -17 23 12 69 17 26 31 59 31 73 0 36 45
72 122 97 103 33 149 36 237 16z"/>
<path d="M13065 15970 c-174 -10 -301 -32 -290 -50 9 -15 -46 -24 -67 -11 -16
10 -20 8 -28 -11 -7 -18 -9 -19 -9 -5 -1 21 -19 22 -45 2 -10 -8 -23 -12 -28
-9 -5 3 -12 -4 -15 -15 -4 -16 -12 -21 -32 -19 -20 2 -27 -2 -29 -19 -3 -21
-13 -28 -34 -24 -12 1 -27 -35 -28 -65 -1 -54 12 -96 31 -101 10 -3 16 -10 13
-15 -7 -11 24 -48 40 -48 6 0 16 -10 21 -22 6 -14 21 -24 38 -26 16 -2 27 -9
27 -18 0 -11 6 -13 20 -9 14 5 20 2 20 -9 0 -9 7 -16 15 -16 18 0 20 17 3 23
-7 2 -9 8 -5 13 4 5 12 3 16 -4 6 -10 22 -11 59 -6 33 4 52 3 52 -4 0 -14 103
17 113 34 4 8 15 14 24 14 9 0 13 6 9 15 -4 10 1 15 15 15 15 0 19 -5 14 -19
-7 -24 24 -33 50 -15 10 8 28 14 40 14 12 0 26 5 33 12 8 8 15 8 26 -1 8 -7
42 -15 76 -18 48 -5 60 -3 60 9 0 12 19 14 104 12 57 -1 110 -5 117 -10 17
-10 19 -11 92 -12 54 -2 57 -3 42 -18 -9 -9 -25 -14 -35 -11 -11 3 -20 2 -20
-3 0 -10 -81 -30 -94 -23 -15 10 -99 3 -112 -8 -7 -5 -35 -11 -63 -12 -42 -2
-50 -5 -46 -18 4 -11 -2 -19 -17 -23 -37 -9 -46 -7 -53 12 -7 23 -58 49 -63
33 -2 -6 -21 -11 -42 -11 -22 0 -63 -5 -91 -11 -47 -10 -54 -10 -66 7 -14 19
-15 19 -28 0 -14 -18 -16 -19 -34 -2 -16 15 -20 15 -28 3 -13 -22 -53 -32 -53
-13 0 12 -7 14 -32 10 -110 -19 -217 -65 -237 -102 -5 -10 -9 -50 -8 -89 2
-63 5 -75 30 -100 15 -16 27 -36 27 -45 0 -22 99 -43 154 -33 23 4 59 8 81 9
22 1 45 4 50 7 6 3 21 3 35 -1 l25 -6 -24 -13 c-14 -8 -37 -10 -56 -7 -19 4
-36 2 -39 -3 -3 -5 -14 -7 -24 -4 -16 4 -41 -12 -95 -62 -52 -48 -101 -135
-75 -135 5 0 9 -15 8 -32 -3 -52 -1 -58 19 -58 22 0 43 -22 39 -41 -2 -8 4
-14 12 -14 8 0 18 -4 22 -10 9 -12 331 -14 398 -2 l45 7 -37 -22 c-22 -12 -38
-30 -38 -40 0 -10 -6 -18 -14 -18 -8 0 -32 -20 -54 -45 -38 -44 -40 -44 -113
-48 -70 -4 -74 -5 -85 -33 -7 -16 -15 -56 -19 -89 -25 -225 186 -511 398 -541
44 -6 47 -8 48 -38 3 -115 0 -454 -7 -761 -10 -410 -10 -441 -2 -660 3 -88 2
-182 -3 -210 -6 -27 -10 -105 -10 -172 -1 -68 -5 -123 -9 -123 -5 0 -15 7 -24
15 -8 8 -24 15 -35 15 -12 0 -21 4 -21 8 0 4 -35 14 -77 22 -43 7 -80 17 -83
21 -7 10 -63 18 -165 25 -44 2 -92 6 -107 8 -21 3 -28 0 -28 -12 0 -12 -3 -13
-8 -5 -16 25 -306 -3 -370 -36 -9 -4 -35 -12 -56 -15 -21 -4 -49 -14 -62 -22
-12 -9 -41 -25 -63 -37 -97 -53 -119 -67 -147 -95 -41 -42 -54 -59 -47 -66 3
-3 -2 -8 -11 -12 -9 -3 -16 -12 -16 -20 0 -8 -5 -14 -11 -14 -5 0 -7 -4 -4
-10 3 -5 1 -10 -4 -10 -6 0 -11 -7 -11 -15 0 -8 -4 -23 -9 -33 -40 -76 -50
-119 -46 -207 2 -49 5 -106 8 -125 10 -68 26 -202 25 -208 0 -4 0 -9 2 -12 1
-3 3 -18 5 -34 4 -25 2 -27 -13 -14 -9 8 -35 23 -57 33 -22 10 -53 28 -70 40
-16 11 -43 27 -58 35 -15 8 -46 29 -67 48 -22 18 -40 30 -40 26 0 -4 -8 0 -18
9 -16 14 -17 24 -9 74 12 70 -1 123 -42 180 -22 30 -52 51 -123 86 -51 26
-122 65 -158 87 -35 22 -81 45 -101 50 l-36 10 -5 133 c-6 149 -21 203 -87
303 -62 95 -128 167 -144 157 -6 -3 -7 -1 -3 5 12 20 -220 162 -264 162 -10 0
-45 7 -77 15 -215 54 -495 -17 -656 -167 -180 -168 -271 -451 -223 -693 15
-76 22 -96 67 -193 52 -113 181 -257 285 -318 96 -56 260 -102 369 -103 87 0
245 38 325 79 57 29 173 109 183 126 13 23 37 17 164 -46 138 -67 214 -90 302
-90 76 0 135 23 163 64 12 17 23 32 24 34 4 6 64 -29 64 -37 0 -12 111 -91
126 -91 7 0 14 -6 17 -13 3 -7 28 -19 56 -27 33 -9 53 -20 57 -32 3 -10 18
-21 34 -24 31 -7 40 -26 40 -88 0 -44 38 -274 48 -290 3 -6 7 -17 7 -26 1 -8
7 -40 13 -70 6 -30 14 -73 16 -95 3 -22 9 -62 15 -90 5 -27 14 -77 20 -110 7
-33 16 -69 21 -80 15 -31 30 -216 21 -255 -7 -33 -55 -129 -70 -140 -19 -15
-70 -103 -65 -111 3 -6 -3 -13 -15 -16 -12 -3 -21 -10 -21 -17 0 -6 -21 -31
-46 -56 -44 -43 -46 -46 -42 -92 3 -31 1 -48 -6 -49 -6 0 0 -5 14 -10 20 -8
22 -12 10 -19 -10 -6 -11 -10 -3 -10 20 0 37 -40 22 -54 -9 -8 -10 -8 -5 1 11
21 -5 41 -40 47 -29 6 -34 11 -34 34 0 16 -5 33 -11 39 -7 7 -7 13 0 17 5 4 8
13 5 21 -3 7 0 24 7 37 12 23 12 23 -10 4 -12 -11 -36 -49 -54 -85 -29 -60
-32 -74 -32 -161 l0 -96 -45 -15 c-31 -9 -46 -20 -48 -34 -2 -11 -12 -29 -21
-40 -25 -30 -19 -87 14 -131 23 -29 25 -38 14 -46 -10 -6 -7 -7 10 -3 21 6 23
4 19 -13 -4 -13 -2 -19 6 -16 6 2 19 -9 29 -25 17 -29 17 -30 -5 -50 -12 -12
-24 -19 -27 -16 -2 3 4 11 13 18 31 22 12 57 -29 57 -28 0 -37 6 -50 30 -9 17
-20 30 -26 30 -6 0 -9 9 -6 19 3 12 -1 22 -9 25 -9 4 -14 22 -14 53 l-1 48
-19 -36 c-11 -20 -23 -64 -27 -97 l-8 -61 -32 16 c-49 23 -74 11 -128 -62 -34
-46 -53 -65 -64 -61 -277 94 -942 197 -1365 212 -166 5 -232 11 -223 21 3 2
-8 27 -24 54 -16 28 -29 54 -29 59 0 6 -4 10 -10 10 -11 0 -44 69 -41 88 1 6
-5 12 -14 12 -8 0 -14 3 -13 8 3 7 -31 63 -43 72 -4 3 -11 18 -14 33 -4 15
-15 33 -25 40 -10 7 -20 19 -22 27 -2 8 -5 17 -8 20 -11 11 -31 46 -41 73 -6
15 -14 27 -19 27 -4 0 -11 8 -14 18 -11 30 -33 62 -38 56 -4 -3 -9 5 -13 18
-11 38 -39 92 -52 101 -7 4 -13 17 -13 27 0 11 -3 20 -8 20 -7 0 -57 88 -57
100 0 3 -10 16 -22 29 -12 13 -20 28 -17 32 2 4 -4 13 -15 19 -13 6 -18 16
-14 26 4 10 -1 20 -10 26 -10 5 -17 15 -17 23 0 7 -9 17 -20 20 -11 4 -18 10
-15 15 3 5 -4 29 -17 52 -12 24 -22 45 -23 48 0 7 -47 74 -56 80 -12 8 -38 78
-31 84 3 3 -2 6 -11 6 -9 0 -17 5 -17 10 0 6 -9 19 -20 30 -11 11 -20 28 -20
38 0 9 -18 41 -40 70 -22 29 -40 59 -40 67 0 8 -4 15 -10 15 -5 0 -10 6 -10
14 0 7 -7 19 -15 26 -9 7 -13 15 -10 18 3 3 -6 17 -19 31 -14 14 -37 51 -52
81 -15 30 -30 57 -34 60 -3 3 -18 21 -33 41 l-27 36 24 22 c32 30 75 127 88
201 27 146 -55 354 -215 542 -30 36 -64 83 -76 105 -30 60 -78 71 -128 30 -33
-28 -145 -100 -224 -145 l-56 -32 -63 123 c-120 231 -323 517 -367 517 -11 0
-14 6 -12 26 0 3 -13 20 -29 39 -16 18 -31 37 -33 42 -5 9 -195 180 -260 233
-197 159 -635 417 -686 404 -12 -4 -31 4 -51 21 -17 15 -36 24 -41 21 -5 -3
-11 3 -14 14 -3 12 -14 20 -25 20 -12 0 -23 4 -27 10 -3 5 -12 7 -19 4 -8 -3
-16 4 -19 15 -4 15 -13 21 -32 21 -20 0 -26 4 -22 14 6 15 -7 22 -53 31 -12 2
-28 9 -34 15 -7 5 -15 7 -19 4 -3 -3 -15 4 -26 15 -12 12 -28 21 -36 21 -8 0
-15 6 -15 14 0 7 -11 21 -25 30 -14 9 -24 22 -22 28 1 7 -5 12 -13 13 -8 1
-14 6 -13 13 2 6 -9 18 -25 26 -33 17 -64 50 -60 63 4 14 -80 103 -98 103 -8
0 -17 6 -20 14 -3 8 -12 12 -19 10 -18 -7 -29 14 -16 30 15 18 5 40 -24 56
-14 7 -28 23 -31 34 -4 12 -12 25 -19 31 -6 5 -17 30 -24 55 -23 78 -33 100
-52 110 -9 6 -23 27 -29 47 -7 21 -23 63 -36 94 -13 32 -23 76 -23 100 1 41
-24 185 -38 219 -3 8 -7 44 -9 80 -2 36 -8 66 -14 68 -7 3 -7 8 -2 15 14 18
21 67 10 73 -5 4 -6 18 -3 33 4 14 7 54 6 88 -1 33 2 64 7 67 12 7 19 48 27
146 4 41 12 81 18 88 8 10 7 16 -2 21 -21 13 -2 56 39 87 20 16 35 34 33 41
-5 14 59 146 85 176 9 10 22 15 29 13 7 -3 14 0 14 7 1 7 2 19 3 27 0 8 11 16
24 18 13 2 22 10 22 21 0 21 25 45 38 37 5 -3 31 11 58 31 27 19 81 51 121 69
40 19 74 38 78 43 7 12 113 43 124 37 5 -3 46 -1 92 4 130 15 269 18 269 7 0
-6 4 -6 13 0 24 20 67 24 96 8 16 -8 31 -18 33 -23 4 -11 78 -3 78 9 0 5 -6 9
-14 9 -7 0 -19 7 -26 15 -7 8 -27 15 -45 15 -20 0 -42 9 -59 25 -31 29 -71 33
-80 8 -6 -15 -8 -14 -20 2 -9 13 -15 15 -20 7 -4 -7 -4 -16 -1 -22 3 -5 2 -10
-4 -10 -5 0 -13 5 -17 11 -3 6 -16 8 -29 5 -15 -4 -25 -1 -29 9 -3 8 -14 15
-25 15 -14 0 -18 -5 -14 -20 3 -11 0 -20 -6 -20 -6 0 -11 4 -11 10 0 5 -12 7
-27 4 -16 -3 -50 0 -78 7 -59 13 -143 20 -167 13 -10 -3 -18 -15 -18 -27 0
-12 -4 -27 -8 -33 -10 -17 -102 -64 -124 -64 -11 0 -28 -5 -40 -11 -25 -13
-35 -5 -18 16 7 8 8 15 2 15 -5 0 -15 -7 -22 -15 -8 -10 -21 -13 -34 -9 -20 6
-20 6 -3 -13 22 -25 22 -45 -2 -74 -16 -20 -21 -22 -35 -10 -21 17 -66 0 -66
-25 0 -10 -5 -14 -15 -10 -25 9 -47 -23 -43 -65 3 -34 0 -39 -34 -60 -21 -13
-38 -28 -38 -34 0 -6 -13 -22 -30 -37 -27 -24 -43 -57 -21 -43 5 3 12 1 16 -5
3 -5 2 -10 -4 -10 -6 0 -25 -14 -43 -32 -18 -18 -25 -29 -15 -25 9 4 24 10 34
14 21 8 8 -15 -23 -39 -12 -10 -24 -28 -28 -42 -3 -14 -18 -29 -36 -36 -16 -7
-30 -19 -30 -26 0 -17 12 -18 28 -2 15 15 15 4 1 -41 -28 -86 -32 -93 -50 -88
-17 5 -18 -1 -17 -53 1 -40 -4 -66 -15 -84 -14 -21 -15 -29 -5 -46 10 -16 10
-24 0 -40 -10 -17 -10 -20 3 -20 17 0 20 -16 6 -24 -5 -4 -12 0 -14 6 -3 7 -6
-16 -6 -52 -1 -48 4 -73 19 -98 24 -39 25 -43 5 -36 -19 8 -19 -10 0 -26 19
-16 19 -34 0 -50 -10 -8 -13 -20 -9 -34 4 -12 8 -37 10 -56 1 -19 8 -36 14
-38 8 -3 8 -8 -1 -18 -9 -11 -9 -14 1 -14 7 0 10 -8 7 -20 -3 -13 1 -24 14
-30 10 -6 19 -16 19 -22 0 -15 57 -78 64 -71 3 4 6 -1 6 -10 0 -10 -8 -17 -17
-17 -14 0 -13 -3 5 -23 22 -24 30 -57 13 -57 -5 0 -11 6 -14 13 -2 6 -8 9 -12
4 -5 -4 1 -17 12 -30 11 -12 23 -30 26 -39 4 -10 10 -18 16 -18 5 0 21 -26 36
-57 15 -32 34 -66 42 -75 20 -22 45 -130 33 -142 -10 -10 21 -69 59 -111 15
-16 38 -45 50 -63 18 -25 29 -32 49 -30 21 2 27 -2 28 -17 2 -41 4 -44 21 -38
13 5 15 2 11 -15 -4 -12 -2 -22 3 -22 5 0 19 -11 31 -25 16 -18 25 -22 38 -15
13 7 22 4 35 -10 17 -19 17 -20 -1 -20 -16 0 -17 -2 -3 -15 19 -19 55 -26 86
-18 18 4 21 9 14 16 -14 14 -14 27 -1 27 6 0 16 -11 22 -25 10 -22 24 -34 88
-74 8 -5 31 -15 50 -22 19 -7 61 -40 94 -72 49 -50 63 -58 85 -54 36 8 56 -7
56 -40 0 -20 9 -33 35 -50 19 -12 46 -30 60 -40 14 -10 28 -17 33 -15 12 4
114 -58 149 -90 19 -18 39 -28 50 -25 11 3 22 -2 28 -13 8 -14 35 -28 70 -34
19 -4 140 -93 140 -103 0 -8 11 -18 25 -23 14 -5 28 -17 31 -25 4 -8 12 -15
20 -15 8 0 14 -6 14 -13 0 -7 23 -33 52 -58 97 -82 417 -412 426 -438 2 -7 14
-16 27 -21 17 -6 26 -22 35 -62 7 -29 29 -82 48 -118 20 -36 53 -96 73 -135
21 -38 39 -78 39 -87 0 -11 -16 -22 -51 -33 -48 -16 -76 -44 -51 -53 7 -2 12
-10 12 -19 0 -55 218 -352 350 -476 144 -136 274 -177 429 -136 8 2 21 -9 30
-25 9 -16 26 -40 38 -53 11 -13 33 -48 49 -78 15 -30 31 -55 36 -55 4 0 8 -6
8 -13 0 -8 19 -43 42 -78 23 -35 49 -77 57 -92 9 -16 49 -81 89 -147 39 -65
72 -121 72 -124 0 -3 15 -29 34 -58 18 -29 45 -75 60 -103 28 -53 48 -87 56
-95 3 -3 15 -25 27 -50 12 -25 60 -108 107 -185 46 -77 83 -141 81 -143 -2 -2
-41 4 -87 13 -75 16 -117 22 -273 40 -27 4 -63 10 -79 16 -16 5 -48 9 -71 9
-23 0 -55 4 -71 9 -59 18 -137 33 -182 37 -56 3 -126 17 -202 37 -30 9 -73 18
-95 21 -22 3 -55 10 -73 15 -18 6 -39 8 -47 5 -8 -3 -20 -2 -27 2 -7 4 -26 9
-43 10 -16 1 -32 2 -35 4 -3 1 -23 4 -45 6 -91 8 -151 15 -165 21 -8 4 -22 7
-30 9 -49 6 -91 15 -114 24 -15 5 -42 10 -61 10 -19 0 -36 4 -39 8 -2 4 -34 8
-70 7 -36 0 -66 4 -66 9 0 4 -7 6 -15 2 -8 -3 -15 -2 -15 3 0 4 -28 9 -62 10
-34 1 -67 6 -73 11 -9 8 -55 13 -189 24 -32 3 -80 10 -107 16 -26 7 -53 9 -59
5 -6 -4 -9 -1 -8 7 2 8 -5 12 -17 11 -11 -1 -40 4 -65 12 -105 32 -130 37
-153 31 -14 -3 -29 -2 -32 4 -3 5 -19 10 -36 10 -16 0 -29 4 -29 9 0 5 -9 7
-20 4 -11 -3 -40 0 -64 7 -25 7 -63 13 -85 13 -23 1 -41 5 -41 9 0 4 -20 8
-45 8 -25 0 -67 8 -94 19 -37 14 -52 16 -61 7 -8 -8 -14 -7 -23 5 -11 15 -14
15 -26 1 -12 -13 -16 -13 -20 -1 -3 8 -19 15 -36 16 -106 9 -177 20 -183 30
-4 7 -25 10 -46 9 -44 -4 -118 13 -111 24 3 4 -5 8 -18 9 -34 0 -107 10 -157
20 -25 5 -57 7 -71 4 -14 -2 -43 3 -65 13 -21 9 -43 16 -48 15 -5 -1 -16 1
-25 5 -9 4 -33 8 -54 9 -21 1 -43 7 -49 13 -7 7 -19 7 -34 2 -15 -6 -24 -6
-24 0 0 6 -7 10 -15 10 -8 0 -15 4 -15 9 0 5 -30 12 -67 15 -121 11 -117 10
-138 52 -11 22 -28 51 -37 66 -13 19 -14 28 -5 37 9 10 9 12 -2 9 -7 -2 -15 6
-17 16 -1 11 -14 29 -27 40 -13 12 -23 31 -22 43 1 12 -1 20 -5 18 -4 -3 -7
15 -8 38 0 65 -1 67 -22 67 -23 0 -26 10 -8 28 10 10 10 15 -2 22 -8 5 -17 7
-20 5 -4 -2 -6 20 -5 50 1 44 6 60 27 82 54 56 58 112 17 230 l-19 56 32 28
c18 16 36 28 40 29 16 0 98 65 98 76 0 6 9 18 20 25 15 10 21 26 22 59 0 25 5
50 10 57 5 6 9 31 9 55 -1 221 -1 230 -23 282 -12 28 -25 53 -28 56 -3 3 -17
23 -30 45 -29 47 -126 145 -145 145 -7 0 -18 7 -25 15 -7 9 -20 15 -29 13 -9
-1 -27 5 -41 15 -13 9 -30 17 -38 17 -7 0 -27 7 -44 16 -23 12 -65 17 -156 19
-126 2 -144 -1 -232 -43 -25 -12 -50 -22 -55 -22 -6 0 -17 -9 -25 -21 -8 -11
-28 -27 -43 -35 -15 -8 -25 -19 -22 -24 4 -6 0 -10 -8 -10 -14 0 -57 -52 -57
-69 0 -5 -13 -20 -30 -33 -34 -27 -71 -93 -63 -114 3 -8 0 -14 -6 -14 -6 0
-11 -8 -11 -18 0 -10 -5 -23 -12 -30 -17 -17 -17 -247 0 -294 8 -21 18 -38 23
-38 5 0 8 -3 8 -7 -3 -21 5 -36 49 -83 26 -29 51 -59 55 -67 5 -8 16 -11 28
-8 13 5 17 2 14 -7 -6 -16 96 -67 140 -70 14 -1 25 -5 25 -9 0 -10 127 -41
178 -44 39 -1 47 -5 52 -26 11 -38 46 -103 77 -139 29 -35 78 -60 117 -60 18
0 27 -8 35 -30 5 -17 17 -38 26 -46 8 -8 15 -24 15 -35 0 -10 5 -19 11 -19 7
0 9 -9 6 -21 -3 -13 2 -28 14 -40 10 -10 19 -21 18 -24 -3 -19 15 -64 27 -69
8 -3 14 -19 14 -41 0 -19 5 -35 10 -35 6 0 10 -11 10 -25 0 -14 9 -44 20 -67
l19 -40 -47 7 c-26 4 -51 10 -57 13 -5 4 -32 8 -60 10 -27 2 -56 9 -63 14 -7
6 -15 8 -19 5 -3 -4 -14 -2 -25 4 -10 5 -31 12 -46 14 -58 7 -102 18 -102 24
0 4 -15 7 -32 8 -66 4 -116 11 -128 18 -9 5 -11 4 -6 -3 5 -8 2 -10 -8 -6 -9
3 -16 9 -16 13 0 3 -21 7 -48 9 -81 5 -97 7 -102 14 -3 4 -21 9 -40 11 -19 2
-42 7 -50 10 -8 3 -22 5 -30 6 -15 0 -55 8 -55 11 0 1 -9 3 -20 5 -11 1 -28 6
-37 10 -12 5 -18 3 -18 -6 -1 -11 -3 -11 -13 1 -7 9 -25 15 -42 14 -16 0 -34
2 -40 5 -5 3 -21 7 -35 9 -13 2 -27 8 -31 14 -3 5 -22 8 -40 7 -19 -2 -41 1
-48 6 -8 4 -32 7 -53 7 -22 -1 -48 3 -59 9 -11 6 -38 11 -60 11 -21 0 -39 4
-39 9 0 5 -11 7 -25 5 -13 -3 -27 0 -30 5 -4 5 -18 7 -33 4 -15 -2 -51 2 -81
10 -29 7 -58 12 -64 9 -8 -3 -12 14 -13 53 0 38 -7 72 -21 98 -24 46 -99 119
-158 154 -22 13 -56 39 -75 57 -49 47 -136 68 -275 69 l-110 0 -30 -112 c-16
-62 -33 -109 -38 -104 -4 4 -8 17 -8 27 0 21 74 245 94 283 6 13 12 57 12 97
0 81 -15 110 -75 151 -99 68 -215 26 -260 -93 -24 -66 -25 -74 -4 -74 14 0 14
-3 4 -15 -7 -8 -20 -15 -29 -16 -12 0 -11 -2 4 -9 17 -7 17 -9 3 -9 -20 -1
-24 -16 -8 -26 6 -4 8 -11 4 -16 -3 -5 -10 -7 -15 -4 -8 6 -26 -50 -21 -67 1
-5 -2 -8 -6 -8 -10 0 -9 -41 1 -57 5 -7 -1 -21 -13 -33 -11 -11 -27 -39 -35
-63 -18 -51 -18 -58 -4 -55 6 2 14 -3 16 -9 3 -7 -3 -13 -11 -13 -12 0 -15 -6
-10 -25 5 -19 2 -25 -11 -25 -9 0 -13 -5 -10 -10 4 -6 2 -17 -4 -24 -6 -8 -13
-41 -15 -74 -2 -33 -11 -73 -19 -89 -8 -15 -21 -42 -27 -60 -24 -64 -46 -64
-79 -1 -12 23 -12 34 1 80 11 37 20 52 30 50 12 -2 22 17 36 65 18 59 19 69 6
76 -8 5 -11 13 -7 20 4 6 8 27 10 47 2 19 10 40 17 45 17 13 28 72 16 80 -16
10 -2 24 33 33 29 7 34 15 58 88 21 64 23 80 12 82 -11 3 -13 14 -7 45 8 48
51 110 71 103 8 -3 13 2 13 13 0 10 -7 21 -15 25 -8 3 -15 14 -15 24 0 10 -9
27 -20 37 -11 10 -20 26 -20 35 0 25 -20 38 -78 51 -39 9 -61 10 -88 1 -25 -7
-43 -8 -56 -1 -15 8 -18 6 -18 -16 0 -14 -10 -39 -22 -56 -17 -23 -22 -42 -20
-79 2 -39 -1 -50 -13 -50 -17 0 -20 -16 -5 -25 19 -12 -1 -25 -38 -26 -20 0
-31 -3 -24 -6 6 -2 12 -15 12 -28 0 -13 5 -27 10 -30 9 -6 -3 -42 -19 -55 -3
-3 -14 -22 -23 -42 -18 -38 -12 -53 16 -42 11 4 19 -5 30 -31 17 -39 32 -42
50 -9 6 10 15 22 19 25 5 3 2 9 -7 12 -19 7 -10 37 10 37 8 0 14 6 14 14 0 8
3 21 6 29 3 10 -2 18 -16 22 -21 7 -21 7 4 30 15 13 26 34 26 46 0 31 52 138
68 139 6 0 12 6 12 14 0 7 7 19 15 26 12 10 15 10 15 0 0 -7 7 -18 15 -24 12
-9 11 -18 -12 -61 -43 -85 -63 -153 -53 -180 8 -20 6 -27 -9 -37 -19 -12 -18
-47 3 -60 6 -4 4 -9 -7 -14 -9 -3 -17 -12 -17 -20 0 -8 -7 -14 -15 -14 -11 0
-15 -11 -15 -39 0 -22 -4 -42 -9 -46 -5 -3 -13 -19 -16 -37 -4 -17 -20 -52
-37 -77 -24 -37 -28 -53 -24 -83 5 -30 2 -40 -16 -52 -12 -9 -18 -16 -11 -16
14 0 14 -49 0 -75 -17 -32 -18 -77 -3 -94 7 -9 16 -27 19 -41 4 -14 26 -46 49
-71 l43 -46 65 3 c65 3 71 6 84 48 5 15 9 16 21 6 12 -10 15 -9 15 4 0 9 5 16
12 16 6 0 9 3 6 6 -6 6 29 90 48 116 6 7 18 40 28 73 10 33 22 69 26 80 5 11
14 43 20 70 6 28 15 57 20 65 8 12 11 11 16 -7 4 -13 17 -24 34 -28 21 -5 27
-11 23 -24 -4 -14 7 -24 44 -41 26 -13 49 -24 51 -25 1 -1 -7 -43 -17 -94 -11
-51 -18 -98 -15 -105 25 -64 436 -105 582 -58 80 26 125 57 152 104 20 37 50
51 50 26 0 -10 2 -10 8 -2 8 14 31 12 139 -10 43 -8 121 -23 173 -31 106 -18
190 -35 330 -65 52 -12 130 -28 172 -36 43 -8 115 -21 160 -29 46 -9 106 -20
133 -25 189 -34 281 -53 355 -71 130 -31 260 -60 315 -69 28 -5 75 -14 105
-20 30 -5 86 -15 123 -20 38 -5 108 -19 155 -31 127 -31 162 -37 162 -29 0 5
15 4 33 -1 74 -20 225 -51 272 -56 28 -3 57 -9 65 -13 8 -4 39 -11 68 -15 28
-4 52 -10 52 -13 0 -4 -23 -22 -50 -40 -28 -17 -50 -37 -50 -43 0 -5 -4 -8 -9
-4 -5 3 -16 -4 -24 -15 -7 -11 -16 -18 -19 -15 -3 3 -23 -12 -44 -33 -21 -21
-52 -42 -68 -46 -15 -4 -26 -9 -23 -13 11 -10 -30 -44 -46 -38 -10 5 -20 -3
-29 -22 -8 -17 -21 -28 -34 -28 -11 0 -37 -17 -59 -38 -21 -21 -44 -36 -51
-33 -7 3 -11 0 -9 -7 6 -16 -4 -29 -37 -46 -28 -14 -36 -35 -19 -45 4 -3 23 8
41 24 19 17 37 31 42 31 4 1 11 2 16 3 14 3 68 42 101 73 18 18 37 31 41 28 3
-2 14 5 23 16 9 10 24 19 32 19 9 0 13 5 10 10 -3 6 1 10 10 10 18 0 134 79
179 122 17 15 34 28 38 28 15 0 78 46 73 53 -3 4 -2 5 1 2 11 -8 45 15 38 26
-4 7 6 8 28 5 157 -27 260 -46 266 -50 4 -3 35 -8 67 -11 33 -4 62 -9 65 -10
3 -2 57 -10 120 -20 63 -9 135 -22 160 -30 67 -21 229 -52 370 -70 69 -9 170
-23 225 -31 55 -9 129 -19 165 -24 36 -6 88 -14 115 -20 28 -5 67 -12 87 -15
l38 -6 -18 -27 c-9 -14 -27 -37 -39 -51 -13 -13 -23 -30 -23 -37 0 -8 -7 -14
-15 -14 -8 0 -15 -7 -15 -15 0 -10 -7 -15 -17 -13 -12 2 -18 -4 -18 -17 0 -11
-6 -19 -13 -17 -7 1 -15 -6 -19 -15 -4 -10 -17 -32 -31 -50 -29 -39 -21 -64
12 -35 11 10 29 22 39 25 9 4 21 17 26 29 5 13 20 30 35 37 14 8 23 18 20 23
-3 4 0 8 6 8 12 0 70 53 70 65 0 4 20 26 44 49 l44 41 89 -13 c137 -20 310
-52 403 -74 115 -27 480 -87 685 -113 66 -8 146 -21 178 -30 32 -8 73 -15 91
-15 29 0 36 -5 50 -35 9 -19 23 -40 30 -48 8 -7 24 -33 36 -58 13 -24 35 -62
50 -84 15 -22 40 -65 56 -95 16 -30 32 -57 35 -60 4 -3 16 -24 28 -48 l21 -42
-117 0 c-529 -1 -1082 -150 -1438 -389 -294 -197 -588 -490 -846 -841 -368
-501 -606 -1053 -679 -1575 -12 -82 -22 -153 -23 -157 -1 -4 -22 6 -47 22 -25
16 -68 35 -96 41 l-51 11 2 127 c1 110 -6 201 -18 251 -12 50 -63 198 -74 215
-7 11 -13 25 -13 32 0 29 -158 276 -216 338 -39 42 -141 111 -189 129 -27 11
-92 39 -143 63 -51 24 -132 53 -180 64 -93 22 -140 19 -282 -17 -30 -8 -83
-19 -117 -24 -80 -13 -136 -38 -211 -93 -74 -54 -173 -136 -189 -157 -6 -8
-30 -35 -53 -59 -23 -25 -50 -56 -59 -70 -9 -15 -26 -34 -38 -44 -13 -10 -23
-25 -23 -33 0 -8 -4 -14 -9 -14 -5 0 -15 -15 -22 -33 -7 -17 -20 -40 -29 -49
-8 -9 -28 -43 -45 -75 -16 -32 -35 -65 -42 -74 -13 -15 -37 -96 -48 -160 -3
-18 -8 -35 -10 -39 -5 -8 -14 -71 -21 -150 -3 -30 -6 -71 -9 -90 -3 -29 6
-104 30 -261 13 -87 75 -224 107 -237 5 -2 6 -7 3 -12 -7 -11 117 -142 151
-160 16 -8 34 -20 39 -26 6 -6 51 -28 100 -50 50 -21 96 -44 103 -51 7 -7 24
-13 37 -13 13 0 27 -4 30 -10 6 -9 46 -29 90 -45 25 -9 238 -18 364 -16 76 1
96 -2 106 -15 10 -15 14 -15 46 1 19 10 45 26 58 36 13 11 34 19 46 19 12 0
28 7 35 15 7 8 23 15 36 15 12 0 25 4 28 9 3 4 16 6 28 4 13 -2 40 3 61 12 34
14 42 25 38 48 -1 5 3 6 8 3 5 -3 11 0 14 7 3 8 21 21 40 31 32 15 35 20 33
54 -2 30 2 41 26 61 l30 24 26 -21 c55 -44 308 -215 386 -261 45 -27 103 -57
129 -67 50 -20 59 -31 71 -96 l7 -37 -43 15 c-23 8 -49 21 -59 30 -19 17 -40
11 -57 -17 -10 -16 -10 -22 1 -33 25 -26 112 -66 142 -66 l31 0 57 -171 c31
-93 84 -236 118 -317 108 -254 307 -630 362 -681 15 -14 27 -34 27 -43 0 -10
7 -18 15 -18 9 0 20 -12 25 -26 14 -35 12 -44 -5 -38 -10 4 -15 0 -15 -10 0
-13 4 -15 19 -7 14 8 23 6 36 -9 18 -20 18 -21 0 -34 -17 -12 -17 -14 3 -34
11 -11 28 -35 37 -51 8 -17 20 -31 25 -31 5 0 24 -24 41 -53 44 -75 95 -149
117 -172 11 -11 23 -30 26 -42 4 -12 22 -38 41 -59 19 -21 35 -40 35 -43 0 -4
12 -14 26 -25 25 -18 26 -18 47 2 19 18 24 19 41 7 18 -13 14 -41 -5 -30 -5 4
-9 2 -9 -3 0 -6 7 -13 16 -16 11 -4 18 1 21 14 7 28 32 24 72 -10 69 -59 39
-21 -60 76 -113 111 -255 277 -346 404 -187 261 -443 741 -570 1070 -49 124
-117 339 -111 346 3 2 31 11 63 19 68 18 125 44 125 56 0 5 7 9 15 9 8 0 15 5
15 10 0 6 6 10 14 10 16 0 106 84 106 99 0 6 -12 17 -27 25 -28 15 -28 16 -6
22 26 7 30 19 32 99 2 73 -20 161 -57 229 -38 72 -142 178 -242 248 -133 94
-140 103 -134 157 47 390 139 686 330 1063 179 350 404 670 670 947 463 483
922 719 1554 800 166 22 526 44 542 35 5 -4 18 -26 28 -50 11 -24 24 -44 30
-44 5 0 10 -6 10 -14 0 -7 15 -38 33 -69 17 -30 46 -79 62 -109 67 -119 146
-253 235 -398 32 -52 79 -135 105 -184 25 -49 66 -117 91 -152 24 -35 44 -67
44 -70 0 -3 8 -18 19 -32 19 -27 24 -36 96 -167 21 -38 42 -72 46 -75 3 -3 14
-21 24 -40 10 -19 24 -42 31 -50 8 -8 28 -42 45 -75 36 -70 48 -158 29 -220
-6 -22 -14 -58 -17 -80 -2 -22 -11 -67 -20 -100 -8 -33 -17 -69 -20 -80 -2
-11 -5 -24 -7 -30 -2 -5 -6 -23 -11 -40 -4 -16 -12 -35 -17 -42 -5 -7 -8 -20
-6 -30 3 -10 -2 -31 -9 -46 -8 -16 -15 -42 -15 -58 -1 -16 -5 -29 -10 -29 -4
0 -8 -21 -8 -47 0 -27 -6 -60 -14 -75 -8 -14 -19 -59 -26 -100 -6 -40 -18 -85
-26 -99 -7 -14 -11 -28 -9 -31 3 -3 -1 -23 -9 -46 -8 -22 -12 -43 -9 -46 3 -3
1 -11 -4 -18 -11 -15 -33 -90 -38 -129 -2 -16 -11 -51 -19 -80 -9 -28 -13 -55
-10 -60 3 -5 -2 -30 -11 -55 -9 -26 -14 -53 -11 -60 2 -6 2 -15 -2 -19 -4 -4
-8 -16 -8 -28 -1 -12 -5 -33 -9 -47 -7 -29 -13 -74 -14 -109 -1 -23 -2 -24
-21 -6 -11 10 -20 15 -20 10 0 -4 -9 3 -19 16 -16 20 -17 27 -6 49 15 30 66
181 91 268 26 94 25 234 -2 292 -43 90 -103 130 -193 130 -42 0 -56 -6 -99
-39 -82 -65 -107 -112 -120 -229 -8 -72 -5 -112 17 -200 14 -54 69 -164 87
-175 8 -4 14 -14 14 -21 0 -7 16 -31 35 -53 l35 -41 -30 -33 c-16 -19 -30 -37
-30 -42 0 -8 -36 -62 -57 -85 -7 -7 -13 -18 -13 -23 0 -34 -54 52 -64 101 -2
8 -8 28 -14 43 -7 16 -12 35 -12 43 0 13 -25 60 -40 74 -3 3 -6 14 -8 25 -2
11 -14 36 -27 56 -30 46 -65 124 -65 144 0 9 -11 36 -25 61 -14 25 -23 49 -20
53 2 5 -4 16 -15 26 -11 10 -20 22 -20 28 0 10 -31 80 -39 87 -6 5 -9 15 -17
53 -2 11 -11 26 -22 35 -10 10 -16 25 -14 35 2 10 -1 24 -7 31 -6 7 -12 22
-14 33 -1 11 -10 31 -18 44 -9 13 -28 52 -44 87 -15 34 -32 62 -36 62 -5 0 -9
9 -9 20 0 11 4 20 10 20 5 0 21 20 35 43 41 70 35 116 -30 249 -31 62 -62 118
-69 123 -11 9 -9 15 10 32 14 12 23 27 22 34 -2 7 8 18 22 25 21 11 40 40 45
69 0 6 5 18 10 29 6 14 2 23 -15 36 -13 9 -20 22 -16 28 3 5 -1 13 -10 16 -24
9 -54 7 -54 -4 0 -5 -7 -10 -15 -10 -8 0 -15 -4 -15 -10 0 -5 -7 -7 -15 -4 -8
4 -15 2 -15 -3 0 -11 -43 -11 -51 0 -3 4 -18 -2 -32 -13 -15 -12 -35 -19 -44
-16 -24 7 -64 -24 -66 -52 -1 -21 -17 -32 -17 -12 0 18 -20 11 -43 -15 -13
-16 -34 -27 -52 -28 -19 -1 -33 -10 -39 -22 -5 -11 -28 -30 -52 -42 -49 -25
-84 -21 -77 8 3 10 9 19 13 19 4 0 10 9 13 20 3 11 13 23 24 26 26 10 85 73
78 84 -10 16 22 23 45 10 16 -8 25 -9 29 -2 14 23 82 61 98 55 11 -5 14 -3 8
6 -5 10 -2 11 14 6 16 -5 21 -2 21 10 0 11 5 15 14 12 21 -8 124 71 125 96 0
4 3 23 7 42 4 21 2 41 -5 49 -6 7 -9 20 -6 28 4 9 -9 22 -35 37 -35 20 -49 22
-101 16 -45 -5 -59 -11 -59 -23 0 -15 -2 -15 -10 -2 -5 8 -10 10 -10 4 0 -5
-6 -18 -13 -28 -11 -15 -17 -17 -35 -7 -13 7 -22 8 -22 2 0 -5 -3 -17 -7 -27
-5 -15 -2 -16 26 -11 18 4 41 2 52 -4 15 -7 21 -6 25 6 3 8 11 12 17 8 6 -4 8
0 4 10 -8 20 22 24 40 6 9 -9 10 -6 6 12 -6 22 -5 23 13 9 35 -27 44 -38 44
-53 0 -8 7 -17 15 -21 27 -10 17 -43 -16 -55 -40 -14 -39 -14 -39 6 0 13 -3
14 -12 5 -9 -9 -9 -15 0 -24 12 -12 17 -48 7 -48 -3 0 -17 7 -30 16 -17 11
-25 12 -25 4 0 -7 -8 -9 -20 -5 -17 5 -20 2 -20 -24 0 -29 -1 -30 -42 -28 -31
1 -42 -2 -40 -12 2 -9 -5 -12 -23 -9 -23 5 -24 4 -11 -11 13 -14 12 -16 -12
-15 -15 0 -37 6 -49 12 -30 17 -42 14 -19 -3 20 -15 20 -15 0 -30 -26 -19 -54
-19 -54 1 0 13 -3 14 -15 4 -8 -7 -12 -16 -10 -21 7 -10 -32 -32 -44 -24 -5 3
-7 -4 -4 -15 4 -14 0 -20 -10 -20 -9 0 -25 -13 -36 -29 -17 -24 -19 -34 -11
-56 13 -35 13 -38 -7 -30 -15 5 -16 4 -5 -6 16 -17 16 -56 0 -61 -7 -3 7 -19
31 -36 30 -22 48 -29 56 -22 6 5 22 7 36 5 22 -4 27 1 44 40 14 36 21 43 31
34 10 -9 14 -9 14 0 0 6 7 11 15 11 9 0 12 -6 8 -17 -4 -13 0 -11 15 5 11 13
22 27 24 30 2 4 18 17 35 30 32 22 75 23 88 1 3 -4 12 -6 20 -2 10 3 13 1 10
-9 -5 -13 -57 -40 -80 -42 -5 -1 -14 -7 -18 -14 -5 -7 -12 -10 -18 -7 -5 4 -9
1 -9 -4 0 -6 -3 -10 -7 -9 -15 4 -80 -46 -102 -77 -21 -31 -27 -78 -15 -110
15 -39 79 -51 155 -29 12 3 18 -4 23 -29 13 -71 137 -156 227 -157 54 0 69
-13 97 -85 11 -28 29 -66 41 -85 11 -20 31 -67 45 -105 38 -112 52 -145 64
-157 7 -7 12 -20 12 -29 0 -10 4 -20 9 -23 5 -3 12 -18 16 -33 3 -14 19 -54
34 -87 16 -34 32 -75 36 -93 3 -18 14 -42 24 -55 34 -43 110 -195 117 -234 9
-48 30 -101 55 -136 20 -28 26 -78 9 -78 -6 0 -30 -18 -52 -40 -27 -25 -48
-38 -59 -35 -9 3 -22 -1 -29 -10 -7 -8 -21 -15 -31 -15 -11 0 -19 -4 -19 -8 0
-10 -68 -32 -98 -32 -15 0 -22 9 -27 33 -13 60 -73 197 -166 377 -29 56 -123
148 -176 173 -72 33 -195 32 -246 -3 -48 -32 -92 -95 -101 -142 -4 -21 -12
-38 -19 -39 -45 -3 -59 -8 -71 -25 -13 -17 -12 -19 15 -22 16 -2 29 -8 29 -14
0 -6 11 -8 25 -6 22 5 25 2 25 -21 0 -15 7 -36 15 -47 8 -10 15 -28 15 -39 0
-53 181 -228 270 -262 25 -9 47 -20 50 -24 14 -18 202 -65 219 -54 22 13 60
-7 66 -36 4 -16 11 -31 16 -34 5 -4 9 -20 9 -36 0 -16 7 -46 16 -67 8 -20 24
-82 35 -137 22 -109 24 -114 51 -133 15 -11 18 -22 13 -59 -3 -27 1 -66 10
-96 8 -28 15 -64 15 -79 0 -17 10 -39 23 -52 24 -24 27 -44 12 -80 -5 -11 -3
-32 5 -50 7 -17 13 -41 14 -53 0 -13 3 -23 6 -23 3 0 6 -17 7 -37 4 -69 4 -73
12 -73 4 0 8 -18 9 -40 2 -23 7 -53 13 -67 5 -14 7 -33 4 -42 -2 -9 0 -41 5
-71 14 -79 16 -104 25 -320 l8 -195 -23 20 c-13 11 -44 39 -69 62 -25 24 -49
43 -53 43 -8 0 -39 26 -130 112 -34 32 -66 58 -71 58 -6 0 -39 28 -75 63 -94
90 -112 107 -112 100 0 -3 -15 6 -34 21 -19 14 -39 26 -45 26 -5 0 -21 11 -35
25 -14 14 -32 25 -41 25 -8 0 -15 5 -15 10 0 6 -8 14 -17 17 -10 4 -28 18 -41
32 -14 15 -28 25 -32 24 -4 -1 -16 7 -25 17 -10 11 -22 20 -27 20 -5 0 -33 16
-62 35 -29 19 -58 35 -63 35 -6 0 -14 7 -17 15 -3 9 -19 21 -36 26 -16 6 -30
15 -30 20 0 4 -16 16 -37 25 -20 10 -49 29 -64 43 -15 14 -47 43 -70 65 -23
21 -48 39 -55 40 -7 1 -22 12 -32 24 -11 12 -23 22 -28 22 -5 0 -22 14 -38 30
-16 17 -33 30 -38 30 -8 0 -26 14 -78 63 -16 15 -34 27 -40 27 -5 0 -10 5 -10
12 0 6 -3 9 -6 5 -3 -3 -16 3 -27 14 -12 11 -38 27 -59 37 -21 9 -38 24 -38
33 0 9 -10 19 -23 23 -13 3 -42 22 -64 43 -62 58 -99 83 -120 83 -11 0 -26 11
-33 25 -7 14 -18 25 -23 25 -5 0 -22 14 -37 30 -15 17 -35 30 -43 30 -9 0 -18
9 -22 19 -3 11 -14 23 -24 26 -10 3 -26 14 -36 25 -10 11 -25 20 -33 20 -8 0
-32 20 -54 45 -22 25 -43 44 -45 41 -3 -3 -11 1 -19 7 -17 14 -79 69 -114 100
-13 12 -27 22 -31 22 -4 0 -21 12 -38 28 -17 15 -36 27 -42 27 -13 0 -112 69
-117 82 -2 4 -9 8 -15 8 -7 0 -39 23 -72 50 -41 34 -61 46 -67 38 -4 -7 -2
-15 4 -19 7 -4 7 -9 -1 -13 -24 -15 -23 -16 165 -145 44 -31 87 -60 96 -66 56
-36 139 -100 176 -134 24 -23 45 -41 48 -41 3 0 19 -14 37 -30 18 -17 58 -49
90 -72 31 -24 57 -46 57 -50 0 -5 6 -8 13 -8 13 0 45 -23 111 -80 46 -39 102
-80 111 -80 3 0 24 -17 46 -37 23 -21 49 -42 59 -48 17 -10 37 -26 153 -120
72 -59 198 -153 242 -181 33 -21 35 -22 97 -78 24 -21 54 -48 68 -60 14 -13
77 -55 140 -94 63 -40 140 -90 170 -112 30 -22 69 -47 85 -56 17 -9 53 -33 80
-53 28 -20 70 -49 95 -64 25 -14 75 -55 111 -90 37 -34 104 -95 150 -134 46
-39 93 -79 104 -89 11 -11 47 -39 80 -64 33 -24 84 -69 113 -99 l52 -55 0
-179 c0 -156 2 -183 17 -199 14 -16 15 -23 5 -38 -7 -11 -12 -28 -12 -39 0
-17 -12 -19 -182 -24 -223 -6 -280 -19 -411 -92 -85 -48 -100 -53 -117 -43
-14 9 -25 10 -36 3 -24 -15 -17 -30 13 -28 l26 2 -22 -16 c-21 -14 -32 -13
-152 21 -310 86 -635 245 -899 439 -53 39 -96 65 -98 58 -6 -18 -21 -13 -52
19 -16 16 -36 30 -45 30 -8 0 -23 9 -32 20 -10 11 -26 20 -36 20 -13 0 -6 -11
27 -39 69 -60 173 -137 152 -113 -18 21 -16 52 3 52 12 0 41 -52 41 -75 0 -8
5 -15 11 -15 6 0 20 -11 30 -24 18 -23 78 -57 109 -62 8 -2 26 -5 40 -7 31 -5
67 -23 102 -52 l27 -23 -27 -23 c-26 -23 -26 -23 -8 -1 24 27 16 40 -8 13 -15
-16 -15 -22 -4 -41 19 -32 87 -62 122 -54 20 4 26 3 22 -5 -4 -6 3 -15 16 -21
36 -16 89 -57 137 -106 24 -25 51 -44 60 -42 26 5 26 53 0 77 -12 11 -21 22
-18 24 2 2 51 -13 109 -34 58 -21 99 -39 93 -40 -7 -1 -17 -3 -23 -4 -5 -1
-14 -3 -20 -4 -16 -2 -11 -41 5 -41 8 0 15 -4 15 -8 0 -4 28 -9 63 -9 50 -1
65 2 77 17 12 16 23 18 53 14 34 -6 53 -24 25 -24 -8 0 -14 -17 -15 -47 -2
-30 -10 -56 -23 -73 -11 -14 -32 -48 -45 -77 -13 -28 -33 -60 -45 -71 -23 -21
-105 -151 -114 -179 -6 -19 -25 -169 -32 -243 -2 -25 1 -61 6 -80 15 -52 103
-175 126 -175 22 0 54 -35 54 -59 0 -9 5 -16 12 -16 6 0 37 -20 69 -45 31 -25
69 -49 84 -55 l27 -10 -84 -88 c-46 -48 -95 -107 -110 -132 -87 -150 -91 -346
-11 -504 33 -65 120 -156 181 -188 62 -34 354 -121 417 -125 28 -2 97 -8 155
-14 135 -15 671 -15 820 -1 118 11 184 27 175 42 -3 5 11 12 32 15 45 8 161
33 184 40 9 3 16 -1 16 -10 0 -8 -8 -15 -18 -15 -9 0 -27 -8 -40 -19 -21 -17
-22 -21 -9 -36 11 -14 24 -16 65 -10 64 8 125 26 125 37 0 4 7 8 16 8 8 0 62
47 120 105 l105 105 9 82 c13 110 13 118 -5 118 -9 0 -18 7 -21 15 -4 8 -11
15 -16 15 -15 0 -37 31 -38 52 0 21 -54 66 -88 74 -15 4 -30 8 -33 10 -3 2 18
28 48 59 65 69 108 158 130 265 15 73 15 88 1 159 -21 105 -61 183 -135 260
-34 36 -61 66 -60 67 1 1 27 5 57 9 53 6 56 6 72 -22 27 -47 88 -33 75 17 -4
15 1 22 19 26 20 5 24 12 22 33 -3 23 -8 26 -49 29 -40 3 -48 7 -65 38 l-20
35 32 92 c34 98 51 141 76 197 25 54 48 143 48 181 0 19 -9 54 -20 78 -11 24
-19 45 -18 46 2 0 46 20 98 44 114 51 281 142 408 222 574 360 1202 1136 1467
1809 34 86 97 323 110 410 4 26 13 41 34 53 15 9 51 38 80 65 44 41 51 53 51
86 0 23 -9 51 -24 73 -24 35 -24 35 -5 67 23 38 25 115 4 159 -8 18 -40 63
-70 101 -50 62 -55 73 -55 118 0 32 4 47 10 43 6 -4 10 -14 8 -23 -3 -23 31
-72 49 -72 9 0 13 -6 9 -15 -4 -10 1 -15 14 -15 13 0 18 -5 14 -15 -4 -8 -1
-15 5 -15 6 0 11 -6 11 -13 0 -7 8 -18 18 -25 9 -7 22 -16 27 -20 25 -18 135
-173 129 -183 -3 -6 3 -13 15 -16 12 -3 21 -9 21 -14 0 -5 11 -9 25 -9 14 0
30 -8 36 -17 8 -14 21 -17 62 -15 61 5 87 24 87 65 0 16 8 35 17 42 15 11 14
17 -11 69 -18 36 -33 55 -41 52 -14 -5 -51 30 -69 66 -6 13 -22 28 -34 33 -19
8 -22 16 -18 37 4 21 -3 37 -31 70 -20 24 -44 43 -53 43 -29 0 -72 54 -66 80
5 19 1 24 -24 29 -17 3 -30 10 -30 16 0 6 -10 24 -21 40 -12 16 -19 36 -16 44
4 9 2 16 -3 16 -5 0 -17 14 -26 32 -15 30 -15 32 2 45 16 12 19 12 22 -2 3
-12 10 -15 27 -11 18 5 29 -2 50 -30 21 -27 30 -33 40 -24 8 7 23 9 34 5 27
-8 35 10 17 37 -9 12 -16 19 -16 14 0 -5 -7 -3 -15 4 -8 7 -12 16 -10 21 9 14
-35 32 -49 20 -10 -8 -18 -6 -31 9 -10 11 -28 20 -39 20 -31 0 -95 -47 -100
-73 -10 -45 -1 -91 22 -114 14 -14 21 -30 18 -41 -6 -16 15 -49 126 -199 17
-23 41 -44 54 -47 13 -4 24 -13 24 -21 0 -8 4 -15 10 -15 15 0 49 -41 44 -54
-3 -7 7 -18 21 -24 14 -6 25 -18 25 -26 0 -7 6 -19 13 -25 8 -6 20 -29 27 -52
8 -23 20 -43 27 -46 22 -9 14 -23 -9 -19 -13 3 -26 5 -30 5 -4 1 -15 15 -23
31 -9 17 -20 28 -25 25 -6 -4 -10 1 -10 9 0 10 -6 13 -17 9 -12 -5 -15 -2 -10
9 3 10 -4 25 -20 39 -14 13 -29 34 -34 47 -5 12 -49 76 -99 141 -49 65 -90
123 -90 129 0 7 -4 12 -9 12 -6 0 -18 13 -27 29 -10 17 -28 32 -40 35 -27 7
-33 43 -39 231 -2 66 -6 131 -10 145 -3 14 -10 50 -15 80 -85 529 -245 998
-449 1320 -137 216 -260 364 -417 501 -53 46 -100 86 -105 89 -5 4 -1 38 9 78
16 66 19 72 47 77 106 22 182 96 219 215 14 44 33 94 41 111 12 22 12 29 3 27
-9 -2 -13 10 -13 36 0 28 6 42 22 53 19 13 23 12 41 -8 l21 -21 29 21 c17 11
39 21 50 21 31 0 55 70 56 163 2 77 2 78 36 99 19 11 53 35 75 53 22 18 61 40
88 50 26 10 47 21 47 25 0 4 6 7 13 7 6 0 41 14 77 31 36 16 83 35 105 42 22
7 45 16 51 21 5 5 37 15 70 24 32 9 66 18 74 20 8 3 89 20 180 38 180 36 185
36 196 -22 4 -16 15 -38 25 -47 11 -9 19 -22 19 -27 0 -5 14 -23 30 -39 17
-15 30 -33 30 -39 0 -5 17 -35 38 -66 20 -31 49 -78 64 -103 l27 -47 -19 -39
c-11 -22 -30 -51 -42 -66 -20 -25 -20 -32 -10 -93 6 -37 18 -77 26 -89 15 -24
105 -76 129 -76 10 0 16 -22 21 -77 13 -143 73 -279 162 -366 35 -35 264 -157
293 -157 6 0 11 -4 11 -8 0 -5 17 -16 38 -25 20 -9 62 -30 92 -48 120 -69 220
-116 259 -123 45 -7 94 11 105 39 20 53 -11 218 -65 340 -4 11 -22 55 -39 98
-68 176 -159 329 -230 387 -23 19 -51 43 -62 54 -30 28 -116 70 -183 90 l-60
18 0 43 c0 49 -14 68 -93 127 -99 74 -164 85 -245 45 l-46 -24 -6 24 c-3 13
-10 23 -15 23 -6 0 -10 7 -10 15 0 8 -4 15 -10 15 -5 0 -10 5 -10 11 0 6 -13
31 -30 56 -16 24 -30 48 -30 54 0 5 43 9 98 9 53 0 150 2 215 5 69 2 117 0
117 -6 0 -5 7 -9 15 -9 8 0 15 5 15 10 0 6 14 10 30 10 17 0 30 -4 30 -10 0
-12 33 -14 44 -3 8 8 80 15 149 15 29 -1 37 3 37 17 0 16 -8 18 -52 15 -29 -1
-75 2 -102 7 -29 5 -52 5 -55 0 -4 -5 -39 -5 -81 -1 -41 4 -173 7 -293 7
l-218 0 -21 26 c-12 15 -27 43 -34 62 -12 35 -6 42 30 36 4 -1 44 10 89 24 44
14 92 25 107 25 15 0 33 7 40 15 7 8 25 15 39 15 15 0 47 6 72 14 24 8 57 17
72 20 15 4 25 10 23 15 -3 5 20 14 52 20 32 6 73 21 92 34 19 12 52 31 73 42
35 18 88 60 159 126 38 36 128 175 128 199 0 11 4 20 9 20 7 0 58 141 69 190
4 19 4 284 0 328 -2 18 -9 36 -16 41 -8 5 -13 11 -12 15 2 14 -26 94 -47 131
-13 22 -36 67 -53 100 -16 33 -39 74 -50 90 -11 17 -23 36 -26 43 -3 6 -12 12
-19 12 -7 0 -15 9 -18 21 -3 12 -9 19 -14 16 -4 -3 -19 9 -33 25 -14 17 -40
45 -57 63 -18 18 -33 36 -33 40 0 4 -9 17 -20 29 -45 48 -80 91 -80 99 0 4 -7
7 -15 7 -8 0 -15 7 -15 15 0 8 -6 15 -13 15 -7 0 -23 11 -35 25 -13 14 -27 23
-32 20 -6 -3 -10 -2 -10 4 0 15 -60 81 -74 81 -6 0 -17 9 -24 20 -7 11 -19 20
-27 20 -8 0 -15 4 -15 8 0 4 -25 25 -55 47 -30 22 -55 43 -55 47 0 4 -21 19
-47 32 -27 13 -66 38 -87 55 -22 18 -55 39 -73 48 -18 8 -33 19 -33 24 0 5 -7
9 -17 9 -9 0 -30 11 -47 24 -17 13 -41 26 -53 30 -13 4 -23 12 -23 17 0 5 -6
9 -12 7 -7 -1 -38 9 -68 23 -30 14 -75 34 -100 43 -25 10 -58 24 -75 31 -16 8
-41 16 -55 20 -14 3 -41 13 -61 21 l-35 15 2 87 c3 123 2 122 19 122 24 0 165
72 159 81 -3 5 1 6 9 3 8 -3 21 2 30 10 9 9 19 16 24 16 4 0 26 14 47 30 22
17 47 30 55 30 9 0 22 9 29 21 7 11 21 19 30 18 31 -3 42 1 42 15 0 16 27 30
52 27 9 -1 22 8 28 19 7 13 17 19 26 16 8 -3 13 -2 10 3 -6 9 80 81 96 81 4 0
8 7 8 15 0 8 -7 15 -15 15 -8 0 -15 -4 -15 -8 0 -5 -19 -16 -42 -26 -89 -37
-108 -47 -108 -56 0 -5 -21 -20 -46 -32 -76 -37 -84 -42 -84 -50 0 -4 -7 -5
-15 -2 -8 4 -15 1 -15 -5 0 -6 -3 -10 -7 -9 -10 3 -109 -49 -148 -76 -16 -12
-43 -27 -60 -33 -16 -6 -47 -18 -68 -27 l-39 -17 8 23 c5 13 8 48 8 78 -1 30
-2 71 -2 90 0 143 -1 195 -5 268 -3 45 -2 84 2 86 4 3 6 47 5 98 -1 51 2 100
7 109 4 9 5 19 2 23 -4 4 -8 14 -9 23 -2 9 -5 27 -9 40 -3 13 -2 23 2 23 10 0
9 122 -1 138 -4 7 -4 18 0 24 12 18 13 141 2 155 -5 7 -5 14 1 17 11 7 15 115
12 301 -1 44 0 95 2 113 2 17 0 32 -5 32 -4 0 -8 17 -8 39 0 37 2 40 58 67 84
41 184 144 211 217 30 83 43 180 39 306 l-3 111 55 16 c151 44 196 220 80 317
-47 40 -149 64 -136 32 8 -23 -22 -18 -36 5 -15 23 -30 27 -22 5 4 -8 1 -15
-5 -15 -6 0 -11 5 -11 10 0 6 -7 10 -15 10 -8 0 -15 -8 -15 -17 0 -13 -3 -14
-12 -5 -16 16 -88 16 -88 0 0 -9 -4 -8 -10 2 -6 10 -10 11 -10 3 0 -7 -9 -13
-19 -13 -11 0 -23 -4 -26 -10 -8 -12 -42 -13 -47 -1 -1 4 -29 6 -61 3 -42 -3
-57 -8 -53 -17 8 -22 -6 -26 -26 -8 -17 15 -19 15 -32 -2 -8 -11 -15 -14 -19
-8 -8 12 -85 8 -132 -7 -72 -23 -253 -8 -191 16 10 4 13 10 8 13 -16 10 6 54
23 47 9 -3 15 0 15 8 0 19 23 26 86 26 39 0 56 -4 60 -15 5 -11 24 -15 81 -15
67 0 75 2 80 21 3 11 11 18 18 15 7 -2 31 0 54 6 30 8 45 8 53 0 11 -11 61 1
87 22 10 8 19 4 35 -17 21 -26 26 -27 113 -27 80 0 91 2 96 19 3 12 17 21 38
24 19 3 58 10 88 16 36 7 59 7 67 1 12 -11 37 10 32 26 -1 5 3 18 8 29 6 11
12 47 12 79 2 96 -37 148 -118 158 -17 2 -26 10 -28 24 -2 17 6 25 49 40 29
10 55 26 59 34 4 8 12 25 18 37 16 31 15 63 -3 69 -20 8 -9 24 17 24 21 0 21
0 -2 25 -19 20 -22 32 -17 65 4 33 1 43 -16 55 -12 8 -29 15 -38 15 -16 0 -16
4 3 48 17 41 18 53 9 89 -13 48 -65 95 -133 119 -53 18 -327 26 -533 14z
m-296 -156 c7 -40 32 -55 80 -50 l46 5 -43 -11 c-31 -8 -53 -8 -77 0 -34 10
-35 10 -35 -20 0 -16 5 -38 10 -49 14 -25 3 -44 -15 -29 -15 12 -41 4 -49 -16
-3 -8 -12 -14 -21 -14 -17 0 -20 16 -4 26 8 5 8 9 -1 14 -7 5 -23 -1 -37 -14
-14 -11 -29 -22 -34 -22 -5 -1 -12 -2 -15 -3 -4 0 -1 -8 6 -16 6 -8 9 -19 5
-25 -9 -15 -25 -2 -25 21 0 11 -7 33 -15 49 -9 17 -11 31 -6 35 5 3 7 20 4 38
-5 36 9 55 46 62 12 2 25 7 31 10 5 3 23 -1 40 -10 33 -17 60 -8 60 20 0 30
43 28 49 -1z m729 -90 c41 -6 60 -24 24 -24 -30 0 -44 -21 -24 -36 15 -12 14
-13 -12 -14 -16 0 -35 -8 -42 -17 -12 -16 -13 -16 -14 9 0 31 -15 45 -24 23
-6 -17 -42 -20 -51 -5 -3 6 1 13 9 16 9 3 16 12 16 20 0 17 -16 19 -26 3 -3
-6 -14 -9 -25 -6 -10 3 -25 -3 -35 -14 -25 -28 -43 -24 -41 9 1 18 -3 27 -13
27 -10 0 -15 -9 -15 -27 1 -24 -3 -27 -51 -33 -42 -5 -59 -2 -93 15 -67 36
-55 49 52 52 191 7 323 7 365 2z m-481 -339 c15 -1 29 -8 31 -14 4 -12 52 -15
52 -3 0 4 -5 13 -12 20 -7 7 -9 12 -5 12 11 0 60 -32 69 -44 4 -6 10 -7 14 -4
3 4 -4 21 -16 37 -21 31 -21 31 -1 31 12 0 21 -6 21 -14 0 -16 21 -26 55 -26
16 0 26 -9 35 -30 7 -16 19 -30 26 -30 16 0 19 26 4 35 -21 13 -8 20 37 22 53
2 87 -12 79 -32 -4 -10 3 -11 32 -3 20 5 50 8 68 5 17 -3 43 0 56 8 17 8 31 9
42 3 13 -7 17 -6 14 5 -2 9 1 17 6 19 5 2 10 -9 12 -25 3 -31 -18 -47 -61 -47
-15 0 -45 -10 -66 -22 -30 -16 -42 -19 -51 -10 -8 8 -14 7 -24 -5 -11 -15 -14
-14 -30 13 -17 27 -21 29 -42 18 -12 -6 -29 -20 -36 -30 -12 -16 -19 -17 -48
-7 -49 16 -108 16 -108 -2 0 -7 5 -17 11 -21 7 -4 1 -17 -16 -34 -34 -36 -29
-53 17 -54 20 -1 34 2 31 7 -9 14 30 20 41 6 6 -8 23 -13 39 -11 21 3 27 9 27
28 0 24 14 32 25 14 4 -6 48 -8 120 -4 81 5 118 4 128 -5 11 -9 21 -8 43 4 34
17 54 19 54 5 0 -5 -5 -10 -11 -10 -6 0 -9 -7 -5 -15 7 -21 -24 -35 -77 -35
-57 0 -151 -18 -155 -29 -4 -12 -42 -1 -42 13 0 6 -5 3 -11 -6 -5 -10 -16 -15
-24 -12 -10 4 -15 0 -15 -11 0 -14 -3 -15 -15 -5 -8 6 -19 9 -25 5 -6 -4 -17
-2 -24 5 -8 6 -26 8 -40 4 -35 -8 -138 -8 -215 1 -53 7 -65 6 -72 -8 -10 -17
-38 -13 -51 7 -13 19 -9 28 9 22 10 -4 26 3 44 20 26 25 30 25 58 13 17 -8 31
-17 31 -21 0 -5 5 -8 10 -8 6 0 10 6 10 13 0 8 11 19 25 25 16 8 23 17 19 27
-5 11 -10 13 -19 5 -9 -7 -16 -6 -25 5 -14 17 -40 20 -40 5 0 -5 -11 -9 -25
-8 -14 1 -25 8 -25 15 0 14 -31 33 -54 33 -11 0 -16 -9 -16 -27 -1 -25 -2 -26
-14 -10 -18 24 -29 21 -24 -6 4 -20 1 -23 -29 -23 -23 0 -35 5 -39 18 -3 10
-15 18 -27 18 -16 0 -18 -3 -9 -12 15 -15 16 -48 2 -48 -6 0 -13 7 -16 15 -5
11 -10 12 -24 2 -15 -9 -23 -8 -38 6 -10 9 -24 17 -31 17 -6 0 -14 13 -17 29
-5 26 -11 30 -43 33 -32 3 -36 6 -36 31 -1 36 15 49 70 57 45 7 65 -6 43 -28
-6 -6 -7 -16 -3 -22 5 -8 11 -8 17 -2 6 6 17 8 24 5 12 -4 12 0 4 22 -12 33
-7 56 20 80 19 17 20 17 30 -10 6 -16 18 -34 28 -41 14 -11 19 -10 30 4 12 16
14 16 23 0 6 -10 16 -18 24 -18 19 0 45 39 45 67 l0 22 35 -20 c19 -11 47 -22
62 -24z m-2541 -2940 c82 -19 230 -102 307 -174 69 -64 140 -177 188 -301 30
-75 2 -305 -48 -404 -14 -28 -27 -65 -28 -83 -2 -18 -21 -57 -44 -89 -23 -32
-41 -63 -41 -70 0 -20 -118 -121 -185 -159 -149 -83 -285 -108 -444 -80 -90
15 -211 59 -211 76 0 5 -6 9 -13 9 -14 0 -21 5 -100 70 -105 85 -204 241 -223
350 -3 14 -10 43 -16 65 -18 68 -13 201 13 295 22 83 78 203 115 250 55 68
159 158 216 187 87 44 133 57 268 76 43 7 182 -4 246 -18z m-6041 -515 c75
-13 99 -23 168 -70 44 -30 97 -89 97 -109 0 -6 4 -11 8 -11 5 0 35 -38 67 -85
62 -91 60 -81 51 -221 -4 -64 -36 -141 -61 -151 -8 -3 -13 -9 -10 -13 7 -12
-46 -60 -65 -60 -9 0 -20 -4 -25 -9 -6 -6 -29 -11 -52 -12 -33 -2 -43 -7 -43
-20 0 -14 -72 -49 -128 -61 -7 -2 -22 21 -36 52 -12 30 -40 90 -61 132 l-38
77 26 30 c13 16 27 28 30 25 2 -2 24 -8 47 -12 l44 -7 23 -85 c12 -47 28 -97
34 -112 14 -33 49 -39 49 -8 0 22 -33 149 -50 194 -8 22 -6 32 13 57 17 24 23
47 26 110 4 89 -5 109 -50 109 -68 0 -94 -86 -62 -203 4 -15 0 -17 -24 -11
-15 4 -30 8 -32 10 -2 2 -5 29 -7 61 -6 100 -42 154 -93 138 -48 -15 -46 -91
4 -167 27 -40 27 -78 0 -78 -7 0 -37 31 -66 70 -43 56 -61 71 -88 76 -30 6
-38 3 -63 -26 -26 -28 -29 -37 -23 -73 11 -61 44 -115 76 -121 8 -2 22 -7 32
-11 10 -4 40 -5 66 -2 51 6 51 7 89 -83 6 -14 25 -56 42 -93 42 -90 35 -98
-69 -91 -126 8 -231 52 -280 117 -7 10 -25 31 -40 46 -14 15 -41 51 -60 80
l-34 53 12 76 c7 42 15 109 20 147 8 77 18 106 38 118 7 4 31 35 53 67 37 54
107 117 169 149 57 31 146 34 276 11z m8095 0 c0 -12 67 -9 85 4 24 17 85 8
86 -13 0 -9 3 -11 5 -4 4 8 16 10 35 6 19 -3 29 -1 29 6 0 9 5 9 21 0 13 -7
40 -9 65 -5 25 3 44 2 44 -4 0 -14 93 -25 98 -11 2 6 8 11 13 11 6 0 6 -8 -1
-19 -16 -30 -13 -34 23 -28 34 5 67 -7 80 -30 5 -7 12 -11 18 -8 5 4 9 2 9 -3
0 -15 73 -23 83 -9 6 9 7 8 4 -3 -5 -21 17 -40 46 -40 14 0 28 -6 30 -12 3 -7
6 -3 6 10 1 30 11 28 40 -8 13 -17 29 -30 35 -29 32 4 46 -3 46 -21 0 -18 3
-19 20 -10 11 6 26 8 32 4 7 -4 8 -3 4 4 -4 7 -3 12 2 12 6 0 13 -11 16 -25 5
-19 17 -28 51 -37 24 -7 41 -16 38 -21 -4 -6 5 -7 21 -3 19 5 28 2 32 -9 4
-10 13 -13 27 -9 17 5 19 3 14 -15 -4 -15 -1 -21 12 -21 9 0 22 -5 29 -12 7
-7 12 -9 12 -4 0 4 7 0 16 -9 9 -9 23 -14 30 -11 8 3 14 2 14 -3 0 -12 36 -51
47 -51 14 0 44 -35 36 -43 -3 -4 -2 -7 3 -7 6 0 15 5 21 11 13 13 36 3 28 -12
-4 -5 1 -9 9 -9 9 0 16 7 16 15 0 20 17 19 38 -2 16 -16 16 -16 -6 -11 -12 3
-20 2 -16 -3 3 -5 13 -9 22 -10 11 0 12 -3 5 -6 -21 -8 -15 -32 7 -28 12 2 20
-2 20 -9 0 -12 34 -30 53 -27 4 1 7 -4 7 -9 0 -6 9 -19 20 -30 11 -11 20 -17
20 -14 0 4 7 1 15 -6 11 -9 18 -10 29 -1 11 9 14 8 12 -6 0 -12 5 -17 17 -17
13 1 19 -8 23 -37 4 -21 10 -40 15 -40 5 -1 15 -2 22 -3 6 -1 11 -8 9 -15 -2
-9 4 -12 18 -8 20 5 29 -1 74 -53 20 -23 26 -48 13 -54 -7 -2 -5 -5 4 -5 9 -1
25 -13 35 -28 26 -41 56 -65 75 -60 9 2 16 -1 16 -7 -1 -44 4 -56 24 -56 11 0
17 -4 14 -10 -3 -5 -1 -10 4 -10 6 0 11 -8 12 -17 0 -14 2 -13 9 5 13 32 21
27 14 -8 -5 -24 -3 -30 10 -30 9 0 30 -13 47 -30 25 -24 31 -37 31 -69 -1 -32
3 -41 20 -47 15 -4 19 -12 15 -31 -3 -19 -1 -23 12 -18 27 11 33 10 38 -2 3
-7 -2 -13 -11 -13 -24 0 -19 -29 7 -40 12 -5 17 -9 12 -9 -6 -1 -11 -12 -11
-25 0 -14 4 -22 8 -20 4 3 8 -4 8 -15 0 -15 6 -21 22 -21 21 0 21 -1 3 -13
-10 -8 -15 -19 -11 -25 3 -6 -1 -18 -10 -26 -9 -9 -11 -16 -4 -16 6 0 8 -4 5
-10 -3 -5 2 -26 11 -46 14 -29 15 -42 7 -65 -7 -19 -8 -31 -2 -35 6 -3 2 -12
-8 -19 -17 -13 -17 -14 -1 -20 10 -4 16 -11 13 -15 -3 -4 2 -11 10 -14 14 -5
14 -9 0 -36 -8 -16 -25 -39 -37 -50 -18 -16 -20 -23 -9 -29 10 -7 9 -11 -6
-22 -10 -8 -20 -27 -21 -44 -1 -16 -9 -33 -17 -37 -8 -5 -12 -15 -8 -24 3 -8
-1 -20 -9 -27 -8 -7 -20 -31 -27 -55 -9 -31 -16 -42 -27 -38 -13 5 -19 -5 -15
-26 0 -5 -6 -8 -14 -8 -21 0 -68 -47 -60 -60 3 -6 -1 -7 -9 -4 -9 3 -16 2 -16
-4 0 -5 -16 -19 -35 -31 -32 -19 -35 -19 -45 -3 -9 15 -10 15 -8 -3 2 -12 -2
-19 -9 -17 -7 1 -13 -2 -13 -6 0 -5 -26 -17 -57 -28 -32 -10 -64 -27 -72 -37
-9 -13 -22 -18 -40 -15 -17 2 -34 -3 -46 -15 -13 -11 -28 -16 -42 -12 -13 3
-23 1 -23 -5 0 -6 -4 -9 -9 -5 -5 3 -17 -2 -26 -12 -14 -14 -18 -14 -26 -2 -6
10 -9 8 -9 -11 0 -20 -2 -22 -10 -10 -8 12 -10 12 -10 1 0 -11 -3 -11 -16 0
-9 7 -18 9 -22 3 -11 -15 -35 -16 -43 -2 -6 10 -11 8 -23 -7 -11 -16 -17 -17
-29 -7 -11 10 -17 9 -27 -3 -7 -8 -25 -15 -41 -15 -16 0 -29 -5 -29 -10 0 -12
-22 -9 -32 5 -5 6 -8 3 -8 -7 0 -10 -6 -16 -12 -14 -54 17 -67 16 -70 -6 -3
-21 -4 -21 -21 -4 -17 18 -19 18 -31 1 -7 -10 -18 -15 -24 -11 -7 4 -14 -4
-18 -20 -7 -26 -8 -26 -20 -9 -10 14 -14 15 -14 4 0 -8 -3 -10 -8 -4 -10 14
-45 12 -55 -2 -11 -18 -27 -16 -27 2 0 8 -4 15 -10 15 -5 0 -10 -6 -10 -14 0
-8 -5 -18 -12 -22 -6 -4 -8 -3 -4 4 3 6 2 13 -4 17 -5 3 -10 1 -10 -4 0 -6 -9
-11 -20 -11 -11 0 -20 -4 -20 -10 0 -5 -20 -8 -45 -7 -31 2 -45 -1 -45 -10 0
-7 -7 -13 -15 -13 -8 0 -23 -9 -32 -20 -11 -13 -19 -16 -24 -9 -9 15 -99 -18
-117 -43 -8 -10 -26 -18 -43 -18 -17 0 -37 -7 -45 -15 -21 -20 -35 -19 -27 3
4 10 -5 5 -20 -12 -15 -16 -27 -33 -27 -37 0 -5 -8 -9 -18 -9 -10 0 -22 -3
-26 -7 -4 -5 -11 -8 -14 -8 -27 -2 -62 -23 -92 -54 -19 -20 -41 -37 -48 -39
-7 -1 -26 26 -43 61 -17 37 -51 85 -80 113 l-50 49 -22 -27 c-12 -15 -30 -38
-40 -52 -10 -15 -22 -24 -28 -21 -15 10 -10 25 7 25 9 0 14 6 11 13 -2 6 4 31
14 54 l18 41 -37 25 c-20 13 -71 43 -112 65 -95 53 -129 79 -114 89 22 15 204
334 204 358 0 5 8 17 17 28 17 18 17 19 -2 33 -10 8 -21 14 -25 14 -3 0 -32
-48 -64 -107 -33 -60 -84 -147 -113 -194 -29 -47 -53 -91 -53 -97 0 -16 -15
-15 -53 5 -40 20 -123 43 -159 43 -22 0 -26 4 -21 18 4 9 17 25 30 35 13 11
30 45 43 90 12 40 26 86 31 104 6 19 6 54 1 90 -5 32 -8 85 -6 118 3 44 -1 64
-12 77 -9 9 -14 24 -11 32 4 9 2 18 -3 21 -5 3 -9 26 -8 51 2 27 -3 48 -10 53
-7 4 -15 41 -18 92 -3 46 -11 90 -16 97 -6 7 -12 39 -14 70 -4 96 -8 117 -24
129 -8 6 -15 31 -17 60 -1 26 -3 50 -4 53 -1 3 -3 10 -4 15 0 6 -5 20 -9 33
-5 14 -3 29 4 37 10 12 9 15 -3 15 -12 0 -14 8 -11 35 2 20 0 45 -6 55 -7 14
-7 20 0 20 5 0 10 9 10 21 0 11 -4 18 -9 15 -4 -3 -7 8 -5 24 2 17 -1 30 -6
30 -5 0 -6 8 -3 17 5 13 2 15 -12 10 -14 -6 -16 -5 -6 6 6 8 8 27 5 46 -4 20
-3 31 5 31 21 0 11 18 -13 24 -22 5 -24 9 -16 34 11 32 9 64 -5 75 -6 6 -6 10
3 14 14 5 17 33 3 33 -15 0 -24 72 -11 80 12 7 31 137 23 152 -2 4 7 8 19 10
16 2 22 9 20 22 -2 10 1 15 7 12 6 -4 13 4 17 18 4 18 10 23 22 18 15 -5 15
-4 3 11 -12 15 -11 17 8 17 11 0 21 4 21 10 0 5 11 12 25 16 14 3 25 10 25 16
0 5 5 6 10 3 6 -3 10 1 10 9 0 9 6 16 14 16 7 0 19 6 26 14 6 8 18 12 26 9 8
-3 14 0 14 6 0 6 7 11 15 11 8 0 15 7 15 15 0 10 10 15 31 15 39 0 72 17 63
33 -5 9 -3 8 7 0 18 -18 29 -16 30 5 0 15 1 15 11 1 9 -13 18 -14 54 -6 24 6
44 14 44 18 0 5 6 6 13 3 7 -2 21 2 32 10 19 14 45 11 45 -4z m-2545 -3110
c277 -12 480 -30 720 -66 142 -21 445 -80 451 -87 1 -1 4 -21 7 -44 3 -27 1
-44 -7 -47 -6 -2 -3 -5 8 -5 12 -1 16 -6 12 -16 -3 -8 -1 -15 5 -15 12 0 28
-41 22 -57 -3 -7 -10 -13 -16 -13 -8 0 -7 4 1 12 17 17 -4 48 -34 48 -22 0
-24 -3 -18 -22 3 -13 13 -27 22 -32 11 -6 11 -10 2 -16 -14 -9 39 -122 74
-156 11 -12 39 -43 61 -70 22 -26 68 -77 102 -113 60 -62 62 -66 45 -84 -9
-11 -62 -66 -117 -123 -90 -93 -150 -158 -286 -308 -149 -166 -262 -277 -296
-291 -18 -8 -33 -19 -33 -24 0 -6 -7 -11 -15 -11 -17 0 -57 -39 -81 -80 -21
-34 -39 -40 -31 -10 3 11 1 20 -5 20 -5 0 -6 5 -3 11 10 15 -15 69 -32 69 -8
0 -12 4 -8 9 3 5 -1 16 -9 24 -8 8 -19 33 -26 55 -6 23 -15 42 -20 42 -6 0
-10 6 -10 14 0 8 -6 16 -14 19 -7 3 -26 32 -41 64 -15 32 -31 65 -36 73 -5 8
-18 35 -31 59 -12 23 -30 48 -38 55 -9 6 -22 26 -29 43 -7 18 -23 43 -35 56
-11 13 -22 31 -24 39 -1 9 -15 30 -31 47 -30 32 -61 90 -61 113 0 8 -9 23 -20
33 -11 10 -20 26 -20 36 0 10 -9 20 -19 24 -12 3 -17 12 -14 23 2 9 -4 26 -14
37 -10 11 -19 29 -21 39 -4 21 -25 46 -40 46 -5 0 -13 17 -17 37 -9 47 -28 85
-60 117 -14 14 -25 30 -25 35 0 22 -43 90 -60 96 -10 3 -27 30 -40 65 -12 33
-26 60 -30 60 -4 0 -10 13 -13 30 -4 16 -16 39 -27 50 -12 12 -22 30 -23 40
-1 11 -7 22 -14 24 -7 3 -13 12 -13 21 0 18 4 18 325 5z m4490 -76 c93 -20
215 -103 288 -195 75 -95 207 -382 248 -539 36 -140 31 -180 -19 -180 -27 0
-234 99 -290 138 -15 11 -38 23 -52 27 -14 4 -29 11 -35 15 -5 4 -68 38 -140
74 -148 76 -191 115 -253 229 -31 56 -42 91 -51 158 -12 93 -7 145 16 153 9 4
19 -6 30 -32 8 -20 16 -38 18 -40 3 -3 42 15 53 23 1 1 -9 22 -22 46 l-25 43
64 38 c35 21 67 43 70 48 5 8 43 6 100 -6z m-2916 -603 c69 -40 145 -86 169
-103 139 -96 290 -86 412 28 l49 46 52 -49 c29 -26 71 -68 93 -91 33 -36 41
-41 46 -26 5 14 11 12 39 -17 17 -19 48 -61 67 -94 20 -33 55 -85 78 -115 61
-78 146 -210 205 -319 48 -89 60 -121 31 -86 -9 11 -17 12 -31 4 -20 -10 -26
-44 -9 -54 6 -3 10 -14 10 -23 0 -9 18 -53 40 -97 22 -44 40 -88 40 -97 0 -23
21 -68 32 -68 4 0 8 -9 8 -20 0 -11 13 -44 29 -73 16 -28 39 -84 50 -122 11
-39 27 -79 35 -90 9 -11 16 -30 16 -41 0 -12 7 -35 15 -50 8 -16 20 -54 26
-84 6 -30 15 -64 19 -75 30 -79 58 -234 75 -430 8 -92 22 -133 46 -140 17 -6
18 -13 13 -63 -3 -31 -11 -75 -16 -97 -6 -22 -11 -70 -12 -107 -2 -37 -8 -73
-14 -81 -9 -10 -8 -18 3 -34 13 -18 12 -25 -5 -61 -15 -30 -18 -47 -11 -65 11
-29 -1 -52 -23 -44 -18 7 -22 42 -6 52 6 4 8 16 5 26 -4 11 -1 26 5 34 10 12
9 15 -4 15 -59 0 -259 -122 -335 -205 -64 -69 -85 -119 -85 -200 0 -38 3 -83
7 -100 7 -29 3 -33 -75 -91 -46 -33 -123 -85 -173 -114 -49 -29 -91 -57 -93
-62 -2 -4 -8 -8 -13 -8 -5 0 -42 -22 -82 -49 -40 -27 -102 -63 -140 -81 -37
-17 -91 -47 -119 -66 l-51 -35 -26 24 c-14 13 -36 24 -49 25 -22 1 -22 -6 1
-36 13 -16 17 -52 6 -52 -4 0 -29 -15 -56 -34 -27 -18 -68 -44 -92 -57 -24
-13 -51 -29 -60 -34 -9 -6 -61 -37 -116 -69 -55 -32 -125 -76 -155 -97 -30
-20 -66 -40 -79 -44 -34 -10 -57 -25 -434 -276 -48 -32 -115 -70 -150 -85 -69
-29 -165 -83 -277 -156 -59 -39 -75 -46 -80 -34 -3 8 -2 66 2 128 3 62 9 165
13 228 3 63 11 147 18 185 6 39 12 113 13 165 1 52 2 97 4 100 11 27 19 173
20 343 1 71 5 139 10 153 6 14 14 60 20 102 5 42 16 110 25 151 9 40 14 79 11
87 -3 8 0 14 5 14 7 0 9 11 6 26 -2 14 0 41 6 60 9 28 16 35 46 40 115 18 261
64 288 90 7 7 29 22 49 35 147 90 288 347 269 490 -3 28 1 46 21 75 16 23 22
40 15 42 -8 3 -8 9 0 23 9 18 8 19 -10 7 -12 -7 -21 -16 -21 -21 0 -4 -10 -12
-22 -16 -18 -7 -29 -4 -48 14 -14 12 -35 27 -46 34 -31 15 -134 24 -158 13
-12 -5 -34 -16 -51 -23 -16 -8 -41 -27 -55 -43 -14 -16 -34 -38 -45 -50 -54
-58 -148 -231 -188 -347 -9 -24 -24 -62 -35 -84 -11 -22 -22 -57 -26 -77 -4
-21 -12 -38 -19 -39 -59 -5 -192 8 -216 22 -9 5 -28 13 -44 19 -36 13 -43 34
-28 84 16 56 22 85 25 123 1 18 5 36 9 39 4 4 7 21 7 38 0 17 7 51 16 76 9 25
13 58 10 73 -5 23 -3 28 9 23 11 -4 15 2 15 25 0 16 7 46 16 67 8 20 20 60 25
87 6 28 11 55 13 60 1 6 5 15 9 22 4 7 8 34 9 60 0 26 4 53 9 59 5 6 11 28 15
50 3 21 10 41 15 44 5 3 7 21 4 39 -2 19 2 46 9 60 8 14 16 45 20 69 3 23 9
61 12 85 3 23 10 47 14 52 4 6 10 35 14 65 8 64 50 200 102 329 38 95 91 160
151 187 47 20 317 299 486 502 20 23 87 92 149 153 92 89 115 107 123 95 14
-19 124 -47 153 -39 19 4 23 11 20 37 -3 28 -7 31 -48 39 -85 15 -90 17 -90
36 0 12 -11 23 -27 29 -24 8 -163 136 -163 149 0 3 15 -6 33 -19 17 -14 88
-58 156 -97z m-6108 -976 c35 -8 80 -24 99 -34 19 -10 53 -24 75 -31 22 -7 54
-24 72 -37 18 -14 37 -22 43 -18 5 3 10 -1 10 -9 0 -9 3 -16 8 -16 11 0 60
-41 100 -82 20 -22 46 -38 58 -38 17 0 21 -5 17 -19 -6 -22 44 -91 65 -91 6 0
12 -11 12 -25 0 -14 7 -28 15 -31 8 -4 13 -10 10 -14 -3 -4 4 -19 15 -33 11
-14 20 -30 20 -35 0 -5 7 -15 15 -22 8 -7 15 -24 15 -39 0 -15 4 -31 9 -37 17
-19 34 -143 37 -277 2 -76 7 -143 11 -150 3 -6 7 -25 7 -42 1 -22 -6 -34 -25
-46 -24 -16 -44 -48 -68 -112 l-11 -28 -167 148 c-190 166 -209 184 -339 307
-92 87 -94 89 -94 135 0 56 -39 169 -77 224 -15 22 -38 55 -50 73 -13 19 -37
37 -58 44 -33 11 -38 10 -56 -12 -25 -27 -21 -66 13 -149 27 -66 84 -158 103
-165 7 -3 24 -22 37 -42 26 -40 23 -57 -18 -103 -45 -50 -155 -99 -224 -99
-32 0 -37 4 -49 37 -46 125 -157 216 -224 182 -76 -39 -86 -88 -32 -148 38
-41 137 -96 195 -107 19 -4 38 -12 42 -18 11 -16 10 -110 -1 -139 -9 -22 -17
-26 -70 -29 -33 -1 -71 0 -83 3 -28 7 -176 -31 -212 -55 -55 -35 -54 -102 2
-144 30 -23 45 -27 102 -27 37 0 79 6 93 13 15 6 38 17 51 23 31 15 75 55 104
97 14 19 32 32 45 32 46 0 312 -61 375 -87 96 -38 295 -139 378 -192 65 -42
70 -48 61 -68 -6 -14 -19 -23 -33 -23 -13 0 -29 -9 -37 -20 -8 -11 -28 -25
-45 -31 -18 -6 -32 -17 -32 -23 0 -7 -12 -19 -27 -26 -16 -8 -64 -38 -108 -67
-92 -60 -173 -92 -265 -105 -126 -17 -162 -15 -199 10 -46 30 -65 25 -69 -17
-3 -29 -6 -32 -25 -27 -43 12 -162 35 -182 36 -45 0 -73 7 -122 29 -29 13 -53
27 -53 32 0 5 -11 14 -24 21 -27 15 -114 88 -161 136 -18 17 -37 32 -44 32 -6
0 -11 8 -11 19 0 10 -11 26 -24 36 -13 10 -22 24 -19 32 3 7 0 13 -6 13 -14 0
-41 59 -34 76 2 6 -3 14 -11 17 -9 4 -16 14 -16 24 0 10 -7 27 -15 37 -8 11
-13 28 -9 38 3 10 1 18 -5 18 -6 0 -8 6 -5 14 3 8 0 34 -7 57 -6 24 -11 70
-11 102 1 31 -3 57 -9 57 -5 0 -7 10 -4 23 2 12 7 48 10 80 3 32 15 85 26 118
17 48 18 63 9 74 -9 10 -9 15 -1 15 6 0 13 11 17 25 3 14 9 25 13 25 3 0 15
28 26 62 11 34 33 79 50 100 65 83 75 97 75 111 0 8 7 17 15 20 8 4 23 24 34
45 11 21 34 50 52 63 17 13 41 35 53 48 48 55 72 78 89 84 9 3 17 11 17 17 0
5 6 10 13 10 6 0 37 17 67 38 65 45 82 52 135 59 22 2 44 9 50 14 5 5 24 9 41
9 18 0 35 4 39 9 9 15 253 5 326 -14z m-128 -450 c43 -54 77 -121 86 -168 4
-26 5 -47 1 -47 -4 0 -21 16 -36 36 -16 19 -34 41 -41 48 -18 21 -71 139 -73
166 -4 49 -3 49 63 -35z m-374 -306 c29 -23 91 -116 91 -136 0 -27 -165 57
-195 100 -13 19 -13 23 7 45 26 26 55 24 97 -9z m552 -79 c25 -24 79 -74 339
-311 69 -62 142 -129 162 -147 l37 -34 -20 -46 c-11 -26 -30 -62 -41 -80 -17
-27 -22 -30 -32 -19 -18 23 -137 100 -207 134 -197 98 -404 169 -560 193 l-77
12 10 35 c5 19 8 60 6 91 l-3 57 64 8 c80 10 170 56 217 111 19 22 34 44 34
49 0 10 26 -9 71 -53z m4568 -207 c8 -16 18 -37 24 -48 12 -22 11 -213 -2
-229 -9 -13 -29 -80 -35 -116 -2 -14 -12 -48 -21 -77 -17 -53 -38 -62 -50 -23
-3 10 -17 29 -31 44 -14 14 -23 29 -20 34 3 5 -4 23 -14 40 -11 17 -22 55 -26
84 -10 89 -13 99 -26 115 -10 12 -9 17 3 27 9 6 19 27 22 46 4 20 16 43 27 53
11 9 20 23 20 32 0 19 47 44 86 45 24 0 33 -6 43 -27z m-5051 -139 c2 -1 -14
-21 -35 -43 -62 -67 -198 -103 -253 -69 -63 40 -16 83 120 112 53 11 155 11
168 0z m6126 -35 c14 -17 27 -36 28 -42 6 -46 3 -74 -8 -96 -8 -14 -14 -34
-14 -43 0 -9 -4 -20 -10 -23 -5 -3 -10 -14 -10 -24 0 -19 -39 -100 -60 -126
-7 -8 -10 -18 -6 -22 3 -3 -4 -11 -17 -17 -12 -7 -28 -24 -35 -39 -7 -15 -19
-27 -26 -27 -7 0 -27 -13 -45 -29 -37 -33 -165 -101 -190 -101 -16 0 7 15 84
53 46 23 48 24 138 113 37 37 67 73 67 78 0 6 11 24 25 40 14 16 25 35 25 43
0 7 4 13 9 13 5 0 14 14 20 30 5 17 8 30 5 30 -3 0 2 10 10 22 11 15 16 45 16
86 0 60 -2 65 -37 98 -22 21 -29 31 -17 25 12 -6 34 -24 48 -42z m-71 -29 c24
0 8 -159 -18 -180 -8 -6 -17 -25 -21 -43 -4 -20 -32 -57 -80 -104 -41 -40 -74
-77 -74 -81 0 -4 -16 -14 -35 -21 -19 -7 -35 -16 -35 -21 0 -13 -61 -41 -99
-45 -19 -2 -37 -8 -40 -13 -3 -5 -21 -7 -39 -5 -22 4 -30 9 -24 17 4 6 14 29
21 51 17 54 44 108 57 117 6 4 21 29 33 55 31 70 38 80 131 196 65 81 141 118
187 90 12 -7 29 -13 36 -13z m-2043 -255 c19 -4 40 -10 45 -14 6 -3 12 -6 15
-7 21 -4 40 -18 40 -30 0 -8 -1 -14 -3 -14 -10 0 -87 41 -92 50 -8 13 -91 2
-135 -17 -43 -20 -60 -36 -60 -60 0 -11 -5 -24 -12 -31 -14 -14 -17 -124 -6
-187 6 -28 5 -34 -2 -20 -81 168 -37 297 115 335 17 4 37 6 45 5 8 -2 31 -7
50 -10z m17 -81 c26 -9 60 -29 74 -43 34 -36 119 -168 119 -185 0 -7 7 -19 15
-26 8 -7 15 -23 15 -35 0 -13 7 -25 15 -29 8 -3 15 -9 14 -13 -1 -4 0 -10 1
-13 1 -3 3 -16 5 -30 4 -37 12 -66 24 -89 32 -58 -10 -56 -169 9 -25 10 -57
21 -71 24 -15 3 -46 21 -68 40 -23 19 -50 38 -61 41 -43 14 -109 188 -96 255
2 14 5 30 5 37 1 6 13 25 27 42 30 37 74 41 151 15z m1058 -199 c76 -56 179
-89 338 -110 40 -5 46 -9 37 -21 -7 -7 -10 -20 -7 -28 3 -8 2 -16 -2 -18 -12
-5 -49 -264 -49 -341 0 -37 -5 -74 -11 -81 -8 -10 -9 -16 -1 -21 6 -3 8 -10 6
-13 -10 -17 -29 -172 -28 -224 1 -32 -1 -58 -5 -58 -5 0 -9 -35 -10 -78 -2
-42 -7 -93 -13 -112 -13 -45 -13 -97 0 -105 7 -4 6 -14 -1 -28 -8 -14 -8 -22
-2 -24 7 -3 8 -16 1 -41 -5 -20 -11 -98 -13 -172 -2 -74 -5 -137 -6 -140 -4
-9 -9 -54 -18 -170 -5 -63 -14 -133 -20 -155 -6 -22 -11 -83 -11 -135 -1 -52
-5 -104 -9 -115 -5 -11 -5 -24 -1 -30 5 -5 10 -21 12 -35 2 -16 10 -26 24 -28
19 -3 20 -8 17 -110 -1 -59 -7 -138 -13 -177 -5 -38 -10 -97 -12 -130 -1 -49
1 -61 15 -63 10 -2 17 3 17 11 0 9 5 17 11 19 13 4 22 88 10 88 -9 0 4 74 19
101 5 9 7 51 5 95 -2 43 -1 82 2 88 10 15 13 76 4 76 -8 0 -6 119 3 128 3 3 6
26 6 52 0 26 3 67 6 92 6 43 8 46 73 79 36 19 70 40 74 47 4 6 14 12 21 12 8
0 19 7 26 15 7 8 21 15 31 15 11 0 19 5 19 10 0 6 9 10 19 10 11 0 26 8 33 18
12 17 38 32 65 38 22 4 103 47 103 55 0 4 11 10 25 13 14 4 25 11 25 16 0 6 6
10 14 10 7 0 19 6 25 14 6 7 39 27 74 44 34 17 72 40 84 51 12 12 26 21 31 21
5 0 17 9 27 20 10 11 24 20 30 20 7 0 15 7 19 15 3 8 11 15 18 15 7 1 28 14
47 30 18 15 40 26 47 23 8 -3 14 0 14 6 0 6 9 11 20 11 11 0 20 4 20 9 0 5 11
12 25 15 14 4 23 11 20 16 -5 9 15 15 38 11 4 0 7 6 7 14 0 8 6 15 13 15 8 0
33 14 55 30 23 17 49 30 57 30 9 0 30 13 48 30 18 16 37 30 43 30 7 0 15 7 18
16 3 9 11 14 18 12 6 -2 22 6 36 19 13 12 28 20 32 18 8 -5 24 7 88 63 14 12
32 20 39 18 7 -3 13 0 13 6 0 6 3 9 6 5 6 -5 15 0 49 31 8 7 18 11 22 10 13
-3 73 36 73 47 0 6 20 17 45 24 25 7 50 22 56 33 6 11 13 17 16 14 7 -7 94 39
121 65 12 11 22 17 22 14 0 -4 13 5 30 18 16 14 50 36 75 48 25 12 45 26 45
31 0 4 7 8 15 8 7 0 18 7 23 15 4 9 18 17 30 18 12 1 22 4 22 7 0 4 20 21 45
39 24 17 51 39 60 47 8 9 15 13 15 10 0 -3 11 6 25 20 25 24 27 25 48 10 47
-35 103 -56 152 -56 103 0 155 30 177 102 13 45 25 42 22 -6 -3 -29 0 -34 13
-29 14 5 15 0 8 -42 -28 -190 -159 -495 -344 -802 -76 -127 -203 -314 -209
-309 -5 6 47 113 72 145 14 19 26 39 26 44 0 5 16 35 35 67 19 32 35 67 35 78
0 11 7 25 15 32 8 7 15 9 15 4 0 -4 9 2 20 14 11 12 20 25 20 31 0 5 3 11 8
13 14 6 75 132 82 169 6 33 5 38 -16 42 -14 2 -32 -5 -49 -20 -24 -23 -25 -26
-10 -37 16 -11 15 -14 -8 -29 -17 -11 -27 -29 -32 -57 -5 -29 -11 -40 -23 -38
-9 2 -28 -15 -45 -41 -24 -35 -27 -45 -16 -52 11 -7 9 -9 -6 -9 -20 -1 -20 -1
-1 -15 15 -11 16 -15 5 -15 -8 0 -20 5 -26 11 -7 7 -22 -11 -52 -65 -22 -41
-41 -80 -41 -85 0 -6 -9 -18 -19 -28 -10 -10 -26 -39 -34 -64 -9 -25 -38 -90
-65 -145 -41 -84 -47 -104 -37 -117 7 -10 17 -17 23 -17 6 0 9 -7 6 -15 -4 -8
-11 -15 -18 -15 -6 0 -17 -14 -24 -30 -8 -17 -34 -47 -59 -68 -25 -20 -130
-118 -232 -217 -220 -213 -298 -277 -486 -400 -175 -114 -295 -182 -455 -256
-111 -51 -127 -56 -141 -43 -25 22 -75 34 -88 21 -18 -18 -13 -48 10 -54 21
-6 21 -6 -2 -19 -34 -19 -42 -18 -85 17 -52 42 -145 86 -213 100 -31 7 -62 19
-70 28 -10 12 -15 13 -18 4 -5 -15 -43 -18 -43 -4 0 5 6 12 13 14 7 3 5 6 -5
6 -9 1 -21 -5 -25 -13 -7 -11 -33 -11 -168 -1 -88 7 -196 18 -240 24 -44 5
-116 13 -160 16 -157 11 -195 17 -195 28 0 8 17 11 51 8 68 -4 63 21 -7 32
l-49 8 0 162 c1 243 -12 575 -24 634 -6 29 -13 87 -17 130 -3 43 -10 101 -16
128 -5 28 -9 65 -9 84 1 18 -4 40 -10 48 -7 8 -12 35 -11 61 1 26 -7 90 -17
142 -11 52 -29 151 -41 220 -12 69 -28 159 -37 200 -8 41 -19 98 -24 125 -22
114 -52 244 -71 303 -11 35 -18 64 -17 66 2 1 24 8 49 16 39 12 120 50 207 98
24 13 109 89 169 150 18 19 54 65 80 103 52 75 50 75 119 24z m-1011 -3347
c39 -17 78 -37 86 -44 8 -7 29 -16 45 -20 17 -3 44 -15 60 -24 36 -22 140 -50
183 -50 17 0 37 -7 46 -15 17 -17 30 -20 21 -5 -4 6 5 10 20 10 14 0 28 -7 31
-15 5 -11 10 -13 19 -5 9 7 29 7 66 -1 66 -14 77 -22 72 -53 -4 -18 -10 -22
-24 -19 -18 5 -18 6 -3 18 25 18 10 32 -42 40 -36 5 -50 3 -65 -11 -14 -13
-28 -15 -61 -10 -24 4 -63 10 -88 13 -25 3 -51 11 -59 17 -8 6 -24 9 -36 8
-12 -2 -75 24 -141 56 -65 33 -143 70 -171 83 -35 16 -53 30 -53 41 0 25 13
23 94 -14z m197 -844 c35 -14 68 -30 74 -35 5 -5 16 -9 25 -9 8 0 33 -9 54
-21 22 -11 77 -26 123 -32 62 -9 83 -15 84 -27 1 -11 2 -11 6 3 4 16 33 24 46
11 3 -3 27 -8 53 -10 73 -6 83 -11 81 -43 -2 -33 -24 -31 -23 1 1 33 -58 43
-95 16 -22 -17 -35 -19 -66 -13 -21 4 -52 7 -69 6 -19 0 -34 5 -37 13 -4 9
-14 12 -27 9 -13 -4 -60 11 -123 39 -56 25 -122 54 -147 64 -55 22 -64 29 -56
43 10 16 26 14 97 -15z"/>
<path d="M10287 12108 c-28 -22 -48 -83 -37 -113 6 -15 8 -31 4 -36 -3 -5 2
-12 10 -15 9 -3 16 -10 16 -16 0 -5 7 -16 16 -25 14 -14 13 -18 -7 -39 -13
-14 -34 -24 -51 -24 -26 0 -28 3 -28 40 0 22 -4 40 -10 40 -5 0 -10 10 -10 23
0 41 -77 61 -117 29 -28 -22 -45 -103 -26 -120 7 -7 13 -11 13 -8 0 3 11 -6
25 -19 13 -14 30 -25 38 -25 9 0 12 -9 9 -29 -4 -27 -6 -29 -28 -20 -14 5 -28
8 -32 7 -4 -1 -18 3 -32 9 -26 10 -66 10 -116 -1 -49 -11 -97 -106 -54 -106 6
0 8 -5 5 -10 -9 -15 14 -40 35 -40 10 0 20 -4 22 -9 2 -6 18 -13 37 -16 19 -3
37 -8 41 -10 10 -6 127 51 132 65 3 9 15 7 43 -8 37 -19 52 -31 105 -90 23
-26 47 -26 63 -1 9 14 -1 28 -49 74 -32 31 -72 63 -87 71 -23 13 -27 21 -26
52 3 48 7 54 28 43 12 -7 27 -5 47 5 16 9 29 14 29 13 0 -10 33 20 38 35 7 17
9 17 32 -8 14 -15 25 -30 25 -34 1 -4 24 -23 51 -42 28 -19 57 -40 64 -47 7
-7 15 -10 18 -7 3 3 16 -1 29 -9 50 -32 150 -41 177 -16 10 10 22 15 27 11 4
-4 4 1 1 11 -4 11 -1 17 9 17 11 0 14 6 10 16 -3 9 -6 18 -6 20 0 12 -34 1
-53 -16 -12 -11 -27 -18 -34 -16 -6 3 -13 0 -15 -5 -5 -14 -115 26 -157 58
-20 15 -55 46 -78 71 -34 34 -42 50 -39 73 1 16 6 32 9 36 11 10 -4 77 -19 86
-8 4 -14 16 -14 26 0 18 -39 61 -56 61 -6 0 -18 -6 -27 -12z"/>
<path d="M13003 9920 c-9 -16 -25 -30 -35 -30 -10 0 -17 -4 -15 -8 3 -14 -45
-72 -59 -72 -8 0 -14 -5 -14 -11 0 -6 -11 -25 -24 -42 -27 -37 -43 -89 -25
-85 23 5 61 48 56 61 -3 9 1 14 12 13 17 -1 81 63 81 82 0 5 13 20 30 33 16
13 30 29 30 35 0 6 7 17 15 24 22 18 18 30 -9 30 -17 0 -31 -10 -43 -30z"/>
<path d="M12754 9658 c-56 -61 -107 -135 -111 -160 -2 -12 -8 -27 -14 -35 -14
-16 -5 -43 15 -43 15 0 76 71 76 89 0 6 3 11 8 11 4 0 25 22 47 50 37 47 56
100 36 100 -6 0 -8 7 -5 15 11 28 -13 15 -52 -27z"/>
<path d="M14474 8596 c-17 -8 -40 -25 -51 -40 -12 -14 -30 -26 -41 -26 -38 0
-72 -19 -92 -52 -50 -82 5 -208 91 -208 30 0 26 46 -6 54 -56 14 -70 117 -21
150 28 18 36 12 36 -24 0 -31 31 -76 59 -85 29 -9 70 12 77 39 7 27 -7 59 -43
97 l-24 26 25 17 c14 9 39 16 55 16 38 0 88 -42 96 -80 4 -20 13 -30 25 -30
49 0 28 87 -32 131 -46 33 -101 38 -154 15z"/>
<path d="M12136 7998 c4 -6 3 -8 -4 -4 -6 3 -28 -1 -50 -9 -21 -9 -54 -17 -73
-18 -48 -3 -59 -13 -59 -53 0 -32 16 -45 33 -28 3 4 24 8 46 9 46 4 141 45
141 62 0 6 6 14 13 17 8 3 6 9 -7 20 -23 19 -51 21 -40 4z"/>
<path d="M11610 6848 c-49 -9 -123 -49 -183 -98 -50 -41 -83 -165 -72 -273 l6
-68 -45 -49 c-52 -55 -71 -112 -61 -179 6 -37 16 -55 55 -93 39 -40 53 -48 84
-48 44 0 89 21 133 62 30 29 35 30 135 33 220 6 363 108 398 283 5 30 8 57 6
61 -3 4 -6 34 -7 67 -3 72 -22 125 -65 182 -85 113 -208 152 -384 120z m233
-61 c62 -29 122 -87 148 -144 12 -25 22 -77 25 -131 7 -85 5 -94 -20 -146 -31
-62 -76 -104 -151 -140 -58 -27 -191 -52 -229 -42 -22 5 -25 10 -20 36 5 25 2
31 -19 41 -25 11 -25 13 -11 40 8 16 23 29 33 29 9 0 23 10 30 23 7 13 26 32
42 41 21 13 29 24 27 39 -5 36 -33 30 -81 -18 -25 -25 -50 -45 -56 -45 -6 0
-18 -11 -27 -25 -9 -14 -19 -23 -22 -21 -3 3 11 23 30 44 19 21 49 59 67 85
17 26 35 47 39 48 4 0 28 1 54 2 l48 3 -6 -38 c-6 -36 -5 -38 19 -38 21 0 26
7 36 45 16 64 2 88 -48 83 l-37 -3 14 27 c16 33 8 64 -20 79 -47 25 -87 -16
-72 -75 4 -19 -1 -32 -23 -53 -15 -16 -44 -49 -63 -73 -19 -23 -44 -51 -55
-62 -19 -18 -20 -18 -27 2 -5 12 -16 20 -31 20 -23 0 -25 5 -31 68 -7 74 5
152 31 191 17 27 64 70 76 71 4 0 25 12 46 26 70 46 197 51 284 11z"/>
<path d="M11440 5183 c-109 -15 -213 -75 -258 -151 -25 -43 -27 -56 -27 -147
0 -92 2 -104 29 -150 37 -64 99 -123 153 -146 56 -24 177 -33 223 -17 34 13
36 12 75 -28 61 -63 156 -84 195 -42 26 29 35 59 35 128 0 45 -6 63 -30 99
-16 24 -42 53 -57 65 -28 20 -28 20 -43 0 -9 -10 -7 -1 5 21 48 95 13 228 -81
299 -45 34 -144 74 -156 63 -3 -4 -13 -3 -22 1 -9 5 -27 7 -41 5z m113 -69
c53 -18 81 -40 130 -106 26 -35 28 -43 22 -100 -4 -34 -13 -74 -20 -89 -12
-22 -12 -28 1 -41 14 -13 12 -18 -10 -45 -14 -17 -39 -36 -55 -43 -17 -7 -31
-21 -33 -33 -4 -29 -69 -50 -139 -44 -58 5 -137 39 -178 78 -44 42 -74 124
-74 205 0 65 4 79 29 115 41 59 87 91 163 110 72 19 88 18 164 -7z"/>
<path d="M11523 4965 c6 -38 5 -40 -24 -25 -15 8 -28 5 -59 -12 -49 -28 -54
-65 -13 -98 19 -15 23 -24 16 -31 -8 -8 -18 -7 -34 5 -53 37 -80 6 -34 -39 45
-46 125 -19 125 41 0 12 7 24 15 28 8 3 15 11 15 18 0 7 12 22 27 34 44 35 31
114 -20 114 -17 0 -19 -5 -14 -35z"/>
<path d="M12213 3356 c-13 -7 -31 -20 -41 -29 -10 -10 -25 -17 -34 -17 -16 0
-67 -35 -125 -86 -32 -27 -34 -33 -24 -52 6 -12 18 -22 27 -22 17 0 58 24 91
53 26 23 57 42 96 58 21 8 27 17 24 30 -3 11 -1 19 4 19 12 0 49 38 49 50 0
14 -40 11 -67 -4z"/>
<path d="M15747 15829 c-3 -10 -1 -19 3 -19 5 0 8 -45 8 -100 1 -55 4 -105 8
-112 8 -13 14 -91 14 -188 0 -55 15 -198 26 -255 3 -16 7 -55 9 -85 1 -30 4
-76 7 -102 3 -35 1 -45 -9 -41 -7 3 -21 2 -30 -2 -10 -4 -44 -10 -77 -12 -84
-5 -237 -63 -356 -134 -37 -22 -109 -89 -110 -102 0 -5 -14 -20 -31 -34 -16
-14 -28 -31 -25 -39 3 -7 -1 -15 -9 -18 -22 -8 -99 -176 -86 -189 15 -15 14
-27 -4 -27 -8 0 -15 -6 -15 -12 -1 -7 -3 -30 -6 -50 -4 -27 -2 -38 7 -38 8 0
6 -7 -5 -19 -15 -17 -17 -30 -11 -80 4 -33 8 -86 10 -118 4 -93 15 -152 42
-245 21 -69 30 -88 45 -88 10 0 18 -4 18 -10 0 -5 -10 -10 -23 -10 -88 0 -208
-93 -298 -229 -67 -103 -91 -182 -87 -289 l3 -84 -40 -22 c-55 -30 -186 -115
-208 -135 -10 -9 -28 -26 -41 -38 -12 -12 -35 -25 -50 -29 -15 -3 -30 -13 -33
-20 -3 -8 -9 -11 -14 -8 -5 3 -9 0 -9 -6 0 -6 -8 -14 -17 -17 -9 -4 -25 -15
-35 -25 -10 -10 -25 -18 -33 -18 -29 0 -125 -78 -125 -101 0 -6 -5 -7 -11 -3
-6 3 -15 1 -19 -5 -4 -7 -13 -13 -21 -15 -27 -4 -77 -35 -83 -52 -4 -9 -9 -14
-13 -11 -8 9 -63 -25 -63 -39 0 -7 -6 -15 -12 -17 -8 -3 -5 -6 5 -6 10 -1 26
6 34 15 10 9 27 14 43 12 23 -4 26 -1 22 21 -4 21 -2 23 17 18 11 -3 21 -1 21
4 0 5 7 9 15 9 8 0 15 7 15 16 0 8 5 12 11 9 5 -4 19 1 30 11 11 10 33 19 48
20 26 2 81 30 81 41 0 2 -5 1 -12 -3 -7 -4 -8 -3 -4 4 4 6 13 9 21 5 11 -4 17
4 21 26 4 17 11 31 17 31 6 0 19 8 29 17 15 13 23 15 37 6 12 -8 21 -7 34 2 9
6 14 15 10 18 -3 4 3 7 15 7 12 0 26 10 33 21 7 13 7 19 1 15 -6 -3 -13 -2
-17 4 -3 5 1 10 9 10 9 0 16 5 16 10 0 6 9 10 20 10 11 0 20 5 20 12 0 9 3 9
11 1 9 -9 21 -7 50 7 20 11 39 25 41 31 2 7 14 14 26 16 28 4 99 50 106 69 9
22 54 16 91 -12 50 -38 144 -64 230 -64 63 0 81 5 145 36 106 54 288 234 320
319 18 49 -4 91 -69 132 -31 20 -58 37 -59 39 -13 10 71 65 113 75 28 6 55 15
60 18 20 14 92 35 170 51 69 14 80 19 83 38 5 33 -16 35 -104 12 -43 -12 -86
-23 -94 -25 -8 -2 -35 -13 -60 -24 -25 -11 -55 -21 -67 -21 -31 0 -72 -20
-107 -52 -17 -16 -35 -28 -41 -28 -10 1 -50 49 -43 53 1 2 23 20 48 42 25 22
65 56 90 75 82 65 171 155 242 243 38 48 74 87 78 87 32 0 40 -14 40 -69 0
-47 4 -61 23 -79 26 -24 67 -41 85 -35 14 5 17 33 3 33 -4 0 -20 12 -35 26
-31 32 -37 91 -8 91 64 -1 83 4 97 26 32 49 -15 128 -67 111 -11 -3 -35 -21
-53 -39 -22 -24 -36 -31 -46 -24 -10 6 -10 9 -1 9 6 0 12 5 12 12 0 7 15 28
34 48 18 19 46 57 61 85 23 43 26 58 22 103 -6 59 -23 84 -69 103 -24 10 -40
10 -75 1 -63 -17 -100 -48 -130 -109 -22 -45 -25 -62 -19 -107 8 -69 29 -119
60 -142 l25 -19 -62 -69 c-101 -114 -243 -251 -297 -286 -12 -8 -39 -29 -58
-47 l-37 -31 -32 66 c-18 36 -37 68 -41 71 -17 12 -54 97 -63 145 -5 28 -15
74 -23 101 -9 33 -13 90 -12 170 3 125 16 175 64 255 12 19 28 49 35 65 8 17
29 47 46 69 17 21 31 42 31 45 1 21 76 88 120 107 104 43 138 57 158 60 12 2
63 18 113 35 102 34 127 34 304 5 127 -21 179 -38 288 -93 63 -33 108 -65 162
-118 72 -71 145 -170 145 -198 0 -8 8 -25 18 -38 23 -29 67 -141 76 -191 4
-20 9 -84 12 -143 4 -87 2 -123 -16 -197 -12 -49 -25 -97 -30 -106 -5 -10 -34
-70 -65 -134 -66 -137 -120 -203 -177 -213 -21 -4 -47 -15 -58 -25 -11 -10
-34 -23 -50 -30 -17 -7 -30 -16 -30 -21 0 -5 -6 -6 -14 -3 -8 3 -17 1 -21 -5
-3 -6 -22 -11 -41 -11 -19 0 -34 -3 -34 -8 0 -4 -26 -9 -57 -10 -31 -2 -64 -7
-72 -10 -25 -12 -155 -6 -159 7 -2 6 -15 11 -29 11 -14 0 -36 9 -50 20 -14 11
-32 20 -39 20 -8 0 -14 5 -14 10 0 16 -19 11 -41 -11 -19 -19 -22 -20 -39 -4
-10 9 -24 30 -30 46 -14 32 -31 37 -51 13 -10 -13 -9 -21 6 -47 25 -42 73 -90
84 -83 4 3 16 -3 25 -13 24 -27 100 -45 231 -55 28 -2 71 -7 97 -11 26 -4 52
-3 60 1 7 4 29 7 50 5 22 -1 38 2 38 8 0 6 8 11 18 11 9 0 28 9 42 20 14 11
32 20 40 20 9 0 40 9 70 19 50 18 75 35 164 113 17 15 39 30 48 33 37 13 184
186 173 204 -3 5 2 11 10 15 8 3 15 13 15 22 0 9 6 28 14 42 7 15 19 39 26 53
10 23 17 26 63 26 29 0 55 -5 59 -11 5 -8 8 -7 8 2 0 6 9 12 19 12 11 0 23 5
26 10 5 8 11 7 21 -1 8 -6 14 -9 14 -5 0 3 15 -3 32 -12 21 -12 36 -30 42 -52
6 -19 31 -56 56 -82 25 -26 52 -57 60 -69 12 -16 29 -22 81 -26 61 -5 67 -4
83 18 9 13 20 22 24 19 4 -3 14 10 22 27 10 23 22 33 38 33 44 0 78 27 101 79
11 27 21 53 21 56 0 3 11 30 24 58 13 29 27 63 31 75 6 20 43 68 46 60 6 -19
3 -65 -4 -69 -5 -4 -10 -21 -11 -38 0 -17 -5 -31 -9 -31 -5 0 -5 -4 -2 -10 3
-5 1 -10 -5 -10 -6 0 -8 -4 -5 -10 3 -5 2 -10 -2 -10 -5 0 -10 -12 -11 -27 -1
-15 -10 -38 -19 -52 -10 -14 -25 -43 -34 -63 -10 -20 -26 -41 -37 -47 -14 -7
-19 -18 -16 -40 2 -17 -1 -33 -5 -36 -5 -3 -13 -34 -16 -70 -5 -41 -12 -65
-20 -65 -21 0 -5 -49 26 -79 32 -32 79 -47 79 -25 0 8 9 14 19 14 11 0 28 11
39 25 11 14 25 25 31 25 10 0 13 6 15 40 1 8 14 17 29 20 33 6 71 75 55 100
-12 19 6 70 24 70 8 0 13 15 14 43 0 23 9 59 19 80 12 26 16 49 11 77 -4 26
-2 40 4 40 6 0 8 5 5 10 -3 6 3 10 14 10 15 0 21 6 21 24 0 17 7 26 26 30 19
5 24 11 19 25 -3 10 1 24 10 31 24 20 17 31 -19 28 -19 -1 -34 -7 -33 -12 1
-6 -6 -11 -16 -11 -23 0 -39 -25 -26 -41 7 -9 4 -14 -9 -18 -12 -4 -28 -30
-43 -66 -13 -33 -26 -60 -30 -60 -3 0 -4 -11 -1 -25 3 -16 -1 -27 -11 -31 -9
-3 -19 -18 -22 -32 -3 -15 -21 -58 -40 -96 -25 -53 -31 -74 -24 -88 7 -13 6
-18 -5 -18 -8 0 -13 -8 -11 -17 3 -21 -14 -45 -26 -37 -5 3 -9 -4 -9 -15 0
-12 -4 -21 -10 -21 -5 0 -13 -1 -17 -2 -4 -2 -10 9 -14 24 -4 16 -3 28 4 31 5
1 11 12 12 23 3 34 16 64 26 59 9 -6 13 8 10 34 -2 8 2 10 11 5 10 -6 10 -4
-1 9 -12 15 -11 17 3 17 9 0 16 6 16 13 0 6 15 33 33 59 53 74 106 219 99 268
-1 8 -4 25 -5 37 -2 13 -18 39 -36 58 -26 29 -38 35 -73 35 -48 0 -98 -28
-118 -65 -8 -15 -22 -31 -32 -36 -10 -5 -18 -20 -18 -32 0 -12 -7 -31 -15 -41
-8 -11 -15 -28 -15 -38 0 -24 -16 -23 -23 1 -6 26 -105 61 -171 61 -71 0 -140
-25 -172 -62 -23 -28 -32 -31 -89 -34 -36 -2 -67 1 -69 5 -3 5 -17 7 -31 6
-14 -2 -27 1 -31 6 -3 5 -16 9 -30 9 -13 0 -24 3 -25 8 0 4 -1 69 -2 145 -1
84 -6 140 -13 145 -6 4 -11 26 -13 50 -1 24 -7 55 -13 70 -6 15 -10 31 -9 36
5 21 -32 106 -45 106 -9 0 -13 4 -9 9 3 5 0 22 -7 38 -13 30 -68 106 -81 111
-4 2 -16 21 -27 43 -11 21 -36 53 -56 71 -20 18 -46 43 -58 55 -13 11 -42 31
-65 42 -22 12 -41 26 -41 31 0 6 -9 10 -20 10 -11 0 -20 4 -20 10 0 5 -15 15
-32 23 -82 36 -123 52 -133 53 -5 0 -23 6 -38 12 -16 7 -54 15 -85 18 -78 8
-83 9 -115 22 -16 7 -32 12 -37 12 -11 0 -17 34 -25 135 -4 44 -12 83 -19 87
-7 5 -7 8 0 8 7 0 6 22 -2 73 -6 39 -13 74 -14 77 -2 3 -5 30 -7 60 -1 30 -4
73 -6 95 -1 22 -6 46 -11 53 -4 7 -5 34 -1 58 4 29 2 50 -5 59 -7 8 -9 18 -7
22 3 5 1 28 -5 53 -10 48 -16 85 -17 111 -1 25 -28 31 -34 8z m149 -1470 c35
-39 8 -136 -55 -197 -15 -15 -33 -37 -40 -49 -15 -29 -32 -29 -60 1 -47 50
-40 165 12 217 57 58 107 67 143 28z"/>
<path d="M6775 15550 c6 -18 2 -20 -30 -20 -43 0 -43 -20 0 -32 15 -4 32 -13
36 -20 7 -10 9 -10 9 0 0 18 16 15 37 -7 24 -24 63 -33 81 -19 11 10 16 8 24
-5 5 -10 36 -31 70 -48 75 -38 181 -109 173 -117 -3 -3 18 -17 47 -31 29 -14
58 -35 63 -47 6 -11 39 -47 74 -79 35 -33 93 -98 129 -145 36 -47 87 -106 114
-132 34 -33 46 -51 41 -64 -4 -12 -3 -15 5 -10 7 4 15 1 18 -8 3 -9 12 -16 19
-16 11 0 30 -53 26 -73 -1 -5 12 -26 28 -46 17 -21 28 -41 25 -44 -3 -3 3 -23
14 -44 11 -21 23 -49 25 -63 13 -69 36 -132 52 -144 12 -9 16 -21 13 -39 -3
-15 -2 -27 3 -27 8 0 15 -31 23 -113 3 -27 11 -55 17 -63 8 -10 10 -38 5 -91
-4 -52 -2 -80 6 -90 9 -11 9 -16 -2 -23 -12 -7 -11 -12 4 -28 11 -13 14 -22 7
-27 -6 -3 -11 -30 -11 -60 0 -57 -23 -284 -40 -405 -16 -107 -30 -241 -35
-343 -2 -48 -8 -93 -12 -100 -9 -13 -23 -333 -22 -497 0 -134 23 -281 45 -297
12 -9 15 -21 11 -47 -3 -21 -1 -36 5 -38 6 -2 12 -17 14 -33 5 -64 32 -128 57
-138 8 -3 18 -20 22 -39 10 -43 8 -38 28 -75 10 -18 22 -32 28 -30 6 1 13 -6
14 -16 4 -25 17 -35 22 -19 3 6 11 12 19 12 27 0 16 60 -21 116 -41 61 -46 89
-10 50 32 -35 31 -24 -6 44 -25 47 -29 50 -23 23 3 -18 2 -33 -3 -33 -12 0
-43 65 -43 91 0 11 -11 70 -26 131 -14 61 -21 114 -17 117 13 10 14 31 1 28
-6 -1 -12 13 -14 36 -3 33 0 37 22 37 28 0 26 -17 29 245 4 248 14 472 25 520
9 40 2 54 -28 55 -9 0 -11 7 -6 23 7 24 22 37 42 37 17 0 15 17 -4 24 -10 4
-14 12 -10 23 4 9 1 20 -5 24 -7 4 -9 14 -4 25 5 11 9 30 11 44 1 14 5 41 7
60 6 36 17 303 19 423 0 37 4 70 9 73 13 8 11 44 -2 44 -6 0 -9 9 -6 20 3 11
-2 34 -10 51 -8 16 -12 41 -9 53 3 13 -1 37 -9 52 -8 16 -15 43 -15 59 -1 17
-7 48 -15 70 -9 25 -11 43 -5 49 15 15 12 31 -16 112 -15 41 -32 74 -39 74
-13 0 -75 114 -75 139 0 10 -16 35 -36 56 -30 33 -35 44 -29 71 5 27 -3 45
-55 122 -48 73 -64 89 -80 85 -14 -4 -23 2 -31 21 -7 14 -16 26 -21 26 -14 0
-69 83 -63 97 2 8 -3 16 -13 20 -41 14 -72 28 -72 35 0 4 -32 33 -70 64 -50
42 -69 63 -65 75 4 13 1 16 -13 12 -11 -2 -39 9 -67 26 -27 17 -63 34 -81 37
-18 3 -38 12 -45 20 -6 8 -19 14 -29 14 -13 0 -20 11 -25 38 -4 20 -9 32 -12
26 -5 -15 -98 -1 -120 18 -19 17 -101 58 -116 58 -4 0 -5 -9 -2 -20z"/>
<path d="M6668 14713 c-32 -39 -59 -93 -51 -105 8 -14 9 -19 11 -65 1 -20 13
-45 32 -67 20 -22 27 -37 20 -41 -6 -4 -9 -13 -6 -21 3 -8 1 -14 -4 -14 -5 0
-12 -9 -15 -21 -6 -19 -29 -50 -63 -85 -7 -8 -19 -14 -26 -14 -8 0 -20 -7 -27
-16 -22 -27 -158 -124 -173 -124 -8 0 -16 -5 -18 -12 -3 -7 -36 20 -75 59 -80
81 -128 109 -193 116 -62 6 -104 -8 -134 -44 -60 -71 -4 -180 129 -248 41 -21
67 -26 142 -29 l92 -4 46 -49 c25 -26 45 -54 45 -62 0 -7 11 -24 25 -37 14
-13 25 -29 25 -37 0 -7 9 -18 20 -25 11 -7 20 -18 20 -23 0 -6 18 -29 41 -50
22 -22 50 -57 60 -78 11 -21 36 -52 55 -69 19 -17 34 -35 34 -40 0 -6 11 -21
25 -34 14 -13 25 -28 25 -33 0 -6 25 -36 55 -68 30 -32 63 -78 72 -103 9 -25
27 -55 40 -67 13 -12 23 -29 23 -38 0 -8 11 -20 24 -26 14 -7 22 -17 20 -24
-3 -6 2 -18 11 -25 8 -7 15 -18 15 -24 0 -6 14 -31 30 -56 17 -25 36 -53 43
-64 6 -10 20 -29 30 -41 9 -13 17 -27 17 -32 0 -4 16 -32 35 -60 19 -29 35
-56 35 -61 0 -12 70 -105 87 -115 7 -4 13 -13 13 -18 0 -16 36 -59 44 -52 3 3
6 -1 6 -10 0 -8 25 -49 55 -89 30 -40 55 -76 55 -80 0 -5 9 -8 20 -8 14 0 20
-7 20 -22 1 -27 43 -78 65 -78 9 0 15 -9 15 -25 0 -14 7 -28 15 -31 8 -4 15
-11 15 -18 0 -6 16 -26 35 -45 19 -19 35 -39 35 -45 0 -7 10 -24 23 -40 22
-27 98 -163 160 -283 21 -42 37 -63 49 -63 10 0 17 -3 17 -7 -3 -21 3 -33 16
-33 9 0 20 -11 25 -25 10 -26 34 -32 59 -16 12 8 10 16 -14 48 -16 21 -31 40
-34 43 -4 3 -18 28 -32 55 -55 108 -103 192 -128 225 -15 19 -35 49 -46 65
-10 17 -25 36 -32 43 -7 7 -13 19 -13 25 0 7 -9 18 -20 25 -11 7 -20 17 -20
23 0 5 -18 34 -40 64 -21 29 -63 93 -92 142 -61 101 -59 99 -115 182 -23 35
-51 70 -61 80 -38 34 -77 96 -151 240 -66 129 -112 199 -171 261 -20 20 -57
80 -87 139 -12 26 -61 94 -108 151 -48 58 -98 120 -113 139 -15 19 -38 47 -52
62 -14 15 -45 55 -70 89 -25 34 -63 85 -85 113 -94 123 -120 167 -96 167 15 0
101 82 131 124 16 23 47 60 68 83 22 23 45 51 52 62 6 12 15 21 21 21 11 0 64
52 72 72 4 10 8 10 14 1 4 -6 28 -14 53 -17 25 -3 62 -8 83 -12 57 -10 152 13
167 41 7 13 10 29 8 36 -2 7 28 39 69 71 61 49 103 99 103 123 0 5 -18 4 -77
-5 -2 0 -2 -3 -2 -7 4 -25 -3 -43 -17 -43 -9 0 -28 -13 -43 -29 -14 -15 -36
-31 -49 -35 -12 -4 -22 -11 -22 -16 0 -12 -28 -21 -80 -26 -67 -7 -71 -7 -121
-6 -46 2 -47 3 -51 38 -2 19 -1 37 2 39 14 8 -4 135 -19 135 -4 0 -13 11 -19
25 -9 20 -19 25 -50 25 -25 0 -44 -6 -54 -17z"/>
<path d="M7897 14653 c-15 -14 -5 -39 43 -105 28 -38 50 -77 50 -87 0 -10 7
-32 15 -47 8 -16 15 -39 15 -51 0 -13 5 -23 10 -23 15 0 12 -19 -6 -37 -8 -9
-13 -22 -10 -30 3 -8 6 -36 6 -61 0 -58 25 -94 57 -86 29 8 20 24 -10 17 -15
-3 -12 1 10 12 33 17 36 35 6 35 -13 0 -13 3 -3 15 10 12 10 21 1 41 -14 31
-14 34 2 34 18 0 12 118 -8 166 -8 20 -15 45 -15 55 0 10 -8 26 -18 36 -10 10
-31 36 -47 58 -16 22 -36 46 -44 53 -16 13 -44 16 -54 5z"/>
<path d="M17960 13910 c8 -5 11 -12 7 -16 -4 -4 -2 -13 4 -21 9 -10 8 -18 -6
-33 -17 -19 -17 -20 1 -20 16 0 17 -2 4 -10 -14 -9 -7 -15 14 -11 5 1 4 -4 -2
-12 -7 -8 -9 -17 -5 -20 3 -4 -5 -7 -18 -8 l-24 0 23 -10 c28 -11 20 -21 -48
-64 -25 -15 -47 -29 -49 -31 -2 -2 7 -12 19 -22 33 -26 34 -55 4 -83 -21 -20
-27 -21 -35 -9 -8 13 -10 13 -19 0 -7 -11 -4 -17 10 -22 10 -4 24 -17 30 -29
11 -20 10 -21 -10 -16 -16 4 -30 -1 -46 -16 l-23 -22 22 -23 c21 -22 21 -24 5
-36 -10 -7 -18 -18 -18 -25 0 -6 -4 -11 -10 -11 -5 0 -10 -7 -10 -15 0 -8 5
-15 11 -15 6 0 3 -7 -5 -16 -22 -21 -20 -27 6 -18 20 6 21 5 10 -9 -10 -12
-11 -21 -3 -36 6 -11 11 -31 11 -45 0 -20 5 -26 22 -26 17 0 19 3 10 12 -18
18 -14 30 7 23 10 -3 30 -1 44 4 19 8 28 6 38 -5 9 -11 15 -11 25 -3 8 6 11
16 8 21 -5 8 22 37 36 38 4 0 4 -16 2 -35 -10 -82 23 -125 97 -125 83 0 117
43 188 239 26 71 33 105 29 132 -4 26 -1 40 9 49 8 7 13 22 11 34 -2 11 1 27
6 34 6 6 7 12 2 12 -5 0 -3 4 4 9 13 8 7 61 -7 61 -4 0 -6 12 -5 28 1 15 3 27
4 27 1 0 3 13 4 29 1 18 -7 42 -21 60 -13 17 -26 39 -29 49 -5 13 -18 17 -59
17 -41 0 -55 -4 -61 -17 -4 -10 -6 -21 -6 -25 1 -5 -5 -8 -13 -8 -8 0 -15 7
-15 15 0 28 -28 4 -46 -41 -10 -24 -26 -47 -36 -50 -21 -6 -42 -40 -33 -54 8
-13 -21 -96 -45 -129 -10 -16 -19 -47 -21 -76 -1 -28 -7 -56 -12 -63 -5 -7 -7
-15 -4 -18 3 -4 0 -13 -8 -20 -8 -8 -11 -22 -8 -31 5 -11 3 -14 -6 -8 -10 5
-11 2 -7 -13 7 -22 -16 -42 -49 -42 -13 0 -16 9 -13 48 2 33 7 46 17 44 8 -2
11 3 8 13 -4 8 -2 15 4 15 6 0 8 9 4 20 -4 12 -2 20 5 20 12 0 61 104 59 123
-3 25 2 37 21 55 24 22 64 137 57 164 -3 10 -1 18 5 18 5 0 1 11 -10 25 -12
15 -18 36 -16 55 3 28 1 30 -29 30 -24 0 -28 -3 -17 -10z m215 -170 c4 -7 12
-7 25 0 11 6 21 6 24 1 3 -5 16 -7 29 -4 21 4 22 4 3 -11 -19 -16 -19 -16 1
-16 12 0 25 -5 29 -11 4 -8 9 -7 15 2 15 25 19 2 5 -26 -8 -16 -12 -40 -10
-54 4 -19 -2 -34 -21 -55 -19 -20 -23 -32 -16 -39 17 -17 13 -27 -10 -27 -16
0 -19 4 -14 21 4 13 2 25 -5 29 -9 5 -8 11 2 21 7 8 13 36 13 64 0 48 -1 49
-35 57 -19 4 -40 6 -46 4 -6 -2 -25 -43 -43 -90 -18 -47 -36 -86 -39 -86 -11
1 -43 70 -32 70 6 0 10 7 10 16 0 10 6 14 15 10 15 -5 19 4 15 37 -2 23 26 84
43 90 20 9 35 8 42 -3z"/>
<path d="M1103 11733 c-52 -20 -71 -35 -116 -91 -30 -37 -58 -78 -62 -92 -4
-14 -13 -35 -21 -47 -29 -46 -164 -442 -164 -482 0 -9 -4 -21 -9 -26 -5 -6
-11 -35 -15 -66 -5 -47 -3 -58 10 -63 13 -5 16 -16 12 -56 -4 -38 -2 -50 8
-50 17 0 18 -17 2 -24 -9 -3 -7 -10 8 -23 11 -10 19 -24 16 -31 -2 -7 5 -12
18 -12 16 0 21 -5 18 -22 -2 -17 3 -24 20 -26 16 -3 22 -10 22 -28 0 -18 6
-24 23 -25 12 -1 40 -3 62 -4 22 -2 45 2 52 7 7 5 16 7 21 4 5 -3 21 2 37 10
16 8 35 12 42 10 8 -3 21 3 30 14 13 14 20 16 30 9 9 -8 14 -7 19 5 3 9 12 15
19 14 8 -2 14 0 14 5 1 18 32 64 58 88 31 28 64 120 45 127 -6 2 -8 12 -5 22
4 14 0 20 -12 20 -12 0 -15 5 -11 16 3 9 6 18 6 20 0 3 9 0 21 -6 30 -17 51 3
38 37 -5 14 -5 31 0 40 4 9 6 24 4 34 -3 11 0 19 5 19 14 0 62 81 62 103 0 8
-5 17 -11 19 -6 2 0 25 15 58 14 30 26 67 26 81 0 14 9 34 20 44 11 10 20 24
20 32 0 7 4 13 9 13 5 0 15 15 21 34 6 19 19 40 28 48 15 11 16 11 4 -4 -10
-12 -10 -17 -1 -20 8 -3 9 -9 5 -17 -5 -7 -9 -31 -10 -52 -2 -23 -9 -44 -19
-52 -19 -14 -33 -66 -40 -153 -1 -11 -8 -28 -16 -37 -12 -15 -11 -17 8 -17 15
0 21 -6 21 -24 0 -25 -22 -50 -34 -38 -4 4 -12 -1 -17 -11 -6 -9 -17 -17 -24
-17 -17 0 -20 -17 -4 -22 7 -2 6 -23 -5 -65 -9 -33 -16 -71 -16 -83 0 -13 -8
-24 -20 -27 -23 -6 -25 -14 -8 -31 10 -10 8 -14 -10 -18 -24 -7 -27 -15 -12
-30 13 -13 2 -44 -15 -44 -17 0 -45 -83 -45 -134 0 -46 28 -113 56 -137 10 -9
33 -19 49 -22 17 -3 41 -9 55 -12 25 -6 59 4 93 27 14 11 19 10 26 0 6 -10 16
-4 38 25 41 52 48 67 69 155 11 43 22 78 27 78 4 0 7 7 7 15 0 8 -4 15 -10 15
-5 0 -10 5 -10 10 0 6 7 10 14 10 13 0 13 5 0 36 -15 35 -14 38 7 60 12 13 30
24 38 24 13 0 13 2 2 9 -7 5 -14 19 -15 32 -1 15 -8 25 -20 27 -11 2 -16 0
-12 -7 4 -5 -3 -15 -14 -21 -12 -6 -20 -19 -19 -28 3 -26 -11 -51 -26 -46 -7
3 -23 -4 -36 -17 l-22 -22 24 -18 24 -19 -24 0 c-19 0 -21 -3 -11 -14 6 -8 18
-12 26 -9 8 3 14 1 14 -5 0 -5 -7 -13 -16 -16 -9 -4 -14 -13 -10 -21 4 -11 -1
-15 -18 -15 -13 0 -27 -7 -30 -16 -4 -11 -2 -15 8 -11 8 3 22 -1 33 -8 17 -13
17 -14 1 -15 -12 0 -18 -8 -18 -23 0 -26 -49 -52 -82 -44 -26 7 -45 -12 -50
-49 -3 -26 -6 -29 -33 -25 -43 5 -45 7 -45 62 0 46 11 62 25 39 3 -5 13 -10
21 -10 8 0 13 4 10 9 -4 5 0 12 6 14 7 3 3 6 -10 6 -27 1 -72 43 -72 67 0 13
6 15 29 11 17 -4 36 -1 47 7 15 12 16 16 5 30 -12 14 -10 16 13 16 36 0 34 31
-5 64 l-31 26 31 26 c17 14 31 32 31 39 0 8 9 16 19 20 10 3 21 14 24 25 4 14
-1 20 -22 23 l-26 3 28 12 c15 6 27 16 27 21 0 5 8 12 18 15 9 3 0 3 -20 0
-23 -3 -38 -1 -38 6 0 5 7 10 15 10 9 0 24 13 33 30 11 19 29 32 50 37 37 9
40 30 5 25 -25 -3 -27 0 -14 26 5 9 14 30 20 45 9 22 16 27 38 25 24 -3 28 1
29 22 2 45 4 50 24 70 15 15 18 25 11 43 -7 18 -5 28 7 41 15 15 15 16 -1 16
-19 0 -23 15 -7 25 6 3 10 1 10 -5 0 -6 4 -9 8 -6 11 6 -2 106 -16 132 -6 11
-27 25 -47 32 -30 11 -39 11 -52 0 -14 -11 -16 -10 -11 14 5 27 4 28 -32 22
-30 -5 -42 -2 -59 15 -29 29 -47 22 -99 -39 -32 -37 -42 -56 -37 -70 4 -12 2
-20 -5 -20 -6 0 -8 -5 -4 -11 3 -6 0 -16 -7 -21 -11 -7 -11 -11 -1 -15 6 -2
12 -17 12 -33 0 -15 7 -33 15 -40 9 -7 14 -18 12 -24 -2 -6 3 -17 12 -23 13
-11 10 -12 -18 -6 -32 6 -33 5 -21 -17 10 -18 9 -25 -4 -39 -15 -15 -17 -14
-22 7 -4 12 -13 22 -21 22 -11 0 -11 -4 -2 -21 7 -14 8 -24 1 -31 -7 -7 -7
-16 1 -29 9 -14 8 -29 -1 -64 -7 -25 -12 -54 -12 -64 0 -10 -19 -34 -43 -54
-33 -27 -47 -33 -60 -26 -13 8 -17 6 -17 -6 0 -8 -4 -15 -9 -15 -5 0 7 39 28
88 20 48 46 115 56 150 10 34 22 62 27 62 4 0 8 9 8 20 0 10 9 42 20 70 30 75
37 155 16 176 -10 10 -14 23 -10 33 18 44 -8 84 -84 126 -52 29 -41 29 -119
-2z m-158 -705 c-5 -35 -3 -47 15 -65 21 -23 33 -27 105 -37 28 -4 44 -1 57
11 17 15 18 15 18 -9 0 -14 -7 -31 -15 -38 -22 -18 -18 -39 10 -52 28 -13 23
-32 -7 -25 -14 4 -18 2 -14 -9 3 -9 -1 -14 -13 -14 -24 0 -35 -28 -19 -47 9
-11 9 -16 -3 -23 -9 -7 -15 -5 -17 5 -4 18 -33 20 -29 3 1 -7 -7 -13 -18 -12
-15 1 -20 -6 -21 -27 -1 -16 3 -26 7 -23 5 3 9 14 9 25 0 12 4 17 11 14 5 -4
9 -19 7 -33 -2 -21 1 -27 15 -26 9 1 17 -4 17 -12 0 -10 -12 -12 -52 -7 -29 3
-55 9 -58 12 -3 4 -18 7 -34 8 -44 2 -59 25 -61 90 -2 50 -5 58 -23 61 -21 3
-36 27 -26 43 3 5 18 9 33 9 32 0 45 13 55 53 3 15 11 27 17 27 6 0 8 9 4 20
-3 11 -1 37 6 57 6 21 13 44 15 51 8 30 15 8 9 -30z"/>
<path d="M16437 9739 c-27 -6 -78 -28 -114 -49 -36 -22 -69 -40 -73 -40 -10 0
-98 -97 -119 -132 -13 -20 -21 -24 -31 -17 -48 30 -175 -4 -249 -67 -36 -30
-81 -114 -81 -151 0 -22 -2 -22 -147 -23 -141 -1 -206 -3 -228 -10 -5 -1 -14
-1 -20 0 -33 9 -351 7 -368 -2 -12 -6 -22 -6 -26 -1 -9 14 -273 14 -268 0 2
-7 20 -13 41 -14 20 0 46 -9 57 -19 17 -15 19 -15 19 -1 0 24 21 32 36 13 9
-13 13 -14 16 -4 4 10 8 11 20 1 8 -7 18 -10 22 -6 8 9 99 4 106 -6 3 -3 32
-7 65 -8 43 -1 65 3 78 15 15 13 20 14 26 3 6 -9 11 -10 15 -2 12 19 47 13 53
-9 5 -20 27 -27 37 -12 3 5 19 7 35 6 21 -1 31 3 31 12 0 8 5 14 11 14 5 0 7
-6 3 -12 -6 -10 -5 -10 7 -1 18 14 69 12 69 -3 0 -15 81 -24 98 -11 9 7 17 6
24 -1 15 -15 117 -16 153 -2 23 9 28 7 43 -21 59 -108 100 -141 199 -159 59
-12 65 -15 83 -51 24 -46 109 -134 170 -176 153 -104 344 -126 486 -57 82 39
157 93 189 135 17 22 36 46 43 54 6 7 12 18 12 23 0 5 6 15 13 21 11 8 37 73
42 101 0 3 4 10 8 17 4 6 10 54 13 105 5 75 2 106 -14 163 -46 165 -132 275
-267 340 -98 49 -211 64 -318 44z m183 -53 c108 -20 159 -46 231 -117 42 -42
72 -84 97 -137 37 -76 37 -78 37 -207 l0 -130 -43 -80 c-80 -148 -182 -231
-322 -262 -40 -9 -177 -1 -216 12 -110 37 -226 122 -274 200 -24 40 -25 45 -2
45 43 1 73 52 67 116 -14 133 -14 134 9 132 11 0 44 2 71 6 28 4 77 9 110 12
33 2 85 13 115 23 50 18 55 18 67 3 16 -22 16 -32 -1 -32 -8 0 -23 -19 -34
-42 -36 -75 -53 -88 -119 -83 -32 2 -67 6 -78 8 -11 3 -26 0 -32 -6 -21 -16
-14 -36 15 -43 15 -3 34 -8 42 -11 13 -4 127 -7 156 -4 6 0 19 20 30 44 10 23
30 54 43 69 19 22 27 25 43 17 11 -6 27 -8 35 -5 9 4 21 2 27 -3 22 -18 56 26
56 71 0 25 -44 53 -64 41 -6 -4 -22 -7 -36 -7 -30 0 -33 22 -5 38 53 30 68 83
35 116 -21 21 -70 28 -70 10 0 -5 -6 -10 -14 -10 -8 0 -22 -20 -32 -45 -17
-39 -25 -46 -74 -64 -30 -10 -91 -22 -135 -25 -44 -3 -97 -11 -118 -17 -20 -5
-42 -7 -47 -4 -6 3 -10 30 -10 60 0 30 -4 57 -10 60 -18 11 -11 36 22 79 108
142 261 204 428 172z"/>
<path d="M5257 9498 c-12 -13 -27 -18 -43 -15 -21 4 -23 1 -17 -21 5 -22 3
-24 -16 -19 -14 3 -21 1 -21 -9 0 -8 -3 -13 -7 -13 -20 3 -34 -2 -28 -11 3 -5
-1 -10 -10 -10 -9 0 -23 -7 -32 -15 -12 -13 -18 -13 -32 -3 -15 12 -15 11 -1
-6 14 -18 13 -19 -6 -14 -14 4 -26 -1 -34 -12 -7 -10 -19 -16 -27 -13 -7 3
-13 0 -13 -6 0 -6 -11 -17 -25 -23 -16 -7 -25 -19 -25 -35 0 -13 -6 -23 -13
-23 -8 0 -22 -9 -32 -20 -12 -14 -22 -17 -34 -11 -19 11 -55 -5 -46 -20 4 -5
-2 -9 -12 -9 -24 -1 -51 -22 -46 -38 3 -6 10 -9 16 -6 7 4 3 -3 -8 -15 -11
-11 -34 -22 -50 -23 -17 -1 -37 -7 -45 -14 -8 -6 -25 -15 -37 -18 -13 -4 -22
-12 -20 -18 1 -6 -13 -16 -32 -22 -19 -5 -55 -29 -80 -53 -29 -27 -51 -41 -61
-37 -63 25 -136 5 -216 -61 -23 -19 -50 -35 -59 -35 -22 0 -110 -84 -125 -119
-12 -29 -35 -39 -130 -57 -138 -25 -266 -166 -269 -295 -1 -14 -4 -29 -8 -33
-4 -3 -8 -13 -10 -21 -4 -19 -8 -36 -15 -55 -18 -53 -49 -164 -59 -215 -14
-69 -9 -100 22 -139 20 -26 27 -28 74 -24 104 9 351 151 449 260 78 86 146
229 146 306 0 17 27 54 88 119 48 52 99 111 113 133 26 39 55 142 45 159 -6 9
56 61 73 61 6 0 11 4 11 9 0 5 28 27 63 50 35 22 76 54 92 71 16 16 35 30 42
30 7 0 13 7 13 15 0 15 45 40 63 36 5 -1 11 8 14 19 3 11 9 18 13 15 4 -3 11
2 14 11 3 9 12 14 20 11 8 -3 16 2 19 14 3 11 17 22 35 25 17 3 47 21 68 40
20 19 40 34 45 34 12 0 29 36 21 45 -4 4 3 5 14 1 15 -4 24 -2 28 9 3 8 15 15
26 15 11 0 20 5 20 10 0 6 7 10 15 10 8 0 22 11 31 25 9 14 19 23 22 21 9 -9
40 13 62 44 20 28 20 30 3 29 -10 0 -26 -10 -36 -21z m-1148 -912 l63 -63 -7
-63 c-9 -82 -27 -132 -76 -206 -54 -84 -158 -177 -244 -219 -22 -11 -56 -29
-75 -41 -55 -32 -154 -66 -173 -58 -40 15 -33 97 22 279 80 265 85 278 126
322 23 24 46 43 53 43 7 0 12 4 12 8 0 13 45 31 94 37 25 4 58 10 73 15 55 16
68 11 132 -54z"/>
<path d="M3836 8512 c-20 -12 -30 -27 -32 -50 -3 -29 -1 -32 22 -32 17 0 28 7
31 20 3 11 11 20 18 20 26 0 21 -26 -12 -64 -36 -43 -43 -82 -15 -88 25 -6 80
32 93 65 11 26 13 27 28 13 14 -14 13 -18 -5 -43 -12 -16 -39 -38 -62 -51 -45
-25 -53 -45 -23 -61 32 -18 115 46 140 107 17 41 0 87 -35 96 -13 4 -29 16
-35 29 -14 28 -49 57 -69 57 -8 0 -28 -8 -44 -18z"/>
<path d="M7426 9364 c-4 -10 -13 -13 -24 -10 -15 5 -18 1 -18 -16 1 -17 -4
-22 -18 -20 -11 2 -15 -1 -11 -7 3 -6 -1 -11 -10 -11 -8 0 -18 -7 -21 -15 -5
-12 -9 -13 -21 -4 -8 7 -13 8 -11 3 2 -5 -1 -10 -5 -11 -16 -3 -34 -36 -30
-54 5 -17 -22 -33 -48 -27 -7 2 -13 -1 -14 -7 -1 -19 -16 -35 -28 -29 -7 3 -3
-1 7 -10 18 -15 17 -16 -28 -36 -26 -11 -45 -24 -42 -29 3 -5 -3 -11 -14 -14
-11 -3 -27 -18 -36 -34 -16 -26 -21 -28 -79 -28 -50 0 -69 -5 -103 -27 -23
-16 -49 -28 -57 -28 -17 0 -54 -71 -55 -103 0 -15 -25 -44 -65 -74 -5 -5 -32
-19 -58 -32 -45 -21 -57 -23 -145 -17 -161 12 -235 9 -245 -9 -4 -8 -13 -13
-18 -9 -5 3 -17 0 -26 -7 -15 -13 -39 -28 -79 -49 -21 -12 -61 -70 -48 -70 3
0 1 -7 -6 -15 -21 -26 -11 -160 16 -202 8 -12 14 -31 14 -41 0 -10 4 -22 9
-27 5 -6 14 -27 21 -48 6 -20 16 -35 21 -32 8 5 14 -16 10 -37 0 -5 6 -8 14
-8 8 0 15 -4 15 -9 0 -5 17 -27 39 -48 21 -21 44 -49 50 -61 7 -13 15 -21 18
-18 3 2 17 -6 31 -20 15 -13 35 -24 44 -24 10 0 18 -7 18 -15 0 -8 7 -15 15
-15 9 0 29 -10 45 -21 16 -12 36 -19 44 -16 9 4 16 1 16 -5 0 -7 13 -9 35 -5
22 4 38 1 42 -6 8 -12 23 -16 76 -19 15 0 30 -5 33 -10 3 -4 14 -3 26 3 11 6
29 9 39 6 12 -3 19 0 19 9 0 8 10 14 23 14 25 0 87 35 87 49 0 6 11 21 25 35
14 14 25 34 25 46 0 11 3 20 8 20 11 0 10 70 -2 70 -6 0 -5 4 3 9 10 6 10 13
3 28 -6 11 -13 42 -16 69 -3 27 -8 60 -11 74 -3 14 -8 43 -10 65 -2 22 -8 61
-13 88 -5 26 -6 47 -2 47 4 0 7 10 7 23 0 31 14 77 23 77 5 0 12 9 15 20 3 11
15 20 25 20 24 0 83 60 106 107 13 29 15 53 11 117 l-5 80 51 60 c29 33 52 62
52 65 1 17 28 51 40 51 7 0 17 9 20 20 4 11 11 18 16 15 5 -4 9 1 9 9 0 9 6
16 13 16 19 0 57 43 57 64 0 9 4 15 9 12 5 -3 12 1 15 9 3 8 11 14 17 13 7 -2
18 8 26 22 7 14 13 21 13 16 0 -17 24 13 27 34 3 24 -12 27 -21 4z m-578 -631
c25 -21 50 -41 55 -44 8 -5 -14 -51 -33 -69 -24 -24 -15 -285 15 -410 3 -14 6
-53 7 -87 1 -63 -15 -102 -51 -130 -59 -45 -163 -62 -232 -37 -23 7 -51 14
-62 14 -69 0 -207 104 -317 239 -46 57 -44 53 -80 162 -44 131 -40 178 22 234
61 54 127 75 204 63 32 -4 99 -8 148 -8 99 0 141 14 218 75 24 19 47 35 52 35
5 0 29 -17 54 -37z"/>
<path d="M8837 7680 c-54 -9 -194 -82 -215 -111 -7 -11 -17 -17 -22 -14 -4 3
-10 -2 -14 -10 -3 -8 -11 -15 -18 -15 -8 0 -43 -29 -78 -65 -35 -36 -70 -65
-77 -65 -8 0 -13 -12 -13 -30 0 -34 38 -80 65 -80 13 0 14 -4 5 -20 -7 -14 -7
-20 0 -20 5 0 10 -11 10 -25 0 -14 9 -45 20 -67 11 -23 20 -48 20 -55 0 -7 4
-13 8 -13 15 0 62 25 62 33 0 5 4 5 10 2 5 -3 23 1 41 10 17 9 37 14 45 11 8
-3 14 -2 14 2 0 4 19 26 42 50 28 30 44 40 52 32 16 -16 26 -12 36 14 5 15 20
27 39 31 30 6 39 19 22 29 -4 3 -6 17 -3 31 4 22 1 25 -21 23 -17 -2 -23 -7
-19 -16 4 -11 0 -13 -16 -7 -22 6 -27 -1 -23 -32 1 -7 -5 -13 -14 -13 -9 0
-36 -11 -61 -25 -25 -14 -49 -25 -54 -25 -6 0 -20 -10 -32 -22 -14 -14 -23
-17 -26 -10 -3 9 -9 9 -24 1 -11 -6 -21 -9 -23 -7 -7 7 8 57 16 52 8 -5 13 10
10 29 -1 4 4 7 11 6 24 -3 36 1 50 14 7 8 40 20 73 28 39 10 60 20 60 29 0 8
7 15 15 15 8 0 19 6 23 13 4 6 16 12 27 12 20 0 117 89 112 103 -1 5 2 15 8
22 8 10 8 15 -1 20 -8 6 -8 9 1 15 17 11 -4 71 -34 97 -32 28 -52 32 -109 23z"/>
<path d="M13850 6293 c-39 -14 -60 -46 -60 -90 0 -41 -2 -44 -22 -37 -13 4
-27 12 -33 19 -5 7 -38 18 -73 24 -66 13 -83 8 -106 -29 -17 -26 -17 -129 -1
-160 8 -16 15 -37 15 -47 0 -10 12 -36 26 -56 25 -37 26 -63 2 -39 -7 7 -16
12 -20 12 -10 0 2 -53 13 -61 5 -3 8 -23 6 -45 -2 -32 1 -39 16 -36 10 2 17
-3 17 -14 0 -10 3 -14 7 -11 11 12 32 -27 22 -40 -7 -7 -6 -13 0 -17 5 -4 12
-2 16 4 3 5 11 10 17 10 7 0 7 -5 -1 -14 -9 -10 -8 -15 3 -19 10 -4 14 -20 12
-57 -2 -28 1 -53 6 -56 4 -3 8 -14 8 -25 0 -22 0 -22 35 -9 33 13 69 -9 84
-51 13 -38 13 -45 -5 -41 -18 4 -18 -5 0 -24 9 -9 17 -10 21 -4 8 13 65 13 65
1 0 -6 -4 -12 -9 -15 -14 -9 -1 -45 14 -40 7 3 15 -4 18 -15 3 -13 13 -21 26
-21 23 0 44 31 35 53 -3 9 3 16 15 20 11 2 27 22 35 42 20 47 20 59 0 51 -11
-4 -14 0 -12 17 2 16 -2 21 -14 19 -12 -2 -15 3 -11 18 3 11 0 26 -6 34 -8 9
-8 21 -2 39 7 18 7 28 0 33 -6 3 -13 -4 -16 -16 -6 -21 -7 -20 -35 11 -21 22
-26 35 -19 42 17 17 13 27 -14 37 -15 6 -25 17 -25 30 0 11 -7 20 -15 20 -8 0
-15 7 -15 15 0 9 -6 12 -17 9 -14 -5 -15 -4 -4 4 22 16 -27 69 -62 68 -15 -1
-27 2 -27 6 0 4 6 8 13 9 6 0 2 4 -11 10 -18 7 -21 13 -14 25 12 22 -47 84
-105 109 -41 18 -56 35 -31 35 9 0 9 3 0 12 -16 16 -15 28 3 28 14 0 14 3 1
29 -17 32 -11 43 31 55 17 5 26 1 39 -19 12 -19 14 -29 6 -37 -17 -17 54 -114
80 -110 16 3 19 0 13 -17 -4 -13 -2 -21 5 -21 7 0 10 -6 7 -14 -7 -18 20 -42
44 -38 21 4 36 -17 19 -28 -7 -4 -9 -13 -5 -20 6 -9 9 -9 16 1 7 11 9 10 9 -4
0 -17 1 -17 16 -3 8 9 21 13 27 9 6 -4 8 0 4 10 -3 10 -2 17 3 17 6 0 10 -8
10 -19 0 -10 17 -36 39 -57 22 -23 41 -54 46 -74 11 -53 21 -65 51 -65 22 0
29 -6 34 -25 8 -36 47 -37 92 -3 33 26 37 34 44 93 11 97 10 130 -6 140 -8 5
-11 12 -7 16 4 4 -2 17 -13 29 -26 27 -60 94 -60 116 0 9 -7 19 -15 23 -8 3
-12 12 -9 21 3 8 1 15 -6 15 -6 0 -9 4 -6 8 7 11 -51 91 -101 139 -52 50 -125
74 -173 56z m-129 -527 c1 5 4 -2 8 -16 4 -14 13 -24 20 -22 6 1 15 -6 18 -15
4 -10 20 -28 35 -41 15 -13 28 -32 28 -41 0 -17 32 -44 83 -70 15 -8 27 -21
27 -30 0 -14 1 -14 10 -1 8 13 11 13 26 -1 12 -13 14 -21 5 -37 -13 -25 -14
-45 -2 -38 11 7 21 -17 21 -49 0 -17 -6 -22 -25 -22 -15 0 -24 5 -23 12 3 11
-58 79 -139 158 -13 12 -23 29 -23 38 0 9 -13 34 -29 56 -16 22 -39 59 -50 82
-12 22 -26 41 -32 41 -6 0 -7 5 -4 11 5 7 14 4 26 -7 10 -9 19 -13 20 -8z"/>
<path d="M7835 5812 c-50 -19 -131 -101 -169 -171 -26 -48 -29 -65 -30 -145
-1 -78 2 -98 24 -139 30 -59 57 -88 118 -124 39 -22 59 -27 112 -27 67 0 110
17 295 116 77 41 142 53 151 26 8 -26 113 -25 171 1 51 23 63 45 63 110 0 37
-6 56 -24 78 -13 15 -26 38 -30 50 -9 27 -67 41 -107 26 -27 -10 -89 -4 -134
13 -11 4 -57 38 -102 74 -45 36 -106 78 -135 93 -65 33 -147 41 -203 19z m134
-48 c46 -13 200 -117 236 -158 21 -24 129 -61 147 -50 9 6 11 -17 2 -40 -5
-13 -20 -14 -97 -10 -57 4 -118 1 -160 -7 -37 -7 -70 -9 -73 -6 -4 3 -9 27
-12 53 -4 37 -1 49 12 56 9 5 16 17 16 27 0 28 -22 41 -56 32 -23 -6 -30 -14
-32 -39 -3 -26 -8 -32 -28 -32 -34 0 -54 -48 -27 -68 10 -7 30 -12 46 -9 44 6
32 -20 -12 -27 -47 -7 -71 -28 -71 -61 0 -63 81 -72 133 -14 24 26 37 32 85
36 31 2 75 6 97 8 22 2 68 1 103 -2 48 -4 62 -9 62 -22 0 -12 -11 -16 -48 -18
-50 -2 -85 -15 -167 -62 -174 -101 -240 -118 -316 -82 -51 24 -98 82 -119 145
-28 87 12 230 82 293 17 15 39 36 49 46 11 9 19 15 19 12 0 -4 8 -1 18 4 24
15 50 13 111 -5z"/>
</g>
</svg>
